<?xml version="1.0" encoding="utf-8" standalone="no"?>
<!DOCTYPE svg PUBLIC "-//W3C//DTD SVG 1.1//EN"
  "http://www.w3.org/Graphics/SVG/1.1/DTD/svg11.dtd">
<svg height="345.6pt" version="1.1" viewBox="0 0 460.8 345.6" width="460.8pt" xmlns="http://www.w3.org/2000/svg" xmlns:xlink="http://www.w3.org/1999/xlink">
 <metadata>
  <rdf:RDF xmlns:cc="http://creativecommons.org/ns#" xmlns:dc="http://purl.org/dc/elements/1.1/" xmlns:rdf="http://www.w3.org/1999/02/22-rdf-syntax-ns#">
   <cc:Work>
    <dc:type rdf:resource="http://purl.org/dc/dcmitype/StillImage"/>
    <dc:date>2022-01-17T11:47:28.054971</dc:date>
    <dc:format>image/svg+xml</dc:format>
    <dc:creator>
     <cc:Agent>
      <dc:title>Matplotlib v3.4.3, https://matplotlib.org/</dc:title>
     </cc:Agent>
    </dc:creator>
   </cc:Work>
  </rdf:RDF>
 </metadata>
 <defs>
  <style type="text/css">*{stroke-linecap:butt;stroke-linejoin:round;}</style>
 </defs>
 <g id="figure_1">
  <g id="patch_1">
   <path d="M 0 345.6 
L 460.8 345.6 
L 460.8 0 
L 0 0 
z
" style="fill:#ffffff;"/>
  </g>
  <g id="axes_1">
   <g id="QuadMesh_1">
    <path clip-path="url(#pe61537cadd)" d="M 57.6 41.472 
L 93.312 41.472 
L 93.312 68.0832 
L 57.6 68.0832 
L 57.6 41.472 
" style="fill:#bbbbbb;"/>
    <path clip-path="url(#pe61537cadd)" d="M 93.312 41.472 
L 129.024 41.472 
L 129.024 68.0832 
L 93.312 68.0832 
L 93.312 41.472 
" style="fill:#a9a9a9;"/>
    <path clip-path="url(#pe61537cadd)" d="M 129.024 41.472 
L 164.736 41.472 
L 164.736 68.0832 
L 129.024 68.0832 
L 129.024 41.472 
" style="fill:#a7a7a7;"/>
    <path clip-path="url(#pe61537cadd)" d="M 164.736 41.472 
L 200.448 41.472 
L 200.448 68.0832 
L 164.736 68.0832 
L 164.736 41.472 
" style="fill:#888888;"/>
    <path clip-path="url(#pe61537cadd)" d="M 200.448 41.472 
L 236.16 41.472 
L 236.16 68.0832 
L 200.448 68.0832 
L 200.448 41.472 
" style="fill:#666666;"/>
    <path clip-path="url(#pe61537cadd)" d="M 236.16 41.472 
L 271.872 41.472 
L 271.872 68.0832 
L 236.16 68.0832 
L 236.16 41.472 
" style="fill:#666666;"/>
    <path clip-path="url(#pe61537cadd)" d="M 271.872 41.472 
L 307.584 41.472 
L 307.584 68.0832 
L 271.872 68.0832 
L 271.872 41.472 
" style="fill:#555555;"/>
    <path clip-path="url(#pe61537cadd)" d="M 307.584 41.472 
L 343.296 41.472 
L 343.296 68.0832 
L 307.584 68.0832 
L 307.584 41.472 
" style="fill:#030303;"/>
    <path clip-path="url(#pe61537cadd)" d="M 343.296 41.472 
L 379.008 41.472 
L 379.008 68.0832 
L 343.296 68.0832 
L 343.296 41.472 
" style="fill:#060606;"/>
    <path clip-path="url(#pe61537cadd)" d="M 379.008 41.472 
L 414.72 41.472 
L 414.72 68.0832 
L 379.008 68.0832 
L 379.008 41.472 
" style="fill:#2b2b2b;"/>
    <path clip-path="url(#pe61537cadd)" d="M 57.6 68.0832 
L 93.312 68.0832 
L 93.312 94.6944 
L 57.6 94.6944 
L 57.6 68.0832 
" style="fill:#5a5a5a;"/>
    <path clip-path="url(#pe61537cadd)" d="M 93.312 68.0832 
L 129.024 68.0832 
L 129.024 94.6944 
L 93.312 94.6944 
L 93.312 68.0832 
" style="fill:#474747;"/>
    <path clip-path="url(#pe61537cadd)" d="M 129.024 68.0832 
L 164.736 68.0832 
L 164.736 94.6944 
L 129.024 94.6944 
L 129.024 68.0832 
" style="fill:#484848;"/>
    <path clip-path="url(#pe61537cadd)" d="M 164.736 68.0832 
L 200.448 68.0832 
L 200.448 94.6944 
L 164.736 94.6944 
L 164.736 68.0832 
" style="fill:#474747;"/>
    <path clip-path="url(#pe61537cadd)" d="M 200.448 68.0832 
L 236.16 68.0832 
L 236.16 94.6944 
L 200.448 94.6944 
L 200.448 68.0832 
" style="fill:#404040;"/>
    <path clip-path="url(#pe61537cadd)" d="M 236.16 68.0832 
L 271.872 68.0832 
L 271.872 94.6944 
L 236.16 94.6944 
L 236.16 68.0832 
" style="fill:#434343;"/>
    <path clip-path="url(#pe61537cadd)" d="M 271.872 68.0832 
L 307.584 68.0832 
L 307.584 94.6944 
L 271.872 94.6944 
L 271.872 68.0832 
" style="fill:#404040;"/>
    <path clip-path="url(#pe61537cadd)" d="M 307.584 68.0832 
L 343.296 68.0832 
L 343.296 94.6944 
L 307.584 94.6944 
L 307.584 68.0832 
" style="fill:#080808;"/>
    <path clip-path="url(#pe61537cadd)" d="M 343.296 68.0832 
L 379.008 68.0832 
L 379.008 94.6944 
L 343.296 94.6944 
L 343.296 68.0832 
" style="fill:#0f0f0f;"/>
    <path clip-path="url(#pe61537cadd)" d="M 379.008 68.0832 
L 414.72 68.0832 
L 414.72 94.6944 
L 379.008 94.6944 
L 379.008 68.0832 
" style="fill:#010101;"/>
    <path clip-path="url(#pe61537cadd)" d="M 57.6 94.6944 
L 93.312 94.6944 
L 93.312 121.3056 
L 57.6 121.3056 
L 57.6 94.6944 
" style="fill:#181818;"/>
    <path clip-path="url(#pe61537cadd)" d="M 93.312 94.6944 
L 129.024 94.6944 
L 129.024 121.3056 
L 93.312 121.3056 
L 93.312 94.6944 
" style="fill:#020202;"/>
    <path clip-path="url(#pe61537cadd)" d="M 129.024 94.6944 
L 164.736 94.6944 
L 164.736 121.3056 
L 129.024 121.3056 
L 129.024 94.6944 
"/>
    <path clip-path="url(#pe61537cadd)" d="M 164.736 94.6944 
L 200.448 94.6944 
L 200.448 121.3056 
L 164.736 121.3056 
L 164.736 94.6944 
" style="fill:#020202;"/>
    <path clip-path="url(#pe61537cadd)" d="M 200.448 94.6944 
L 236.16 94.6944 
L 236.16 121.3056 
L 200.448 121.3056 
L 200.448 94.6944 
" style="fill:#020202;"/>
    <path clip-path="url(#pe61537cadd)" d="M 236.16 94.6944 
L 271.872 94.6944 
L 271.872 121.3056 
L 236.16 121.3056 
L 236.16 94.6944 
" style="fill:#060606;"/>
    <path clip-path="url(#pe61537cadd)" d="M 271.872 94.6944 
L 307.584 94.6944 
L 307.584 121.3056 
L 271.872 121.3056 
L 271.872 94.6944 
" style="fill:#020202;"/>
    <path clip-path="url(#pe61537cadd)" d="M 307.584 94.6944 
L 343.296 94.6944 
L 343.296 121.3056 
L 307.584 121.3056 
L 307.584 94.6944 
" style="fill:#020202;"/>
    <path clip-path="url(#pe61537cadd)" d="M 343.296 94.6944 
L 379.008 94.6944 
L 379.008 121.3056 
L 343.296 121.3056 
L 343.296 94.6944 
" style="fill:#0a0a0a;"/>
    <path clip-path="url(#pe61537cadd)" d="M 379.008 94.6944 
L 414.72 94.6944 
L 414.72 121.3056 
L 379.008 121.3056 
L 379.008 94.6944 
" style="fill:#0c0c0c;"/>
    <path clip-path="url(#pe61537cadd)" d="M 57.6 121.3056 
L 93.312 121.3056 
L 93.312 147.9168 
L 57.6 147.9168 
L 57.6 121.3056 
" style="fill:#151515;"/>
    <path clip-path="url(#pe61537cadd)" d="M 93.312 121.3056 
L 129.024 121.3056 
L 129.024 147.9168 
L 93.312 147.9168 
L 93.312 121.3056 
" style="fill:#1a1a1a;"/>
    <path clip-path="url(#pe61537cadd)" d="M 129.024 121.3056 
L 164.736 121.3056 
L 164.736 147.9168 
L 129.024 147.9168 
L 129.024 121.3056 
" style="fill:#1a1a1a;"/>
    <path clip-path="url(#pe61537cadd)" d="M 164.736 121.3056 
L 200.448 121.3056 
L 200.448 147.9168 
L 164.736 147.9168 
L 164.736 121.3056 
" style="fill:#1d1d1d;"/>
    <path clip-path="url(#pe61537cadd)" d="M 200.448 121.3056 
L 236.16 121.3056 
L 236.16 147.9168 
L 200.448 147.9168 
L 200.448 121.3056 
" style="fill:#252525;"/>
    <path clip-path="url(#pe61537cadd)" d="M 236.16 121.3056 
L 271.872 121.3056 
L 271.872 147.9168 
L 236.16 147.9168 
L 236.16 121.3056 
"/>
    <path clip-path="url(#pe61537cadd)" d="M 271.872 121.3056 
L 307.584 121.3056 
L 307.584 147.9168 
L 271.872 147.9168 
L 271.872 121.3056 
"/>
    <path clip-path="url(#pe61537cadd)" d="M 307.584 121.3056 
L 343.296 121.3056 
L 343.296 147.9168 
L 307.584 147.9168 
L 307.584 121.3056 
" style="fill:#080808;"/>
    <path clip-path="url(#pe61537cadd)" d="M 343.296 121.3056 
L 379.008 121.3056 
L 379.008 147.9168 
L 343.296 147.9168 
L 343.296 121.3056 
" style="fill:#050505;"/>
    <path clip-path="url(#pe61537cadd)" d="M 379.008 121.3056 
L 414.72 121.3056 
L 414.72 147.9168 
L 379.008 147.9168 
L 379.008 121.3056 
" style="fill:#1e1e1e;"/>
    <path clip-path="url(#pe61537cadd)" d="M 57.6 147.9168 
L 93.312 147.9168 
L 93.312 174.528 
L 57.6 174.528 
L 57.6 147.9168 
" style="fill:#161616;"/>
    <path clip-path="url(#pe61537cadd)" d="M 93.312 147.9168 
L 129.024 147.9168 
L 129.024 174.528 
L 93.312 174.528 
L 93.312 147.9168 
" style="fill:#181818;"/>
    <path clip-path="url(#pe61537cadd)" d="M 129.024 147.9168 
L 164.736 147.9168 
L 164.736 174.528 
L 129.024 174.528 
L 129.024 147.9168 
" style="fill:#181818;"/>
    <path clip-path="url(#pe61537cadd)" d="M 164.736 147.9168 
L 200.448 147.9168 
L 200.448 174.528 
L 164.736 174.528 
L 164.736 147.9168 
" style="fill:#010101;"/>
    <path clip-path="url(#pe61537cadd)" d="M 200.448 147.9168 
L 236.16 147.9168 
L 236.16 174.528 
L 200.448 174.528 
L 200.448 147.9168 
" style="fill:#080808;"/>
    <path clip-path="url(#pe61537cadd)" d="M 236.16 147.9168 
L 271.872 147.9168 
L 271.872 174.528 
L 236.16 174.528 
L 236.16 147.9168 
" style="fill:#1d1d1d;"/>
    <path clip-path="url(#pe61537cadd)" d="M 271.872 147.9168 
L 307.584 147.9168 
L 307.584 174.528 
L 271.872 174.528 
L 271.872 147.9168 
" style="fill:#212121;"/>
    <path clip-path="url(#pe61537cadd)" d="M 307.584 147.9168 
L 343.296 147.9168 
L 343.296 174.528 
L 307.584 174.528 
L 307.584 147.9168 
" style="fill:#4a4a4a;"/>
    <path clip-path="url(#pe61537cadd)" d="M 343.296 147.9168 
L 379.008 147.9168 
L 379.008 174.528 
L 343.296 174.528 
L 343.296 147.9168 
" style="fill:#383838;"/>
    <path clip-path="url(#pe61537cadd)" d="M 379.008 147.9168 
L 414.72 147.9168 
L 414.72 174.528 
L 379.008 174.528 
L 379.008 147.9168 
" style="fill:#515151;"/>
    <path clip-path="url(#pe61537cadd)" d="M 57.6 174.528 
L 93.312 174.528 
L 93.312 201.1392 
L 57.6 201.1392 
L 57.6 174.528 
" style="fill:#030303;"/>
    <path clip-path="url(#pe61537cadd)" d="M 93.312 174.528 
L 129.024 174.528 
L 129.024 201.1392 
L 93.312 201.1392 
L 93.312 174.528 
" style="fill:#1c1c1c;"/>
    <path clip-path="url(#pe61537cadd)" d="M 129.024 174.528 
L 164.736 174.528 
L 164.736 201.1392 
L 129.024 201.1392 
L 129.024 174.528 
" style="fill:#1d1d1d;"/>
    <path clip-path="url(#pe61537cadd)" d="M 164.736 174.528 
L 200.448 174.528 
L 200.448 201.1392 
L 164.736 201.1392 
L 164.736 174.528 
" style="fill:#070707;"/>
    <path clip-path="url(#pe61537cadd)" d="M 200.448 174.528 
L 236.16 174.528 
L 236.16 201.1392 
L 200.448 201.1392 
L 200.448 174.528 
" style="fill:#090909;"/>
    <path clip-path="url(#pe61537cadd)" d="M 236.16 174.528 
L 271.872 174.528 
L 271.872 201.1392 
L 236.16 201.1392 
L 236.16 174.528 
" style="fill:#0f0f0f;"/>
    <path clip-path="url(#pe61537cadd)" d="M 271.872 174.528 
L 307.584 174.528 
L 307.584 201.1392 
L 271.872 201.1392 
L 271.872 174.528 
" style="fill:#222222;"/>
    <path clip-path="url(#pe61537cadd)" d="M 307.584 174.528 
L 343.296 174.528 
L 343.296 201.1392 
L 307.584 201.1392 
L 307.584 174.528 
" style="fill:#4b4b4b;"/>
    <path clip-path="url(#pe61537cadd)" d="M 343.296 174.528 
L 379.008 174.528 
L 379.008 201.1392 
L 343.296 201.1392 
L 343.296 174.528 
" style="fill:#6f6f6f;"/>
    <path clip-path="url(#pe61537cadd)" d="M 379.008 174.528 
L 414.72 174.528 
L 414.72 201.1392 
L 379.008 201.1392 
L 379.008 174.528 
" style="fill:#959595;"/>
    <path clip-path="url(#pe61537cadd)" d="M 57.6 201.1392 
L 93.312 201.1392 
L 93.312 227.7504 
L 57.6 227.7504 
L 57.6 201.1392 
" style="fill:#080808;"/>
    <path clip-path="url(#pe61537cadd)" d="M 93.312 201.1392 
L 129.024 201.1392 
L 129.024 227.7504 
L 93.312 227.7504 
L 93.312 201.1392 
" style="fill:#151515;"/>
    <path clip-path="url(#pe61537cadd)" d="M 129.024 201.1392 
L 164.736 201.1392 
L 164.736 227.7504 
L 129.024 227.7504 
L 129.024 201.1392 
" style="fill:#2e2e2e;"/>
    <path clip-path="url(#pe61537cadd)" d="M 164.736 201.1392 
L 200.448 201.1392 
L 200.448 227.7504 
L 164.736 227.7504 
L 164.736 201.1392 
" style="fill:#464646;"/>
    <path clip-path="url(#pe61537cadd)" d="M 200.448 201.1392 
L 236.16 201.1392 
L 236.16 227.7504 
L 200.448 227.7504 
L 200.448 201.1392 
" style="fill:#4a4a4a;"/>
    <path clip-path="url(#pe61537cadd)" d="M 236.16 201.1392 
L 271.872 201.1392 
L 271.872 227.7504 
L 236.16 227.7504 
L 236.16 201.1392 
" style="fill:#0f0f0f;"/>
    <path clip-path="url(#pe61537cadd)" d="M 271.872 201.1392 
L 307.584 201.1392 
L 307.584 227.7504 
L 271.872 227.7504 
L 271.872 201.1392 
" style="fill:#393939;"/>
    <path clip-path="url(#pe61537cadd)" d="M 307.584 201.1392 
L 343.296 201.1392 
L 343.296 227.7504 
L 307.584 227.7504 
L 307.584 201.1392 
" style="fill:#818181;"/>
    <path clip-path="url(#pe61537cadd)" d="M 343.296 201.1392 
L 379.008 201.1392 
L 379.008 227.7504 
L 343.296 227.7504 
L 343.296 201.1392 
" style="fill:#a2a2a2;"/>
    <path clip-path="url(#pe61537cadd)" d="M 379.008 201.1392 
L 414.72 201.1392 
L 414.72 227.7504 
L 379.008 227.7504 
L 379.008 201.1392 
" style="fill:#cbcbcb;"/>
    <path clip-path="url(#pe61537cadd)" d="M 57.6 227.7504 
L 93.312 227.7504 
L 93.312 254.3616 
L 57.6 254.3616 
L 57.6 227.7504 
" style="fill:#444444;"/>
    <path clip-path="url(#pe61537cadd)" d="M 93.312 227.7504 
L 129.024 227.7504 
L 129.024 254.3616 
L 93.312 254.3616 
L 93.312 227.7504 
" style="fill:#464646;"/>
    <path clip-path="url(#pe61537cadd)" d="M 129.024 227.7504 
L 164.736 227.7504 
L 164.736 254.3616 
L 129.024 254.3616 
L 129.024 227.7504 
" style="fill:#141414;"/>
    <path clip-path="url(#pe61537cadd)" d="M 164.736 227.7504 
L 200.448 227.7504 
L 200.448 254.3616 
L 164.736 254.3616 
L 164.736 227.7504 
" style="fill:#727272;"/>
    <path clip-path="url(#pe61537cadd)" d="M 200.448 227.7504 
L 236.16 227.7504 
L 236.16 254.3616 
L 200.448 254.3616 
L 200.448 227.7504 
" style="fill:#7b7b7b;"/>
    <path clip-path="url(#pe61537cadd)" d="M 236.16 227.7504 
L 271.872 227.7504 
L 271.872 254.3616 
L 236.16 254.3616 
L 236.16 227.7504 
" style="fill:#2b2b2b;"/>
    <path clip-path="url(#pe61537cadd)" d="M 271.872 227.7504 
L 307.584 227.7504 
L 307.584 254.3616 
L 271.872 254.3616 
L 271.872 227.7504 
" style="fill:#1f1f1f;"/>
    <path clip-path="url(#pe61537cadd)" d="M 307.584 227.7504 
L 343.296 227.7504 
L 343.296 254.3616 
L 307.584 254.3616 
L 307.584 227.7504 
" style="fill:#696969;"/>
    <path clip-path="url(#pe61537cadd)" d="M 343.296 227.7504 
L 379.008 227.7504 
L 379.008 254.3616 
L 343.296 254.3616 
L 343.296 227.7504 
" style="fill:#c1c1c1;"/>
    <path clip-path="url(#pe61537cadd)" d="M 379.008 227.7504 
L 414.72 227.7504 
L 414.72 254.3616 
L 379.008 254.3616 
L 379.008 227.7504 
" style="fill:#f7f7f7;"/>
    <path clip-path="url(#pe61537cadd)" d="M 57.6 254.3616 
L 93.312 254.3616 
L 93.312 280.9728 
L 57.6 280.9728 
L 57.6 254.3616 
" style="fill:#878787;"/>
    <path clip-path="url(#pe61537cadd)" d="M 93.312 254.3616 
L 129.024 254.3616 
L 129.024 280.9728 
L 93.312 280.9728 
L 93.312 254.3616 
" style="fill:#4e4e4e;"/>
    <path clip-path="url(#pe61537cadd)" d="M 129.024 254.3616 
L 164.736 254.3616 
L 164.736 280.9728 
L 129.024 280.9728 
L 129.024 254.3616 
" style="fill:#131313;"/>
    <path clip-path="url(#pe61537cadd)" d="M 164.736 254.3616 
L 200.448 254.3616 
L 200.448 280.9728 
L 164.736 280.9728 
L 164.736 254.3616 
" style="fill:#333333;"/>
    <path clip-path="url(#pe61537cadd)" d="M 200.448 254.3616 
L 236.16 254.3616 
L 236.16 280.9728 
L 200.448 280.9728 
L 200.448 254.3616 
" style="fill:#303030;"/>
    <path clip-path="url(#pe61537cadd)" d="M 236.16 254.3616 
L 271.872 254.3616 
L 271.872 280.9728 
L 236.16 280.9728 
L 236.16 254.3616 
" style="fill:#2f2f2f;"/>
    <path clip-path="url(#pe61537cadd)" d="M 271.872 254.3616 
L 307.584 254.3616 
L 307.584 280.9728 
L 271.872 280.9728 
L 271.872 254.3616 
"/>
    <path clip-path="url(#pe61537cadd)" d="M 307.584 254.3616 
L 343.296 254.3616 
L 343.296 280.9728 
L 307.584 280.9728 
L 307.584 254.3616 
" style="fill:#434343;"/>
    <path clip-path="url(#pe61537cadd)" d="M 343.296 254.3616 
L 379.008 254.3616 
L 379.008 280.9728 
L 343.296 280.9728 
L 343.296 254.3616 
" style="fill:#9d9d9d;"/>
    <path clip-path="url(#pe61537cadd)" d="M 379.008 254.3616 
L 414.72 254.3616 
L 414.72 280.9728 
L 379.008 280.9728 
L 379.008 254.3616 
" style="fill:#e6e6e6;"/>
    <path clip-path="url(#pe61537cadd)" d="M 57.6 280.9728 
L 93.312 280.9728 
L 93.312 307.584 
L 57.6 307.584 
L 57.6 280.9728 
" style="fill:#868686;"/>
    <path clip-path="url(#pe61537cadd)" d="M 93.312 280.9728 
L 129.024 280.9728 
L 129.024 307.584 
L 93.312 307.584 
L 93.312 280.9728 
" style="fill:#4e4e4e;"/>
    <path clip-path="url(#pe61537cadd)" d="M 129.024 280.9728 
L 164.736 280.9728 
L 164.736 307.584 
L 129.024 307.584 
L 129.024 280.9728 
" style="fill:#010101;"/>
    <path clip-path="url(#pe61537cadd)" d="M 164.736 280.9728 
L 200.448 280.9728 
L 200.448 307.584 
L 164.736 307.584 
L 164.736 280.9728 
" style="fill:#020202;"/>
    <path clip-path="url(#pe61537cadd)" d="M 200.448 280.9728 
L 236.16 280.9728 
L 236.16 307.584 
L 200.448 307.584 
L 200.448 280.9728 
" style="fill:#020202;"/>
    <path clip-path="url(#pe61537cadd)" d="M 236.16 280.9728 
L 271.872 280.9728 
L 271.872 307.584 
L 236.16 307.584 
L 236.16 280.9728 
" style="fill:#030303;"/>
    <path clip-path="url(#pe61537cadd)" d="M 271.872 280.9728 
L 307.584 280.9728 
L 307.584 307.584 
L 271.872 307.584 
L 271.872 280.9728 
" style="fill:#3a3a3a;"/>
    <path clip-path="url(#pe61537cadd)" d="M 307.584 280.9728 
L 343.296 280.9728 
L 343.296 307.584 
L 307.584 307.584 
L 307.584 280.9728 
" style="fill:#777777;"/>
    <path clip-path="url(#pe61537cadd)" d="M 343.296 280.9728 
L 379.008 280.9728 
L 379.008 307.584 
L 343.296 307.584 
L 343.296 280.9728 
" style="fill:#cccccc;"/>
    <path clip-path="url(#pe61537cadd)" d="M 379.008 280.9728 
L 414.72 280.9728 
L 414.72 307.584 
L 379.008 307.584 
L 379.008 280.9728 
" style="fill:#ffffff;"/>
   </g>
   <g id="PathCollection_1">
    <defs>
     <path d="M 0 3 
C 0.795609 3 1.55874 2.683901 2.12132 2.12132 
C 2.683901 1.55874 3 0.795609 3 0 
C 3 -0.795609 2.683901 -1.55874 2.12132 -2.12132 
C 1.55874 -2.683901 0.795609 -3 0 -3 
C -0.795609 -3 -1.55874 -2.683901 -2.12132 -2.12132 
C -2.683901 -1.55874 -3 -0.795609 -3 0 
C -3 0.795609 -2.683901 1.55874 -2.12132 2.12132 
C -1.55874 2.683901 -0.795609 3 0 3 
z
" id="med2aa5275d" style="stroke:#ff0000;"/>
    </defs>
    <g clip-path="url(#pe61537cadd)">
     <use style="fill:#ff0000;stroke:#ff0000;" x="396.864" xlink:href="#med2aa5275d" y="294.2784"/>
    </g>
   </g>
   <g id="QuadMesh_2">
    <path clip-path="url(#pe61537cadd)" d="M 57.6 41.472 
L 93.312 41.472 
L 93.312 68.0832 
L 57.6 68.0832 
L 57.6 41.472 
" style="fill:#393939;"/>
    <path clip-path="url(#pe61537cadd)" d="M 93.312 41.472 
L 129.024 41.472 
L 129.024 68.0832 
L 93.312 68.0832 
L 93.312 41.472 
" style="fill:#6b6b6b;"/>
    <path clip-path="url(#pe61537cadd)" d="M 129.024 41.472 
L 164.736 41.472 
L 164.736 68.0832 
L 129.024 68.0832 
L 129.024 41.472 
" style="fill:#616161;"/>
    <path clip-path="url(#pe61537cadd)" d="M 164.736 41.472 
L 200.448 41.472 
L 200.448 68.0832 
L 164.736 68.0832 
L 164.736 41.472 
" style="fill:#7c7c7c;"/>
    <path clip-path="url(#pe61537cadd)" d="M 200.448 41.472 
L 236.16 41.472 
L 236.16 68.0832 
L 200.448 68.0832 
L 200.448 41.472 
" style="fill:#bebebe;"/>
    <path clip-path="url(#pe61537cadd)" d="M 236.16 41.472 
L 271.872 41.472 
L 271.872 68.0832 
L 236.16 68.0832 
L 236.16 41.472 
" style="fill:#adadad;"/>
    <path clip-path="url(#pe61537cadd)" d="M 271.872 41.472 
L 307.584 41.472 
L 307.584 68.0832 
L 271.872 68.0832 
L 271.872 41.472 
" style="fill:#ffffff;"/>
    <path clip-path="url(#pe61537cadd)" d="M 307.584 41.472 
L 343.296 41.472 
L 343.296 68.0832 
L 307.584 68.0832 
L 307.584 41.472 
" style="fill:#f6f6f6;"/>
    <path clip-path="url(#pe61537cadd)" d="M 343.296 41.472 
L 379.008 41.472 
L 379.008 68.0832 
L 343.296 68.0832 
L 343.296 41.472 
" style="fill:#919191;"/>
    <path clip-path="url(#pe61537cadd)" d="M 379.008 41.472 
L 414.72 41.472 
L 414.72 68.0832 
L 379.008 68.0832 
L 379.008 41.472 
" style="fill:#bebebe;"/>
    <path clip-path="url(#pe61537cadd)" d="M 57.6 68.0832 
L 93.312 68.0832 
L 93.312 94.6944 
L 57.6 94.6944 
L 57.6 68.0832 
" style="fill:#353535;"/>
    <path clip-path="url(#pe61537cadd)" d="M 93.312 68.0832 
L 129.024 68.0832 
L 129.024 94.6944 
L 93.312 94.6944 
L 93.312 68.0832 
" style="fill:#383838;"/>
    <path clip-path="url(#pe61537cadd)" d="M 129.024 68.0832 
L 164.736 68.0832 
L 164.736 94.6944 
L 129.024 94.6944 
L 129.024 68.0832 
" style="fill:#626262;"/>
    <path clip-path="url(#pe61537cadd)" d="M 164.736 68.0832 
L 200.448 68.0832 
L 200.448 94.6944 
L 164.736 94.6944 
L 164.736 68.0832 
" style="fill:#d4d4d4;"/>
    <path clip-path="url(#pe61537cadd)" d="M 200.448 68.0832 
L 236.16 68.0832 
L 236.16 94.6944 
L 200.448 94.6944 
L 200.448 68.0832 
" style="fill:#7c7c7c;"/>
    <path clip-path="url(#pe61537cadd)" d="M 236.16 68.0832 
L 271.872 68.0832 
L 271.872 94.6944 
L 236.16 94.6944 
L 236.16 68.0832 
" style="fill:#dbdbdb;"/>
    <path clip-path="url(#pe61537cadd)" d="M 271.872 68.0832 
L 307.584 68.0832 
L 307.584 94.6944 
L 271.872 94.6944 
L 271.872 68.0832 
" style="fill:#8e8e8e;"/>
    <path clip-path="url(#pe61537cadd)" d="M 307.584 68.0832 
L 343.296 68.0832 
L 343.296 94.6944 
L 307.584 94.6944 
L 307.584 68.0832 
" style="fill:#5e5e5e;"/>
    <path clip-path="url(#pe61537cadd)" d="M 343.296 68.0832 
L 379.008 68.0832 
L 379.008 94.6944 
L 343.296 94.6944 
L 343.296 68.0832 
" style="fill:#6c6c6c;"/>
    <path clip-path="url(#pe61537cadd)" d="M 379.008 68.0832 
L 414.72 68.0832 
L 414.72 94.6944 
L 379.008 94.6944 
L 379.008 68.0832 
" style="fill:#616161;"/>
    <path clip-path="url(#pe61537cadd)" d="M 57.6 94.6944 
L 93.312 94.6944 
L 93.312 121.3056 
L 57.6 121.3056 
L 57.6 94.6944 
" style="fill:#363636;"/>
    <path clip-path="url(#pe61537cadd)" d="M 93.312 94.6944 
L 129.024 94.6944 
L 129.024 121.3056 
L 93.312 121.3056 
L 93.312 94.6944 
" style="fill:#353535;"/>
    <path clip-path="url(#pe61537cadd)" d="M 129.024 94.6944 
L 164.736 94.6944 
L 164.736 121.3056 
L 129.024 121.3056 
L 129.024 94.6944 
" style="fill:#929292;"/>
    <path clip-path="url(#pe61537cadd)" d="M 164.736 94.6944 
L 200.448 94.6944 
L 200.448 121.3056 
L 164.736 121.3056 
L 164.736 94.6944 
" style="fill:#777777;"/>
    <path clip-path="url(#pe61537cadd)" d="M 200.448 94.6944 
L 236.16 94.6944 
L 236.16 121.3056 
L 200.448 121.3056 
L 200.448 94.6944 
" style="fill:#c5c5c5;"/>
    <path clip-path="url(#pe61537cadd)" d="M 236.16 94.6944 
L 271.872 94.6944 
L 271.872 121.3056 
L 236.16 121.3056 
L 236.16 94.6944 
" style="fill:#848484;"/>
    <path clip-path="url(#pe61537cadd)" d="M 271.872 94.6944 
L 307.584 94.6944 
L 307.584 121.3056 
L 271.872 121.3056 
L 271.872 94.6944 
" style="fill:#323232;"/>
    <path clip-path="url(#pe61537cadd)" d="M 307.584 94.6944 
L 343.296 94.6944 
L 343.296 121.3056 
L 307.584 121.3056 
L 307.584 94.6944 
" style="fill:#070707;"/>
    <path clip-path="url(#pe61537cadd)" d="M 343.296 94.6944 
L 379.008 94.6944 
L 379.008 121.3056 
L 343.296 121.3056 
L 343.296 94.6944 
" style="fill:#020202;"/>
    <path clip-path="url(#pe61537cadd)" d="M 379.008 94.6944 
L 414.72 94.6944 
L 414.72 121.3056 
L 379.008 121.3056 
L 379.008 94.6944 
" style="fill:#525252;"/>
    <path clip-path="url(#pe61537cadd)" d="M 57.6 121.3056 
L 93.312 121.3056 
L 93.312 147.9168 
L 57.6 147.9168 
L 57.6 121.3056 
" style="fill:#2e2e2e;"/>
    <path clip-path="url(#pe61537cadd)" d="M 93.312 121.3056 
L 129.024 121.3056 
L 129.024 147.9168 
L 93.312 147.9168 
L 93.312 121.3056 
" style="fill:#797979;"/>
    <path clip-path="url(#pe61537cadd)" d="M 129.024 121.3056 
L 164.736 121.3056 
L 164.736 147.9168 
L 129.024 147.9168 
L 129.024 121.3056 
" style="fill:#474747;"/>
    <path clip-path="url(#pe61537cadd)" d="M 164.736 121.3056 
L 200.448 121.3056 
L 200.448 147.9168 
L 164.736 147.9168 
L 164.736 121.3056 
" style="fill:#939393;"/>
    <path clip-path="url(#pe61537cadd)" d="M 200.448 121.3056 
L 236.16 121.3056 
L 236.16 147.9168 
L 200.448 147.9168 
L 200.448 121.3056 
" style="fill:#7b7b7b;"/>
    <path clip-path="url(#pe61537cadd)" d="M 236.16 121.3056 
L 271.872 121.3056 
L 271.872 147.9168 
L 236.16 147.9168 
L 236.16 121.3056 
" style="fill:#979797;"/>
    <path clip-path="url(#pe61537cadd)" d="M 271.872 121.3056 
L 307.584 121.3056 
L 307.584 147.9168 
L 271.872 147.9168 
L 271.872 121.3056 
" style="fill:#3a3a3a;"/>
    <path clip-path="url(#pe61537cadd)" d="M 307.584 121.3056 
L 343.296 121.3056 
L 343.296 147.9168 
L 307.584 147.9168 
L 307.584 121.3056 
" style="fill:#0d0d0d;"/>
    <path clip-path="url(#pe61537cadd)" d="M 343.296 121.3056 
L 379.008 121.3056 
L 379.008 147.9168 
L 343.296 147.9168 
L 343.296 121.3056 
" style="fill:#0c0c0c;"/>
    <path clip-path="url(#pe61537cadd)" d="M 379.008 121.3056 
L 414.72 121.3056 
L 414.72 147.9168 
L 379.008 147.9168 
L 379.008 121.3056 
"/>
    <path clip-path="url(#pe61537cadd)" d="M 57.6 147.9168 
L 93.312 147.9168 
L 93.312 174.528 
L 57.6 174.528 
L 57.6 147.9168 
" style="fill:#a5a5a5;"/>
    <path clip-path="url(#pe61537cadd)" d="M 93.312 147.9168 
L 129.024 147.9168 
L 129.024 174.528 
L 93.312 174.528 
L 93.312 147.9168 
" style="fill:#252525;"/>
    <path clip-path="url(#pe61537cadd)" d="M 129.024 147.9168 
L 164.736 147.9168 
L 164.736 174.528 
L 129.024 174.528 
L 129.024 147.9168 
" style="fill:#757575;"/>
    <path clip-path="url(#pe61537cadd)" d="M 164.736 147.9168 
L 200.448 147.9168 
L 200.448 174.528 
L 164.736 174.528 
L 164.736 147.9168 
" style="fill:#3c3c3c;"/>
    <path clip-path="url(#pe61537cadd)" d="M 200.448 147.9168 
L 236.16 147.9168 
L 236.16 174.528 
L 200.448 174.528 
L 200.448 147.9168 
" style="fill:#7e7e7e;"/>
    <path clip-path="url(#pe61537cadd)" d="M 236.16 147.9168 
L 271.872 147.9168 
L 271.872 174.528 
L 236.16 174.528 
L 236.16 147.9168 
" style="fill:#9f9f9f;"/>
    <path clip-path="url(#pe61537cadd)" d="M 271.872 147.9168 
L 307.584 147.9168 
L 307.584 174.528 
L 271.872 174.528 
L 271.872 147.9168 
" style="fill:#3d3d3d;"/>
    <path clip-path="url(#pe61537cadd)" d="M 307.584 147.9168 
L 343.296 147.9168 
L 343.296 174.528 
L 307.584 174.528 
L 307.584 147.9168 
" style="fill:#4b4b4b;"/>
    <path clip-path="url(#pe61537cadd)" d="M 343.296 147.9168 
L 379.008 147.9168 
L 379.008 174.528 
L 343.296 174.528 
L 343.296 147.9168 
" style="fill:#181818;"/>
    <path clip-path="url(#pe61537cadd)" d="M 379.008 147.9168 
L 414.72 147.9168 
L 414.72 174.528 
L 379.008 174.528 
L 379.008 147.9168 
" style="fill:#050505;"/>
    <path clip-path="url(#pe61537cadd)" d="M 57.6 174.528 
L 93.312 174.528 
L 93.312 201.1392 
L 57.6 201.1392 
L 57.6 174.528 
" style="fill:#c2c2c2;"/>
    <path clip-path="url(#pe61537cadd)" d="M 93.312 174.528 
L 129.024 174.528 
L 129.024 201.1392 
L 93.312 201.1392 
L 93.312 174.528 
" style="fill:#535353;"/>
    <path clip-path="url(#pe61537cadd)" d="M 129.024 174.528 
L 164.736 174.528 
L 164.736 201.1392 
L 129.024 201.1392 
L 129.024 174.528 
" style="fill:#2e2e2e;"/>
    <path clip-path="url(#pe61537cadd)" d="M 164.736 174.528 
L 200.448 174.528 
L 200.448 201.1392 
L 164.736 201.1392 
L 164.736 174.528 
" style="fill:#535353;"/>
    <path clip-path="url(#pe61537cadd)" d="M 200.448 174.528 
L 236.16 174.528 
L 236.16 201.1392 
L 200.448 201.1392 
L 200.448 174.528 
" style="fill:#393939;"/>
    <path clip-path="url(#pe61537cadd)" d="M 236.16 174.528 
L 271.872 174.528 
L 271.872 201.1392 
L 236.16 201.1392 
L 236.16 174.528 
" style="fill:#5a5a5a;"/>
    <path clip-path="url(#pe61537cadd)" d="M 271.872 174.528 
L 307.584 174.528 
L 307.584 201.1392 
L 271.872 201.1392 
L 271.872 174.528 
" style="fill:#515151;"/>
    <path clip-path="url(#pe61537cadd)" d="M 307.584 174.528 
L 343.296 174.528 
L 343.296 201.1392 
L 307.584 201.1392 
L 307.584 174.528 
" style="fill:#d3d3d3;"/>
    <path clip-path="url(#pe61537cadd)" d="M 343.296 174.528 
L 379.008 174.528 
L 379.008 201.1392 
L 343.296 201.1392 
L 343.296 174.528 
" style="fill:#888888;"/>
    <path clip-path="url(#pe61537cadd)" d="M 379.008 174.528 
L 414.72 174.528 
L 414.72 201.1392 
L 379.008 201.1392 
L 379.008 174.528 
" style="fill:#575757;"/>
    <path clip-path="url(#pe61537cadd)" d="M 57.6 201.1392 
L 93.312 201.1392 
L 93.312 227.7504 
L 57.6 227.7504 
L 57.6 201.1392 
" style="fill:#ababab;"/>
    <path clip-path="url(#pe61537cadd)" d="M 93.312 201.1392 
L 129.024 201.1392 
L 129.024 227.7504 
L 93.312 227.7504 
L 93.312 201.1392 
" style="fill:#a9a9a9;"/>
    <path clip-path="url(#pe61537cadd)" d="M 129.024 201.1392 
L 164.736 201.1392 
L 164.736 227.7504 
L 129.024 227.7504 
L 129.024 201.1392 
" style="fill:#525252;"/>
    <path clip-path="url(#pe61537cadd)" d="M 164.736 201.1392 
L 200.448 201.1392 
L 200.448 227.7504 
L 164.736 227.7504 
L 164.736 201.1392 
" style="fill:#212121;"/>
    <path clip-path="url(#pe61537cadd)" d="M 200.448 201.1392 
L 236.16 201.1392 
L 236.16 227.7504 
L 200.448 227.7504 
L 200.448 201.1392 
" style="fill:#141414;"/>
    <path clip-path="url(#pe61537cadd)" d="M 236.16 201.1392 
L 271.872 201.1392 
L 271.872 227.7504 
L 236.16 227.7504 
L 236.16 201.1392 
" style="fill:#404040;"/>
    <path clip-path="url(#pe61537cadd)" d="M 271.872 201.1392 
L 307.584 201.1392 
L 307.584 227.7504 
L 271.872 227.7504 
L 271.872 201.1392 
" style="fill:#727272;"/>
    <path clip-path="url(#pe61537cadd)" d="M 307.584 201.1392 
L 343.296 201.1392 
L 343.296 227.7504 
L 307.584 227.7504 
L 307.584 201.1392 
" style="fill:#818181;"/>
    <path clip-path="url(#pe61537cadd)" d="M 343.296 201.1392 
L 379.008 201.1392 
L 379.008 227.7504 
L 343.296 227.7504 
L 343.296 201.1392 
" style="fill:#a3a3a3;"/>
    <path clip-path="url(#pe61537cadd)" d="M 379.008 201.1392 
L 414.72 201.1392 
L 414.72 227.7504 
L 379.008 227.7504 
L 379.008 201.1392 
" style="fill:#979797;"/>
    <path clip-path="url(#pe61537cadd)" d="M 57.6 227.7504 
L 93.312 227.7504 
L 93.312 254.3616 
L 57.6 254.3616 
L 57.6 227.7504 
" style="fill:#d1d1d1;"/>
    <path clip-path="url(#pe61537cadd)" d="M 93.312 227.7504 
L 129.024 227.7504 
L 129.024 254.3616 
L 93.312 254.3616 
L 93.312 227.7504 
" style="fill:#5b5b5b;"/>
    <path clip-path="url(#pe61537cadd)" d="M 129.024 227.7504 
L 164.736 227.7504 
L 164.736 254.3616 
L 129.024 254.3616 
L 129.024 227.7504 
" style="fill:#646464;"/>
    <path clip-path="url(#pe61537cadd)" d="M 164.736 227.7504 
L 200.448 227.7504 
L 200.448 254.3616 
L 164.736 254.3616 
L 164.736 227.7504 
" style="fill:#464646;"/>
    <path clip-path="url(#pe61537cadd)" d="M 200.448 227.7504 
L 236.16 227.7504 
L 236.16 254.3616 
L 200.448 254.3616 
L 200.448 227.7504 
" style="fill:#3f3f3f;"/>
    <path clip-path="url(#pe61537cadd)" d="M 236.16 227.7504 
L 271.872 227.7504 
L 271.872 254.3616 
L 236.16 254.3616 
L 236.16 227.7504 
" style="fill:#4b4b4b;"/>
    <path clip-path="url(#pe61537cadd)" d="M 271.872 227.7504 
L 307.584 227.7504 
L 307.584 254.3616 
L 271.872 254.3616 
L 271.872 227.7504 
" style="fill:#515151;"/>
    <path clip-path="url(#pe61537cadd)" d="M 307.584 227.7504 
L 343.296 227.7504 
L 343.296 254.3616 
L 307.584 254.3616 
L 307.584 227.7504 
" style="fill:#949494;"/>
    <path clip-path="url(#pe61537cadd)" d="M 343.296 227.7504 
L 379.008 227.7504 
L 379.008 254.3616 
L 343.296 254.3616 
L 343.296 227.7504 
" style="fill:#7e7e7e;"/>
    <path clip-path="url(#pe61537cadd)" d="M 379.008 227.7504 
L 414.72 227.7504 
L 414.72 254.3616 
L 379.008 254.3616 
L 379.008 227.7504 
" style="fill:#c3c3c3;"/>
    <path clip-path="url(#pe61537cadd)" d="M 57.6 254.3616 
L 93.312 254.3616 
L 93.312 280.9728 
L 57.6 280.9728 
L 57.6 254.3616 
" style="fill:#d6d6d6;"/>
    <path clip-path="url(#pe61537cadd)" d="M 93.312 254.3616 
L 129.024 254.3616 
L 129.024 280.9728 
L 93.312 280.9728 
L 93.312 254.3616 
" style="fill:#797979;"/>
    <path clip-path="url(#pe61537cadd)" d="M 129.024 254.3616 
L 164.736 254.3616 
L 164.736 280.9728 
L 129.024 280.9728 
L 129.024 254.3616 
" style="fill:#5a5a5a;"/>
    <path clip-path="url(#pe61537cadd)" d="M 164.736 254.3616 
L 200.448 254.3616 
L 200.448 280.9728 
L 164.736 280.9728 
L 164.736 254.3616 
" style="fill:#3c3c3c;"/>
    <path clip-path="url(#pe61537cadd)" d="M 200.448 254.3616 
L 236.16 254.3616 
L 236.16 280.9728 
L 200.448 280.9728 
L 200.448 254.3616 
" style="fill:#292929;"/>
    <path clip-path="url(#pe61537cadd)" d="M 236.16 254.3616 
L 271.872 254.3616 
L 271.872 280.9728 
L 236.16 280.9728 
L 236.16 254.3616 
" style="fill:#222222;"/>
    <path clip-path="url(#pe61537cadd)" d="M 271.872 254.3616 
L 307.584 254.3616 
L 307.584 280.9728 
L 271.872 280.9728 
L 271.872 254.3616 
" style="fill:#8d8d8d;"/>
    <path clip-path="url(#pe61537cadd)" d="M 307.584 254.3616 
L 343.296 254.3616 
L 343.296 280.9728 
L 307.584 280.9728 
L 307.584 254.3616 
" style="fill:#393939;"/>
    <path clip-path="url(#pe61537cadd)" d="M 343.296 254.3616 
L 379.008 254.3616 
L 379.008 280.9728 
L 343.296 280.9728 
L 343.296 254.3616 
" style="fill:#898989;"/>
    <path clip-path="url(#pe61537cadd)" d="M 379.008 254.3616 
L 414.72 254.3616 
L 414.72 280.9728 
L 379.008 280.9728 
L 379.008 254.3616 
" style="fill:#a4a4a4;"/>
    <path clip-path="url(#pe61537cadd)" d="M 57.6 280.9728 
L 93.312 280.9728 
L 93.312 307.584 
L 57.6 307.584 
L 57.6 280.9728 
" style="fill:#c9c9c9;"/>
    <path clip-path="url(#pe61537cadd)" d="M 93.312 280.9728 
L 129.024 280.9728 
L 129.024 307.584 
L 93.312 307.584 
L 93.312 280.9728 
" style="fill:#737373;"/>
    <path clip-path="url(#pe61537cadd)" d="M 129.024 280.9728 
L 164.736 280.9728 
L 164.736 307.584 
L 129.024 307.584 
L 129.024 280.9728 
" style="fill:#5d5d5d;"/>
    <path clip-path="url(#pe61537cadd)" d="M 164.736 280.9728 
L 200.448 280.9728 
L 200.448 307.584 
L 164.736 307.584 
L 164.736 280.9728 
" style="fill:#444444;"/>
    <path clip-path="url(#pe61537cadd)" d="M 200.448 280.9728 
L 236.16 280.9728 
L 236.16 307.584 
L 200.448 307.584 
L 200.448 280.9728 
" style="fill:#2b2b2b;"/>
    <path clip-path="url(#pe61537cadd)" d="M 236.16 280.9728 
L 271.872 280.9728 
L 271.872 307.584 
L 236.16 307.584 
L 236.16 280.9728 
" style="fill:#242424;"/>
    <path clip-path="url(#pe61537cadd)" d="M 271.872 280.9728 
L 307.584 280.9728 
L 307.584 307.584 
L 271.872 307.584 
L 271.872 280.9728 
" style="fill:#272727;"/>
    <path clip-path="url(#pe61537cadd)" d="M 307.584 280.9728 
L 343.296 280.9728 
L 343.296 307.584 
L 307.584 307.584 
L 307.584 280.9728 
" style="fill:#303030;"/>
    <path clip-path="url(#pe61537cadd)" d="M 343.296 280.9728 
L 379.008 280.9728 
L 379.008 307.584 
L 343.296 307.584 
L 343.296 280.9728 
" style="fill:#8c8c8c;"/>
    <path clip-path="url(#pe61537cadd)" d="M 379.008 280.9728 
L 414.72 280.9728 
L 414.72 307.584 
L 379.008 307.584 
L 379.008 280.9728 
" style="fill:#cfcfcf;"/>
   </g>
  </g>
 </g>
 <defs>
  <clipPath id="pe61537cadd">
   <rect height="266.112" width="357.12" x="57.6" y="41.472"/>
  </clipPath>
 </defs>
</svg>
