<?xml version="1.0" encoding="utf-8" standalone="no"?>
<!DOCTYPE svg PUBLIC "-//W3C//DTD SVG 1.1//EN"
  "http://www.w3.org/Graphics/SVG/1.1/DTD/svg11.dtd">
<svg height="360pt" version="1.1" viewBox="0 0 1080 360" width="1080pt" xmlns="http://www.w3.org/2000/svg" xmlns:xlink="http://www.w3.org/1999/xlink">
 <metadata>
  <rdf:RDF xmlns:cc="http://creativecommons.org/ns#" xmlns:dc="http://purl.org/dc/elements/1.1/" xmlns:rdf="http://www.w3.org/1999/02/22-rdf-syntax-ns#">
   <cc:Work>
    <dc:type rdf:resource="http://purl.org/dc/dcmitype/StillImage"/>
    <dc:date>2022-01-17T19:38:08.798386</dc:date>
    <dc:format>image/svg+xml</dc:format>
    <dc:creator>
     <cc:Agent>
      <dc:title>Matplotlib v3.4.3, https://matplotlib.org/</dc:title>
     </cc:Agent>
    </dc:creator>
   </cc:Work>
  </rdf:RDF>
 </metadata>
 <defs>
  <style type="text/css">*{stroke-linecap:butt;stroke-linejoin:round;}</style>
 </defs>
 <g id="figure_1">
  <g id="patch_1">
   <path d="M 0 360 
L 1080 360 
L 1080 0 
L 0 0 
z
" style="fill:#ffffff;"/>
  </g>
  <g id="axes_1">
   <g id="patch_2">
    <path d="M 591.545455 320.4 
L 972 320.4 
L 972 43.2 
L 591.545455 43.2 
z
" style="fill:#ffffff;"/>
   </g>
   <g id="matplotlib.axis_1">
    <g id="xtick_1">
     <g id="line2d_1">
      <defs>
       <path d="M 0 0 
L 0 3.5 
" id="m020e77ed0f" style="stroke:#000000;stroke-width:0.8;"/>
      </defs>
      <g>
       <use style="stroke:#000000;stroke-width:0.8;" x="606.157697" xlink:href="#m020e77ed0f" y="320.4"/>
      </g>
     </g>
     <g id="text_1">
      <!-- 0 -->
      <g transform="translate(602.657697 337.12125)scale(0.14 -0.14)">
       <defs>
        <path d="M 231 2094 
Q 231 2819 450 3342 
Q 669 3866 1031 4122 
Q 1313 4325 1613 4325 
Q 2100 4325 2488 3828 
Q 2972 3213 2972 2159 
Q 2972 1422 2759 906 
Q 2547 391 2217 158 
Q 1888 -75 1581 -75 
Q 975 -75 572 641 
Q 231 1244 231 2094 
z
M 844 2016 
Q 844 1141 1059 588 
Q 1238 122 1591 122 
Q 1759 122 1940 273 
Q 2122 425 2216 781 
Q 2359 1319 2359 2297 
Q 2359 3022 2209 3506 
Q 2097 3866 1919 4016 
Q 1791 4119 1609 4119 
Q 1397 4119 1231 3928 
Q 1006 3669 925 3112 
Q 844 2556 844 2016 
z
" id="TimesNewRomanPSMT-30" transform="scale(0.015625)"/>
       </defs>
       <use xlink:href="#TimesNewRomanPSMT-30"/>
      </g>
     </g>
    </g>
    <g id="xtick_2">
     <g id="line2d_2">
      <g>
       <use style="stroke:#000000;stroke-width:0.8;" x="659.780607" xlink:href="#m020e77ed0f" y="320.4"/>
      </g>
     </g>
     <g id="text_2">
      <!-- 20 -->
      <g transform="translate(652.780607 337.12125)scale(0.14 -0.14)">
       <defs>
        <path d="M 2934 816 
L 2638 0 
L 138 0 
L 138 116 
Q 1241 1122 1691 1759 
Q 2141 2397 2141 2925 
Q 2141 3328 1894 3587 
Q 1647 3847 1303 3847 
Q 991 3847 742 3664 
Q 494 3481 375 3128 
L 259 3128 
Q 338 3706 661 4015 
Q 984 4325 1469 4325 
Q 1984 4325 2329 3994 
Q 2675 3663 2675 3213 
Q 2675 2891 2525 2569 
Q 2294 2063 1775 1497 
Q 997 647 803 472 
L 1909 472 
Q 2247 472 2383 497 
Q 2519 522 2628 598 
Q 2738 675 2819 816 
L 2934 816 
z
" id="TimesNewRomanPSMT-32" transform="scale(0.015625)"/>
       </defs>
       <use xlink:href="#TimesNewRomanPSMT-32"/>
       <use x="50" xlink:href="#TimesNewRomanPSMT-30"/>
      </g>
     </g>
    </g>
    <g id="xtick_3">
     <g id="line2d_3">
      <g>
       <use style="stroke:#000000;stroke-width:0.8;" x="713.403517" xlink:href="#m020e77ed0f" y="320.4"/>
      </g>
     </g>
     <g id="text_3">
      <!-- 40 -->
      <g transform="translate(706.403517 337.12125)scale(0.14 -0.14)">
       <defs>
        <path d="M 2978 1563 
L 2978 1119 
L 2409 1119 
L 2409 0 
L 1894 0 
L 1894 1119 
L 100 1119 
L 100 1519 
L 2066 4325 
L 2409 4325 
L 2409 1563 
L 2978 1563 
z
M 1894 1563 
L 1894 3666 
L 406 1563 
L 1894 1563 
z
" id="TimesNewRomanPSMT-34" transform="scale(0.015625)"/>
       </defs>
       <use xlink:href="#TimesNewRomanPSMT-34"/>
       <use x="50" xlink:href="#TimesNewRomanPSMT-30"/>
      </g>
     </g>
    </g>
    <g id="xtick_4">
     <g id="line2d_4">
      <g>
       <use style="stroke:#000000;stroke-width:0.8;" x="767.026427" xlink:href="#m020e77ed0f" y="320.4"/>
      </g>
     </g>
     <g id="text_4">
      <!-- 60 -->
      <g transform="translate(760.026427 337.12125)scale(0.14 -0.14)">
       <defs>
        <path d="M 2869 4325 
L 2869 4209 
Q 2456 4169 2195 4045 
Q 1934 3922 1679 3669 
Q 1425 3416 1258 3105 
Q 1091 2794 978 2366 
Q 1428 2675 1881 2675 
Q 2316 2675 2634 2325 
Q 2953 1975 2953 1425 
Q 2953 894 2631 456 
Q 2244 -75 1606 -75 
Q 1172 -75 869 213 
Q 275 772 275 1663 
Q 275 2231 503 2743 
Q 731 3256 1154 3653 
Q 1578 4050 1965 4187 
Q 2353 4325 2688 4325 
L 2869 4325 
z
M 925 2138 
Q 869 1716 869 1456 
Q 869 1156 980 804 
Q 1091 453 1309 247 
Q 1469 100 1697 100 
Q 1969 100 2183 356 
Q 2397 613 2397 1088 
Q 2397 1622 2184 2012 
Q 1972 2403 1581 2403 
Q 1463 2403 1327 2353 
Q 1191 2303 925 2138 
z
" id="TimesNewRomanPSMT-36" transform="scale(0.015625)"/>
       </defs>
       <use xlink:href="#TimesNewRomanPSMT-36"/>
       <use x="50" xlink:href="#TimesNewRomanPSMT-30"/>
      </g>
     </g>
    </g>
    <g id="xtick_5">
     <g id="line2d_5">
      <g>
       <use style="stroke:#000000;stroke-width:0.8;" x="820.649337" xlink:href="#m020e77ed0f" y="320.4"/>
      </g>
     </g>
     <g id="text_5">
      <!-- 80 -->
      <g transform="translate(813.649337 337.12125)scale(0.14 -0.14)">
       <defs>
        <path d="M 1228 2134 
Q 725 2547 579 2797 
Q 434 3047 434 3316 
Q 434 3728 753 4026 
Q 1072 4325 1600 4325 
Q 2113 4325 2425 4047 
Q 2738 3769 2738 3413 
Q 2738 3175 2569 2928 
Q 2400 2681 1866 2347 
Q 2416 1922 2594 1678 
Q 2831 1359 2831 1006 
Q 2831 559 2490 242 
Q 2150 -75 1597 -75 
Q 994 -75 656 303 
Q 388 606 388 966 
Q 388 1247 577 1523 
Q 766 1800 1228 2134 
z
M 1719 2469 
Q 2094 2806 2194 3001 
Q 2294 3197 2294 3444 
Q 2294 3772 2109 3958 
Q 1925 4144 1606 4144 
Q 1288 4144 1088 3959 
Q 888 3775 888 3528 
Q 888 3366 970 3203 
Q 1053 3041 1206 2894 
L 1719 2469 
z
M 1375 2016 
Q 1116 1797 991 1539 
Q 866 1281 866 981 
Q 866 578 1086 336 
Q 1306 94 1647 94 
Q 1984 94 2187 284 
Q 2391 475 2391 747 
Q 2391 972 2272 1150 
Q 2050 1481 1375 2016 
z
" id="TimesNewRomanPSMT-38" transform="scale(0.015625)"/>
       </defs>
       <use xlink:href="#TimesNewRomanPSMT-38"/>
       <use x="50" xlink:href="#TimesNewRomanPSMT-30"/>
      </g>
     </g>
    </g>
    <g id="xtick_6">
     <g id="line2d_6">
      <g>
       <use style="stroke:#000000;stroke-width:0.8;" x="874.272247" xlink:href="#m020e77ed0f" y="320.4"/>
      </g>
     </g>
     <g id="text_6">
      <!-- 100 -->
      <g transform="translate(863.772247 337.12125)scale(0.14 -0.14)">
       <defs>
        <path d="M 750 3822 
L 1781 4325 
L 1884 4325 
L 1884 747 
Q 1884 391 1914 303 
Q 1944 216 2037 169 
Q 2131 122 2419 116 
L 2419 0 
L 825 0 
L 825 116 
Q 1125 122 1212 167 
Q 1300 213 1334 289 
Q 1369 366 1369 747 
L 1369 3034 
Q 1369 3497 1338 3628 
Q 1316 3728 1258 3775 
Q 1200 3822 1119 3822 
Q 1003 3822 797 3725 
L 750 3822 
z
" id="TimesNewRomanPSMT-31" transform="scale(0.015625)"/>
       </defs>
       <use xlink:href="#TimesNewRomanPSMT-31"/>
       <use x="50" xlink:href="#TimesNewRomanPSMT-30"/>
       <use x="100" xlink:href="#TimesNewRomanPSMT-30"/>
      </g>
     </g>
    </g>
    <g id="xtick_7">
     <g id="line2d_7">
      <g>
       <use style="stroke:#000000;stroke-width:0.8;" x="927.895157" xlink:href="#m020e77ed0f" y="320.4"/>
      </g>
     </g>
     <g id="text_7">
      <!-- 120 -->
      <g transform="translate(917.395157 337.12125)scale(0.14 -0.14)">
       <use xlink:href="#TimesNewRomanPSMT-31"/>
       <use x="50" xlink:href="#TimesNewRomanPSMT-32"/>
       <use x="100" xlink:href="#TimesNewRomanPSMT-30"/>
      </g>
     </g>
    </g>
    <g id="text_8">
     <!-- Episodes -->
     <g transform="translate(752.885227 355.225937)scale(0.16 -0.16)">
      <defs>
       <path d="M 1338 4006 
L 1338 2331 
L 2269 2331 
Q 2631 2331 2753 2441 
Q 2916 2584 2934 2947 
L 3050 2947 
L 3050 1472 
L 2934 1472 
Q 2891 1781 2847 1869 
Q 2791 1978 2662 2040 
Q 2534 2103 2269 2103 
L 1338 2103 
L 1338 706 
Q 1338 425 1363 364 
Q 1388 303 1450 267 
Q 1513 231 1688 231 
L 2406 231 
Q 2766 231 2928 281 
Q 3091 331 3241 478 
Q 3434 672 3638 1063 
L 3763 1063 
L 3397 0 
L 131 0 
L 131 116 
L 281 116 
Q 431 116 566 188 
Q 666 238 702 338 
Q 738 438 738 747 
L 738 3500 
Q 738 3903 656 3997 
Q 544 4122 281 4122 
L 131 4122 
L 131 4238 
L 3397 4238 
L 3444 3309 
L 3322 3309 
Q 3256 3644 3176 3769 
Q 3097 3894 2941 3959 
Q 2816 4006 2500 4006 
L 1338 4006 
z
" id="TimesNewRomanPSMT-45" transform="scale(0.015625)"/>
       <path d="M -6 2578 
L 875 2934 
L 994 2934 
L 994 2266 
Q 1216 2644 1439 2795 
Q 1663 2947 1909 2947 
Q 2341 2947 2628 2609 
Q 2981 2197 2981 1534 
Q 2981 794 2556 309 
Q 2206 -88 1675 -88 
Q 1444 -88 1275 -22 
Q 1150 25 994 166 
L 994 -706 
Q 994 -1000 1030 -1079 
Q 1066 -1159 1155 -1206 
Q 1244 -1253 1478 -1253 
L 1478 -1369 
L -22 -1369 
L -22 -1253 
L 56 -1253 
Q 228 -1256 350 -1188 
Q 409 -1153 442 -1076 
Q 475 -1000 475 -688 
L 475 2019 
Q 475 2297 450 2372 
Q 425 2447 370 2484 
Q 316 2522 222 2522 
Q 147 2522 31 2478 
L -6 2578 
z
M 994 2081 
L 994 1013 
Q 994 666 1022 556 
Q 1066 375 1236 237 
Q 1406 100 1666 100 
Q 1978 100 2172 344 
Q 2425 663 2425 1241 
Q 2425 1897 2138 2250 
Q 1938 2494 1663 2494 
Q 1513 2494 1366 2419 
Q 1253 2363 994 2081 
z
" id="TimesNewRomanPSMT-70" transform="scale(0.015625)"/>
       <path d="M 928 4444 
Q 1059 4444 1151 4351 
Q 1244 4259 1244 4128 
Q 1244 3997 1151 3903 
Q 1059 3809 928 3809 
Q 797 3809 703 3903 
Q 609 3997 609 4128 
Q 609 4259 701 4351 
Q 794 4444 928 4444 
z
M 1188 2947 
L 1188 647 
Q 1188 378 1227 289 
Q 1266 200 1342 156 
Q 1419 113 1622 113 
L 1622 0 
L 231 0 
L 231 113 
Q 441 113 512 153 
Q 584 194 626 287 
Q 669 381 669 647 
L 669 1750 
Q 669 2216 641 2353 
Q 619 2453 572 2492 
Q 525 2531 444 2531 
Q 356 2531 231 2484 
L 188 2597 
L 1050 2947 
L 1188 2947 
z
" id="TimesNewRomanPSMT-69" transform="scale(0.015625)"/>
       <path d="M 2050 2947 
L 2050 1972 
L 1947 1972 
Q 1828 2431 1642 2597 
Q 1456 2763 1169 2763 
Q 950 2763 815 2647 
Q 681 2531 681 2391 
Q 681 2216 781 2091 
Q 878 1963 1175 1819 
L 1631 1597 
Q 2266 1288 2266 781 
Q 2266 391 1970 151 
Q 1675 -88 1309 -88 
Q 1047 -88 709 6 
Q 606 38 541 38 
Q 469 38 428 -44 
L 325 -44 
L 325 978 
L 428 978 
Q 516 541 762 319 
Q 1009 97 1316 97 
Q 1531 97 1667 223 
Q 1803 350 1803 528 
Q 1803 744 1651 891 
Q 1500 1038 1047 1263 
Q 594 1488 453 1669 
Q 313 1847 313 2119 
Q 313 2472 555 2709 
Q 797 2947 1181 2947 
Q 1350 2947 1591 2875 
Q 1750 2828 1803 2828 
Q 1853 2828 1881 2850 
Q 1909 2872 1947 2947 
L 2050 2947 
z
" id="TimesNewRomanPSMT-73" transform="scale(0.015625)"/>
       <path d="M 1600 2947 
Q 2250 2947 2644 2453 
Q 2978 2031 2978 1484 
Q 2978 1100 2793 706 
Q 2609 313 2286 112 
Q 1963 -88 1566 -88 
Q 919 -88 538 428 
Q 216 863 216 1403 
Q 216 1797 411 2186 
Q 606 2575 925 2761 
Q 1244 2947 1600 2947 
z
M 1503 2744 
Q 1338 2744 1170 2645 
Q 1003 2547 900 2300 
Q 797 2053 797 1666 
Q 797 1041 1045 587 
Q 1294 134 1700 134 
Q 2003 134 2200 384 
Q 2397 634 2397 1244 
Q 2397 2006 2069 2444 
Q 1847 2744 1503 2744 
z
" id="TimesNewRomanPSMT-6f" transform="scale(0.015625)"/>
       <path d="M 2222 322 
Q 2013 103 1813 7 
Q 1613 -88 1381 -88 
Q 913 -88 563 304 
Q 213 697 213 1313 
Q 213 1928 600 2439 
Q 988 2950 1597 2950 
Q 1975 2950 2222 2709 
L 2222 3238 
Q 2222 3728 2198 3840 
Q 2175 3953 2125 3993 
Q 2075 4034 2000 4034 
Q 1919 4034 1784 3984 
L 1744 4094 
L 2597 4444 
L 2738 4444 
L 2738 1134 
Q 2738 631 2761 520 
Q 2784 409 2836 365 
Q 2888 322 2956 322 
Q 3041 322 3181 375 
L 3216 266 
L 2366 -88 
L 2222 -88 
L 2222 322 
z
M 2222 541 
L 2222 2016 
Q 2203 2228 2109 2403 
Q 2016 2578 1861 2667 
Q 1706 2756 1559 2756 
Q 1284 2756 1069 2509 
Q 784 2184 784 1559 
Q 784 928 1059 592 
Q 1334 256 1672 256 
Q 1956 256 2222 541 
z
" id="TimesNewRomanPSMT-64" transform="scale(0.015625)"/>
       <path d="M 681 1784 
Q 678 1147 991 784 
Q 1303 422 1725 422 
Q 2006 422 2214 576 
Q 2422 731 2563 1106 
L 2659 1044 
Q 2594 616 2278 264 
Q 1963 -88 1488 -88 
Q 972 -88 605 314 
Q 238 716 238 1394 
Q 238 2128 614 2539 
Q 991 2950 1559 2950 
Q 2041 2950 2350 2633 
Q 2659 2316 2659 1784 
L 681 1784 
z
M 681 1966 
L 2006 1966 
Q 1991 2241 1941 2353 
Q 1863 2528 1708 2628 
Q 1553 2728 1384 2728 
Q 1125 2728 920 2526 
Q 716 2325 681 1966 
z
" id="TimesNewRomanPSMT-65" transform="scale(0.015625)"/>
      </defs>
      <use xlink:href="#TimesNewRomanPSMT-45"/>
      <use x="61.083984" xlink:href="#TimesNewRomanPSMT-70"/>
      <use x="111.083984" xlink:href="#TimesNewRomanPSMT-69"/>
      <use x="138.867188" xlink:href="#TimesNewRomanPSMT-73"/>
      <use x="177.783203" xlink:href="#TimesNewRomanPSMT-6f"/>
      <use x="227.783203" xlink:href="#TimesNewRomanPSMT-64"/>
      <use x="277.783203" xlink:href="#TimesNewRomanPSMT-65"/>
      <use x="322.167969" xlink:href="#TimesNewRomanPSMT-73"/>
     </g>
    </g>
   </g>
   <g id="matplotlib.axis_2">
    <g id="ytick_1">
     <g id="line2d_8">
      <defs>
       <path d="M 0 0 
L -3.5 0 
" id="mdb2bb70c78" style="stroke:#000000;stroke-width:0.8;"/>
      </defs>
      <g>
       <use style="stroke:#000000;stroke-width:0.8;" x="591.545455" xlink:href="#mdb2bb70c78" y="306.673879"/>
      </g>
     </g>
     <g id="text_9">
      <!-- −6 -->
      <g transform="translate(569.650767 311.534504)scale(0.14 -0.14)">
       <defs>
        <path d="M 3484 2000 
L 116 2000 
L 116 2256 
L 3484 2256 
L 3484 2000 
z
" id="TimesNewRomanPSMT-2212" transform="scale(0.015625)"/>
       </defs>
       <use xlink:href="#TimesNewRomanPSMT-2212"/>
       <use x="56.396484" xlink:href="#TimesNewRomanPSMT-36"/>
      </g>
     </g>
    </g>
    <g id="ytick_2">
     <g id="line2d_9">
      <g>
       <use style="stroke:#000000;stroke-width:0.8;" x="591.545455" xlink:href="#mdb2bb70c78" y="272.733663"/>
      </g>
     </g>
     <g id="text_10">
      <!-- −4 -->
      <g transform="translate(569.650767 277.594288)scale(0.14 -0.14)">
       <use xlink:href="#TimesNewRomanPSMT-2212"/>
       <use x="56.396484" xlink:href="#TimesNewRomanPSMT-34"/>
      </g>
     </g>
    </g>
    <g id="ytick_3">
     <g id="line2d_10">
      <g>
       <use style="stroke:#000000;stroke-width:0.8;" x="591.545455" xlink:href="#mdb2bb70c78" y="238.793446"/>
      </g>
     </g>
     <g id="text_11">
      <!-- −2 -->
      <g transform="translate(569.650767 243.654071)scale(0.14 -0.14)">
       <use xlink:href="#TimesNewRomanPSMT-2212"/>
       <use x="56.396484" xlink:href="#TimesNewRomanPSMT-32"/>
      </g>
     </g>
    </g>
    <g id="ytick_4">
     <g id="line2d_11">
      <g>
       <use style="stroke:#000000;stroke-width:0.8;" x="591.545455" xlink:href="#mdb2bb70c78" y="204.85323"/>
      </g>
     </g>
     <g id="text_12">
      <!-- 0 -->
      <g transform="translate(577.545455 209.713855)scale(0.14 -0.14)">
       <use xlink:href="#TimesNewRomanPSMT-30"/>
      </g>
     </g>
    </g>
    <g id="ytick_5">
     <g id="line2d_12">
      <g>
       <use style="stroke:#000000;stroke-width:0.8;" x="591.545455" xlink:href="#mdb2bb70c78" y="170.913013"/>
      </g>
     </g>
     <g id="text_13">
      <!-- 2 -->
      <g transform="translate(577.545455 175.773638)scale(0.14 -0.14)">
       <use xlink:href="#TimesNewRomanPSMT-32"/>
      </g>
     </g>
    </g>
    <g id="ytick_6">
     <g id="line2d_13">
      <g>
       <use style="stroke:#000000;stroke-width:0.8;" x="591.545455" xlink:href="#mdb2bb70c78" y="136.972797"/>
      </g>
     </g>
     <g id="text_14">
      <!-- 4 -->
      <g transform="translate(577.545455 141.833422)scale(0.14 -0.14)">
       <use xlink:href="#TimesNewRomanPSMT-34"/>
      </g>
     </g>
    </g>
    <g id="ytick_7">
     <g id="line2d_14">
      <g>
       <use style="stroke:#000000;stroke-width:0.8;" x="591.545455" xlink:href="#mdb2bb70c78" y="103.032581"/>
      </g>
     </g>
     <g id="text_15">
      <!-- 6 -->
      <g transform="translate(577.545455 107.893206)scale(0.14 -0.14)">
       <use xlink:href="#TimesNewRomanPSMT-36"/>
      </g>
     </g>
    </g>
    <g id="ytick_8">
     <g id="line2d_15">
      <g>
       <use style="stroke:#000000;stroke-width:0.8;" x="591.545455" xlink:href="#mdb2bb70c78" y="69.092364"/>
      </g>
     </g>
     <g id="text_16">
      <!-- 8 -->
      <g transform="translate(577.545455 73.952989)scale(0.14 -0.14)">
       <use xlink:href="#TimesNewRomanPSMT-38"/>
      </g>
     </g>
    </g>
    <g id="text_17">
     <!-- Rewards -->
     <g transform="translate(562.228267 209.79375)rotate(-90)scale(0.16 -0.16)">
      <defs>
       <path d="M 4325 0 
L 3194 0 
L 1759 1981 
Q 1600 1975 1500 1975 
Q 1459 1975 1412 1976 
Q 1366 1978 1316 1981 
L 1316 750 
Q 1316 350 1403 253 
Q 1522 116 1759 116 
L 1925 116 
L 1925 0 
L 109 0 
L 109 116 
L 269 116 
Q 538 116 653 291 
Q 719 388 719 750 
L 719 3488 
Q 719 3888 631 3984 
Q 509 4122 269 4122 
L 109 4122 
L 109 4238 
L 1653 4238 
Q 2328 4238 2648 4139 
Q 2969 4041 3192 3777 
Q 3416 3513 3416 3147 
Q 3416 2756 3161 2468 
Q 2906 2181 2372 2063 
L 3247 847 
Q 3547 428 3762 290 
Q 3978 153 4325 116 
L 4325 0 
z
M 1316 2178 
Q 1375 2178 1419 2176 
Q 1463 2175 1491 2175 
Q 2097 2175 2405 2437 
Q 2713 2700 2713 3106 
Q 2713 3503 2464 3751 
Q 2216 4000 1806 4000 
Q 1625 4000 1316 3941 
L 1316 2178 
z
" id="TimesNewRomanPSMT-52" transform="scale(0.015625)"/>
       <path d="M 41 2863 
L 1241 2863 
L 1241 2747 
Q 1075 2734 1023 2687 
Q 972 2641 972 2553 
Q 972 2456 1025 2319 
L 1638 672 
L 2253 2013 
L 2091 2434 
Q 2016 2622 1894 2694 
Q 1825 2738 1638 2747 
L 1638 2863 
L 3000 2863 
L 3000 2747 
Q 2775 2738 2681 2666 
Q 2619 2616 2619 2506 
Q 2619 2444 2644 2378 
L 3294 734 
L 3897 2319 
Q 3959 2488 3959 2588 
Q 3959 2647 3898 2694 
Q 3838 2741 3659 2747 
L 3659 2863 
L 4563 2863 
L 4563 2747 
Q 4291 2706 4163 2378 
L 3206 -88 
L 3078 -88 
L 2363 1741 
L 1528 -88 
L 1413 -88 
L 494 2319 
Q 403 2547 315 2626 
Q 228 2706 41 2747 
L 41 2863 
z
" id="TimesNewRomanPSMT-77" transform="scale(0.015625)"/>
       <path d="M 1822 413 
Q 1381 72 1269 19 
Q 1100 -59 909 -59 
Q 613 -59 420 144 
Q 228 347 228 678 
Q 228 888 322 1041 
Q 450 1253 767 1440 
Q 1084 1628 1822 1897 
L 1822 2009 
Q 1822 2438 1686 2597 
Q 1550 2756 1291 2756 
Q 1094 2756 978 2650 
Q 859 2544 859 2406 
L 866 2225 
Q 866 2081 792 2003 
Q 719 1925 600 1925 
Q 484 1925 411 2006 
Q 338 2088 338 2228 
Q 338 2497 613 2722 
Q 888 2947 1384 2947 
Q 1766 2947 2009 2819 
Q 2194 2722 2281 2516 
Q 2338 2381 2338 1966 
L 2338 994 
Q 2338 584 2353 492 
Q 2369 400 2405 369 
Q 2441 338 2488 338 
Q 2538 338 2575 359 
Q 2641 400 2828 588 
L 2828 413 
Q 2478 -56 2159 -56 
Q 2006 -56 1915 50 
Q 1825 156 1822 413 
z
M 1822 616 
L 1822 1706 
Q 1350 1519 1213 1441 
Q 966 1303 859 1153 
Q 753 1003 753 825 
Q 753 600 887 451 
Q 1022 303 1197 303 
Q 1434 303 1822 616 
z
" id="TimesNewRomanPSMT-61" transform="scale(0.015625)"/>
       <path d="M 1038 2947 
L 1038 2303 
Q 1397 2947 1775 2947 
Q 1947 2947 2059 2842 
Q 2172 2738 2172 2600 
Q 2172 2478 2090 2393 
Q 2009 2309 1897 2309 
Q 1788 2309 1652 2417 
Q 1516 2525 1450 2525 
Q 1394 2525 1328 2463 
Q 1188 2334 1038 2041 
L 1038 669 
Q 1038 431 1097 309 
Q 1138 225 1241 169 
Q 1344 113 1538 113 
L 1538 0 
L 72 0 
L 72 113 
Q 291 113 397 181 
Q 475 231 506 341 
Q 522 394 522 644 
L 522 1753 
Q 522 2253 501 2348 
Q 481 2444 426 2487 
Q 372 2531 291 2531 
Q 194 2531 72 2484 
L 41 2597 
L 906 2947 
L 1038 2947 
z
" id="TimesNewRomanPSMT-72" transform="scale(0.015625)"/>
      </defs>
      <use xlink:href="#TimesNewRomanPSMT-52"/>
      <use x="66.699219" xlink:href="#TimesNewRomanPSMT-65"/>
      <use x="111.083984" xlink:href="#TimesNewRomanPSMT-77"/>
      <use x="183.300781" xlink:href="#TimesNewRomanPSMT-61"/>
      <use x="227.685547" xlink:href="#TimesNewRomanPSMT-72"/>
      <use x="260.986328" xlink:href="#TimesNewRomanPSMT-64"/>
      <use x="310.986328" xlink:href="#TimesNewRomanPSMT-73"/>
     </g>
    </g>
   </g>
   <g id="line2d_16">
    <path clip-path="url(#p822290fbdf)" d="M 608.838843 224.567863 
L 611.519988 222.283474 
L 614.201134 217.72754 
L 616.882279 210.95115 
L 619.563425 202.077984 
L 622.24457 191.351824 
L 624.925716 179.137649 
L 630.288007 152.309591 
L 632.969152 138.881731 
L 635.650298 126.217252 
L 638.331443 114.798679 
L 641.012589 104.978197 
L 643.693734 96.973444 
L 646.37488 90.867881 
L 649.056025 86.63129 
L 651.737171 84.149185 
L 654.418316 83.261092 
L 657.099462 83.731865 
L 659.780607 85.292438 
L 662.461753 87.628647 
L 667.824044 93.16236 
L 670.505189 95.591917 
L 673.186335 97.320499 
L 675.86748 98.067452 
L 678.548626 97.686656 
L 681.229771 96.141236 
L 683.910917 93.537588 
L 686.592062 90.102136 
L 689.273208 86.134494 
L 694.635499 77.881786 
L 697.316644 74.154483 
L 699.99779 70.947572 
L 702.678935 68.346694 
L 705.360081 66.36253 
L 708.041226 64.950735 
L 710.722372 64.030296 
L 713.403517 63.507187 
L 716.084663 63.289767 
L 718.765808 63.293767 
L 724.128099 63.700944 
L 734.852681 64.769744 
L 740.214972 64.940998 
L 745.577263 64.753028 
L 750.939554 64.268165 
L 758.982991 63.220835 
L 777.751009 60.526449 
L 783.1133 59.955201 
L 788.475591 59.586382 
L 793.837882 59.420504 
L 809.924755 59.161465 
L 815.287046 58.744841 
L 823.330482 57.776054 
L 828.692773 57.136574 
L 834.055064 56.71138 
L 839.417355 56.584202 
L 844.779646 56.716971 
L 858.185374 57.266819 
L 863.547665 57.216036 
L 871.591101 56.785637 
L 879.634538 56.35216 
L 884.996829 56.32974 
L 890.35912 56.577705 
L 909.127138 57.876384 
L 914.489429 57.890158 
L 919.85172 57.679494 
L 927.895157 57.054181 
L 938.619739 56.165942 
L 943.98203 55.903533 
L 949.344321 55.8 
L 954.706612 55.837277 
L 954.706612 55.837277 
" style="fill:none;stroke:#ff4500;stroke-linecap:square;stroke-width:1.5;"/>
   </g>
   <g id="line2d_17">
    <path clip-path="url(#p822290fbdf)" d="M 608.838843 206.702075 
L 611.519988 202.935874 
L 614.201134 195.691809 
L 616.882279 185.514127 
L 619.563425 173.155537 
L 630.288007 118.748523 
L 632.969152 107.526765 
L 635.650298 98.147699 
L 638.331443 90.740164 
L 641.012589 85.296964 
L 643.693734 81.716023 
L 646.37488 79.845832 
L 649.056025 79.515063 
L 651.737171 80.535282 
L 654.418316 82.697616 
L 657.099462 85.761417 
L 659.780607 89.427257 
L 665.142898 97.115627 
L 667.824044 100.334922 
L 670.505189 102.656673 
L 673.186335 103.822617 
L 675.86748 103.713742 
L 678.548626 102.357723 
L 681.229771 99.927142 
L 683.910917 96.703424 
L 691.954353 85.591748 
L 694.635499 82.368037 
L 697.316644 79.683335 
L 699.99779 77.588389 
L 702.678935 76.055654 
L 705.360081 74.997059 
L 708.041226 74.285745 
L 718.765808 72.217574 
L 721.446954 71.437019 
L 726.809245 69.469519 
L 732.171536 67.321606 
L 734.852681 66.341331 
L 737.533827 65.486705 
L 740.214972 64.786709 
L 742.896118 64.254101 
L 745.577263 63.889677 
L 748.258409 63.6854 
L 750.939554 63.624249 
L 756.301845 63.843117 
L 767.026427 64.702591 
L 769.707573 64.784047 
L 772.388718 64.753943 
L 777.751009 64.347372 
L 783.1133 63.594151 
L 791.156736 62.362665 
L 796.519027 61.793127 
L 801.881318 61.558016 
L 807.243609 61.708592 
L 812.6059 62.276713 
L 817.968191 63.238508 
L 828.692773 65.543307 
L 831.373919 65.942291 
L 834.055064 66.181559 
L 836.73621 66.238717 
L 839.417355 66.112963 
L 842.098501 65.823981 
L 847.460792 64.919345 
L 855.504228 63.472289 
L 860.866519 62.828458 
L 866.22881 62.506282 
L 871.591101 62.466561 
L 876.953392 62.700746 
L 882.315683 63.228701 
L 890.35912 64.421292 
L 895.721411 65.173994 
L 901.083702 65.612 
L 906.445993 65.711901 
L 911.808284 65.750649 
L 914.489429 65.876315 
L 917.170575 66.126678 
L 919.85172 66.513469 
L 925.214011 67.592814 
L 930.576302 68.665608 
L 933.257448 69.009154 
L 935.938593 69.14012 
L 938.619739 69.02448 
L 941.300884 68.656119 
L 943.98203 68.056088 
L 946.663175 67.266599 
L 952.025466 65.350521 
L 954.706612 64.348419 
L 954.706612 64.348419 
" style="fill:none;stroke:#4682b4;stroke-linecap:square;stroke-width:1.5;"/>
   </g>
   <g id="line2d_18">
    <path clip-path="url(#p822290fbdf)" d="M 608.838843 307.8 
L 611.519988 303.247461 
L 614.201134 294.555704 
L 616.882279 282.489073 
L 619.563425 268.048777 
L 627.606861 221.202964 
L 630.288007 207.389568 
L 632.969152 195.418262 
L 635.650298 185.489188 
L 638.331443 177.599098 
L 641.012589 171.592458 
L 643.693734 167.2187 
L 646.37488 164.181288 
L 649.056025 162.176466 
L 651.737171 160.934446 
L 654.418316 160.21111 
L 657.099462 159.818639 
L 662.461753 159.509917 
L 673.186335 159.103642 
L 686.592062 158.407971 
L 691.954353 158.388779 
L 699.99779 158.661395 
L 708.041226 158.892372 
L 713.403517 158.852298 
L 721.446954 158.505015 
L 726.809245 158.099729 
L 732.171536 157.463223 
L 734.852681 157.005029 
L 737.533827 156.418476 
L 740.214972 155.68226 
L 742.896118 154.782225 
L 745.577263 153.719559 
L 750.939554 151.199925 
L 756.301845 148.503303 
L 758.982991 147.270985 
L 761.664136 146.21555 
L 764.345282 145.397323 
L 767.026427 144.85512 
L 769.707573 144.602577 
L 772.388718 144.624076 
L 775.069864 144.88505 
L 777.751009 145.337207 
L 783.1133 146.620838 
L 791.156736 148.981659 
L 796.519027 150.758284 
L 801.881318 152.804211 
L 804.562464 153.978756 
L 807.243609 155.29067 
L 809.924755 156.77394 
L 812.6059 158.471261 
L 815.287046 160.43104 
L 817.968191 162.697157 
L 820.649337 165.302439 
L 823.330482 168.241145 
L 826.011628 171.46728 
L 831.373919 178.285546 
L 834.055064 181.479833 
L 836.73621 184.215751 
L 839.417355 186.266208 
L 842.098501 187.461306 
L 844.779646 187.732157 
L 847.460792 187.130681 
L 850.141937 185.838501 
L 858.185374 180.865064 
L 860.866519 179.880395 
L 863.547665 179.528567 
L 866.22881 179.747516 
L 871.591101 180.785026 
L 874.272247 180.750146 
L 876.953392 179.733702 
L 879.634538 177.384076 
L 882.315683 173.520153 
L 884.996829 168.170439 
L 887.677974 161.569326 
L 890.35912 154.11505 
L 895.721411 138.618418 
L 898.402556 131.524977 
L 901.083702 125.350463 
L 903.764847 120.294404 
L 906.445993 116.434577 
L 909.127138 113.721119 
L 911.808284 112.014536 
L 914.489429 111.112078 
L 917.170575 110.76572 
L 925.214011 110.505985 
L 927.895157 109.958638 
L 930.576302 108.954603 
L 933.257448 107.471434 
L 935.938593 105.557139 
L 941.300884 100.973716 
L 943.98203 98.682212 
L 946.663175 96.65611 
L 949.344321 95.079385 
L 952.025466 94.091008 
L 954.706612 93.761054 
L 954.706612 93.761054 
" style="fill:none;stroke:#008000;stroke-linecap:square;stroke-width:1.5;"/>
   </g>
   <g id="patch_3">
    <path d="M 591.545455 320.4 
L 591.545455 43.2 
" style="fill:none;stroke:#000000;stroke-linecap:square;stroke-linejoin:miter;stroke-width:1.5;"/>
   </g>
   <g id="patch_4">
    <path d="M 972 320.4 
L 972 43.2 
" style="fill:none;stroke:#000000;stroke-linecap:square;stroke-linejoin:miter;stroke-width:1.5;"/>
   </g>
   <g id="patch_5">
    <path d="M 591.545455 320.4 
L 972 320.4 
" style="fill:none;stroke:#000000;stroke-linecap:square;stroke-linejoin:miter;stroke-width:1.5;"/>
   </g>
   <g id="patch_6">
    <path d="M 591.545455 43.2 
L 972 43.2 
" style="fill:none;stroke:#000000;stroke-linecap:square;stroke-linejoin:miter;stroke-width:1.5;"/>
   </g>
   <g id="legend_1">
    <g id="patch_7">
     <path d="M 880.539375 314.4 
L 963.6 314.4 
Q 966 314.4 966 312 
L 966 262.299375 
Q 966 259.899375 963.6 259.899375 
L 880.539375 259.899375 
Q 878.139375 259.899375 878.139375 262.299375 
L 878.139375 312 
Q 878.139375 314.4 880.539375 314.4 
z
" style="fill:#ffffff;opacity:0.8;stroke:#cccccc;stroke-linejoin:miter;"/>
    </g>
    <g id="line2d_19">
     <path d="M 882.939375 268.899375 
L 906.939375 268.899375 
" style="fill:none;stroke:#ff4500;stroke-linecap:square;stroke-width:1.5;"/>
    </g>
    <g id="line2d_20"/>
    <g id="text_18">
     <!-- VD3QN -->
     <g transform="translate(916.539375 273.099375)scale(0.12 -0.12)">
      <defs>
       <path d="M 4544 4238 
L 4544 4122 
Q 4319 4081 4203 3978 
Q 4038 3825 3909 3509 
L 2431 -97 
L 2316 -97 
L 728 3556 
Q 606 3838 556 3900 
Q 478 3997 364 4051 
Q 250 4106 56 4122 
L 56 4238 
L 1788 4238 
L 1788 4122 
Q 1494 4094 1406 4022 
Q 1319 3950 1319 3838 
Q 1319 3681 1463 3350 
L 2541 866 
L 3541 3319 
Q 3688 3681 3688 3822 
Q 3688 3913 3597 3995 
Q 3506 4078 3291 4113 
Q 3275 4116 3238 4122 
L 3238 4238 
L 4544 4238 
z
" id="TimesNewRomanPSMT-56" transform="scale(0.015625)"/>
       <path d="M 109 0 
L 109 116 
L 269 116 
Q 538 116 650 288 
Q 719 391 719 750 
L 719 3488 
Q 719 3884 631 3984 
Q 509 4122 269 4122 
L 109 4122 
L 109 4238 
L 1834 4238 
Q 2784 4238 3279 4022 
Q 3775 3806 4076 3303 
Q 4378 2800 4378 2141 
Q 4378 1256 3841 663 
Q 3238 0 2003 0 
L 109 0 
z
M 1319 306 
Q 1716 219 1984 219 
Q 2709 219 3187 728 
Q 3666 1238 3666 2109 
Q 3666 2988 3187 3494 
Q 2709 4000 1959 4000 
Q 1678 4000 1319 3909 
L 1319 306 
z
" id="TimesNewRomanPSMT-44" transform="scale(0.015625)"/>
       <path d="M 325 3431 
Q 506 3859 782 4092 
Q 1059 4325 1472 4325 
Q 1981 4325 2253 3994 
Q 2459 3747 2459 3466 
Q 2459 3003 1878 2509 
Q 2269 2356 2469 2072 
Q 2669 1788 2669 1403 
Q 2669 853 2319 450 
Q 1863 -75 997 -75 
Q 569 -75 414 31 
Q 259 138 259 259 
Q 259 350 332 419 
Q 406 488 509 488 
Q 588 488 669 463 
Q 722 447 909 348 
Q 1097 250 1169 231 
Q 1284 197 1416 197 
Q 1734 197 1970 444 
Q 2206 691 2206 1028 
Q 2206 1275 2097 1509 
Q 2016 1684 1919 1775 
Q 1784 1900 1550 2001 
Q 1316 2103 1072 2103 
L 972 2103 
L 972 2197 
Q 1219 2228 1467 2375 
Q 1716 2522 1828 2728 
Q 1941 2934 1941 3181 
Q 1941 3503 1739 3701 
Q 1538 3900 1238 3900 
Q 753 3900 428 3381 
L 325 3431 
z
" id="TimesNewRomanPSMT-33" transform="scale(0.015625)"/>
       <path d="M 2819 -47 
Q 3138 -597 3508 -856 
Q 3878 -1116 4350 -1153 
L 4350 -1253 
Q 3919 -1238 3428 -1080 
Q 2938 -922 2498 -642 
Q 2059 -363 1741 -47 
Q 1291 134 1028 338 
Q 647 641 436 1083 
Q 225 1525 225 2128 
Q 225 3078 840 3706 
Q 1456 4334 2331 4334 
Q 3163 4334 3770 3704 
Q 4378 3075 4378 2116 
Q 4378 1338 3945 750 
Q 3513 163 2819 -47 
z
M 2294 4094 
Q 1725 4094 1378 3688 
Q 941 3178 941 2128 
Q 941 1100 1384 544 
Q 1728 116 2294 116 
Q 2881 116 3241 544 
Q 3663 1050 3663 2038 
Q 3663 2797 3431 3316 
Q 3253 3716 2958 3905 
Q 2663 4094 2294 4094 
z
" id="TimesNewRomanPSMT-51" transform="scale(0.015625)"/>
       <path d="M -84 4238 
L 1066 4238 
L 3656 1059 
L 3656 3503 
Q 3656 3894 3569 3991 
Q 3453 4122 3203 4122 
L 3056 4122 
L 3056 4238 
L 4531 4238 
L 4531 4122 
L 4381 4122 
Q 4113 4122 4000 3959 
Q 3931 3859 3931 3503 
L 3931 -69 
L 3819 -69 
L 1025 3344 
L 1025 734 
Q 1025 344 1109 247 
Q 1228 116 1475 116 
L 1625 116 
L 1625 0 
L 150 0 
L 150 116 
L 297 116 
Q 569 116 681 278 
Q 750 378 750 734 
L 750 3681 
Q 566 3897 470 3965 
Q 375 4034 191 4094 
Q 100 4122 -84 4122 
L -84 4238 
z
" id="TimesNewRomanPSMT-4e" transform="scale(0.015625)"/>
      </defs>
      <use xlink:href="#TimesNewRomanPSMT-56"/>
      <use x="72.216797" xlink:href="#TimesNewRomanPSMT-44"/>
      <use x="144.433594" xlink:href="#TimesNewRomanPSMT-33"/>
      <use x="194.433594" xlink:href="#TimesNewRomanPSMT-51"/>
      <use x="266.650391" xlink:href="#TimesNewRomanPSMT-4e"/>
     </g>
    </g>
    <g id="line2d_21">
     <path d="M 882.939375 285.86625 
L 906.939375 285.86625 
" style="fill:none;stroke:#4682b4;stroke-linecap:square;stroke-width:1.5;"/>
    </g>
    <g id="line2d_22"/>
    <g id="text_19">
     <!-- D3QN -->
     <g transform="translate(916.539375 290.06625)scale(0.12 -0.12)">
      <use xlink:href="#TimesNewRomanPSMT-44"/>
      <use x="72.216797" xlink:href="#TimesNewRomanPSMT-33"/>
      <use x="122.216797" xlink:href="#TimesNewRomanPSMT-51"/>
      <use x="194.433594" xlink:href="#TimesNewRomanPSMT-4e"/>
     </g>
    </g>
    <g id="line2d_23">
     <path d="M 882.939375 302.833125 
L 906.939375 302.833125 
" style="fill:none;stroke:#008000;stroke-linecap:square;stroke-width:1.5;"/>
    </g>
    <g id="line2d_24"/>
    <g id="text_20">
     <!-- VD3QN- -->
     <g transform="translate(916.539375 307.033125)scale(0.12 -0.12)">
      <defs>
       <path d="M 259 1672 
L 1875 1672 
L 1875 1200 
L 259 1200 
L 259 1672 
z
" id="TimesNewRomanPSMT-2d" transform="scale(0.015625)"/>
      </defs>
      <use xlink:href="#TimesNewRomanPSMT-56"/>
      <use x="72.216797" xlink:href="#TimesNewRomanPSMT-44"/>
      <use x="144.433594" xlink:href="#TimesNewRomanPSMT-33"/>
      <use x="194.433594" xlink:href="#TimesNewRomanPSMT-51"/>
      <use x="266.650391" xlink:href="#TimesNewRomanPSMT-4e"/>
      <use x="338.867188" xlink:href="#TimesNewRomanPSMT-2d"/>
     </g>
    </g>
   </g>
  </g>
  <g id="axes_2">
   <g id="patch_8">
    <path d="M 135 320.4 
L 515.454545 320.4 
L 515.454545 43.2 
L 135 43.2 
z
" style="fill:#ffffff;"/>
   </g>
   <g id="matplotlib.axis_3">
    <g id="xtick_8">
     <g id="line2d_25">
      <g>
       <use style="stroke:#000000;stroke-width:0.8;" x="148.968811" xlink:href="#m020e77ed0f" y="320.4"/>
      </g>
     </g>
     <g id="text_21">
      <!-- 0 -->
      <g transform="translate(145.468811 337.12125)scale(0.14 -0.14)">
       <use xlink:href="#TimesNewRomanPSMT-30"/>
      </g>
     </g>
    </g>
    <g id="xtick_9">
     <g id="line2d_26">
      <g>
       <use style="stroke:#000000;stroke-width:0.8;" x="204.844057" xlink:href="#m020e77ed0f" y="320.4"/>
      </g>
     </g>
     <g id="text_22">
      <!-- 2000 -->
      <g transform="translate(190.844057 337.12125)scale(0.14 -0.14)">
       <use xlink:href="#TimesNewRomanPSMT-32"/>
       <use x="50" xlink:href="#TimesNewRomanPSMT-30"/>
       <use x="100" xlink:href="#TimesNewRomanPSMT-30"/>
       <use x="150" xlink:href="#TimesNewRomanPSMT-30"/>
      </g>
     </g>
    </g>
    <g id="xtick_10">
     <g id="line2d_27">
      <g>
       <use style="stroke:#000000;stroke-width:0.8;" x="260.719302" xlink:href="#m020e77ed0f" y="320.4"/>
      </g>
     </g>
     <g id="text_23">
      <!-- 4000 -->
      <g transform="translate(246.719302 337.12125)scale(0.14 -0.14)">
       <use xlink:href="#TimesNewRomanPSMT-34"/>
       <use x="50" xlink:href="#TimesNewRomanPSMT-30"/>
       <use x="100" xlink:href="#TimesNewRomanPSMT-30"/>
       <use x="150" xlink:href="#TimesNewRomanPSMT-30"/>
      </g>
     </g>
    </g>
    <g id="xtick_11">
     <g id="line2d_28">
      <g>
       <use style="stroke:#000000;stroke-width:0.8;" x="316.594547" xlink:href="#m020e77ed0f" y="320.4"/>
      </g>
     </g>
     <g id="text_24">
      <!-- 6000 -->
      <g transform="translate(302.594547 337.12125)scale(0.14 -0.14)">
       <use xlink:href="#TimesNewRomanPSMT-36"/>
       <use x="50" xlink:href="#TimesNewRomanPSMT-30"/>
       <use x="100" xlink:href="#TimesNewRomanPSMT-30"/>
       <use x="150" xlink:href="#TimesNewRomanPSMT-30"/>
      </g>
     </g>
    </g>
    <g id="xtick_12">
     <g id="line2d_29">
      <g>
       <use style="stroke:#000000;stroke-width:0.8;" x="372.469793" xlink:href="#m020e77ed0f" y="320.4"/>
      </g>
     </g>
     <g id="text_25">
      <!-- 8000 -->
      <g transform="translate(358.469793 337.12125)scale(0.14 -0.14)">
       <use xlink:href="#TimesNewRomanPSMT-38"/>
       <use x="50" xlink:href="#TimesNewRomanPSMT-30"/>
       <use x="100" xlink:href="#TimesNewRomanPSMT-30"/>
       <use x="150" xlink:href="#TimesNewRomanPSMT-30"/>
      </g>
     </g>
    </g>
    <g id="xtick_13">
     <g id="line2d_30">
      <g>
       <use style="stroke:#000000;stroke-width:0.8;" x="428.345038" xlink:href="#m020e77ed0f" y="320.4"/>
      </g>
     </g>
     <g id="text_26">
      <!-- 10000 -->
      <g transform="translate(410.845038 337.12125)scale(0.14 -0.14)">
       <use xlink:href="#TimesNewRomanPSMT-31"/>
       <use x="50" xlink:href="#TimesNewRomanPSMT-30"/>
       <use x="100" xlink:href="#TimesNewRomanPSMT-30"/>
       <use x="150" xlink:href="#TimesNewRomanPSMT-30"/>
       <use x="200" xlink:href="#TimesNewRomanPSMT-30"/>
      </g>
     </g>
    </g>
    <g id="xtick_14">
     <g id="line2d_31">
      <g>
       <use style="stroke:#000000;stroke-width:0.8;" x="484.220283" xlink:href="#m020e77ed0f" y="320.4"/>
      </g>
     </g>
     <g id="text_27">
      <!-- 12000 -->
      <g transform="translate(466.720283 337.12125)scale(0.14 -0.14)">
       <use xlink:href="#TimesNewRomanPSMT-31"/>
       <use x="50" xlink:href="#TimesNewRomanPSMT-32"/>
       <use x="100" xlink:href="#TimesNewRomanPSMT-30"/>
       <use x="150" xlink:href="#TimesNewRomanPSMT-30"/>
       <use x="200" xlink:href="#TimesNewRomanPSMT-30"/>
      </g>
     </g>
    </g>
    <g id="text_28">
     <!-- Steps -->
     <g transform="translate(307.891023 355.225937)scale(0.16 -0.16)">
      <defs>
       <path d="M 2934 4334 
L 2934 2869 
L 2819 2869 
Q 2763 3291 2617 3541 
Q 2472 3791 2203 3937 
Q 1934 4084 1647 4084 
Q 1322 4084 1109 3886 
Q 897 3688 897 3434 
Q 897 3241 1031 3081 
Q 1225 2847 1953 2456 
Q 2547 2138 2764 1967 
Q 2981 1797 3098 1565 
Q 3216 1334 3216 1081 
Q 3216 600 2842 251 
Q 2469 -97 1881 -97 
Q 1697 -97 1534 -69 
Q 1438 -53 1133 45 
Q 828 144 747 144 
Q 669 144 623 97 
Q 578 50 556 -97 
L 441 -97 
L 441 1356 
L 556 1356 
Q 638 900 775 673 
Q 913 447 1195 297 
Q 1478 147 1816 147 
Q 2206 147 2432 353 
Q 2659 559 2659 841 
Q 2659 997 2573 1156 
Q 2488 1316 2306 1453 
Q 2184 1547 1640 1851 
Q 1097 2156 867 2337 
Q 638 2519 519 2737 
Q 400 2956 400 3219 
Q 400 3675 750 4004 
Q 1100 4334 1641 4334 
Q 1978 4334 2356 4169 
Q 2531 4091 2603 4091 
Q 2684 4091 2736 4139 
Q 2788 4188 2819 4334 
L 2934 4334 
z
" id="TimesNewRomanPSMT-53" transform="scale(0.015625)"/>
       <path d="M 1031 3803 
L 1031 2863 
L 1700 2863 
L 1700 2644 
L 1031 2644 
L 1031 788 
Q 1031 509 1111 412 
Q 1191 316 1316 316 
Q 1419 316 1516 380 
Q 1613 444 1666 569 
L 1788 569 
Q 1678 263 1478 108 
Q 1278 -47 1066 -47 
Q 922 -47 784 33 
Q 647 113 581 261 
Q 516 409 516 719 
L 516 2644 
L 63 2644 
L 63 2747 
Q 234 2816 414 2980 
Q 594 3144 734 3369 
Q 806 3488 934 3803 
L 1031 3803 
z
" id="TimesNewRomanPSMT-74" transform="scale(0.015625)"/>
      </defs>
      <use xlink:href="#TimesNewRomanPSMT-53"/>
      <use x="55.615234" xlink:href="#TimesNewRomanPSMT-74"/>
      <use x="83.398438" xlink:href="#TimesNewRomanPSMT-65"/>
      <use x="127.783203" xlink:href="#TimesNewRomanPSMT-70"/>
      <use x="177.783203" xlink:href="#TimesNewRomanPSMT-73"/>
     </g>
    </g>
   </g>
   <g id="matplotlib.axis_4">
    <g id="ytick_9">
     <g id="line2d_32">
      <g>
       <use style="stroke:#000000;stroke-width:0.8;" x="135" xlink:href="#mdb2bb70c78" y="309.094724"/>
      </g>
     </g>
     <g id="text_29">
      <!-- 0 -->
      <g transform="translate(121 313.955349)scale(0.14 -0.14)">
       <use xlink:href="#TimesNewRomanPSMT-30"/>
      </g>
     </g>
    </g>
    <g id="ytick_10">
     <g id="line2d_33">
      <g>
       <use style="stroke:#000000;stroke-width:0.8;" x="135" xlink:href="#mdb2bb70c78" y="277.658174"/>
      </g>
     </g>
     <g id="text_30">
      <!-- 1 -->
      <g transform="translate(121 282.518799)scale(0.14 -0.14)">
       <use xlink:href="#TimesNewRomanPSMT-31"/>
      </g>
     </g>
    </g>
    <g id="ytick_11">
     <g id="line2d_34">
      <g>
       <use style="stroke:#000000;stroke-width:0.8;" x="135" xlink:href="#mdb2bb70c78" y="246.221625"/>
      </g>
     </g>
     <g id="text_31">
      <!-- 2 -->
      <g transform="translate(121 251.08225)scale(0.14 -0.14)">
       <use xlink:href="#TimesNewRomanPSMT-32"/>
      </g>
     </g>
    </g>
    <g id="ytick_12">
     <g id="line2d_35">
      <g>
       <use style="stroke:#000000;stroke-width:0.8;" x="135" xlink:href="#mdb2bb70c78" y="214.785075"/>
      </g>
     </g>
     <g id="text_32">
      <!-- 3 -->
      <g transform="translate(121 219.6457)scale(0.14 -0.14)">
       <use xlink:href="#TimesNewRomanPSMT-33"/>
      </g>
     </g>
    </g>
    <g id="ytick_13">
     <g id="line2d_36">
      <g>
       <use style="stroke:#000000;stroke-width:0.8;" x="135" xlink:href="#mdb2bb70c78" y="183.348526"/>
      </g>
     </g>
     <g id="text_33">
      <!-- 4 -->
      <g transform="translate(121 188.209151)scale(0.14 -0.14)">
       <use xlink:href="#TimesNewRomanPSMT-34"/>
      </g>
     </g>
    </g>
    <g id="ytick_14">
     <g id="line2d_37">
      <g>
       <use style="stroke:#000000;stroke-width:0.8;" x="135" xlink:href="#mdb2bb70c78" y="151.911977"/>
      </g>
     </g>
     <g id="text_34">
      <!-- 5 -->
      <g transform="translate(121 156.772602)scale(0.14 -0.14)">
       <defs>
        <path d="M 2778 4238 
L 2534 3706 
L 1259 3706 
L 981 3138 
Q 1809 3016 2294 2522 
Q 2709 2097 2709 1522 
Q 2709 1188 2573 903 
Q 2438 619 2231 419 
Q 2025 219 1772 97 
Q 1413 -75 1034 -75 
Q 653 -75 479 54 
Q 306 184 306 341 
Q 306 428 378 495 
Q 450 563 559 563 
Q 641 563 702 538 
Q 763 513 909 409 
Q 1144 247 1384 247 
Q 1750 247 2026 523 
Q 2303 800 2303 1197 
Q 2303 1581 2056 1914 
Q 1809 2247 1375 2428 
Q 1034 2569 447 2591 
L 1259 4238 
L 2778 4238 
z
" id="TimesNewRomanPSMT-35" transform="scale(0.015625)"/>
       </defs>
       <use xlink:href="#TimesNewRomanPSMT-35"/>
      </g>
     </g>
    </g>
    <g id="ytick_15">
     <g id="line2d_38">
      <g>
       <use style="stroke:#000000;stroke-width:0.8;" x="135" xlink:href="#mdb2bb70c78" y="120.475427"/>
      </g>
     </g>
     <g id="text_35">
      <!-- 6 -->
      <g transform="translate(121 125.336052)scale(0.14 -0.14)">
       <use xlink:href="#TimesNewRomanPSMT-36"/>
      </g>
     </g>
    </g>
    <g id="ytick_16">
     <g id="line2d_39">
      <g>
       <use style="stroke:#000000;stroke-width:0.8;" x="135" xlink:href="#mdb2bb70c78" y="89.038878"/>
      </g>
     </g>
     <g id="text_36">
      <!-- 7 -->
      <g transform="translate(121 93.899503)scale(0.14 -0.14)">
       <defs>
        <path d="M 644 4238 
L 2916 4238 
L 2916 4119 
L 1503 -88 
L 1153 -88 
L 2419 3728 
L 1253 3728 
Q 900 3728 750 3644 
Q 488 3500 328 3200 
L 238 3234 
L 644 4238 
z
" id="TimesNewRomanPSMT-37" transform="scale(0.015625)"/>
       </defs>
       <use xlink:href="#TimesNewRomanPSMT-37"/>
      </g>
     </g>
    </g>
    <g id="ytick_17">
     <g id="line2d_40">
      <g>
       <use style="stroke:#000000;stroke-width:0.8;" x="135" xlink:href="#mdb2bb70c78" y="57.602328"/>
      </g>
     </g>
     <g id="text_37">
      <!-- 8 -->
      <g transform="translate(121 62.462953)scale(0.14 -0.14)">
       <use xlink:href="#TimesNewRomanPSMT-38"/>
      </g>
     </g>
    </g>
    <g id="text_38">
     <!-- Loss -->
     <g transform="translate(113.5775 196.91375)rotate(-90)scale(0.16 -0.16)">
      <defs>
       <path d="M 3669 1172 
L 3772 1150 
L 3409 0 
L 128 0 
L 128 116 
L 288 116 
Q 556 116 672 291 
Q 738 391 738 753 
L 738 3488 
Q 738 3884 650 3984 
Q 528 4122 288 4122 
L 128 4122 
L 128 4238 
L 2047 4238 
L 2047 4122 
Q 1709 4125 1573 4059 
Q 1438 3994 1388 3894 
Q 1338 3794 1338 3416 
L 1338 753 
Q 1338 494 1388 397 
Q 1425 331 1503 300 
Q 1581 269 1991 269 
L 2300 269 
Q 2788 269 2984 341 
Q 3181 413 3343 595 
Q 3506 778 3669 1172 
z
" id="TimesNewRomanPSMT-4c" transform="scale(0.015625)"/>
      </defs>
      <use xlink:href="#TimesNewRomanPSMT-4c"/>
      <use x="61.083984" xlink:href="#TimesNewRomanPSMT-6f"/>
      <use x="111.083984" xlink:href="#TimesNewRomanPSMT-73"/>
      <use x="150" xlink:href="#TimesNewRomanPSMT-73"/>
     </g>
    </g>
   </g>
   <g id="line2d_41">
    <path clip-path="url(#p0dd3e73d5c)" d="M 152.293388 182.146981 
L 153.103579 181.160009 
L 153.522644 179.272983 
L 153.550581 176.665406 
L 154.27696 173.576273 
L 154.668086 170.293689 
L 154.779837 167.118121 
L 155.366527 164.332825 
L 156.372281 162.165217 
L 156.595782 160.769035 
L 157.126597 160.196893 
L 157.461849 160.41908 
L 158.607291 161.335264 
L 159.668921 164.769161 
L 159.752734 167.143182 
L 160.702613 169.986537 
L 162.015681 173.421045 
L 162.574434 177.610113 
L 163.021436 182.704084 
L 163.384625 188.77654 
L 164.781506 203.567621 
L 165.060882 211.821769 
L 165.228508 220.195223 
L 166.681264 235.884014 
L 166.876827 248.581905 
L 167.323829 253.63728 
L 167.491455 257.944114 
L 168.385459 261.661138 
L 168.441334 264.963668 
L 169.586777 267.994843 
L 169.754403 270.862838 
L 169.78234 273.612004 
L 170.648407 278.694526 
L 173.134855 282.803475 
L 173.442169 284.31682 
L 174.25236 285.405562 
L 175.733054 286.064215 
L 175.984492 286.31638 
L 178.107752 285.816324 
L 179.700196 285.204731 
L 180.147198 284.448404 
L 180.761826 282.757839 
L 181.711705 281.176107 
L 181.879331 280.53252 
L 182.773335 280.034628 
L 182.82921 279.714999 
L 183.220337 279.599155 
L 183.946715 280.044345 
L 183.974653 280.612776 
L 184.309904 281.400252 
L 184.58928 282.385506 
L 184.645155 283.538045 
L 184.868656 284.820009 
L 186.768415 287.602502 
L 187.019853 291.716142 
L 187.29923 294.096488 
L 188.807861 295.149781 
L 189.366614 296.118104 
L 190.204742 297.013772 
L 190.23268 297.848749 
L 192.495627 299.393536 
L 192.523565 300.12076 
L 193.529319 300.822274 
L 194.060134 302.673488 
L 195.037951 303.144744 
L 195.121764 303.492715 
L 195.596704 303.646318 
L 196.071643 303.342574 
L 196.378957 302.696353 
L 197.245023 301.627509 
L 197.468524 300.053912 
L 198.446341 297.897448 
L 199.340345 291.639059 
L 199.39622 287.560403 
L 199.591784 282.983504 
L 203.3913 273.243825 
L 203.754489 268.712786 
L 203.950053 264.881833 
L 204.844057 262.076441 
L 204.92787 260.535703 
L 205.123433 260.376524 
L 205.989499 261.571722 
L 206.548252 263.95678 
L 206.576189 267.258843 
L 207.079066 271.141421 
L 209.62139 275.254359 
L 210.152205 282.968904 
L 210.459519 286.151027 
L 213.50472 288.743368 
L 214.342848 290.736247 
L 216.577858 292.175435 
L 217.695363 293.145216 
L 218.67318 293.748305 
L 219.84656 294.094233 
L 219.986248 294.287255 
L 220.572938 294.582956 
L 220.656751 294.826909 
L 221.215504 295.198279 
L 221.718381 295.706168 
L 222.472697 297.086763 
L 223.785765 297.882097 
L 223.813702 298.67471 
L 224.400393 299.401195 
L 225.182646 300.007647 
L 225.629648 300.671888 
L 226.77509 300.6638 
L 227.445593 299.872802 
L 227.697032 299.071915 
L 228.171972 297.994623 
L 228.339597 296.640963 
L 228.702786 295.014529 
L 228.758662 291.000919 
L 229.038038 288.678101 
L 229.121851 286.223371 
L 229.59679 283.729859 
L 230.965734 279.123235 
L 231.24511 277.301147 
L 231.72005 275.987872 
L 233.396307 275.290709 
L 234.262373 275.266364 
L 234.54175 277.158854 
L 234.849063 278.89248 
L 236.553258 280.962961 
L 237.922202 283.212565 
L 237.95014 285.496962 
L 238.480954 287.699708 
L 238.53683 291.579577 
L 238.927956 293.19675 
L 238.955894 294.595627 
L 239.654335 295.790276 
L 240.967403 297.631184 
L 241.162966 298.312439 
L 241.665843 298.857146 
L 241.749656 299.285863 
L 243.090662 300.075341 
L 245.549173 300.414037 
L 249.097251 300.423974 
L 249.125189 300.367177 
L 249.572191 300.218049 
L 253.958397 299.736917 
L 254.265711 298.053416 
L 254.349524 297.273772 
L 255.494967 295.252008 
L 256.86391 294.048054 
L 257.4506 292.757543 
L 259.294483 291.42761 
L 259.350358 290.113154 
L 259.881173 288.86691 
L 260.803115 287.728092 
L 261.054553 286.710188 
L 261.33393 284.920196 
L 261.669181 284.00646 
L 261.752994 282.958579 
L 262.842561 281.699189 
L 263.876253 280.195932 
L 263.932129 278.483253 
L 264.85407 272.564128 
L 265.887762 272.317607 
L 266.586203 272.849714 
L 266.921454 276.145485 
L 267.005267 278.638036 
L 267.619895 281.42172 
L 268.597712 284.281001 
L 268.905025 287.027831 
L 270.720971 291.676422 
L 272.425166 293.454394 
L 272.704542 294.857367 
L 275.917369 296.6766 
L 276.224683 297.205445 
L 278.208254 297.573066 
L 278.48763 297.856039 
L 278.59938 298.127784 
L 279.297821 298.451892 
L 280.555014 298.873873 
L 280.638827 299.409407 
L 282.706211 300.751641 
L 283.041463 302.512826 
L 283.292901 302.724662 
L 283.935466 302.630718 
L 284.13103 302.178053 
L 285.220597 301.327824 
L 285.248535 300.054383 
L 286.086663 298.351512 
L 286.729229 296.236941 
L 286.896854 288.119356 
L 287.120355 285.25681 
L 288.964239 280.393845 
L 289.802367 277.830268 
L 290.053806 277.659206 
L 290.919872 278.222997 
L 291.227186 279.432167 
L 292.791693 281.148752 
L 293.322508 283.210091 
L 293.685697 285.45493 
L 293.937135 287.74149 
L 293.993011 289.962062 
L 295.166391 292.045395 
L 295.389892 295.679021 
L 295.697206 297.2249 
L 295.808956 299.832756 
L 296.70296 300.915636 
L 297.066149 301.855463 
L 297.569026 302.648272 
L 297.76459 303.287762 
L 298.127779 303.770059 
L 298.882095 304.326629 
L 300.390726 304.177462 
L 300.642165 303.829593 
L 302.737486 303.771235 
L 304.301993 303.682565 
L 305.559186 303.522804 
L 305.698874 303.267667 
L 306.034126 302.916317 
L 307.319257 302.481678 
L 310.113019 301.990462 
L 311.873089 301.479499 
L 313.297908 300.567995 
L 316.035795 300.021978 
L 317.963491 300.141232 
L 319.332434 301.981731 
L 319.667686 302.666882 
L 320.67344 303.379791 
L 320.896941 304.087136 
L 321.595382 304.75767 
L 322.517323 305.365207 
L 322.573199 305.888842 
L 323.131951 306.316907 
L 323.38339 307.0047 
L 326.20509 307.038425 
L 327.210844 306.961548 
L 327.266719 306.836308 
L 328.691538 306.461921 
L 328.747413 306.215438 
L 329.417916 305.926334 
L 329.585542 305.212996 
L 329.72523 304.796564 
L 332.630743 304.358668 
L 333.13362 303.923926 
L 334.167312 303.523664 
L 334.251125 303.192548 
L 334.809877 302.851702 
L 335.173066 302.873581 
L 335.312755 303.01972 
L 335.759756 303.268196 
L 336.150883 303.929273 
L 336.597885 304.258079 
L 338.218267 304.715426 
L 339.810712 304.724682 
L 339.922462 304.529417 
L 340.369464 304.205169 
L 340.676778 303.771004 
L 342.939725 302.705523 
L 343.414665 301.680795 
L 343.861667 301.301553 
L 345.398236 301.005071 
L 346.655429 301.16421 
L 347.102431 301.397911 
L 347.297995 301.911429 
L 348.164061 302.261607 
L 348.862502 302.344697 
L 352.326767 302.466757 
L 352.382642 302.555306 
L 353.639835 302.828102 
L 356.685036 303.593571 
L 356.796786 303.817554 
L 357.606977 304.310875 
L 359.199422 304.579912 
L 359.506736 304.860065 
L 359.534673 305.146301 
L 360.316927 305.432655 
L 360.484553 305.980309 
L 360.819804 306.229845 
L 361.825558 306.660298 
L 362.523999 307.113164 
L 362.803375 307.288498 
L 364.312007 307.2555 
L 365.178073 307.132725 
L 365.345699 306.947833 
L 365.792701 306.692453 
L 367.664522 306.356097 
L 367.748334 305.92594 
L 368.474713 305.385108 
L 368.614401 304.712148 
L 369.536342 303.881879 
L 369.56428 302.869032 
L 370.290658 301.655637 
L 370.765598 300.238414 
L 371.100849 296.91254 
L 371.436101 291.99126 
L 372.358042 290.867609 
L 372.525668 290.198101 
L 373.224108 290.045936 
L 373.307921 290.418705 
L 374.900366 291.267282 
L 376.576623 292.495631 
L 376.800124 293.978729 
L 377.470627 295.584346 
L 377.973504 297.193226 
L 379.845325 301.28656 
L 379.873263 302.314334 
L 381.326019 303.92511 
L 381.689208 304.55468 
L 383.030214 305.554037 
L 383.561029 306.520487 
L 386.773855 306.8505 
L 386.913544 306.750781 
L 389.008865 306.610682 
L 389.846994 306.440777 
L 390.098433 306.252912 
L 390.60131 306.060476 
L 391.020374 305.711614 
L 393.702386 305.398806 
L 393.814136 305.346879 
L 395.350706 305.179808 
L 395.518331 305.069595 
L 396.300585 304.913641 
L 396.35646 304.708554 
L 396.971088 304.458253 
L 397.026963 304.172224 
L 398.284156 303.865407 
L 398.563532 303.557115 
L 399.457536 303.269203 
L 399.792788 302.843091 
L 400.100101 302.742377 
L 401.022043 302.810058 
L 402.810051 302.969263 
L 402.949739 303.190855 
L 403.396741 303.451878 
L 404.598059 303.998401 
L 405.184749 304.470184 
L 406.497817 304.665117 
L 406.609568 304.838444 
L 408.900453 305.299667 
L 409.543018 305.72583 
L 413.621911 306.304153 
L 414.040975 306.336779 
L 416.91855 306.288187 
L 418.510995 306.151484 
L 419.04181 305.953105 
L 422.003198 305.483744 
L 422.56195 305.302169 
L 422.897202 305.034016 
L 423.120703 304.625133 
L 423.791205 304.011211 
L 424.266145 303.125743 
L 424.294083 301.911516 
L 424.79696 300.334956 
L 425.942402 298.401282 
L 426.976094 291.28765 
L 427.451034 289.001385 
L 428.20535 287.086487 
L 428.484726 285.72541 
L 428.819978 285.050143 
L 428.847915 285.121636 
L 429.713981 285.922153 
L 429.769857 289.29299 
L 430.803549 298.514698 
L 430.971175 300.497909 
L 432.926808 302.198636 
L 433.681124 303.60324 
L 434.54719 304.722861 
L 434.686878 305.585222 
L 435.02213 306.226908 
L 436.502824 306.68752 
L 437.173327 307.216505 
L 440.833155 307.528689 
L 446.560368 307.696752 
L 448.851253 307.797076 
L 451.198013 307.737249 
L 452.706645 307.385064 
L 460.612992 307.118489 
L 462.401 307.276728 
L 462.596563 307.460956 
L 465.418263 307.669907 
L 470.530848 307.675852 
L 473.79955 307.682492 
L 478.548946 307.437653 
L 480.225203 307.231286 
L 480.476642 307.098895 
L 481.929398 306.742799 
L 482.097024 306.202822 
L 482.460213 305.842718 
L 482.683714 305.419109 
L 482.879277 304.420403 
L 483.326279 303.890952 
L 483.745344 302.952283 
L 485.78479 302.420742 
L 486.203855 302.568914 
L 486.399418 303.309112 
L 487.377235 303.836463 
L 487.796299 304.413037 
L 488.634428 304.996497 
L 489.165243 306.465473 
L 491.931067 307.05969 
L 492.042818 307.243562 
L 494.613079 307.504275 
L 497.267153 307.408764 
L 497.378904 307.374581 
L 498.161157 307.276324 
L 498.161157 307.276324 
" style="fill:none;stroke:#ff4500;stroke-linecap:square;stroke-width:1.5;"/>
   </g>
   <g id="line2d_42">
    <path clip-path="url(#p0dd3e73d5c)" d="M 152.293388 67.905995 
L 153.103579 66.367806 
L 153.522644 63.648193 
L 153.550581 60.401022 
L 154.668086 55.8 
L 154.779837 56.219303 
L 155.366527 59.401543 
L 156.372281 65.744513 
L 156.595782 75.337959 
L 157.126597 87.95906 
L 157.461849 103.129704 
L 158.607291 120.183125 
L 159.026355 138.34662 
L 159.668921 156.831215 
L 159.752734 174.899985 
L 160.702613 191.924512 
L 162.015681 207.417286 
L 163.384625 242.190957 
L 163.999252 249.766007 
L 164.781506 255.574703 
L 165.228508 262.988937 
L 166.681264 266.850244 
L 166.876827 269.308312 
L 167.323829 270.461956 
L 167.491455 271.680418 
L 168.385459 272.984117 
L 168.441334 274.349013 
L 169.586777 275.715357 
L 169.754403 277.008177 
L 169.78234 278.131039 
L 170.173467 278.980025 
L 170.648407 279.456564 
L 171.933537 279.469654 
L 173.134855 278.954686 
L 173.442169 277.885907 
L 174.25236 276.280501 
L 175.733054 274.199672 
L 175.984492 271.737119 
L 176.543245 269.009319 
L 179.700196 263.197589 
L 180.147198 260.295704 
L 180.761826 254.8501 
L 181.711705 250.441033 
L 181.879331 248.934304 
L 182.82921 248.073355 
L 183.220337 248.950679 
L 183.4159 250.743165 
L 183.946715 253.374987 
L 183.974653 256.684921 
L 184.58928 264.422786 
L 184.645155 268.357442 
L 184.868656 272.051841 
L 185.818536 275.359061 
L 186.768415 278.195206 
L 186.908103 282.395466 
L 187.187479 284.889164 
L 187.29923 285.666767 
L 188.807861 286.233001 
L 189.366614 286.662748 
L 190.204742 287.023668 
L 190.23268 287.370839 
L 192.495627 288.163155 
L 192.523565 288.628371 
L 193.529319 289.121776 
L 194.060134 290.429541 
L 195.037951 290.706408 
L 195.121764 290.870398 
L 195.596704 290.829388 
L 196.071643 290.601347 
L 196.378957 290.197073 
L 197.245023 289.561383 
L 197.468524 288.616907 
L 198.446341 287.274445 
L 199.340345 283.088505 
L 199.39622 280.192949 
L 199.591784 276.844371 
L 203.3913 269.56284 
L 203.950053 263.478917 
L 204.844057 261.68171 
L 204.92787 261.029758 
L 205.123433 261.61227 
L 205.989499 263.383631 
L 206.548252 266.167469 
L 206.576189 269.692335 
L 207.079066 273.636113 
L 209.62139 277.675238 
L 210.152205 284.976851 
L 210.459519 287.888262 
L 213.50472 290.201241 
L 214.342848 291.920515 
L 216.577858 293.097782 
L 217.695363 293.813855 
L 218.67318 294.16175 
L 219.84656 294.235185 
L 220.572938 293.62158 
L 220.656751 293.340685 
L 222.109507 292.756912 
L 222.472697 292.68845 
L 223.813702 292.724903 
L 226.77509 292.987188 
L 228.171972 292.974647 
L 228.758662 293.151352 
L 229.038038 293.039403 
L 229.121851 292.781004 
L 230.965734 291.10206 
L 231.24511 290.38598 
L 231.72005 289.725158 
L 234.346186 288.896626 
L 234.849063 289.676658 
L 236.553258 290.401129 
L 237.922202 291.256943 
L 237.95014 292.16507 
L 238.480954 293.0511 
L 238.53683 294.550182 
L 238.927956 295.112695 
L 238.955894 295.554121 
L 241.665843 296.978855 
L 241.749656 297.291957 
L 243.006849 297.949239 
L 243.090662 298.224992 
L 244.152292 298.398022 
L 245.102171 298.412785 
L 245.549173 298.216917 
L 246.890179 297.773463 
L 248.482623 297.068203 
L 249.097251 296.120734 
L 249.125189 294.986331 
L 249.572191 292.53748 
L 250.298569 291.464432 
L 251.416074 290.656042 
L 251.499887 290.206653 
L 252.365953 290.171698 
L 252.812955 290.555742 
L 253.874584 291.314721 
L 254.349524 296.914292 
L 254.880339 296.739104 
L 255.494967 296.000384 
L 256.86391 294.70305 
L 257.4506 292.911302 
L 259.294483 290.749249 
L 259.350358 288.391541 
L 259.881173 286.050569 
L 260.803115 283.949835 
L 261.33393 280.926329 
L 261.669181 281.327876 
L 261.752994 282.405056 
L 262.842561 284.03506 
L 263.876253 286.051872 
L 263.932129 288.267766 
L 264.85407 295.875555 
L 266.921454 297.947962 
L 267.005267 297.728683 
L 267.619895 297.37437 
L 268.597712 296.979347 
L 268.905025 296.631282 
L 269.882842 296.400693 
L 270.720971 296.333284 
L 272.425166 296.443038 
L 272.704542 296.716666 
L 274.576363 297.11388 
L 275.917369 297.578377 
L 276.224683 298.045766 
L 278.208254 298.459488 
L 278.59938 298.972262 
L 279.297821 299.04962 
L 280.638827 298.960517 
L 282.817962 298.903696 
L 283.041463 299.301854 
L 283.292901 299.581253 
L 284.13103 299.854621 
L 285.220597 299.57677 
L 285.248535 298.817478 
L 286.086663 297.438306 
L 286.729229 295.342314 
L 287.120355 280.668215 
L 288.181985 276.47592 
L 289.495053 269.857976 
L 289.802367 268.088222 
L 290.053806 267.618107 
L 290.919872 268.482379 
L 291.227186 270.568207 
L 292.791693 273.64063 
L 293.322508 277.383076 
L 293.685697 281.449997 
L 293.937135 285.518041 
L 293.993011 289.322729 
L 295.166391 292.680985 
L 295.389892 297.734418 
L 295.697206 299.434583 
L 295.808956 301.48624 
L 297.569026 302.417624 
L 298.127779 302.428002 
L 299.720223 302.395529 
L 301.592044 302.385436 
L 301.815545 302.317642 
L 304.301993 302.136275 
L 307.319257 302.123061 
L 310.113019 301.964319 
L 311.873089 301.68125 
L 312.655343 301.266192 
L 313.297908 300.732621 
L 314.722727 300.117844 
L 315.672606 299.475451 
L 316.035795 298.868655 
L 317.963491 298.358031 
L 318.410493 297.809772 
L 318.885432 297.815759 
L 319.332434 298.004589 
L 319.667686 298.353576 
L 320.67344 298.831631 
L 320.896941 299.403619 
L 321.595382 300.036989 
L 322.517323 300.702778 
L 322.573199 301.377811 
L 323.131951 302.042046 
L 323.327514 303.282175 
L 323.38339 303.834993 
L 325.702212 304.33051 
L 326.20509 304.761618 
L 327.210844 305.12364 
L 327.266719 305.414264 
L 327.797534 305.63364 
L 329.445854 305.87013 
L 329.72523 305.694657 
L 332.630743 305.565248 
L 333.13362 305.422734 
L 334.167312 305.278639 
L 334.251125 305.144077 
L 337.547764 304.152921 
L 338.218267 303.847757 
L 339.531336 303.437707 
L 339.810712 302.900621 
L 339.922462 302.214624 
L 340.369464 301.364303 
L 340.676778 300.345897 
L 342.939725 297.893018 
L 343.414665 295.26766 
L 343.861667 294.102393 
L 345.00711 293.155669 
L 345.090922 292.499442 
L 345.398236 292.177543 
L 346.655429 292.200412 
L 347.102431 292.547653 
L 347.242119 293.17384 
L 347.297995 294.018086 
L 347.856747 295.013376 
L 348.164061 296.096075 
L 348.862502 297.209064 
L 350.622572 298.305422 
L 350.87401 300.312304 
L 351.93564 301.178122 
L 352.326767 301.936906 
L 352.382642 302.585671 
L 354.422088 303.914297 
L 355.008778 304.179821 
L 357.606977 304.726283 
L 359.506736 304.864679 
L 359.534673 304.97075 
L 360.316927 305.106502 
L 360.484553 305.444494 
L 360.819804 305.622312 
L 362.7475 306.025927 
L 362.803375 305.949733 
L 364.172319 305.734724 
L 364.312007 305.505927 
L 365.345699 305.295246 
L 365.792701 305.181481 
L 367.664522 305.040626 
L 367.748334 304.848653 
L 368.474713 304.576154 
L 368.614401 304.188933 
L 369.536342 303.652926 
L 369.56428 302.937084 
L 370.290658 302.020735 
L 370.765598 300.901804 
L 371.100849 298.188506 
L 371.436101 294.248948 
L 372.358042 293.45772 
L 372.525668 293.109357 
L 373.224108 293.255623 
L 373.307921 293.892069 
L 374.900366 294.957924 
L 376.576623 296.347441 
L 376.800124 297.927905 
L 377.470627 299.561541 
L 377.973504 301.125334 
L 379.845325 304.647876 
L 379.873263 305.354897 
L 381.689208 306.393038 
L 383.19784 306.533753 
L 383.561029 306.410575 
L 385.43285 306.173467 
L 386.773855 305.637519 
L 386.913544 305.428824 
L 389.008865 305.215359 
L 389.846994 305.003033 
L 390.098433 304.796388 
L 390.60131 304.598238 
L 391.020374 304.219539 
L 392.556943 304.032855 
L 392.808382 303.837788 
L 393.702386 303.62439 
L 393.814136 303.380722 
L 394.680203 303.092282 
L 394.847828 302.741944 
L 395.350706 302.310116 
L 395.518331 301.774681 
L 396.300585 301.112281 
L 396.35646 300.301327 
L 396.971088 299.326844 
L 397.026963 298.187299 
L 398.284156 296.902282 
L 398.563532 295.518995 
L 399.457536 294.114996 
L 399.792788 291.6797 
L 400.100101 290.890039 
L 400.910293 290.525526 
L 401.022043 290.645587 
L 402.810051 291.257467 
L 402.949739 292.31271 
L 403.396741 293.715486 
L 404.151057 295.339043 
L 404.598059 297.047024 
L 405.184749 300.240862 
L 406.497817 301.565074 
L 406.609568 302.658765 
L 407.475634 303.524702 
L 408.537264 304.186381 
L 409.543018 305.480265 
L 411.358963 305.688406 
L 411.945653 305.697082 
L 413.258722 305.423645 
L 414.040975 304.969773 
L 420.187252 304.718814 
L 422.56195 304.655123 
L 422.897202 304.443 
L 423.120703 304.02521 
L 423.791205 303.316743 
L 424.266145 302.230886 
L 424.294083 300.692604 
L 424.79696 298.656331 
L 425.942402 296.124547 
L 426.976094 286.577484 
L 427.451034 283.411858 
L 428.20535 280.688568 
L 428.484726 278.658684 
L 428.847915 277.355972 
L 429.713981 278.184819 
L 429.769857 282.31971 
L 430.580048 291.496429 
L 430.971175 297.135453 
L 432.926808 299.419779 
L 433.681124 301.292229 
L 434.54719 302.762246 
L 434.686878 303.865932 
L 435.02213 304.655052 
L 436.502824 305.188054 
L 437.173327 305.712882 
L 440.721405 305.831707 
L 440.833155 305.802345 
L 445.163487 305.881177 
L 447.174996 305.859321 
L 448.851253 305.654954 
L 449.130629 305.533381 
L 449.186504 305.375169 
L 450.918637 305.172772 
L 451.393577 304.612204 
L 451.533265 304.254622 
L 451.980267 303.858949 
L 452.17583 303.447516 
L 452.706645 303.051333 
L 456.226785 302.448227 
L 459.718988 302.296727 
L 459.886614 302.669694 
L 460.110115 303.012731 
L 460.612992 303.418269 
L 461.730497 303.851282 
L 462.401 304.28016 
L 462.568626 304.680599 
L 462.596563 305.036935 
L 463.546443 305.342063 
L 463.853756 305.595595 
L 464.915386 305.801993 
L 465.194762 306.098736 
L 465.418263 306.279882 
L 468.351714 306.381246 
L 470.39116 306.260136 
L 470.530848 306.165169 
L 471.480727 306.046024 
L 472.03948 305.495288 
L 476.174248 305.349507 
L 481.929398 305.402152 
L 482.097024 304.889813 
L 482.460213 304.486385 
L 482.683714 304.001239 
L 482.879277 302.907704 
L 483.577718 301.940387 
L 483.745344 301.619617 
L 485.393663 301.460035 
L 485.78479 301.63331 
L 486.203855 301.952405 
L 486.399418 302.876558 
L 487.377235 303.393168 
L 487.796299 303.891645 
L 488.634428 304.341433 
L 488.941742 305.030158 
L 489.165243 305.262473 
L 494.613079 305.762665 
L 497.267153 305.740365 
L 497.378904 305.702674 
L 498.161157 305.629499 
L 498.161157 305.629499 
" style="fill:none;stroke:#4682b4;stroke-linecap:square;stroke-width:1.5;"/>
   </g>
   <g id="line2d_43">
    <path clip-path="url(#p0dd3e73d5c)" d="M 152.293388 156.200713 
L 153.103579 155.069647 
L 153.522644 152.966495 
L 153.550581 150.178934 
L 154.27696 147.061469 
L 154.668086 143.972475 
L 154.779837 141.221049 
L 155.366527 139.028322 
L 156.372281 137.506785 
L 156.595782 136.682402 
L 157.126597 136.514193 
L 157.461849 136.915512 
L 158.607291 137.777823 
L 159.026355 138.978161 
L 159.668921 140.382824 
L 159.752734 141.845336 
L 160.702613 143.212242 
L 162.015681 144.342475 
L 162.574434 145.122674 
L 163.021436 145.48721 
L 163.384625 145.438449 
L 164.781506 144.456613 
L 165.228508 143.355046 
L 166.038699 143.18815 
L 166.681264 143.450685 
L 166.820952 144.207054 
L 166.876827 145.477123 
L 167.323829 147.245602 
L 167.491455 149.478691 
L 168.385459 152.146502 
L 168.441334 155.224782 
L 169.586777 158.705802 
L 169.754403 162.582989 
L 169.78234 166.847058 
L 170.648407 176.442967 
L 171.933537 181.67728 
L 173.134855 187.108925 
L 173.442169 192.657551 
L 174.25236 198.236668 
L 175.733054 203.762014 
L 175.984492 209.160611 
L 176.543245 214.363745 
L 178.107752 219.306271 
L 179.700196 223.932001 
L 180.454512 232.004323 
L 180.761826 235.35054 
L 181.711705 240.467718 
L 181.879331 242.198593 
L 182.773335 243.383712 
L 182.82921 244.056705 
L 183.220337 244.284787 
L 183.946715 243.835725 
L 183.974653 243.435323 
L 184.309904 243.125036 
L 184.58928 243.046269 
L 184.868656 243.939395 
L 185.818536 244.936284 
L 186.768415 246.200901 
L 187.019853 249.8949 
L 187.29923 250.464145 
L 188.807861 249.860306 
L 190.204742 247.10608 
L 190.23268 245.261468 
L 192.495627 241.680167 
L 192.523565 240.327535 
L 193.529319 239.444285 
L 193.75282 239.073507 
L 193.976321 239.187321 
L 194.060134 239.687792 
L 195.037951 240.424655 
L 195.121764 241.217109 
L 195.596704 242.213752 
L 196.071643 242.082957 
L 196.378957 241.375943 
L 197.245023 240.044773 
L 197.468524 238.10588 
L 198.446341 235.638176 
L 199.340345 229.720616 
L 199.39622 226.666322 
L 199.591784 223.838415 
L 201.435667 221.438205 
L 203.3913 219.634908 
L 203.950053 218.211953 
L 204.844057 218.636257 
L 205.123433 221.420797 
L 205.989499 223.513874 
L 206.548252 225.871232 
L 206.576189 228.345249 
L 207.079066 230.819195 
L 209.62139 233.206444 
L 210.152205 237.532731 
L 210.459519 239.425377 
L 213.50472 241.119555 
L 214.342848 242.597151 
L 216.577858 243.845594 
L 218.67318 245.637009 
L 219.84656 246.224478 
L 219.986248 246.672186 
L 220.349437 247.056997 
L 220.572938 247.461654 
L 220.656751 247.958091 
L 221.215504 248.59759 
L 221.718381 249.395216 
L 222.472697 251.360012 
L 223.785765 252.399703 
L 223.813702 253.360559 
L 224.400393 254.151679 
L 225.406147 254.895684 
L 225.629648 254.732984 
L 226.77509 254.184516 
L 228.171972 248.783194 
L 228.339597 246.969222 
L 228.702786 245.129917 
L 228.758662 241.664115 
L 229.038038 240.171877 
L 229.121851 238.930968 
L 229.59679 238.013418 
L 230.351106 237.495978 
L 230.965734 237.448993 
L 231.24511 237.926207 
L 231.72005 238.961186 
L 233.396307 240.553412 
L 234.262373 242.668422 
L 234.54175 248.162331 
L 234.849063 251.323372 
L 236.553258 254.587687 
L 237.922202 257.812846 
L 237.95014 260.859426 
L 238.480954 263.599465 
L 238.53683 267.764978 
L 238.927956 269.084931 
L 238.955894 269.900448 
L 239.654335 270.26581 
L 240.436588 270.269808 
L 240.967403 270.01953 
L 241.162966 269.621281 
L 241.665843 269.166623 
L 241.749656 268.716909 
L 243.006849 267.918166 
L 243.090662 267.543372 
L 245.102171 266.715309 
L 245.549173 266.234141 
L 249.097251 264.803792 
L 249.125189 264.493564 
L 249.320752 264.34073 
L 249.572191 264.358268 
L 251.416074 264.812388 
L 251.499887 265.134883 
L 252.812955 265.601899 
L 253.874584 265.617472 
L 254.014273 265.067777 
L 254.349524 262.516574 
L 254.880339 261.92083 
L 255.494967 261.452474 
L 257.4506 261.029987 
L 259.294483 261.110036 
L 259.350358 261.3915 
L 259.881173 261.871626 
L 260.803115 262.542461 
L 261.054553 263.386973 
L 261.33393 265.509747 
L 261.669181 266.729824 
L 261.752994 268.012993 
L 263.876253 270.634204 
L 263.932129 271.904917 
L 264.85407 275.996743 
L 266.586203 277.102687 
L 266.921454 277.474957 
L 267.005267 277.412851 
L 268.597712 276.924001 
L 268.905025 276.571905 
L 270.720971 275.848303 
L 272.425166 275.545267 
L 272.704542 275.317303 
L 275.917369 275.128882 
L 276.224683 275.1745 
L 278.208254 275.311609 
L 278.48763 275.5372 
L 278.59938 275.846075 
L 279.297821 276.232616 
L 280.555014 276.684631 
L 280.638827 277.185384 
L 282.706211 278.220479 
L 283.041463 279.312817 
L 283.292901 279.398851 
L 283.935466 279.292678 
L 284.13103 278.976894 
L 285.220597 278.448092 
L 285.248535 277.720983 
L 286.086663 276.826266 
L 286.729229 275.817758 
L 286.896854 272.811346 
L 287.120355 272.077727 
L 288.181985 271.596501 
L 288.964239 271.415697 
L 289.495053 271.560155 
L 289.802367 272.028785 
L 290.053806 272.793785 
L 290.919872 273.800811 
L 291.227186 274.972777 
L 292.791693 276.218759 
L 293.685697 278.544279 
L 293.937135 279.448078 
L 293.993011 280.08918 
L 295.278141 280.481491 
L 295.781018 279.216583 
L 295.808956 278.564661 
L 296.70296 277.942792 
L 297.066149 277.430495 
L 297.76459 276.94503 
L 298.127779 277.003975 
L 298.546843 277.230524 
L 298.798282 277.562778 
L 298.882095 277.922377 
L 300.474539 278.392994 
L 300.642165 277.790635 
L 301.592044 277.262501 
L 301.815545 276.682305 
L 302.737486 276.15085 
L 304.162305 275.666104 
L 304.301993 275.895672 
L 305.559186 276.517183 
L 305.698874 277.539389 
L 306.034126 278.927216 
L 307.319257 280.603936 
L 310.113019 282.463852 
L 311.873089 284.380352 
L 313.297908 287.877604 
L 315.672606 290.259356 
L 316.035795 290.898143 
L 318.186992 291.084567 
L 319.667686 288.436948 
L 320.67344 287.463167 
L 320.896941 286.445836 
L 321.595382 285.410792 
L 322.517323 284.381752 
L 322.573199 283.386717 
L 323.131951 282.457819 
L 323.38339 280.472603 
L 326.20509 280.141268 
L 327.210844 280.291854 
L 327.266719 280.611704 
L 327.797534 281.046278 
L 328.691538 281.53428 
L 328.747413 282.010374 
L 329.417916 282.419184 
L 329.445854 282.717522 
L 329.72523 282.905095 
L 332.630743 282.787828 
L 333.13362 282.539983 
L 334.167312 282.173011 
L 334.251125 281.699057 
L 334.670189 281.123587 
L 334.809877 280.452337 
L 335.173066 279.693909 
L 335.312755 278.861518 
L 335.759756 277.9779 
L 335.899445 277.079373 
L 336.150883 276.211145 
L 336.597885 275.424398 
L 338.218267 274.273518 
L 339.922462 273.813521 
L 341.822221 274.051068 
L 342.939725 274.027175 
L 343.861667 273.400282 
L 345.00711 273.104426 
L 345.090922 272.843039 
L 345.398236 272.653494 
L 347.242119 272.613526 
L 347.297995 272.720256 
L 348.862502 273.005706 
L 351.93564 272.960131 
L 353.136958 272.941866 
L 354.422088 273.211651 
L 355.958658 273.934041 
L 356.685036 274.532004 
L 356.796786 275.320552 
L 357.606977 277.518687 
L 359.199422 278.922301 
L 359.506736 280.496362 
L 359.534673 282.19361 
L 360.316927 283.952052 
L 360.484553 287.356475 
L 360.819804 288.856742 
L 361.490307 290.138443 
L 362.216685 292.336806 
L 362.523999 292.497892 
L 362.7475 292.396587 
L 362.803375 292.06304 
L 363.92088 291.529366 
L 364.172319 290.83115 
L 364.312007 289.080836 
L 365.178073 288.103841 
L 365.345699 287.110139 
L 365.792701 286.141116 
L 367.664522 285.233887 
L 367.748334 284.418483 
L 368.474713 283.709518 
L 368.614401 283.104429 
L 369.536342 282.578897 
L 369.56428 282.091494 
L 370.290658 281.594115 
L 370.765598 281.041682 
L 371.436101 277.579718 
L 372.525668 276.98229 
L 373.224108 277.114363 
L 373.307921 277.539274 
L 374.900366 278.206194 
L 376.576623 279.03196 
L 376.800124 279.913005 
L 377.973504 281.441542 
L 378.699883 281.939392 
L 379.31451 282.215075 
L 379.845325 282.275701 
L 379.873263 282.155166 
L 380.655516 281.898518 
L 381.326019 281.553118 
L 381.689208 281.1534 
L 383.030214 280.238853 
L 383.561029 278.376541 
L 385.125536 277.560143 
L 385.823976 275.673732 
L 386.382729 274.668861 
L 386.773855 273.675503 
L 386.913544 272.728444 
L 389.008865 271.851247 
L 389.846994 271.051804 
L 390.098433 270.328692 
L 390.60131 269.677006 
L 391.020374 268.579816 
L 392.556943 268.158363 
L 392.808382 267.857814 
L 393.814136 267.766181 
L 394.680203 268.033244 
L 394.847828 268.520431 
L 395.350706 269.206548 
L 395.518331 270.042797 
L 396.300585 270.95942 
L 396.35646 271.876195 
L 396.971088 272.710331 
L 397.026963 273.392664 
L 398.284156 273.87451 
L 398.563532 274.137015 
L 399.457536 274.189742 
L 400.100101 273.550999 
L 400.910293 273.288827 
L 401.022043 273.106421 
L 402.949739 273.119363 
L 404.598059 273.948452 
L 404.849497 274.248091 
L 405.184749 274.441185 
L 406.497817 274.463792 
L 406.609568 274.269818 
L 407.475634 273.842765 
L 408.537264 273.193101 
L 408.900453 272.362415 
L 409.431267 270.406668 
L 409.543018 269.418105 
L 410.269396 268.495527 
L 411.358963 267.671251 
L 411.694215 266.955576 
L 411.75009 266.341319 
L 411.945653 265.817211 
L 412.364718 265.373371 
L 413.621911 264.553058 
L 414.040975 265.019821 
L 415.605482 265.498477 
L 415.968671 266.099724 
L 416.862675 266.765711 
L 416.91855 267.425749 
L 418.259556 268.007954 
L 418.762433 268.699842 
L 419.04181 268.741553 
L 419.796125 268.576256 
L 420.187252 268.227061 
L 421.97526 267.734661 
L 422.003198 267.150372 
L 422.56195 266.526425 
L 423.120703 265.33281 
L 424.266145 264.348762 
L 424.294083 263.916022 
L 424.79696 263.476826 
L 425.942402 262.987945 
L 427.451034 260.035122 
L 428.20535 259.125475 
L 428.847915 256.983052 
L 429.741919 256.695303 
L 429.769857 256.996923 
L 430.412422 258.460391 
L 430.971175 262.255533 
L 432.926808 263.706804 
L 433.681124 265.116253 
L 434.54719 266.38955 
L 434.686878 267.440235 
L 435.02213 268.198421 
L 436.977763 268.68037 
L 437.173327 268.406812 
L 438.681958 267.842683 
L 438.989272 267.058568 
L 440.721405 266.1364 
L 440.833155 264.217595 
L 442.202099 263.37578 
L 443.59898 262.693641 
L 443.962169 261.874605 
L 445.163487 261.993292 
L 445.638426 262.24911 
L 446.560368 262.58628 
L 447.174996 263.274826 
L 448.320438 263.707936 
L 449.186504 263.824509 
L 451.198013 263.885265 
L 452.706645 264.672047 
L 456.226785 264.673197 
L 458.433858 264.523078 
L 459.718988 264.303939 
L 459.746926 264.068242 
L 459.886614 263.87622 
L 460.110115 263.785499 
L 461.730497 264.044048 
L 462.401 264.38956 
L 462.568626 264.832261 
L 462.596563 265.314561 
L 463.546443 265.771827 
L 463.853756 266.149714 
L 465.194762 266.507848 
L 465.390326 266.373707 
L 465.418263 266.155446 
L 466.256392 265.889181 
L 468.323776 265.610943 
L 468.351714 265.348812 
L 470.530848 264.797899 
L 471.620415 264.933246 
L 471.676291 265.115666 
L 471.983605 265.367233 
L 472.03948 265.672084 
L 475.028805 266.34024 
L 475.252306 266.641736 
L 476.174248 266.879017 
L 479.666451 267.079096 
L 480.225203 267.016281 
L 481.063332 266.521831 
L 481.929398 266.070155 
L 482.097024 264.706115 
L 482.460213 263.790839 
L 482.683714 262.740701 
L 482.879277 260.406266 
L 483.326279 259.251079 
L 483.745344 257.357313 
L 485.393663 256.493144 
L 485.78479 256.557257 
L 486.203855 256.960619 
L 486.399418 258.633471 
L 487.377235 259.770278 
L 487.796299 260.996097 
L 488.634428 262.218468 
L 489.165243 265.111783 
L 492.042818 266.024586 
L 492.908884 265.879363 
L 493.607325 265.548317 
L 494.613079 263.748946 
L 495.479145 262.994937 
L 495.646771 261.504381 
L 495.870272 260.860217 
L 496.680463 260.339145 
L 496.931902 259.971834 
L 497.378904 259.698995 
L 498.161157 259.812459 
L 498.161157 259.812459 
" style="fill:none;stroke:#008000;stroke-linecap:square;stroke-width:1.5;"/>
   </g>
   <g id="patch_9">
    <path d="M 135 320.4 
L 135 43.2 
" style="fill:none;stroke:#000000;stroke-linecap:square;stroke-linejoin:miter;stroke-width:1.5;"/>
   </g>
   <g id="patch_10">
    <path d="M 515.454545 320.4 
L 515.454545 43.2 
" style="fill:none;stroke:#000000;stroke-linecap:square;stroke-linejoin:miter;stroke-width:1.5;"/>
   </g>
   <g id="patch_11">
    <path d="M 135 320.4 
L 515.454545 320.4 
" style="fill:none;stroke:#000000;stroke-linecap:square;stroke-linejoin:miter;stroke-width:1.5;"/>
   </g>
   <g id="patch_12">
    <path d="M 135 43.2 
L 515.454545 43.2 
" style="fill:none;stroke:#000000;stroke-linecap:square;stroke-linejoin:miter;stroke-width:1.5;"/>
   </g>
   <g id="legend_2">
    <g id="patch_13">
     <path d="M 423.99392 103.700625 
L 507.054545 103.700625 
Q 509.454545 103.700625 509.454545 101.300625 
L 509.454545 51.6 
Q 509.454545 49.2 507.054545 49.2 
L 423.99392 49.2 
Q 421.59392 49.2 421.59392 51.6 
L 421.59392 101.300625 
Q 421.59392 103.700625 423.99392 103.700625 
z
" style="fill:#ffffff;opacity:0.8;stroke:#cccccc;stroke-linejoin:miter;"/>
    </g>
    <g id="line2d_44">
     <path d="M 426.39392 58.2 
L 450.39392 58.2 
" style="fill:none;stroke:#ff4500;stroke-linecap:square;stroke-width:1.5;"/>
    </g>
    <g id="line2d_45"/>
    <g id="text_39">
     <!-- VD3QN -->
     <g transform="translate(459.99392 62.4)scale(0.12 -0.12)">
      <use xlink:href="#TimesNewRomanPSMT-56"/>
      <use x="72.216797" xlink:href="#TimesNewRomanPSMT-44"/>
      <use x="144.433594" xlink:href="#TimesNewRomanPSMT-33"/>
      <use x="194.433594" xlink:href="#TimesNewRomanPSMT-51"/>
      <use x="266.650391" xlink:href="#TimesNewRomanPSMT-4e"/>
     </g>
    </g>
    <g id="line2d_46">
     <path d="M 426.39392 75.166875 
L 450.39392 75.166875 
" style="fill:none;stroke:#4682b4;stroke-linecap:square;stroke-width:1.5;"/>
    </g>
    <g id="line2d_47"/>
    <g id="text_40">
     <!-- D3QN -->
     <g transform="translate(459.99392 79.366875)scale(0.12 -0.12)">
      <use xlink:href="#TimesNewRomanPSMT-44"/>
      <use x="72.216797" xlink:href="#TimesNewRomanPSMT-33"/>
      <use x="122.216797" xlink:href="#TimesNewRomanPSMT-51"/>
      <use x="194.433594" xlink:href="#TimesNewRomanPSMT-4e"/>
     </g>
    </g>
    <g id="line2d_48">
     <path d="M 426.39392 92.13375 
L 450.39392 92.13375 
" style="fill:none;stroke:#008000;stroke-linecap:square;stroke-width:1.5;"/>
    </g>
    <g id="line2d_49"/>
    <g id="text_41">
     <!-- VD3QN- -->
     <g transform="translate(459.99392 96.33375)scale(0.12 -0.12)">
      <use xlink:href="#TimesNewRomanPSMT-56"/>
      <use x="72.216797" xlink:href="#TimesNewRomanPSMT-44"/>
      <use x="144.433594" xlink:href="#TimesNewRomanPSMT-33"/>
      <use x="194.433594" xlink:href="#TimesNewRomanPSMT-51"/>
      <use x="266.650391" xlink:href="#TimesNewRomanPSMT-4e"/>
      <use x="338.867188" xlink:href="#TimesNewRomanPSMT-2d"/>
     </g>
    </g>
   </g>
  </g>
 </g>
 <defs>
  <clipPath id="p822290fbdf">
   <rect height="277.2" width="380.454545" x="591.545455" y="43.2"/>
  </clipPath>
  <clipPath id="p0dd3e73d5c">
   <rect height="277.2" width="380.454545" x="135" y="43.2"/>
  </clipPath>
 </defs>
</svg>
