<?xml version="1.0" encoding="utf-8" standalone="no"?>
<!DOCTYPE svg PUBLIC "-//W3C//DTD SVG 1.1//EN"
  "http://www.w3.org/Graphics/SVG/1.1/DTD/svg11.dtd">
<svg height="334.709063pt" version="1.1" viewBox="0 0 1177.827188 334.709063" width="1177.827188pt" xmlns="http://www.w3.org/2000/svg" xmlns:xlink="http://www.w3.org/1999/xlink">
 <metadata>
  <rdf:RDF xmlns:cc="http://creativecommons.org/ns#" xmlns:dc="http://purl.org/dc/elements/1.1/" xmlns:rdf="http://www.w3.org/1999/02/22-rdf-syntax-ns#">
   <cc:Work>
    <dc:type rdf:resource="http://purl.org/dc/dcmitype/StillImage"/>
    <dc:date>2022-01-17T19:42:24.615033</dc:date>
    <dc:format>image/svg+xml</dc:format>
    <dc:creator>
     <cc:Agent>
      <dc:title>Matplotlib v3.4.3, https://matplotlib.org/</dc:title>
     </cc:Agent>
    </dc:creator>
   </cc:Work>
  </rdf:RDF>
 </metadata>
 <defs>
  <style type="text/css">*{stroke-linecap:butt;stroke-linejoin:round;}</style>
 </defs>
 <g id="figure_1">
  <g id="patch_1">
   <path d="M 0 334.709063 
L 1177.827188 334.709063 
L 1177.827188 0 
L 0 0 
z
" style="fill:#ffffff;"/>
  </g>
  <g id="axes_1">
   <g id="patch_2">
    <path d="M 54.627188 289.260625 
L 382.862482 289.260625 
L 382.862482 12.060625 
L 54.627188 12.060625 
z
" style="fill:#ffffff;"/>
   </g>
   <g id="PolyCollection_1">
    <defs>
     <path d="M 69.546974 -152.551566 
L 69.546974 -230.434185 
L 72.054501 -231.501826 
L 74.562028 -260.758908 
L 77.069555 -259.663618 
L 79.577082 -219.200965 
L 82.084609 -266.941763 
L 84.592136 -288.159733 
L 87.099663 -280.188818 
L 89.60719 -277.927859 
L 92.114717 -279.602808 
L 94.622244 -277.551417 
L 97.129771 -283.899937 
L 99.637298 -278.684973 
L 102.144826 -280.022247 
L 104.652353 -298.940562 
L 107.15988 -280.093737 
L 109.667407 -275.674417 
L 112.174934 -278.896449 
L 114.682461 -279.349346 
L 117.189988 -277.008912 
L 119.697515 -281.155941 
L 122.205042 -280.175434 
L 124.712569 -288.485073 
L 127.220096 -287.472569 
L 129.727623 -325.338751 
L 132.23515 -276.473613 
L 134.742678 -278.728298 
L 137.250205 -289.578895 
L 139.757732 -279.726463 
L 142.265259 -281.358566 
L 144.772786 -278.571841 
L 147.280313 -280.360283 
L 149.78784 -282.582762 
L 152.295367 -291.890365 
L 154.802894 -280.704666 
L 157.310421 -281.310667 
L 159.817948 -280.140583 
L 162.325475 -281.97516 
L 164.833002 -281.489993 
L 167.34053 -287.509502 
L 169.848057 -282.358474 
L 172.355584 -280.684609 
L 174.863111 -280.84734 
L 177.370638 -281.29337 
L 179.878165 -281.340133 
L 182.385692 -281.822275 
L 184.893219 -282.000556 
L 187.400746 -281.664233 
L 189.908273 -279.71819 
L 192.4158 -281.896929 
L 194.923327 -280.718414 
L 197.430854 -281.390269 
L 199.938381 -279.219582 
L 202.445909 -281.95815 
L 204.953436 -281.080831 
L 207.460963 -281.164165 
L 209.96849 -280.52974 
L 212.476017 -282.103859 
L 214.983544 -281.480574 
L 217.491071 -280.527976 
L 219.998598 -283.295202 
L 222.506125 -287.819021 
L 225.013652 -280.808489 
L 227.521179 -281.350395 
L 230.028706 -281.724447 
L 232.536233 -280.695602 
L 235.043761 -280.850805 
L 237.551288 -280.313479 
L 240.058815 -283.299497 
L 242.566342 -280.698463 
L 245.073869 -278.094973 
L 247.581396 -282.092626 
L 250.088923 -281.056511 
L 252.59645 -279.453126 
L 255.103977 -287.299878 
L 257.611504 -281.11914 
L 260.119031 -282.289123 
L 262.626558 -282.318846 
L 265.134085 -281.255868 
L 267.641613 -278.826244 
L 270.14914 -282.954422 
L 272.656667 -279.880274 
L 275.164194 -282.812358 
L 277.671721 -282.824828 
L 280.179248 -282.755158 
L 282.686775 -281.713413 
L 285.194302 -280.760781 
L 287.701829 -282.86241 
L 290.209356 -282.879194 
L 292.716883 -281.812884 
L 295.22441 -282.016255 
L 297.731937 -280.997037 
L 300.239464 -281.510999 
L 302.746992 -281.768389 
L 305.254519 -281.69367 
L 307.762046 -280.832388 
L 310.269573 -282.622518 
L 312.7771 -280.501785 
L 315.284627 -283.274289 
L 317.792154 -281.806126 
L 320.299681 -287.563864 
L 322.807208 -280.616766 
L 325.314735 -281.625889 
L 327.822262 -281.412795 
L 330.329789 -291.057018 
L 332.837316 -283.290651 
L 335.344844 -282.7801 
L 337.852371 -284.26825 
L 340.359898 -282.756174 
L 342.867425 -281.679443 
L 345.374952 -282.172548 
L 347.882479 -282.903 
L 350.390006 -281.532053 
L 352.897533 -282.618569 
L 355.40506 -282.642169 
L 357.912587 -281.193618 
L 360.420114 -280.975879 
L 362.927641 -282.545394 
L 365.435168 -282.443038 
L 367.942696 -283.294054 
L 367.942696 -271.29407 
L 367.942696 -271.29407 
L 365.435168 -280.626296 
L 362.927641 -276.544402 
L 360.420114 -278.348327 
L 357.912587 -279.58107 
L 355.40506 -280.165179 
L 352.897533 -278.935276 
L 350.390006 -278.98175 
L 347.882479 -280.705728 
L 345.374952 -276.742233 
L 342.867425 -278.182842 
L 340.359898 -270.876982 
L 337.852371 -260.071254 
L 335.344844 -280.396074 
L 332.837316 -275.657324 
L 330.329789 -240.061928 
L 327.822262 -278.825381 
L 325.314735 -278.346465 
L 322.807208 -274.590862 
L 320.299681 -251.323113 
L 317.792154 -265.320527 
L 315.284627 -277.46132 
L 312.7771 -278.834896 
L 310.269573 -277.611901 
L 307.762046 -278.937077 
L 305.254519 -279.335866 
L 302.746992 -279.15403 
L 300.239464 -277.154154 
L 297.731937 -278.044004 
L 295.22441 -273.423407 
L 292.716883 -278.213983 
L 290.209356 -278.788808 
L 287.701829 -280.616193 
L 285.194302 -275.64107 
L 282.686775 -278.597181 
L 280.179248 -277.465594 
L 277.671721 -279.347514 
L 275.164194 -275.432872 
L 272.656667 -267.667345 
L 270.14914 -275.488932 
L 267.641613 -275.167976 
L 265.134085 -268.459524 
L 262.626558 -279.676904 
L 260.119031 -280.649416 
L 257.611504 -278.855101 
L 255.103977 -251.342381 
L 252.59645 -268.908932 
L 250.088923 -279.102351 
L 247.581396 -278.49981 
L 245.073869 -276.844738 
L 242.566342 -274.209343 
L 240.058815 -263.04437 
L 237.551288 -277.773215 
L 235.043761 -265.556653 
L 232.536233 -278.447773 
L 230.028706 -279.075517 
L 227.521179 -278.95316 
L 225.013652 -278.782987 
L 222.506125 -245.199197 
L 219.998598 -265.710739 
L 217.491071 -278.478799 
L 214.983544 -275.984423 
L 212.476017 -275.588028 
L 209.96849 -276.216911 
L 207.460963 -264.820489 
L 204.953436 -266.588912 
L 202.445909 -273.923315 
L 199.938381 -262.64132 
L 197.430854 -274.125059 
L 194.923327 -275.136219 
L 192.4158 -276.769557 
L 189.908273 -275.678467 
L 187.400746 -275.753572 
L 184.893219 -279.139816 
L 182.385692 -280.199208 
L 179.878165 -274.040984 
L 177.370638 -276.490373 
L 174.863111 -272.233221 
L 172.355584 -275.871674 
L 169.848057 -272.635211 
L 167.34053 -232.903532 
L 164.833002 -274.058595 
L 162.325475 -269.941602 
L 159.817948 -276.303447 
L 157.310421 -276.34513 
L 154.802894 -279.743993 
L 152.295367 -226.472252 
L 149.78784 -267.084948 
L 147.280313 -269.586016 
L 144.772786 -263.819362 
L 142.265259 -273.567762 
L 139.757732 -269.949196 
L 137.250205 -244.370468 
L 134.742678 -273.209865 
L 132.23515 -274.407755 
L 129.727623 -113.872869 
L 127.220096 -247.700331 
L 124.712569 -240.768977 
L 122.205042 -275.404503 
L 119.697515 -248.743273 
L 117.189988 -265.896793 
L 114.682461 -264.781507 
L 112.174934 -262.46871 
L 109.667407 -263.843983 
L 107.15988 -264.363959 
L 104.652353 -183.283865 
L 102.144826 -274.613002 
L 99.637298 -259.460748 
L 97.129771 -197.313043 
L 94.622244 -264.902745 
L 92.114717 -267.846073 
L 89.60719 -230.596328 
L 87.099663 -243.270016 
L 84.592136 -176.712144 
L 82.084609 -180.808665 
L 79.577082 -176.116912 
L 77.069555 -205.980569 
L 74.562028 -234.445502 
L 72.054501 -174.661134 
L 69.546974 -152.551566 
z
" id="me6a5c5809b" style="stroke:#ff4500;stroke-opacity:0.1;"/>
    </defs>
    <g clip-path="url(#p8d09355908)">
     <use style="fill:#ff4500;fill-opacity:0.1;stroke:#ff4500;stroke-opacity:0.1;" x="0" xlink:href="#me6a5c5809b" y="334.709063"/>
    </g>
   </g>
   <g id="matplotlib.axis_1">
    <g id="xtick_1">
     <g id="line2d_1">
      <defs>
       <path d="M 0 0 
L 0 3.5 
" id="m4c5af214c1" style="stroke:#000000;stroke-width:0.8;"/>
      </defs>
      <g>
       <use style="stroke:#000000;stroke-width:0.8;" x="67.039447" xlink:href="#m4c5af214c1" y="289.260625"/>
      </g>
     </g>
     <g id="text_1">
      <!-- 0 -->
      <g transform="translate(63.539447 305.981875)scale(0.14 -0.14)">
       <defs>
        <path d="M 231 2094 
Q 231 2819 450 3342 
Q 669 3866 1031 4122 
Q 1313 4325 1613 4325 
Q 2100 4325 2488 3828 
Q 2972 3213 2972 2159 
Q 2972 1422 2759 906 
Q 2547 391 2217 158 
Q 1888 -75 1581 -75 
Q 975 -75 572 641 
Q 231 1244 231 2094 
z
M 844 2016 
Q 844 1141 1059 588 
Q 1238 122 1591 122 
Q 1759 122 1940 273 
Q 2122 425 2216 781 
Q 2359 1319 2359 2297 
Q 2359 3022 2209 3506 
Q 2097 3866 1919 4016 
Q 1791 4119 1609 4119 
Q 1397 4119 1231 3928 
Q 1006 3669 925 3112 
Q 844 2556 844 2016 
z
" id="TimesNewRomanPSMT-30" transform="scale(0.015625)"/>
       </defs>
       <use xlink:href="#TimesNewRomanPSMT-30"/>
      </g>
     </g>
    </g>
    <g id="xtick_2">
     <g id="line2d_2">
      <g>
       <use style="stroke:#000000;stroke-width:0.8;" x="117.189988" xlink:href="#m4c5af214c1" y="289.260625"/>
      </g>
     </g>
     <g id="text_2">
      <!-- 20 -->
      <g transform="translate(110.189988 305.981875)scale(0.14 -0.14)">
       <defs>
        <path d="M 2934 816 
L 2638 0 
L 138 0 
L 138 116 
Q 1241 1122 1691 1759 
Q 2141 2397 2141 2925 
Q 2141 3328 1894 3587 
Q 1647 3847 1303 3847 
Q 991 3847 742 3664 
Q 494 3481 375 3128 
L 259 3128 
Q 338 3706 661 4015 
Q 984 4325 1469 4325 
Q 1984 4325 2329 3994 
Q 2675 3663 2675 3213 
Q 2675 2891 2525 2569 
Q 2294 2063 1775 1497 
Q 997 647 803 472 
L 1909 472 
Q 2247 472 2383 497 
Q 2519 522 2628 598 
Q 2738 675 2819 816 
L 2934 816 
z
" id="TimesNewRomanPSMT-32" transform="scale(0.015625)"/>
       </defs>
       <use xlink:href="#TimesNewRomanPSMT-32"/>
       <use x="50" xlink:href="#TimesNewRomanPSMT-30"/>
      </g>
     </g>
    </g>
    <g id="xtick_3">
     <g id="line2d_3">
      <g>
       <use style="stroke:#000000;stroke-width:0.8;" x="167.34053" xlink:href="#m4c5af214c1" y="289.260625"/>
      </g>
     </g>
     <g id="text_3">
      <!-- 40 -->
      <g transform="translate(160.34053 305.981875)scale(0.14 -0.14)">
       <defs>
        <path d="M 2978 1563 
L 2978 1119 
L 2409 1119 
L 2409 0 
L 1894 0 
L 1894 1119 
L 100 1119 
L 100 1519 
L 2066 4325 
L 2409 4325 
L 2409 1563 
L 2978 1563 
z
M 1894 1563 
L 1894 3666 
L 406 1563 
L 1894 1563 
z
" id="TimesNewRomanPSMT-34" transform="scale(0.015625)"/>
       </defs>
       <use xlink:href="#TimesNewRomanPSMT-34"/>
       <use x="50" xlink:href="#TimesNewRomanPSMT-30"/>
      </g>
     </g>
    </g>
    <g id="xtick_4">
     <g id="line2d_4">
      <g>
       <use style="stroke:#000000;stroke-width:0.8;" x="217.491071" xlink:href="#m4c5af214c1" y="289.260625"/>
      </g>
     </g>
     <g id="text_4">
      <!-- 60 -->
      <g transform="translate(210.491071 305.981875)scale(0.14 -0.14)">
       <defs>
        <path d="M 2869 4325 
L 2869 4209 
Q 2456 4169 2195 4045 
Q 1934 3922 1679 3669 
Q 1425 3416 1258 3105 
Q 1091 2794 978 2366 
Q 1428 2675 1881 2675 
Q 2316 2675 2634 2325 
Q 2953 1975 2953 1425 
Q 2953 894 2631 456 
Q 2244 -75 1606 -75 
Q 1172 -75 869 213 
Q 275 772 275 1663 
Q 275 2231 503 2743 
Q 731 3256 1154 3653 
Q 1578 4050 1965 4187 
Q 2353 4325 2688 4325 
L 2869 4325 
z
M 925 2138 
Q 869 1716 869 1456 
Q 869 1156 980 804 
Q 1091 453 1309 247 
Q 1469 100 1697 100 
Q 1969 100 2183 356 
Q 2397 613 2397 1088 
Q 2397 1622 2184 2012 
Q 1972 2403 1581 2403 
Q 1463 2403 1327 2353 
Q 1191 2303 925 2138 
z
" id="TimesNewRomanPSMT-36" transform="scale(0.015625)"/>
       </defs>
       <use xlink:href="#TimesNewRomanPSMT-36"/>
       <use x="50" xlink:href="#TimesNewRomanPSMT-30"/>
      </g>
     </g>
    </g>
    <g id="xtick_5">
     <g id="line2d_5">
      <g>
       <use style="stroke:#000000;stroke-width:0.8;" x="267.641613" xlink:href="#m4c5af214c1" y="289.260625"/>
      </g>
     </g>
     <g id="text_5">
      <!-- 80 -->
      <g transform="translate(260.641613 305.981875)scale(0.14 -0.14)">
       <defs>
        <path d="M 1228 2134 
Q 725 2547 579 2797 
Q 434 3047 434 3316 
Q 434 3728 753 4026 
Q 1072 4325 1600 4325 
Q 2113 4325 2425 4047 
Q 2738 3769 2738 3413 
Q 2738 3175 2569 2928 
Q 2400 2681 1866 2347 
Q 2416 1922 2594 1678 
Q 2831 1359 2831 1006 
Q 2831 559 2490 242 
Q 2150 -75 1597 -75 
Q 994 -75 656 303 
Q 388 606 388 966 
Q 388 1247 577 1523 
Q 766 1800 1228 2134 
z
M 1719 2469 
Q 2094 2806 2194 3001 
Q 2294 3197 2294 3444 
Q 2294 3772 2109 3958 
Q 1925 4144 1606 4144 
Q 1288 4144 1088 3959 
Q 888 3775 888 3528 
Q 888 3366 970 3203 
Q 1053 3041 1206 2894 
L 1719 2469 
z
M 1375 2016 
Q 1116 1797 991 1539 
Q 866 1281 866 981 
Q 866 578 1086 336 
Q 1306 94 1647 94 
Q 1984 94 2187 284 
Q 2391 475 2391 747 
Q 2391 972 2272 1150 
Q 2050 1481 1375 2016 
z
" id="TimesNewRomanPSMT-38" transform="scale(0.015625)"/>
       </defs>
       <use xlink:href="#TimesNewRomanPSMT-38"/>
       <use x="50" xlink:href="#TimesNewRomanPSMT-30"/>
      </g>
     </g>
    </g>
    <g id="xtick_6">
     <g id="line2d_6">
      <g>
       <use style="stroke:#000000;stroke-width:0.8;" x="317.792154" xlink:href="#m4c5af214c1" y="289.260625"/>
      </g>
     </g>
     <g id="text_6">
      <!-- 100 -->
      <g transform="translate(307.292154 305.981875)scale(0.14 -0.14)">
       <defs>
        <path d="M 750 3822 
L 1781 4325 
L 1884 4325 
L 1884 747 
Q 1884 391 1914 303 
Q 1944 216 2037 169 
Q 2131 122 2419 116 
L 2419 0 
L 825 0 
L 825 116 
Q 1125 122 1212 167 
Q 1300 213 1334 289 
Q 1369 366 1369 747 
L 1369 3034 
Q 1369 3497 1338 3628 
Q 1316 3728 1258 3775 
Q 1200 3822 1119 3822 
Q 1003 3822 797 3725 
L 750 3822 
z
" id="TimesNewRomanPSMT-31" transform="scale(0.015625)"/>
       </defs>
       <use xlink:href="#TimesNewRomanPSMT-31"/>
       <use x="50" xlink:href="#TimesNewRomanPSMT-30"/>
       <use x="100" xlink:href="#TimesNewRomanPSMT-30"/>
      </g>
     </g>
    </g>
    <g id="xtick_7">
     <g id="line2d_7">
      <g>
       <use style="stroke:#000000;stroke-width:0.8;" x="367.942696" xlink:href="#m4c5af214c1" y="289.260625"/>
      </g>
     </g>
     <g id="text_7">
      <!-- 120 -->
      <g transform="translate(357.442696 305.981875)scale(0.14 -0.14)">
       <use xlink:href="#TimesNewRomanPSMT-31"/>
       <use x="50" xlink:href="#TimesNewRomanPSMT-32"/>
       <use x="100" xlink:href="#TimesNewRomanPSMT-30"/>
      </g>
     </g>
    </g>
    <g id="text_8">
     <!-- Episodes -->
     <g transform="translate(189.857335 324.086563)scale(0.16 -0.16)">
      <defs>
       <path d="M 1338 4006 
L 1338 2331 
L 2269 2331 
Q 2631 2331 2753 2441 
Q 2916 2584 2934 2947 
L 3050 2947 
L 3050 1472 
L 2934 1472 
Q 2891 1781 2847 1869 
Q 2791 1978 2662 2040 
Q 2534 2103 2269 2103 
L 1338 2103 
L 1338 706 
Q 1338 425 1363 364 
Q 1388 303 1450 267 
Q 1513 231 1688 231 
L 2406 231 
Q 2766 231 2928 281 
Q 3091 331 3241 478 
Q 3434 672 3638 1063 
L 3763 1063 
L 3397 0 
L 131 0 
L 131 116 
L 281 116 
Q 431 116 566 188 
Q 666 238 702 338 
Q 738 438 738 747 
L 738 3500 
Q 738 3903 656 3997 
Q 544 4122 281 4122 
L 131 4122 
L 131 4238 
L 3397 4238 
L 3444 3309 
L 3322 3309 
Q 3256 3644 3176 3769 
Q 3097 3894 2941 3959 
Q 2816 4006 2500 4006 
L 1338 4006 
z
" id="TimesNewRomanPSMT-45" transform="scale(0.015625)"/>
       <path d="M -6 2578 
L 875 2934 
L 994 2934 
L 994 2266 
Q 1216 2644 1439 2795 
Q 1663 2947 1909 2947 
Q 2341 2947 2628 2609 
Q 2981 2197 2981 1534 
Q 2981 794 2556 309 
Q 2206 -88 1675 -88 
Q 1444 -88 1275 -22 
Q 1150 25 994 166 
L 994 -706 
Q 994 -1000 1030 -1079 
Q 1066 -1159 1155 -1206 
Q 1244 -1253 1478 -1253 
L 1478 -1369 
L -22 -1369 
L -22 -1253 
L 56 -1253 
Q 228 -1256 350 -1188 
Q 409 -1153 442 -1076 
Q 475 -1000 475 -688 
L 475 2019 
Q 475 2297 450 2372 
Q 425 2447 370 2484 
Q 316 2522 222 2522 
Q 147 2522 31 2478 
L -6 2578 
z
M 994 2081 
L 994 1013 
Q 994 666 1022 556 
Q 1066 375 1236 237 
Q 1406 100 1666 100 
Q 1978 100 2172 344 
Q 2425 663 2425 1241 
Q 2425 1897 2138 2250 
Q 1938 2494 1663 2494 
Q 1513 2494 1366 2419 
Q 1253 2363 994 2081 
z
" id="TimesNewRomanPSMT-70" transform="scale(0.015625)"/>
       <path d="M 928 4444 
Q 1059 4444 1151 4351 
Q 1244 4259 1244 4128 
Q 1244 3997 1151 3903 
Q 1059 3809 928 3809 
Q 797 3809 703 3903 
Q 609 3997 609 4128 
Q 609 4259 701 4351 
Q 794 4444 928 4444 
z
M 1188 2947 
L 1188 647 
Q 1188 378 1227 289 
Q 1266 200 1342 156 
Q 1419 113 1622 113 
L 1622 0 
L 231 0 
L 231 113 
Q 441 113 512 153 
Q 584 194 626 287 
Q 669 381 669 647 
L 669 1750 
Q 669 2216 641 2353 
Q 619 2453 572 2492 
Q 525 2531 444 2531 
Q 356 2531 231 2484 
L 188 2597 
L 1050 2947 
L 1188 2947 
z
" id="TimesNewRomanPSMT-69" transform="scale(0.015625)"/>
       <path d="M 2050 2947 
L 2050 1972 
L 1947 1972 
Q 1828 2431 1642 2597 
Q 1456 2763 1169 2763 
Q 950 2763 815 2647 
Q 681 2531 681 2391 
Q 681 2216 781 2091 
Q 878 1963 1175 1819 
L 1631 1597 
Q 2266 1288 2266 781 
Q 2266 391 1970 151 
Q 1675 -88 1309 -88 
Q 1047 -88 709 6 
Q 606 38 541 38 
Q 469 38 428 -44 
L 325 -44 
L 325 978 
L 428 978 
Q 516 541 762 319 
Q 1009 97 1316 97 
Q 1531 97 1667 223 
Q 1803 350 1803 528 
Q 1803 744 1651 891 
Q 1500 1038 1047 1263 
Q 594 1488 453 1669 
Q 313 1847 313 2119 
Q 313 2472 555 2709 
Q 797 2947 1181 2947 
Q 1350 2947 1591 2875 
Q 1750 2828 1803 2828 
Q 1853 2828 1881 2850 
Q 1909 2872 1947 2947 
L 2050 2947 
z
" id="TimesNewRomanPSMT-73" transform="scale(0.015625)"/>
       <path d="M 1600 2947 
Q 2250 2947 2644 2453 
Q 2978 2031 2978 1484 
Q 2978 1100 2793 706 
Q 2609 313 2286 112 
Q 1963 -88 1566 -88 
Q 919 -88 538 428 
Q 216 863 216 1403 
Q 216 1797 411 2186 
Q 606 2575 925 2761 
Q 1244 2947 1600 2947 
z
M 1503 2744 
Q 1338 2744 1170 2645 
Q 1003 2547 900 2300 
Q 797 2053 797 1666 
Q 797 1041 1045 587 
Q 1294 134 1700 134 
Q 2003 134 2200 384 
Q 2397 634 2397 1244 
Q 2397 2006 2069 2444 
Q 1847 2744 1503 2744 
z
" id="TimesNewRomanPSMT-6f" transform="scale(0.015625)"/>
       <path d="M 2222 322 
Q 2013 103 1813 7 
Q 1613 -88 1381 -88 
Q 913 -88 563 304 
Q 213 697 213 1313 
Q 213 1928 600 2439 
Q 988 2950 1597 2950 
Q 1975 2950 2222 2709 
L 2222 3238 
Q 2222 3728 2198 3840 
Q 2175 3953 2125 3993 
Q 2075 4034 2000 4034 
Q 1919 4034 1784 3984 
L 1744 4094 
L 2597 4444 
L 2738 4444 
L 2738 1134 
Q 2738 631 2761 520 
Q 2784 409 2836 365 
Q 2888 322 2956 322 
Q 3041 322 3181 375 
L 3216 266 
L 2366 -88 
L 2222 -88 
L 2222 322 
z
M 2222 541 
L 2222 2016 
Q 2203 2228 2109 2403 
Q 2016 2578 1861 2667 
Q 1706 2756 1559 2756 
Q 1284 2756 1069 2509 
Q 784 2184 784 1559 
Q 784 928 1059 592 
Q 1334 256 1672 256 
Q 1956 256 2222 541 
z
" id="TimesNewRomanPSMT-64" transform="scale(0.015625)"/>
       <path d="M 681 1784 
Q 678 1147 991 784 
Q 1303 422 1725 422 
Q 2006 422 2214 576 
Q 2422 731 2563 1106 
L 2659 1044 
Q 2594 616 2278 264 
Q 1963 -88 1488 -88 
Q 972 -88 605 314 
Q 238 716 238 1394 
Q 238 2128 614 2539 
Q 991 2950 1559 2950 
Q 2041 2950 2350 2633 
Q 2659 2316 2659 1784 
L 681 1784 
z
M 681 1966 
L 2006 1966 
Q 1991 2241 1941 2353 
Q 1863 2528 1708 2628 
Q 1553 2728 1384 2728 
Q 1125 2728 920 2526 
Q 716 2325 681 1966 
z
" id="TimesNewRomanPSMT-65" transform="scale(0.015625)"/>
      </defs>
      <use xlink:href="#TimesNewRomanPSMT-45"/>
      <use x="61.083984" xlink:href="#TimesNewRomanPSMT-70"/>
      <use x="111.083984" xlink:href="#TimesNewRomanPSMT-69"/>
      <use x="138.867188" xlink:href="#TimesNewRomanPSMT-73"/>
      <use x="177.783203" xlink:href="#TimesNewRomanPSMT-6f"/>
      <use x="227.783203" xlink:href="#TimesNewRomanPSMT-64"/>
      <use x="277.783203" xlink:href="#TimesNewRomanPSMT-65"/>
      <use x="322.167969" xlink:href="#TimesNewRomanPSMT-73"/>
     </g>
    </g>
   </g>
   <g id="matplotlib.axis_2">
    <g id="ytick_1">
     <g id="line2d_8">
      <defs>
       <path d="M 0 0 
L -3.5 0 
" id="m79487465f9" style="stroke:#000000;stroke-width:0.8;"/>
      </defs>
      <g>
       <use style="stroke:#000000;stroke-width:0.8;" x="54.627188" xlink:href="#m79487465f9" y="289.260625"/>
      </g>
     </g>
     <g id="text_9">
      <!-- −25 -->
      <g transform="translate(25.7325 294.12125)scale(0.14 -0.14)">
       <defs>
        <path d="M 3484 2000 
L 116 2000 
L 116 2256 
L 3484 2256 
L 3484 2000 
z
" id="TimesNewRomanPSMT-2212" transform="scale(0.015625)"/>
        <path d="M 2778 4238 
L 2534 3706 
L 1259 3706 
L 981 3138 
Q 1809 3016 2294 2522 
Q 2709 2097 2709 1522 
Q 2709 1188 2573 903 
Q 2438 619 2231 419 
Q 2025 219 1772 97 
Q 1413 -75 1034 -75 
Q 653 -75 479 54 
Q 306 184 306 341 
Q 306 428 378 495 
Q 450 563 559 563 
Q 641 563 702 538 
Q 763 513 909 409 
Q 1144 247 1384 247 
Q 1750 247 2026 523 
Q 2303 800 2303 1197 
Q 2303 1581 2056 1914 
Q 1809 2247 1375 2428 
Q 1034 2569 447 2591 
L 1259 4238 
L 2778 4238 
z
" id="TimesNewRomanPSMT-35" transform="scale(0.015625)"/>
       </defs>
       <use xlink:href="#TimesNewRomanPSMT-2212"/>
       <use x="56.396484" xlink:href="#TimesNewRomanPSMT-32"/>
       <use x="106.396484" xlink:href="#TimesNewRomanPSMT-35"/>
      </g>
     </g>
    </g>
    <g id="ytick_2">
     <g id="line2d_9">
      <g>
       <use style="stroke:#000000;stroke-width:0.8;" x="54.627188" xlink:href="#m79487465f9" y="254.610625"/>
      </g>
     </g>
     <g id="text_10">
      <!-- −20 -->
      <g transform="translate(25.7325 259.47125)scale(0.14 -0.14)">
       <use xlink:href="#TimesNewRomanPSMT-2212"/>
       <use x="56.396484" xlink:href="#TimesNewRomanPSMT-32"/>
       <use x="106.396484" xlink:href="#TimesNewRomanPSMT-30"/>
      </g>
     </g>
    </g>
    <g id="ytick_3">
     <g id="line2d_10">
      <g>
       <use style="stroke:#000000;stroke-width:0.8;" x="54.627188" xlink:href="#m79487465f9" y="219.960625"/>
      </g>
     </g>
     <g id="text_11">
      <!-- −15 -->
      <g transform="translate(25.7325 224.82125)scale(0.14 -0.14)">
       <use xlink:href="#TimesNewRomanPSMT-2212"/>
       <use x="56.396484" xlink:href="#TimesNewRomanPSMT-31"/>
       <use x="106.396484" xlink:href="#TimesNewRomanPSMT-35"/>
      </g>
     </g>
    </g>
    <g id="ytick_4">
     <g id="line2d_11">
      <g>
       <use style="stroke:#000000;stroke-width:0.8;" x="54.627188" xlink:href="#m79487465f9" y="185.310625"/>
      </g>
     </g>
     <g id="text_12">
      <!-- −10 -->
      <g transform="translate(25.7325 190.17125)scale(0.14 -0.14)">
       <use xlink:href="#TimesNewRomanPSMT-2212"/>
       <use x="56.396484" xlink:href="#TimesNewRomanPSMT-31"/>
       <use x="106.396484" xlink:href="#TimesNewRomanPSMT-30"/>
      </g>
     </g>
    </g>
    <g id="ytick_5">
     <g id="line2d_12">
      <g>
       <use style="stroke:#000000;stroke-width:0.8;" x="54.627188" xlink:href="#m79487465f9" y="150.660625"/>
      </g>
     </g>
     <g id="text_13">
      <!-- −5 -->
      <g transform="translate(32.7325 155.52125)scale(0.14 -0.14)">
       <use xlink:href="#TimesNewRomanPSMT-2212"/>
       <use x="56.396484" xlink:href="#TimesNewRomanPSMT-35"/>
      </g>
     </g>
    </g>
    <g id="ytick_6">
     <g id="line2d_13">
      <g>
       <use style="stroke:#000000;stroke-width:0.8;" x="54.627188" xlink:href="#m79487465f9" y="116.010625"/>
      </g>
     </g>
     <g id="text_14">
      <!-- 0 -->
      <g transform="translate(40.627188 120.87125)scale(0.14 -0.14)">
       <use xlink:href="#TimesNewRomanPSMT-30"/>
      </g>
     </g>
    </g>
    <g id="ytick_7">
     <g id="line2d_14">
      <g>
       <use style="stroke:#000000;stroke-width:0.8;" x="54.627188" xlink:href="#m79487465f9" y="81.360625"/>
      </g>
     </g>
     <g id="text_15">
      <!-- 5 -->
      <g transform="translate(40.627188 86.22125)scale(0.14 -0.14)">
       <use xlink:href="#TimesNewRomanPSMT-35"/>
      </g>
     </g>
    </g>
    <g id="ytick_8">
     <g id="line2d_15">
      <g>
       <use style="stroke:#000000;stroke-width:0.8;" x="54.627188" xlink:href="#m79487465f9" y="46.710625"/>
      </g>
     </g>
     <g id="text_16">
      <!-- 10 -->
      <g transform="translate(33.627188 51.57125)scale(0.14 -0.14)">
       <use xlink:href="#TimesNewRomanPSMT-31"/>
       <use x="50" xlink:href="#TimesNewRomanPSMT-30"/>
      </g>
     </g>
    </g>
    <g id="ytick_9">
     <g id="line2d_16">
      <g>
       <use style="stroke:#000000;stroke-width:0.8;" x="54.627188" xlink:href="#m79487465f9" y="12.060625"/>
      </g>
     </g>
     <g id="text_17">
      <!-- 15 -->
      <g transform="translate(33.627188 16.92125)scale(0.14 -0.14)">
       <use xlink:href="#TimesNewRomanPSMT-31"/>
       <use x="50" xlink:href="#TimesNewRomanPSMT-35"/>
      </g>
     </g>
    </g>
    <g id="text_18">
     <!-- Rewards -->
     <g transform="translate(18.31 178.654375)rotate(-90)scale(0.16 -0.16)">
      <defs>
       <path d="M 4325 0 
L 3194 0 
L 1759 1981 
Q 1600 1975 1500 1975 
Q 1459 1975 1412 1976 
Q 1366 1978 1316 1981 
L 1316 750 
Q 1316 350 1403 253 
Q 1522 116 1759 116 
L 1925 116 
L 1925 0 
L 109 0 
L 109 116 
L 269 116 
Q 538 116 653 291 
Q 719 388 719 750 
L 719 3488 
Q 719 3888 631 3984 
Q 509 4122 269 4122 
L 109 4122 
L 109 4238 
L 1653 4238 
Q 2328 4238 2648 4139 
Q 2969 4041 3192 3777 
Q 3416 3513 3416 3147 
Q 3416 2756 3161 2468 
Q 2906 2181 2372 2063 
L 3247 847 
Q 3547 428 3762 290 
Q 3978 153 4325 116 
L 4325 0 
z
M 1316 2178 
Q 1375 2178 1419 2176 
Q 1463 2175 1491 2175 
Q 2097 2175 2405 2437 
Q 2713 2700 2713 3106 
Q 2713 3503 2464 3751 
Q 2216 4000 1806 4000 
Q 1625 4000 1316 3941 
L 1316 2178 
z
" id="TimesNewRomanPSMT-52" transform="scale(0.015625)"/>
       <path d="M 41 2863 
L 1241 2863 
L 1241 2747 
Q 1075 2734 1023 2687 
Q 972 2641 972 2553 
Q 972 2456 1025 2319 
L 1638 672 
L 2253 2013 
L 2091 2434 
Q 2016 2622 1894 2694 
Q 1825 2738 1638 2747 
L 1638 2863 
L 3000 2863 
L 3000 2747 
Q 2775 2738 2681 2666 
Q 2619 2616 2619 2506 
Q 2619 2444 2644 2378 
L 3294 734 
L 3897 2319 
Q 3959 2488 3959 2588 
Q 3959 2647 3898 2694 
Q 3838 2741 3659 2747 
L 3659 2863 
L 4563 2863 
L 4563 2747 
Q 4291 2706 4163 2378 
L 3206 -88 
L 3078 -88 
L 2363 1741 
L 1528 -88 
L 1413 -88 
L 494 2319 
Q 403 2547 315 2626 
Q 228 2706 41 2747 
L 41 2863 
z
" id="TimesNewRomanPSMT-77" transform="scale(0.015625)"/>
       <path d="M 1822 413 
Q 1381 72 1269 19 
Q 1100 -59 909 -59 
Q 613 -59 420 144 
Q 228 347 228 678 
Q 228 888 322 1041 
Q 450 1253 767 1440 
Q 1084 1628 1822 1897 
L 1822 2009 
Q 1822 2438 1686 2597 
Q 1550 2756 1291 2756 
Q 1094 2756 978 2650 
Q 859 2544 859 2406 
L 866 2225 
Q 866 2081 792 2003 
Q 719 1925 600 1925 
Q 484 1925 411 2006 
Q 338 2088 338 2228 
Q 338 2497 613 2722 
Q 888 2947 1384 2947 
Q 1766 2947 2009 2819 
Q 2194 2722 2281 2516 
Q 2338 2381 2338 1966 
L 2338 994 
Q 2338 584 2353 492 
Q 2369 400 2405 369 
Q 2441 338 2488 338 
Q 2538 338 2575 359 
Q 2641 400 2828 588 
L 2828 413 
Q 2478 -56 2159 -56 
Q 2006 -56 1915 50 
Q 1825 156 1822 413 
z
M 1822 616 
L 1822 1706 
Q 1350 1519 1213 1441 
Q 966 1303 859 1153 
Q 753 1003 753 825 
Q 753 600 887 451 
Q 1022 303 1197 303 
Q 1434 303 1822 616 
z
" id="TimesNewRomanPSMT-61" transform="scale(0.015625)"/>
       <path d="M 1038 2947 
L 1038 2303 
Q 1397 2947 1775 2947 
Q 1947 2947 2059 2842 
Q 2172 2738 2172 2600 
Q 2172 2478 2090 2393 
Q 2009 2309 1897 2309 
Q 1788 2309 1652 2417 
Q 1516 2525 1450 2525 
Q 1394 2525 1328 2463 
Q 1188 2334 1038 2041 
L 1038 669 
Q 1038 431 1097 309 
Q 1138 225 1241 169 
Q 1344 113 1538 113 
L 1538 0 
L 72 0 
L 72 113 
Q 291 113 397 181 
Q 475 231 506 341 
Q 522 394 522 644 
L 522 1753 
Q 522 2253 501 2348 
Q 481 2444 426 2487 
Q 372 2531 291 2531 
Q 194 2531 72 2484 
L 41 2597 
L 906 2947 
L 1038 2947 
z
" id="TimesNewRomanPSMT-72" transform="scale(0.015625)"/>
      </defs>
      <use xlink:href="#TimesNewRomanPSMT-52"/>
      <use x="66.699219" xlink:href="#TimesNewRomanPSMT-65"/>
      <use x="111.083984" xlink:href="#TimesNewRomanPSMT-77"/>
      <use x="183.300781" xlink:href="#TimesNewRomanPSMT-61"/>
      <use x="227.685547" xlink:href="#TimesNewRomanPSMT-72"/>
      <use x="260.986328" xlink:href="#TimesNewRomanPSMT-64"/>
      <use x="310.986328" xlink:href="#TimesNewRomanPSMT-73"/>
     </g>
    </g>
   </g>
   <g id="line2d_17">
    <path clip-path="url(#p8d09355908)" d="M 69.546974 143.216187 
L 72.054501 131.627582 
L 74.562028 87.106858 
L 77.069555 101.886969 
L 79.577082 137.050124 
L 82.084609 110.833848 
L 84.592136 102.273124 
L 87.099663 72.979645 
L 89.60719 80.446969 
L 92.114717 60.984622 
L 94.622244 63.481981 
L 97.129771 94.102573 
L 99.637298 65.636202 
L 102.144826 57.391438 
L 104.652353 93.596849 
L 107.15988 62.480215 
L 109.667407 64.949863 
L 112.174934 64.026483 
L 114.682461 62.643636 
L 117.189988 63.25621 
L 119.697515 69.759456 
L 122.205042 56.919094 
L 124.712569 70.082038 
L 127.220096 67.122613 
L 129.727623 115.103252 
L 132.23515 59.268378 
L 134.742678 58.739981 
L 137.250205 67.734381 
L 139.757732 59.871233 
L 142.265259 57.245899 
L 144.772786 63.513461 
L 147.280313 59.735913 
L 149.78784 59.875208 
L 152.295367 75.527754 
L 154.802894 54.484733 
L 157.310421 55.881164 
L 159.817948 56.487048 
L 162.325475 58.750682 
L 164.833002 56.934768 
L 167.34053 74.502546 
L 169.848057 57.21222 
L 172.355584 56.430921 
L 174.863111 58.168782 
L 177.370638 55.817191 
L 179.878165 57.018504 
L 182.385692 53.698321 
L 184.893219 54.138876 
L 187.400746 56.00016 
L 189.908273 57.010734 
L 192.4158 55.37582 
L 194.923327 56.781746 
L 197.430854 56.951398 
L 199.938381 63.778612 
L 202.445909 56.76833 
L 204.953436 60.874191 
L 207.460963 61.716736 
L 209.96849 56.335737 
L 212.476017 55.863119 
L 214.983544 55.976564 
L 217.491071 55.205675 
L 219.998598 60.206092 
L 222.506125 68.199953 
L 225.013652 54.913325 
L 227.521179 54.557285 
L 230.028706 54.30908 
L 232.536233 55.137375 
L 235.043761 61.505333 
L 237.551288 55.665715 
L 240.058815 61.537129 
L 242.566342 57.255159 
L 245.073869 57.239207 
L 247.581396 54.412844 
L 250.088923 54.629632 
L 252.59645 60.528034 
L 255.103977 65.387933 
L 257.611504 54.721942 
L 260.119031 53.239793 
L 262.626558 53.711187 
L 265.134085 59.851367 
L 267.641613 57.711953 
L 270.14914 55.487386 
L 272.656667 60.935253 
L 275.164194 55.586447 
L 277.671721 53.622891 
L 280.179248 54.598687 
L 282.686775 54.553766 
L 285.194302 56.508137 
L 287.701829 52.969761 
L 290.209356 53.875061 
L 292.716883 54.695629 
L 295.22441 56.989231 
L 297.731937 55.188542 
L 300.239464 55.376486 
L 302.746992 54.247853 
L 305.254519 54.194294 
L 307.762046 54.82433 
L 310.269573 54.591853 
L 312.7771 55.040722 
L 315.284627 54.341258 
L 317.792154 61.145736 
L 320.299681 65.265574 
L 322.807208 57.105248 
L 325.314735 54.722886 
L 327.822262 54.589974 
L 330.329789 69.14959 
L 332.837316 55.235075 
L 335.344844 53.120975 
L 337.852371 62.53931 
L 340.359898 57.892485 
L 342.867425 54.77792 
L 345.374952 55.251672 
L 347.882479 52.904699 
L 350.390006 54.452161 
L 352.897533 53.93214 
L 355.40506 53.305389 
L 357.912587 54.321718 
L 360.420114 55.046959 
L 362.927641 55.164164 
L 365.435168 53.174396 
L 367.942696 57.415 
" style="fill:none;stroke:#ff4500;stroke-linecap:square;stroke-width:1.5;"/>
   </g>
   <g id="patch_3">
    <path d="M 54.627188 289.260625 
L 54.627188 12.060625 
" style="fill:none;stroke:#000000;stroke-linecap:square;stroke-linejoin:miter;stroke-width:0.8;"/>
   </g>
   <g id="patch_4">
    <path d="M 382.862482 289.260625 
L 382.862482 12.060625 
" style="fill:none;stroke:#000000;stroke-linecap:square;stroke-linejoin:miter;stroke-width:0.8;"/>
   </g>
   <g id="patch_5">
    <path d="M 54.627188 289.260625 
L 382.862482 289.260625 
" style="fill:none;stroke:#000000;stroke-linecap:square;stroke-linejoin:miter;stroke-width:0.8;"/>
   </g>
   <g id="patch_6">
    <path d="M 54.627188 12.060625 
L 382.862482 12.060625 
" style="fill:none;stroke:#000000;stroke-linecap:square;stroke-linejoin:miter;stroke-width:0.8;"/>
   </g>
   <g id="legend_1">
    <g id="patch_7">
     <path d="M 280.819982 43.055313 
L 373.062482 43.055313 
Q 375.862482 43.055313 375.862482 40.255313 
L 375.862482 21.860625 
Q 375.862482 19.060625 373.062482 19.060625 
L 280.819982 19.060625 
Q 278.019982 19.060625 278.019982 21.860625 
L 278.019982 40.255313 
Q 278.019982 43.055313 280.819982 43.055313 
z
" style="fill:#ffffff;opacity:0.8;stroke:#cccccc;stroke-linejoin:miter;"/>
    </g>
    <g id="line2d_18">
     <path d="M 283.619982 29.560625 
L 311.619982 29.560625 
" style="fill:none;stroke:#ff4500;stroke-linecap:square;stroke-width:1.5;"/>
    </g>
    <g id="line2d_19"/>
    <g id="text_19">
     <!-- VD3QN -->
     <g transform="translate(322.819982 34.460625)scale(0.14 -0.14)">
      <defs>
       <path d="M 4544 4238 
L 4544 4122 
Q 4319 4081 4203 3978 
Q 4038 3825 3909 3509 
L 2431 -97 
L 2316 -97 
L 728 3556 
Q 606 3838 556 3900 
Q 478 3997 364 4051 
Q 250 4106 56 4122 
L 56 4238 
L 1788 4238 
L 1788 4122 
Q 1494 4094 1406 4022 
Q 1319 3950 1319 3838 
Q 1319 3681 1463 3350 
L 2541 866 
L 3541 3319 
Q 3688 3681 3688 3822 
Q 3688 3913 3597 3995 
Q 3506 4078 3291 4113 
Q 3275 4116 3238 4122 
L 3238 4238 
L 4544 4238 
z
" id="TimesNewRomanPSMT-56" transform="scale(0.015625)"/>
       <path d="M 109 0 
L 109 116 
L 269 116 
Q 538 116 650 288 
Q 719 391 719 750 
L 719 3488 
Q 719 3884 631 3984 
Q 509 4122 269 4122 
L 109 4122 
L 109 4238 
L 1834 4238 
Q 2784 4238 3279 4022 
Q 3775 3806 4076 3303 
Q 4378 2800 4378 2141 
Q 4378 1256 3841 663 
Q 3238 0 2003 0 
L 109 0 
z
M 1319 306 
Q 1716 219 1984 219 
Q 2709 219 3187 728 
Q 3666 1238 3666 2109 
Q 3666 2988 3187 3494 
Q 2709 4000 1959 4000 
Q 1678 4000 1319 3909 
L 1319 306 
z
" id="TimesNewRomanPSMT-44" transform="scale(0.015625)"/>
       <path d="M 325 3431 
Q 506 3859 782 4092 
Q 1059 4325 1472 4325 
Q 1981 4325 2253 3994 
Q 2459 3747 2459 3466 
Q 2459 3003 1878 2509 
Q 2269 2356 2469 2072 
Q 2669 1788 2669 1403 
Q 2669 853 2319 450 
Q 1863 -75 997 -75 
Q 569 -75 414 31 
Q 259 138 259 259 
Q 259 350 332 419 
Q 406 488 509 488 
Q 588 488 669 463 
Q 722 447 909 348 
Q 1097 250 1169 231 
Q 1284 197 1416 197 
Q 1734 197 1970 444 
Q 2206 691 2206 1028 
Q 2206 1275 2097 1509 
Q 2016 1684 1919 1775 
Q 1784 1900 1550 2001 
Q 1316 2103 1072 2103 
L 972 2103 
L 972 2197 
Q 1219 2228 1467 2375 
Q 1716 2522 1828 2728 
Q 1941 2934 1941 3181 
Q 1941 3503 1739 3701 
Q 1538 3900 1238 3900 
Q 753 3900 428 3381 
L 325 3431 
z
" id="TimesNewRomanPSMT-33" transform="scale(0.015625)"/>
       <path d="M 2819 -47 
Q 3138 -597 3508 -856 
Q 3878 -1116 4350 -1153 
L 4350 -1253 
Q 3919 -1238 3428 -1080 
Q 2938 -922 2498 -642 
Q 2059 -363 1741 -47 
Q 1291 134 1028 338 
Q 647 641 436 1083 
Q 225 1525 225 2128 
Q 225 3078 840 3706 
Q 1456 4334 2331 4334 
Q 3163 4334 3770 3704 
Q 4378 3075 4378 2116 
Q 4378 1338 3945 750 
Q 3513 163 2819 -47 
z
M 2294 4094 
Q 1725 4094 1378 3688 
Q 941 3178 941 2128 
Q 941 1100 1384 544 
Q 1728 116 2294 116 
Q 2881 116 3241 544 
Q 3663 1050 3663 2038 
Q 3663 2797 3431 3316 
Q 3253 3716 2958 3905 
Q 2663 4094 2294 4094 
z
" id="TimesNewRomanPSMT-51" transform="scale(0.015625)"/>
       <path d="M -84 4238 
L 1066 4238 
L 3656 1059 
L 3656 3503 
Q 3656 3894 3569 3991 
Q 3453 4122 3203 4122 
L 3056 4122 
L 3056 4238 
L 4531 4238 
L 4531 4122 
L 4381 4122 
Q 4113 4122 4000 3959 
Q 3931 3859 3931 3503 
L 3931 -69 
L 3819 -69 
L 1025 3344 
L 1025 734 
Q 1025 344 1109 247 
Q 1228 116 1475 116 
L 1625 116 
L 1625 0 
L 150 0 
L 150 116 
L 297 116 
Q 569 116 681 278 
Q 750 378 750 734 
L 750 3681 
Q 566 3897 470 3965 
Q 375 4034 191 4094 
Q 100 4122 -84 4122 
L -84 4238 
z
" id="TimesNewRomanPSMT-4e" transform="scale(0.015625)"/>
      </defs>
      <use xlink:href="#TimesNewRomanPSMT-56"/>
      <use x="72.216797" xlink:href="#TimesNewRomanPSMT-44"/>
      <use x="144.433594" xlink:href="#TimesNewRomanPSMT-33"/>
      <use x="194.433594" xlink:href="#TimesNewRomanPSMT-51"/>
      <use x="266.650391" xlink:href="#TimesNewRomanPSMT-4e"/>
     </g>
    </g>
   </g>
  </g>
  <g id="axes_2">
   <g id="patch_8">
    <path d="M 448.50954 289.260625 
L 776.744835 289.260625 
L 776.744835 12.060625 
L 448.50954 12.060625 
z
" style="fill:#ffffff;"/>
   </g>
   <g id="PolyCollection_2">
    <defs>
     <path d="M 463.429327 -58.452251 
L 463.429327 -239.529006 
L 465.936854 -233.739303 
L 468.444381 -253.777676 
L 470.951908 -230.196324 
L 473.459435 -234.525967 
L 475.966962 -244.113043 
L 478.474489 -259.385218 
L 480.982016 -274.2574 
L 483.489543 -291.829455 
L 485.99707 -272.784281 
L 488.504597 -269.718043 
L 491.012124 -276.166319 
L 493.519651 -282.681061 
L 496.027179 -280.150453 
L 498.534706 -252.469961 
L 501.042233 -285.113592 
L 503.54976 -285.335374 
L 506.057287 -298.842892 
L 508.564814 -279.769911 
L 511.072341 -284.870923 
L 513.579868 -283.10531 
L 516.087395 -278.729089 
L 518.594922 -279.821208 
L 521.102449 -284.117485 
L 523.609976 -289.478253 
L 526.117503 -283.514251 
L 528.62503 -279.738788 
L 531.132558 -280.615645 
L 533.640085 -282.05091 
L 536.147612 -283.275461 
L 538.655139 -279.960909 
L 541.162666 -280.747438 
L 543.670193 -284.116541 
L 546.17772 -282.392854 
L 548.685247 -278.1656 
L 551.192774 -280.413697 
L 553.700301 -284.694364 
L 556.207828 -279.72787 
L 558.715355 -278.430302 
L 561.222882 -279.803499 
L 563.73041 -280.494079 
L 566.237937 -284.83018 
L 568.745464 -283.437073 
L 571.252991 -281.325443 
L 573.760518 -279.900814 
L 576.268045 -280.230394 
L 578.775572 -280.974091 
L 581.283099 -282.170754 
L 583.790626 -280.904505 
L 586.298153 -284.324042 
L 588.80568 -277.385249 
L 591.313207 -280.722605 
L 593.820734 -285.456333 
L 596.328262 -281.770754 
L 598.835789 -283.285928 
L 601.343316 -277.292463 
L 603.850843 -283.17339 
L 606.35837 -283.492095 
L 608.865897 -280.107967 
L 611.373424 -280.873931 
L 613.880951 -279.859226 
L 616.388478 -278.963259 
L 618.896005 -282.421596 
L 621.403532 -281.508848 
L 623.911059 -281.616068 
L 626.418586 -282.199418 
L 628.926113 -281.399099 
L 631.433641 -281.135983 
L 633.941168 -281.765 
L 636.448695 -277.852061 
L 638.956222 -280.360739 
L 641.463749 -280.340895 
L 643.971276 -280.234354 
L 646.478803 -282.24181 
L 648.98633 -281.061979 
L 651.493857 -281.749681 
L 654.001384 -280.416661 
L 656.508911 -280.583078 
L 659.016438 -280.598259 
L 661.523965 -281.042927 
L 664.031493 -286.075643 
L 666.53902 -281.022814 
L 669.046547 -279.730004 
L 671.554074 -281.601365 
L 674.061601 -281.805927 
L 676.569128 -282.787124 
L 679.076655 -281.156635 
L 681.584182 -280.978073 
L 684.091709 -281.639144 
L 686.599236 -281.607792 
L 689.106763 -281.135826 
L 691.61429 -280.217274 
L 694.121817 -281.543071 
L 696.629345 -281.7898 
L 699.136872 -281.449934 
L 701.644399 -281.130048 
L 704.151926 -281.50648 
L 706.659453 -281.543831 
L 709.16698 -281.502946 
L 711.674507 -281.115601 
L 714.182034 -281.29108 
L 716.689561 -280.798237 
L 719.197088 -280.858419 
L 721.704615 -280.842427 
L 724.212142 -281.406235 
L 726.719669 -280.401707 
L 729.227196 -281.569512 
L 731.734724 -281.472569 
L 734.242251 -281.841249 
L 736.749778 -281.353858 
L 739.257305 -281.40874 
L 741.764832 -315.73177 
L 744.272359 -280.792259 
L 746.779886 -281.872624 
L 749.287413 -281.748095 
L 751.79494 -281.24769 
L 754.302467 -281.488651 
L 756.809994 -281.715876 
L 759.317521 -281.998489 
L 761.825048 -282.523291 
L 761.825048 -278.391388 
L 761.825048 -278.391388 
L 759.317521 -279.191581 
L 756.809994 -278.820927 
L 754.302467 -279.59204 
L 751.79494 -279.861737 
L 749.287413 -278.013117 
L 746.779886 -279.557074 
L 744.272359 -278.151844 
L 741.764832 -171.436398 
L 739.257305 -274.875249 
L 736.749778 -279.257325 
L 734.242251 -278.196009 
L 731.734724 -275.882235 
L 729.227196 -277.944696 
L 726.719669 -275.990556 
L 724.212142 -276.54179 
L 721.704615 -279.119856 
L 719.197088 -278.589969 
L 716.689561 -277.821599 
L 714.182034 -279.625318 
L 711.674507 -279.571989 
L 709.16698 -279.025125 
L 706.659453 -280.071126 
L 704.151926 -279.87301 
L 701.644399 -278.70759 
L 699.136872 -275.512273 
L 696.629345 -277.865166 
L 694.121817 -279.384306 
L 691.61429 -274.988691 
L 689.106763 -277.887358 
L 686.599236 -273.811351 
L 684.091709 -279.780437 
L 681.584182 -276.200368 
L 679.076655 -276.912544 
L 676.569128 -275.413344 
L 674.061601 -278.842681 
L 671.554074 -277.826855 
L 669.046547 -276.013722 
L 666.53902 -278.829871 
L 664.031493 -259.751357 
L 661.523965 -278.857169 
L 659.016438 -278.527614 
L 656.508911 -275.000167 
L 654.001384 -275.010244 
L 651.493857 -279.018179 
L 648.98633 -270.323804 
L 646.478803 -272.595326 
L 643.971276 -278.211058 
L 641.463749 -278.985465 
L 638.956222 -270.939131 
L 636.448695 -268.771101 
L 633.941168 -274.548906 
L 631.433641 -279.445866 
L 628.926113 -278.346532 
L 626.418586 -271.313326 
L 623.911059 -276.315707 
L 621.403532 -274.946248 
L 618.896005 -267.488334 
L 616.388478 -268.695736 
L 613.880951 -266.408193 
L 611.373424 -276.136144 
L 608.865897 -273.704123 
L 606.35837 -260.492943 
L 603.850843 -268.387604 
L 601.343316 -270.763097 
L 598.835789 -260.842089 
L 596.328262 -273.39102 
L 593.820734 -261.540064 
L 591.313207 -273.970006 
L 588.80568 -266.473938 
L 586.298153 -258.353951 
L 583.790626 -275.031367 
L 581.283099 -276.926239 
L 578.775572 -273.017292 
L 576.268045 -273.386983 
L 573.760518 -274.334711 
L 571.252991 -277.316208 
L 568.745464 -265.42835 
L 566.237937 -265.711682 
L 563.73041 -275.008973 
L 561.222882 -276.800941 
L 558.715355 -259.115498 
L 556.207828 -244.892865 
L 553.700301 -250.812299 
L 551.192774 -266.187454 
L 548.685247 -275.658181 
L 546.17772 -260.728935 
L 543.670193 -260.608174 
L 541.162666 -265.474256 
L 538.655139 -241.043291 
L 536.147612 -246.737181 
L 533.640085 -245.012796 
L 531.132558 -245.494135 
L 528.62503 -240.818913 
L 526.117503 -264.757582 
L 523.609976 -255.300515 
L 521.102449 -254.106344 
L 518.594922 -240.525976 
L 516.087395 -240.829682 
L 513.579868 -257.218063 
L 511.072341 -242.787901 
L 508.564814 -267.736444 
L 506.057287 -167.333776 
L 503.54976 -263.582585 
L 501.042233 -263.517816 
L 498.534706 -223.101481 
L 496.027179 -251.119872 
L 493.519651 -221.101573 
L 491.012124 -248.557322 
L 488.504597 -228.089413 
L 485.99707 -243.125476 
L 483.489543 -125.387203 
L 480.982016 -238.965171 
L 478.474489 -214.236803 
L 475.966962 -182.122215 
L 473.459435 -184.787253 
L 470.951908 -152.195749 
L 468.444381 -76.162703 
L 465.936854 -137.820614 
L 463.429327 -58.452251 
z
" id="m05816f44bf" style="stroke:#4682b4;stroke-opacity:0.1;"/>
    </defs>
    <g clip-path="url(#pec4e408ab9)">
     <use style="fill:#4682b4;fill-opacity:0.1;stroke:#4682b4;stroke-opacity:0.1;" x="0" xlink:href="#m05816f44bf" y="334.709063"/>
    </g>
   </g>
   <g id="matplotlib.axis_3">
    <g id="xtick_8">
     <g id="line2d_20">
      <g>
       <use style="stroke:#000000;stroke-width:0.8;" x="460.921799" xlink:href="#m4c5af214c1" y="289.260625"/>
      </g>
     </g>
     <g id="text_20">
      <!-- 0 -->
      <g transform="translate(457.421799 305.981875)scale(0.14 -0.14)">
       <use xlink:href="#TimesNewRomanPSMT-30"/>
      </g>
     </g>
    </g>
    <g id="xtick_9">
     <g id="line2d_21">
      <g>
       <use style="stroke:#000000;stroke-width:0.8;" x="511.072341" xlink:href="#m4c5af214c1" y="289.260625"/>
      </g>
     </g>
     <g id="text_21">
      <!-- 20 -->
      <g transform="translate(504.072341 305.981875)scale(0.14 -0.14)">
       <use xlink:href="#TimesNewRomanPSMT-32"/>
       <use x="50" xlink:href="#TimesNewRomanPSMT-30"/>
      </g>
     </g>
    </g>
    <g id="xtick_10">
     <g id="line2d_22">
      <g>
       <use style="stroke:#000000;stroke-width:0.8;" x="561.222882" xlink:href="#m4c5af214c1" y="289.260625"/>
      </g>
     </g>
     <g id="text_22">
      <!-- 40 -->
      <g transform="translate(554.222882 305.981875)scale(0.14 -0.14)">
       <use xlink:href="#TimesNewRomanPSMT-34"/>
       <use x="50" xlink:href="#TimesNewRomanPSMT-30"/>
      </g>
     </g>
    </g>
    <g id="xtick_11">
     <g id="line2d_23">
      <g>
       <use style="stroke:#000000;stroke-width:0.8;" x="611.373424" xlink:href="#m4c5af214c1" y="289.260625"/>
      </g>
     </g>
     <g id="text_23">
      <!-- 60 -->
      <g transform="translate(604.373424 305.981875)scale(0.14 -0.14)">
       <use xlink:href="#TimesNewRomanPSMT-36"/>
       <use x="50" xlink:href="#TimesNewRomanPSMT-30"/>
      </g>
     </g>
    </g>
    <g id="xtick_12">
     <g id="line2d_24">
      <g>
       <use style="stroke:#000000;stroke-width:0.8;" x="661.523965" xlink:href="#m4c5af214c1" y="289.260625"/>
      </g>
     </g>
     <g id="text_24">
      <!-- 80 -->
      <g transform="translate(654.523965 305.981875)scale(0.14 -0.14)">
       <use xlink:href="#TimesNewRomanPSMT-38"/>
       <use x="50" xlink:href="#TimesNewRomanPSMT-30"/>
      </g>
     </g>
    </g>
    <g id="xtick_13">
     <g id="line2d_25">
      <g>
       <use style="stroke:#000000;stroke-width:0.8;" x="711.674507" xlink:href="#m4c5af214c1" y="289.260625"/>
      </g>
     </g>
     <g id="text_25">
      <!-- 100 -->
      <g transform="translate(701.174507 305.981875)scale(0.14 -0.14)">
       <use xlink:href="#TimesNewRomanPSMT-31"/>
       <use x="50" xlink:href="#TimesNewRomanPSMT-30"/>
       <use x="100" xlink:href="#TimesNewRomanPSMT-30"/>
      </g>
     </g>
    </g>
    <g id="xtick_14">
     <g id="line2d_26">
      <g>
       <use style="stroke:#000000;stroke-width:0.8;" x="761.825048" xlink:href="#m4c5af214c1" y="289.260625"/>
      </g>
     </g>
     <g id="text_26">
      <!-- 120 -->
      <g transform="translate(751.325048 305.981875)scale(0.14 -0.14)">
       <use xlink:href="#TimesNewRomanPSMT-31"/>
       <use x="50" xlink:href="#TimesNewRomanPSMT-32"/>
       <use x="100" xlink:href="#TimesNewRomanPSMT-30"/>
      </g>
     </g>
    </g>
    <g id="text_27">
     <!-- Episodes -->
     <g transform="translate(583.739687 324.086563)scale(0.16 -0.16)">
      <use xlink:href="#TimesNewRomanPSMT-45"/>
      <use x="61.083984" xlink:href="#TimesNewRomanPSMT-70"/>
      <use x="111.083984" xlink:href="#TimesNewRomanPSMT-69"/>
      <use x="138.867188" xlink:href="#TimesNewRomanPSMT-73"/>
      <use x="177.783203" xlink:href="#TimesNewRomanPSMT-6f"/>
      <use x="227.783203" xlink:href="#TimesNewRomanPSMT-64"/>
      <use x="277.783203" xlink:href="#TimesNewRomanPSMT-65"/>
      <use x="322.167969" xlink:href="#TimesNewRomanPSMT-73"/>
     </g>
    </g>
   </g>
   <g id="matplotlib.axis_4">
    <g id="ytick_10">
     <g id="line2d_27">
      <g>
       <use style="stroke:#000000;stroke-width:0.8;" x="448.50954" xlink:href="#m79487465f9" y="289.260625"/>
      </g>
     </g>
     <g id="text_28">
      <!-- −25 -->
      <g transform="translate(419.614853 294.12125)scale(0.14 -0.14)">
       <use xlink:href="#TimesNewRomanPSMT-2212"/>
       <use x="56.396484" xlink:href="#TimesNewRomanPSMT-32"/>
       <use x="106.396484" xlink:href="#TimesNewRomanPSMT-35"/>
      </g>
     </g>
    </g>
    <g id="ytick_11">
     <g id="line2d_28">
      <g>
       <use style="stroke:#000000;stroke-width:0.8;" x="448.50954" xlink:href="#m79487465f9" y="254.610625"/>
      </g>
     </g>
     <g id="text_29">
      <!-- −20 -->
      <g transform="translate(419.614853 259.47125)scale(0.14 -0.14)">
       <use xlink:href="#TimesNewRomanPSMT-2212"/>
       <use x="56.396484" xlink:href="#TimesNewRomanPSMT-32"/>
       <use x="106.396484" xlink:href="#TimesNewRomanPSMT-30"/>
      </g>
     </g>
    </g>
    <g id="ytick_12">
     <g id="line2d_29">
      <g>
       <use style="stroke:#000000;stroke-width:0.8;" x="448.50954" xlink:href="#m79487465f9" y="219.960625"/>
      </g>
     </g>
     <g id="text_30">
      <!-- −15 -->
      <g transform="translate(419.614853 224.82125)scale(0.14 -0.14)">
       <use xlink:href="#TimesNewRomanPSMT-2212"/>
       <use x="56.396484" xlink:href="#TimesNewRomanPSMT-31"/>
       <use x="106.396484" xlink:href="#TimesNewRomanPSMT-35"/>
      </g>
     </g>
    </g>
    <g id="ytick_13">
     <g id="line2d_30">
      <g>
       <use style="stroke:#000000;stroke-width:0.8;" x="448.50954" xlink:href="#m79487465f9" y="185.310625"/>
      </g>
     </g>
     <g id="text_31">
      <!-- −10 -->
      <g transform="translate(419.614853 190.17125)scale(0.14 -0.14)">
       <use xlink:href="#TimesNewRomanPSMT-2212"/>
       <use x="56.396484" xlink:href="#TimesNewRomanPSMT-31"/>
       <use x="106.396484" xlink:href="#TimesNewRomanPSMT-30"/>
      </g>
     </g>
    </g>
    <g id="ytick_14">
     <g id="line2d_31">
      <g>
       <use style="stroke:#000000;stroke-width:0.8;" x="448.50954" xlink:href="#m79487465f9" y="150.660625"/>
      </g>
     </g>
     <g id="text_32">
      <!-- −5 -->
      <g transform="translate(426.614853 155.52125)scale(0.14 -0.14)">
       <use xlink:href="#TimesNewRomanPSMT-2212"/>
       <use x="56.396484" xlink:href="#TimesNewRomanPSMT-35"/>
      </g>
     </g>
    </g>
    <g id="ytick_15">
     <g id="line2d_32">
      <g>
       <use style="stroke:#000000;stroke-width:0.8;" x="448.50954" xlink:href="#m79487465f9" y="116.010625"/>
      </g>
     </g>
     <g id="text_33">
      <!-- 0 -->
      <g transform="translate(434.50954 120.87125)scale(0.14 -0.14)">
       <use xlink:href="#TimesNewRomanPSMT-30"/>
      </g>
     </g>
    </g>
    <g id="ytick_16">
     <g id="line2d_33">
      <g>
       <use style="stroke:#000000;stroke-width:0.8;" x="448.50954" xlink:href="#m79487465f9" y="81.360625"/>
      </g>
     </g>
     <g id="text_34">
      <!-- 5 -->
      <g transform="translate(434.50954 86.22125)scale(0.14 -0.14)">
       <use xlink:href="#TimesNewRomanPSMT-35"/>
      </g>
     </g>
    </g>
    <g id="ytick_17">
     <g id="line2d_34">
      <g>
       <use style="stroke:#000000;stroke-width:0.8;" x="448.50954" xlink:href="#m79487465f9" y="46.710625"/>
      </g>
     </g>
     <g id="text_35">
      <!-- 10 -->
      <g transform="translate(427.50954 51.57125)scale(0.14 -0.14)">
       <use xlink:href="#TimesNewRomanPSMT-31"/>
       <use x="50" xlink:href="#TimesNewRomanPSMT-30"/>
      </g>
     </g>
    </g>
    <g id="ytick_18">
     <g id="line2d_35">
      <g>
       <use style="stroke:#000000;stroke-width:0.8;" x="448.50954" xlink:href="#m79487465f9" y="12.060625"/>
      </g>
     </g>
     <g id="text_36">
      <!-- 15 -->
      <g transform="translate(427.50954 16.92125)scale(0.14 -0.14)">
       <use xlink:href="#TimesNewRomanPSMT-31"/>
       <use x="50" xlink:href="#TimesNewRomanPSMT-35"/>
      </g>
     </g>
    </g>
   </g>
   <g id="line2d_36">
    <path clip-path="url(#pec4e408ab9)" d="M 463.429327 185.718434 
L 465.936854 148.929104 
L 468.444381 169.738873 
L 470.951908 143.513026 
L 473.459435 125.052452 
L 475.966962 121.591434 
L 478.474489 97.898052 
L 480.982016 78.097777 
L 483.489543 126.100734 
L 485.99707 76.754184 
L 488.504597 85.805335 
L 491.012124 72.347242 
L 493.519651 82.817746 
L 496.027179 69.0739 
L 498.534706 96.923341 
L 501.042233 60.393359 
L 503.54976 60.250083 
L 506.057287 101.620728 
L 508.564814 60.955885 
L 511.072341 70.87965 
L 513.579868 64.547376 
L 516.087395 74.929677 
L 518.594922 74.535471 
L 521.102449 65.597148 
L 523.609976 62.319678 
L 526.117503 60.573146 
L 528.62503 74.430212 
L 531.132558 71.654172 
L 533.640085 71.177209 
L 536.147612 69.702742 
L 538.655139 74.206963 
L 541.162666 61.598216 
L 543.670193 62.346705 
L 546.17772 63.148168 
L 548.685247 57.797172 
L 551.192774 61.408487 
L 553.700301 66.955731 
L 556.207828 72.398695 
L 558.715355 65.936163 
L 561.222882 56.406842 
L 563.73041 56.957537 
L 566.237937 59.438132 
L 568.745464 60.276351 
L 571.252991 55.388237 
L 573.760518 57.5913 
L 576.268045 57.900374 
L 578.775572 57.713371 
L 581.283099 55.160566 
L 583.790626 56.741126 
L 586.298153 63.370066 
L 588.80568 62.779469 
L 591.313207 57.362757 
L 593.820734 61.210864 
L 596.328262 57.128175 
L 598.835789 62.645054 
L 601.343316 60.681283 
L 603.850843 58.928565 
L 606.35837 62.716543 
L 608.865897 57.803017 
L 611.373424 56.204025 
L 613.880951 61.575353 
L 616.388478 60.879565 
L 618.896005 59.754098 
L 621.403532 56.481514 
L 623.911059 55.743175 
L 626.418586 57.952691 
L 628.926113 54.836247 
L 631.433641 54.418138 
L 633.941168 56.55211 
L 636.448695 61.397482 
L 638.956222 59.059127 
L 641.463749 55.045882 
L 643.971276 55.486356 
L 646.478803 57.290494 
L 648.98633 59.016171 
L 651.493857 54.325132 
L 654.001384 56.99561 
L 656.508911 56.91744 
L 659.016438 55.146126 
L 661.523965 54.759015 
L 664.031493 61.795563 
L 666.53902 54.78272 
L 669.046547 56.837199 
L 671.554074 54.994952 
L 674.061601 54.384759 
L 676.569128 55.608828 
L 679.076655 55.674473 
L 681.584182 56.119842 
L 684.091709 53.999272 
L 686.599236 56.999491 
L 689.106763 55.197471 
L 691.61429 57.10608 
L 694.121817 54.245374 
L 696.629345 54.881579 
L 699.136872 56.227959 
L 701.644399 54.790244 
L 704.151926 54.019317 
L 706.659453 53.901584 
L 709.16698 54.445027 
L 711.674507 54.365267 
L 714.182034 54.250864 
L 716.689561 55.399144 
L 719.197088 54.984868 
L 721.704615 54.727921 
L 724.212142 55.73505 
L 726.719669 56.512931 
L 729.227196 54.951958 
L 731.734724 56.031661 
L 734.242251 54.690434 
L 736.749778 54.403471 
L 739.257305 56.567068 
L 741.764832 91.124979 
L 744.272359 55.237011 
L 746.779886 53.994214 
L 749.287413 54.828457 
L 751.79494 54.154349 
L 754.302467 54.168717 
L 756.809994 54.440661 
L 759.317521 54.114028 
L 761.825048 54.251723 
" style="fill:none;stroke:#4682b4;stroke-linecap:square;stroke-width:1.5;"/>
   </g>
   <g id="patch_9">
    <path d="M 448.50954 289.260625 
L 448.50954 12.060625 
" style="fill:none;stroke:#000000;stroke-linecap:square;stroke-linejoin:miter;stroke-width:0.8;"/>
   </g>
   <g id="patch_10">
    <path d="M 776.744835 289.260625 
L 776.744835 12.060625 
" style="fill:none;stroke:#000000;stroke-linecap:square;stroke-linejoin:miter;stroke-width:0.8;"/>
   </g>
   <g id="patch_11">
    <path d="M 448.50954 289.260625 
L 776.744835 289.260625 
" style="fill:none;stroke:#000000;stroke-linecap:square;stroke-linejoin:miter;stroke-width:0.8;"/>
   </g>
   <g id="patch_12">
    <path d="M 448.50954 12.060625 
L 776.744835 12.060625 
" style="fill:none;stroke:#000000;stroke-linecap:square;stroke-linejoin:miter;stroke-width:0.8;"/>
   </g>
   <g id="legend_2">
    <g id="patch_13">
     <path d="M 684.81296 43.055313 
L 766.944835 43.055313 
Q 769.744835 43.055313 769.744835 40.255313 
L 769.744835 21.860625 
Q 769.744835 19.060625 766.944835 19.060625 
L 684.81296 19.060625 
Q 682.01296 19.060625 682.01296 21.860625 
L 682.01296 40.255313 
Q 682.01296 43.055313 684.81296 43.055313 
z
" style="fill:#ffffff;opacity:0.8;stroke:#cccccc;stroke-linejoin:miter;"/>
    </g>
    <g id="line2d_37">
     <path d="M 687.61296 29.560625 
L 715.61296 29.560625 
" style="fill:none;stroke:#4682b4;stroke-linecap:square;stroke-width:1.5;"/>
    </g>
    <g id="line2d_38"/>
    <g id="text_37">
     <!-- D3QN -->
     <g transform="translate(726.81296 34.460625)scale(0.14 -0.14)">
      <use xlink:href="#TimesNewRomanPSMT-44"/>
      <use x="72.216797" xlink:href="#TimesNewRomanPSMT-33"/>
      <use x="122.216797" xlink:href="#TimesNewRomanPSMT-51"/>
      <use x="194.433594" xlink:href="#TimesNewRomanPSMT-4e"/>
     </g>
    </g>
   </g>
  </g>
  <g id="axes_3">
   <g id="patch_14">
    <path d="M 842.391893 289.260625 
L 1170.627187 289.260625 
L 1170.627187 12.060625 
L 842.391893 12.060625 
z
" style="fill:#ffffff;"/>
   </g>
   <g id="PolyCollection_3">
    <defs>
     <path d="M 857.311679 -62.577093 
L 857.311679 -243.668415 
L 859.819207 -240.584827 
L 862.326734 -260.094008 
L 864.834261 -267.749373 
L 867.341788 -253.232255 
L 869.849315 -191.340387 
L 872.356842 -227.957001 
L 874.864369 -256.747341 
L 877.371896 -253.602344 
L 879.879423 -263.805629 
L 882.38695 -281.715055 
L 884.894477 -244.019266 
L 887.402004 -259.308822 
L 889.909531 -264.743293 
L 892.417059 -264.088301 
L 894.924586 -255.481149 
L 897.432113 -267.841801 
L 899.93964 -254.261515 
L 902.447167 -271.165127 
L 904.954694 -261.709583 
L 907.462221 -256.890779 
L 909.969748 -262.333107 
L 912.477275 -261.30311 
L 914.984802 -259.41352 
L 917.492329 -258.707673 
L 919.999856 -253.668245 
L 922.507383 -271.333239 
L 925.014911 -255.432475 
L 927.522438 -262.425456 
L 930.029965 -272.585705 
L 932.537492 -272.818844 
L 935.045019 -277.520642 
L 937.552546 -271.502505 
L 940.060073 -263.599442 
L 942.5676 -283.191783 
L 945.075127 -265.836251 
L 947.582654 -267.889661 
L 950.090181 -261.297956 
L 952.597708 -244.809749 
L 955.105235 -268.941618 
L 957.612762 -263.343242 
L 960.12029 -258.260578 
L 962.627817 -258.194393 
L 965.135344 -271.734292 
L 967.642871 -264.035327 
L 970.150398 -265.422978 
L 972.657925 -271.932245 
L 975.165452 -276.621193 
L 977.672979 -263.025205 
L 980.180506 -263.504181 
L 982.688033 -270.987598 
L 985.19556 -263.225227 
L 987.703087 -261.086733 
L 990.210614 -255.016175 
L 992.718142 -267.666403 
L 995.225669 -275.977437 
L 997.733196 -261.114416 
L 1000.240723 -280.53923 
L 1002.74825 -262.641511 
L 1005.255777 -271.958372 
L 1007.763304 -259.265672 
L 1010.270831 -265.010566 
L 1012.778358 -275.601582 
L 1015.285885 -275.166875 
L 1017.793412 -263.332936 
L 1020.300939 -267.861389 
L 1022.808466 -277.640263 
L 1025.315994 -279.227364 
L 1027.823521 -270.164298 
L 1030.331048 -262.790325 
L 1032.838575 -272.960961 
L 1035.346102 -272.98832 
L 1037.853629 -277.709689 
L 1040.361156 -277.051769 
L 1042.868683 -276.026129 
L 1045.37621 -265.808 
L 1047.883737 -277.145605 
L 1050.391264 -276.324766 
L 1052.898791 -275.193673 
L 1055.406318 -272.102709 
L 1057.913845 -275.672375 
L 1060.421373 -264.208101 
L 1062.9289 -264.541704 
L 1065.436427 -268.908003 
L 1067.943954 -273.280081 
L 1070.451481 -262.072886 
L 1072.959008 -257.935265 
L 1075.466535 -273.630695 
L 1077.974062 -260.964734 
L 1080.481589 -304.206431 
L 1082.989116 -260.880927 
L 1085.496643 -271.93617 
L 1088.00417 -270.812806 
L 1090.511697 -264.90517 
L 1093.019225 -277.692921 
L 1095.526752 -276.567615 
L 1098.034279 -279.283234 
L 1100.541806 -275.149414 
L 1103.049333 -265.129969 
L 1105.55686 -276.475016 
L 1108.064387 -275.73363 
L 1110.571914 -287.311766 
L 1113.079441 -261.638111 
L 1115.586968 -279.2667 
L 1118.094495 -271.734056 
L 1120.602022 -262.932419 
L 1123.109549 -282.531243 
L 1125.617077 -265.587295 
L 1128.124604 -284.108856 
L 1130.632131 -280.585381 
L 1133.139658 -265.307207 
L 1135.647185 -285.261287 
L 1138.154712 -280.737749 
L 1140.662239 -272.703639 
L 1143.169766 -281.424805 
L 1145.677293 -265.327184 
L 1148.18482 -277.313996 
L 1150.692347 -273.305727 
L 1153.199874 -274.685063 
L 1155.707401 -282.619782 
L 1155.707401 -244.082298 
L 1155.707401 -244.082298 
L 1153.199874 -232.069244 
L 1150.692347 -231.128091 
L 1148.18482 -238.009847 
L 1145.677293 -230.304617 
L 1143.169766 -251.010688 
L 1140.662239 -231.812693 
L 1138.154712 -136.438482 
L 1135.647185 -254.79885 
L 1133.139658 -231.302669 
L 1130.632131 -249.429191 
L 1128.124604 -245.590088 
L 1125.617077 -230.765977 
L 1123.109549 -244.71504 
L 1120.602022 -162.721613 
L 1118.094495 -233.182877 
L 1115.586968 -242.92778 
L 1113.079441 -226.303267 
L 1110.571914 -167.563733 
L 1108.064387 -241.329766 
L 1105.55686 -226.829312 
L 1103.049333 -232.080384 
L 1100.541806 -234.325679 
L 1098.034279 -205.660568 
L 1095.526752 -223.978006 
L 1093.019225 -239.682012 
L 1090.511697 -234.543029 
L 1088.00417 -224.443762 
L 1085.496643 -232.032324 
L 1082.989116 -239.568877 
L 1080.481589 -88.611456 
L 1077.974062 -214.042198 
L 1075.466535 -235.567705 
L 1072.959008 -236.504881 
L 1070.451481 -240.386448 
L 1067.943954 -221.839422 
L 1065.436427 -171.627812 
L 1062.9289 -218.539578 
L 1060.421373 -228.644138 
L 1057.913845 -237.535129 
L 1055.406318 -233.25353 
L 1052.898791 -233.239184 
L 1050.391264 -238.172033 
L 1047.883737 -239.758624 
L 1045.37621 -233.370054 
L 1042.868683 -234.319757 
L 1040.361156 -239.176182 
L 1037.853629 -248.866194 
L 1035.346102 -234.890557 
L 1032.838575 -233.222389 
L 1030.331048 -224.961141 
L 1027.823521 -226.939324 
L 1025.315994 -242.505636 
L 1022.808466 -241.835358 
L 1020.300939 -223.549724 
L 1017.793412 -221.742643 
L 1015.285885 -231.44948 
L 1012.778358 -235.775529 
L 1010.270831 -221.27699 
L 1007.763304 -196.980861 
L 1005.255777 -236.044585 
L 1002.74825 -232.183406 
L 1000.240723 -161.119591 
L 997.733196 -218.675923 
L 995.225669 -236.184907 
L 992.718142 -234.602925 
L 990.210614 -214.187542 
L 987.703087 -220.668271 
L 985.19556 -231.694439 
L 982.688033 -233.578449 
L 980.180506 -217.422959 
L 977.672979 -214.87316 
L 975.165452 -235.177347 
L 972.657925 -232.03241 
L 970.150398 -225.93775 
L 967.642871 -230.393687 
L 965.135344 -235.4101 
L 962.627817 -223.570212 
L 960.12029 -233.815471 
L 957.612762 -231.227494 
L 955.105235 -235.389965 
L 952.597708 -225.588558 
L 950.090181 -192.607198 
L 947.582654 -235.7039 
L 945.075127 -185.055473 
L 942.5676 -131.896572 
L 940.060073 -228.899057 
L 937.552546 -235.06327 
L 935.045019 -163.229971 
L 932.537492 -180.521881 
L 930.029965 -232.502288 
L 927.522438 -191.519192 
L 925.014911 -215.925629 
L 922.507383 -178.223321 
L 919.999856 -233.700977 
L 917.492329 -230.885797 
L 914.984802 -165.389401 
L 912.477275 -217.539409 
L 909.969748 -191.028383 
L 907.462221 -217.105765 
L 904.954694 -167.937274 
L 902.447167 -102.694048 
L 899.93964 -183.448313 
L 897.432113 -139.534907 
L 894.924586 -136.417198 
L 892.417059 -183.376602 
L 889.909531 -138.682085 
L 887.402004 -148.375684 
L 884.894477 -138.513018 
L 882.38695 -95.957215 
L 879.879423 -197.177336 
L 877.371896 -186.706691 
L 874.864369 -186.360219 
L 872.356842 -116.753302 
L 869.849315 -89.487128 
L 867.341788 -151.205893 
L 864.834261 -209.266502 
L 862.326734 -146.659298 
L 859.819207 -120.781289 
L 857.311679 -62.577093 
z
" id="me691748b93" style="stroke:#008000;stroke-opacity:0.1;"/>
    </defs>
    <g clip-path="url(#p9383440576)">
     <use style="fill:#008000;fill-opacity:0.1;stroke:#008000;stroke-opacity:0.1;" x="0" xlink:href="#me691748b93" y="334.709063"/>
    </g>
   </g>
   <g id="matplotlib.axis_5">
    <g id="xtick_15">
     <g id="line2d_39">
      <g>
       <use style="stroke:#000000;stroke-width:0.8;" x="854.804152" xlink:href="#m4c5af214c1" y="289.260625"/>
      </g>
     </g>
     <g id="text_38">
      <!-- 0 -->
      <g transform="translate(851.304152 305.981875)scale(0.14 -0.14)">
       <use xlink:href="#TimesNewRomanPSMT-30"/>
      </g>
     </g>
    </g>
    <g id="xtick_16">
     <g id="line2d_40">
      <g>
       <use style="stroke:#000000;stroke-width:0.8;" x="904.954694" xlink:href="#m4c5af214c1" y="289.260625"/>
      </g>
     </g>
     <g id="text_39">
      <!-- 20 -->
      <g transform="translate(897.954694 305.981875)scale(0.14 -0.14)">
       <use xlink:href="#TimesNewRomanPSMT-32"/>
       <use x="50" xlink:href="#TimesNewRomanPSMT-30"/>
      </g>
     </g>
    </g>
    <g id="xtick_17">
     <g id="line2d_41">
      <g>
       <use style="stroke:#000000;stroke-width:0.8;" x="955.105235" xlink:href="#m4c5af214c1" y="289.260625"/>
      </g>
     </g>
     <g id="text_40">
      <!-- 40 -->
      <g transform="translate(948.105235 305.981875)scale(0.14 -0.14)">
       <use xlink:href="#TimesNewRomanPSMT-34"/>
       <use x="50" xlink:href="#TimesNewRomanPSMT-30"/>
      </g>
     </g>
    </g>
    <g id="xtick_18">
     <g id="line2d_42">
      <g>
       <use style="stroke:#000000;stroke-width:0.8;" x="1005.255777" xlink:href="#m4c5af214c1" y="289.260625"/>
      </g>
     </g>
     <g id="text_41">
      <!-- 60 -->
      <g transform="translate(998.255777 305.981875)scale(0.14 -0.14)">
       <use xlink:href="#TimesNewRomanPSMT-36"/>
       <use x="50" xlink:href="#TimesNewRomanPSMT-30"/>
      </g>
     </g>
    </g>
    <g id="xtick_19">
     <g id="line2d_43">
      <g>
       <use style="stroke:#000000;stroke-width:0.8;" x="1055.406318" xlink:href="#m4c5af214c1" y="289.260625"/>
      </g>
     </g>
     <g id="text_42">
      <!-- 80 -->
      <g transform="translate(1048.406318 305.981875)scale(0.14 -0.14)">
       <use xlink:href="#TimesNewRomanPSMT-38"/>
       <use x="50" xlink:href="#TimesNewRomanPSMT-30"/>
      </g>
     </g>
    </g>
    <g id="xtick_20">
     <g id="line2d_44">
      <g>
       <use style="stroke:#000000;stroke-width:0.8;" x="1105.55686" xlink:href="#m4c5af214c1" y="289.260625"/>
      </g>
     </g>
     <g id="text_43">
      <!-- 100 -->
      <g transform="translate(1095.05686 305.981875)scale(0.14 -0.14)">
       <use xlink:href="#TimesNewRomanPSMT-31"/>
       <use x="50" xlink:href="#TimesNewRomanPSMT-30"/>
       <use x="100" xlink:href="#TimesNewRomanPSMT-30"/>
      </g>
     </g>
    </g>
    <g id="xtick_21">
     <g id="line2d_45">
      <g>
       <use style="stroke:#000000;stroke-width:0.8;" x="1155.707401" xlink:href="#m4c5af214c1" y="289.260625"/>
      </g>
     </g>
     <g id="text_44">
      <!-- 120 -->
      <g transform="translate(1145.207401 305.981875)scale(0.14 -0.14)">
       <use xlink:href="#TimesNewRomanPSMT-31"/>
       <use x="50" xlink:href="#TimesNewRomanPSMT-32"/>
       <use x="100" xlink:href="#TimesNewRomanPSMT-30"/>
      </g>
     </g>
    </g>
    <g id="text_45">
     <!-- Episodes -->
     <g transform="translate(977.62204 324.086563)scale(0.16 -0.16)">
      <use xlink:href="#TimesNewRomanPSMT-45"/>
      <use x="61.083984" xlink:href="#TimesNewRomanPSMT-70"/>
      <use x="111.083984" xlink:href="#TimesNewRomanPSMT-69"/>
      <use x="138.867188" xlink:href="#TimesNewRomanPSMT-73"/>
      <use x="177.783203" xlink:href="#TimesNewRomanPSMT-6f"/>
      <use x="227.783203" xlink:href="#TimesNewRomanPSMT-64"/>
      <use x="277.783203" xlink:href="#TimesNewRomanPSMT-65"/>
      <use x="322.167969" xlink:href="#TimesNewRomanPSMT-73"/>
     </g>
    </g>
   </g>
   <g id="matplotlib.axis_6">
    <g id="ytick_19">
     <g id="line2d_46">
      <g>
       <use style="stroke:#000000;stroke-width:0.8;" x="842.391893" xlink:href="#m79487465f9" y="289.260625"/>
      </g>
     </g>
     <g id="text_46">
      <!-- −25 -->
      <g transform="translate(813.497206 294.12125)scale(0.14 -0.14)">
       <use xlink:href="#TimesNewRomanPSMT-2212"/>
       <use x="56.396484" xlink:href="#TimesNewRomanPSMT-32"/>
       <use x="106.396484" xlink:href="#TimesNewRomanPSMT-35"/>
      </g>
     </g>
    </g>
    <g id="ytick_20">
     <g id="line2d_47">
      <g>
       <use style="stroke:#000000;stroke-width:0.8;" x="842.391893" xlink:href="#m79487465f9" y="254.610625"/>
      </g>
     </g>
     <g id="text_47">
      <!-- −20 -->
      <g transform="translate(813.497206 259.47125)scale(0.14 -0.14)">
       <use xlink:href="#TimesNewRomanPSMT-2212"/>
       <use x="56.396484" xlink:href="#TimesNewRomanPSMT-32"/>
       <use x="106.396484" xlink:href="#TimesNewRomanPSMT-30"/>
      </g>
     </g>
    </g>
    <g id="ytick_21">
     <g id="line2d_48">
      <g>
       <use style="stroke:#000000;stroke-width:0.8;" x="842.391893" xlink:href="#m79487465f9" y="219.960625"/>
      </g>
     </g>
     <g id="text_48">
      <!-- −15 -->
      <g transform="translate(813.497206 224.82125)scale(0.14 -0.14)">
       <use xlink:href="#TimesNewRomanPSMT-2212"/>
       <use x="56.396484" xlink:href="#TimesNewRomanPSMT-31"/>
       <use x="106.396484" xlink:href="#TimesNewRomanPSMT-35"/>
      </g>
     </g>
    </g>
    <g id="ytick_22">
     <g id="line2d_49">
      <g>
       <use style="stroke:#000000;stroke-width:0.8;" x="842.391893" xlink:href="#m79487465f9" y="185.310625"/>
      </g>
     </g>
     <g id="text_49">
      <!-- −10 -->
      <g transform="translate(813.497206 190.17125)scale(0.14 -0.14)">
       <use xlink:href="#TimesNewRomanPSMT-2212"/>
       <use x="56.396484" xlink:href="#TimesNewRomanPSMT-31"/>
       <use x="106.396484" xlink:href="#TimesNewRomanPSMT-30"/>
      </g>
     </g>
    </g>
    <g id="ytick_23">
     <g id="line2d_50">
      <g>
       <use style="stroke:#000000;stroke-width:0.8;" x="842.391893" xlink:href="#m79487465f9" y="150.660625"/>
      </g>
     </g>
     <g id="text_50">
      <!-- −5 -->
      <g transform="translate(820.497206 155.52125)scale(0.14 -0.14)">
       <use xlink:href="#TimesNewRomanPSMT-2212"/>
       <use x="56.396484" xlink:href="#TimesNewRomanPSMT-35"/>
      </g>
     </g>
    </g>
    <g id="ytick_24">
     <g id="line2d_51">
      <g>
       <use style="stroke:#000000;stroke-width:0.8;" x="842.391893" xlink:href="#m79487465f9" y="116.010625"/>
      </g>
     </g>
     <g id="text_51">
      <!-- 0 -->
      <g transform="translate(828.391893 120.87125)scale(0.14 -0.14)">
       <use xlink:href="#TimesNewRomanPSMT-30"/>
      </g>
     </g>
    </g>
    <g id="ytick_25">
     <g id="line2d_52">
      <g>
       <use style="stroke:#000000;stroke-width:0.8;" x="842.391893" xlink:href="#m79487465f9" y="81.360625"/>
      </g>
     </g>
     <g id="text_52">
      <!-- 5 -->
      <g transform="translate(828.391893 86.22125)scale(0.14 -0.14)">
       <use xlink:href="#TimesNewRomanPSMT-35"/>
      </g>
     </g>
    </g>
    <g id="ytick_26">
     <g id="line2d_53">
      <g>
       <use style="stroke:#000000;stroke-width:0.8;" x="842.391893" xlink:href="#m79487465f9" y="46.710625"/>
      </g>
     </g>
     <g id="text_53">
      <!-- 10 -->
      <g transform="translate(821.391893 51.57125)scale(0.14 -0.14)">
       <use xlink:href="#TimesNewRomanPSMT-31"/>
       <use x="50" xlink:href="#TimesNewRomanPSMT-30"/>
      </g>
     </g>
    </g>
    <g id="ytick_27">
     <g id="line2d_54">
      <g>
       <use style="stroke:#000000;stroke-width:0.8;" x="842.391893" xlink:href="#m79487465f9" y="12.060625"/>
      </g>
     </g>
     <g id="text_54">
      <!-- 15 -->
      <g transform="translate(821.391893 16.92125)scale(0.14 -0.14)">
       <use xlink:href="#TimesNewRomanPSMT-31"/>
       <use x="50" xlink:href="#TimesNewRomanPSMT-35"/>
      </g>
     </g>
    </g>
   </g>
   <g id="line2d_55">
    <path clip-path="url(#p9383440576)" d="M 857.311679 181.586308 
L 859.819207 154.026004 
L 862.326734 131.33241 
L 864.834261 96.201125 
L 867.341788 132.489988 
L 869.849315 194.295305 
L 872.356842 162.353911 
L 874.864369 113.155282 
L 877.371896 114.554545 
L 879.879423 104.21758 
L 882.38695 145.872927 
L 884.894477 143.44292 
L 887.402004 130.866809 
L 889.909531 132.996374 
L 892.417059 110.976611 
L 894.924586 138.759889 
L 897.432113 131.020708 
L 899.93964 115.854148 
L 902.447167 147.779475 
L 904.954694 119.885634 
L 907.462221 97.71079 
L 909.969748 108.028317 
L 912.477275 95.287803 
L 914.984802 122.307602 
L 917.492329 89.912327 
L 919.999856 91.024452 
L 922.507383 109.930783 
L 925.014911 99.03001 
L 927.522438 107.736739 
L 930.029965 82.165066 
L 932.537492 108.0387 
L 935.045019 114.333756 
L 937.552546 81.426175 
L 940.060073 88.459813 
L 942.5676 127.164885 
L 945.075127 109.263201 
L 947.582654 82.912282 
L 950.090181 107.756485 
L 952.597708 99.509909 
L 955.105235 82.543271 
L 957.612762 87.423695 
L 960.12029 88.671038 
L 962.627817 93.82676 
L 965.135344 81.136866 
L 967.642871 87.494555 
L 970.150398 89.028699 
L 972.657925 82.726735 
L 975.165452 78.809792 
L 977.672979 95.75988 
L 980.180506 94.245492 
L 982.688033 82.426039 
L 985.19556 87.249229 
L 987.703087 93.831561 
L 990.210614 100.107204 
L 992.718142 83.574399 
L 995.225669 78.627891 
L 997.733196 94.813893 
L 1000.240723 113.879652 
L 1002.74825 87.296604 
L 1005.255777 80.707584 
L 1007.763304 106.585796 
L 1010.270831 91.565284 
L 1012.778358 79.020507 
L 1015.285885 81.400885 
L 1017.793412 92.171273 
L 1020.300939 89.003506 
L 1022.808466 74.971252 
L 1025.315994 73.842562 
L 1027.823521 86.157252 
L 1030.331048 90.83333 
L 1032.838575 81.617388 
L 1035.346102 80.769624 
L 1037.853629 71.421121 
L 1040.361156 76.595087 
L 1042.868683 79.53612 
L 1045.37621 85.120035 
L 1047.883737 76.256948 
L 1050.391264 77.460663 
L 1052.898791 80.492634 
L 1055.406318 82.030943 
L 1057.913845 78.105311 
L 1060.421373 88.282943 
L 1062.9289 93.168421 
L 1065.436427 114.441155 
L 1067.943954 87.149311 
L 1070.451481 83.479395 
L 1072.959008 87.48899 
L 1075.466535 80.109863 
L 1077.974062 97.205597 
L 1080.481589 138.300119 
L 1082.989116 84.484161 
L 1085.496643 82.724815 
L 1088.00417 87.080779 
L 1090.511697 84.984963 
L 1093.019225 76.021596 
L 1095.526752 84.436252 
L 1098.034279 92.237162 
L 1100.541806 79.971516 
L 1103.049333 86.103886 
L 1105.55686 83.056898 
L 1108.064387 76.177364 
L 1110.571914 107.271313 
L 1113.079441 90.738374 
L 1115.586968 73.611822 
L 1118.094495 82.250596 
L 1120.602022 121.882047 
L 1123.109549 71.085921 
L 1125.617077 86.532427 
L 1128.124604 69.859591 
L 1130.632131 69.701776 
L 1133.139658 86.404125 
L 1135.647185 64.678994 
L 1138.154712 126.120947 
L 1140.662239 82.450896 
L 1143.169766 68.491316 
L 1145.677293 86.893162 
L 1148.18482 77.047141 
L 1150.692347 82.492153 
L 1153.199874 81.331909 
L 1155.707401 71.358023 
" style="fill:none;stroke:#008000;stroke-linecap:square;stroke-width:1.5;"/>
   </g>
   <g id="patch_15">
    <path d="M 842.391893 289.260625 
L 842.391893 12.060625 
" style="fill:none;stroke:#000000;stroke-linecap:square;stroke-linejoin:miter;stroke-width:0.8;"/>
   </g>
   <g id="patch_16">
    <path d="M 1170.627187 289.260625 
L 1170.627187 12.060625 
" style="fill:none;stroke:#000000;stroke-linecap:square;stroke-linejoin:miter;stroke-width:0.8;"/>
   </g>
   <g id="patch_17">
    <path d="M 842.391893 289.260625 
L 1170.627187 289.260625 
" style="fill:none;stroke:#000000;stroke-linecap:square;stroke-linejoin:miter;stroke-width:0.8;"/>
   </g>
   <g id="patch_18">
    <path d="M 842.391893 12.060625 
L 1170.627187 12.060625 
" style="fill:none;stroke:#000000;stroke-linecap:square;stroke-linejoin:miter;stroke-width:0.8;"/>
   </g>
   <g id="legend_3">
    <g id="patch_19">
     <path d="M 1063.923125 43.055313 
L 1160.827188 43.055313 
Q 1163.627187 43.055313 1163.627187 40.255313 
L 1163.627187 21.860625 
Q 1163.627187 19.060625 1160.827188 19.060625 
L 1063.923125 19.060625 
Q 1061.123125 19.060625 1061.123125 21.860625 
L 1061.123125 40.255313 
Q 1061.123125 43.055313 1063.923125 43.055313 
z
" style="fill:#ffffff;opacity:0.8;stroke:#cccccc;stroke-linejoin:miter;"/>
    </g>
    <g id="line2d_56">
     <path d="M 1066.723125 29.560625 
L 1094.723125 29.560625 
" style="fill:none;stroke:#008000;stroke-linecap:square;stroke-width:1.5;"/>
    </g>
    <g id="line2d_57"/>
    <g id="text_55">
     <!-- VD3QN- -->
     <g transform="translate(1105.923125 34.460625)scale(0.14 -0.14)">
      <defs>
       <path d="M 259 1672 
L 1875 1672 
L 1875 1200 
L 259 1200 
L 259 1672 
z
" id="TimesNewRomanPSMT-2d" transform="scale(0.015625)"/>
      </defs>
      <use xlink:href="#TimesNewRomanPSMT-56"/>
      <use x="72.216797" xlink:href="#TimesNewRomanPSMT-44"/>
      <use x="144.433594" xlink:href="#TimesNewRomanPSMT-33"/>
      <use x="194.433594" xlink:href="#TimesNewRomanPSMT-51"/>
      <use x="266.650391" xlink:href="#TimesNewRomanPSMT-4e"/>
      <use x="338.867188" xlink:href="#TimesNewRomanPSMT-2d"/>
     </g>
    </g>
   </g>
  </g>
 </g>
 <defs>
  <clipPath id="p8d09355908">
   <rect height="277.2" width="328.235294" x="54.627188" y="12.060625"/>
  </clipPath>
  <clipPath id="pec4e408ab9">
   <rect height="277.2" width="328.235294" x="448.50954" y="12.060625"/>
  </clipPath>
  <clipPath id="p9383440576">
   <rect height="277.2" width="328.235294" x="842.391893" y="12.060625"/>
  </clipPath>
 </defs>
</svg>
