<?xml version="1.0" encoding="utf-8" standalone="no"?>
<!DOCTYPE svg PUBLIC "-//W3C//DTD SVG 1.1//EN"
  "http://www.w3.org/Graphics/SVG/1.1/DTD/svg11.dtd">
<svg height="345.6pt" version="1.1" viewBox="0 0 460.8 345.6" width="460.8pt" xmlns="http://www.w3.org/2000/svg" xmlns:xlink="http://www.w3.org/1999/xlink">
 <metadata>
  <rdf:RDF xmlns:cc="http://creativecommons.org/ns#" xmlns:dc="http://purl.org/dc/elements/1.1/" xmlns:rdf="http://www.w3.org/1999/02/22-rdf-syntax-ns#">
   <cc:Work>
    <dc:type rdf:resource="http://purl.org/dc/dcmitype/StillImage"/>
    <dc:date>2022-01-17T19:08:41.633806</dc:date>
    <dc:format>image/svg+xml</dc:format>
    <dc:creator>
     <cc:Agent>
      <dc:title>Matplotlib v3.4.3, https://matplotlib.org/</dc:title>
     </cc:Agent>
    </dc:creator>
   </cc:Work>
  </rdf:RDF>
 </metadata>
 <defs>
  <style type="text/css">*{stroke-linecap:butt;stroke-linejoin:round;}</style>
 </defs>
 <g id="figure_1">
  <g id="patch_1">
   <path d="M 0 345.6 
L 460.8 345.6 
L 460.8 0 
L 0 0 
z
" style="fill:#ffffff;"/>
  </g>
  <g id="axes_1">
   <g id="patch_2">
    <path d="M 57.6 307.584 
L 414.72 307.584 
L 414.72 41.472 
L 57.6 41.472 
z
" style="fill:#ffffff;"/>
   </g>
   <g id="PolyCollection_1">
    <defs>
     <path d="M 73.832727 -135.408583 
L 73.832727 -206.005496 
L 76.560917 -206.973262 
L 79.289106 -233.493424 
L 82.017296 -232.500595 
L 84.745485 -195.823113 
L 87.473675 -239.09789 
L 90.201864 -258.330977 
L 92.930053 -251.10572 
L 95.658243 -249.056267 
L 98.386432 -250.574529 
L 101.114622 -248.71504 
L 103.842811 -254.469673 
L 106.571001 -249.742555 
L 109.29919 -250.954731 
L 112.02738 -268.103289 
L 114.755569 -251.019533 
L 117.483759 -247.013628 
L 120.211948 -249.934248 
L 122.940138 -250.344777 
L 125.668327 -248.223285 
L 128.396516 -251.98237 
L 131.124706 -251.093588 
L 133.852895 -258.625883 
L 136.581085 -257.708096 
L 139.309274 -292.032 
L 142.037464 -247.738061 
L 144.765653 -249.781827 
L 147.493843 -259.61738 
L 150.222032 -250.686616 
L 152.950222 -252.166041 
L 155.678411 -249.640007 
L 158.4066 -251.261144 
L 161.13479 -253.275716 
L 163.862979 -261.712619 
L 166.591169 -251.573311 
L 169.319358 -252.122622 
L 172.047548 -251.061996 
L 174.775737 -252.724954 
L 177.503927 -252.285173 
L 180.232116 -257.741573 
L 182.960306 -253.07241 
L 185.688495 -251.555131 
L 188.416684 -251.702638 
L 191.144874 -252.106943 
L 193.873063 -252.149332 
L 196.601253 -252.586371 
L 199.329442 -252.747974 
L 202.057632 -252.443113 
L 204.785821 -250.679118 
L 207.514011 -252.654041 
L 210.2422 -251.585773 
L 212.97039 -252.194778 
L 215.698579 -250.227152 
L 218.426769 -252.709535 
L 221.154958 -251.914287 
L 223.883147 -251.989825 
L 226.611337 -251.414749 
L 229.339526 -252.841613 
L 232.067716 -252.276636 
L 234.795905 -251.41315 
L 237.524095 -253.92151 
L 240.252284 -258.022138 
L 242.980474 -251.667421 
L 245.708663 -252.158634 
L 248.436853 -252.497695 
L 251.165042 -251.565095 
L 253.893231 -251.70578 
L 256.621421 -251.218719 
L 259.34961 -253.925403 
L 262.0778 -251.567689 
L 264.805989 -249.207747 
L 267.534179 -252.831431 
L 270.262368 -251.892242 
L 272.990558 -250.438849 
L 275.718747 -257.551559 
L 278.446937 -251.949012 
L 281.175126 -253.009547 
L 283.903316 -253.03649 
L 286.631505 -252.07295 
L 289.359694 -249.87061 
L 292.087884 -253.612608 
L 294.816073 -250.826039 
L 297.544263 -253.483835 
L 300.272452 -253.495138 
L 303.000642 -253.431985 
L 305.728831 -252.487692 
L 308.457021 -251.624177 
L 311.18521 -253.529204 
L 313.9134 -253.544418 
L 316.641589 -252.577859 
L 319.369778 -252.762205 
L 322.097968 -251.838332 
L 324.826157 -252.304214 
L 327.554347 -252.537526 
L 330.282536 -252.469797 
L 333.010726 -251.689086 
L 335.738915 -253.311753 
L 338.467105 -251.389409 
L 341.195294 -253.902553 
L 343.923484 -252.571732 
L 346.651673 -257.79085 
L 349.379862 -251.493634 
L 352.108052 -252.408356 
L 354.836241 -252.215197 
L 357.564431 -260.957229 
L 360.29262 -253.917384 
L 363.02081 -253.454594 
L 365.748999 -254.803532 
L 368.477189 -253.432906 
L 371.205378 -252.4569 
L 373.933568 -252.903877 
L 376.661757 -253.565997 
L 379.389947 -252.323299 
L 382.118136 -253.308174 
L 384.846325 -253.329566 
L 387.574515 -252.016523 
L 390.302704 -251.819153 
L 393.030894 -253.241845 
L 395.759083 -253.149063 
L 398.487273 -253.920469 
L 398.487273 -243.04305 
L 398.487273 -243.04305 
L 395.759083 -251.502272 
L 393.030894 -247.802228 
L 390.302704 -249.437401 
L 387.574515 -250.554825 
L 384.846325 -251.084291 
L 382.118136 -249.969443 
L 379.389947 -250.011569 
L 376.661757 -251.574273 
L 373.933568 -247.981553 
L 371.205378 -249.287397 
L 368.477189 -242.66498 
L 365.748999 -232.870098 
L 363.02081 -251.293587 
L 360.29262 -246.998134 
L 357.564431 -214.732589 
L 354.836241 -249.869828 
L 352.108052 -249.435713 
L 349.379862 -246.031437 
L 346.651673 -224.940322 
L 343.923484 -237.628316 
L 341.195294 -248.633372 
L 338.467105 -249.878453 
L 335.738915 -248.769866 
L 333.010726 -249.971075 
L 330.282536 -250.332559 
L 327.554347 -250.167733 
L 324.826157 -248.35494 
L 322.097968 -249.161547 
L 319.369778 -244.973194 
L 316.641589 -249.315625 
L 313.9134 -249.836677 
L 311.18521 -251.493115 
L 308.457021 -246.983401 
L 305.728831 -249.662976 
L 303.000642 -248.637245 
L 300.272452 -250.343117 
L 297.544263 -246.794679 
L 294.816073 -239.755596 
L 292.087884 -246.845495 
L 289.359694 -246.554563 
L 286.631505 -240.473668 
L 283.903316 -250.641694 
L 281.175126 -251.523229 
L 278.446937 -249.896767 
L 275.718747 -224.957787 
L 272.990558 -240.881036 
L 270.262368 -250.120888 
L 267.534179 -249.574714 
L 264.805989 -248.074469 
L 262.0778 -245.685608 
L 259.34961 -235.565088 
L 256.621421 -248.916089 
L 253.893231 -237.842354 
L 251.165042 -249.527544 
L 248.436853 -250.096565 
L 245.708663 -249.985654 
L 242.980474 -249.8314 
L 240.252284 -219.389281 
L 237.524095 -237.982025 
L 234.795905 -249.555668 
L 232.067716 -247.294634 
L 229.339526 -246.93532 
L 226.611337 -247.505374 
L 223.883147 -237.175055 
L 221.154958 -238.778047 
L 218.426769 -245.426337 
L 215.698579 -235.199742 
L 212.97039 -245.609209 
L 210.2422 -246.525777 
L 207.514011 -248.00632 
L 204.785821 -247.0173 
L 202.057632 -247.085378 
L 199.329442 -250.154849 
L 196.601253 -251.115137 
L 193.873063 -245.532998 
L 191.144874 -247.753254 
L 188.416684 -243.894346 
L 185.688495 -247.192432 
L 182.960306 -244.258731 
L 180.232116 -208.243842 
L 177.503927 -245.548962 
L 174.775737 -241.817102 
L 172.047548 -247.583814 
L 169.319358 -247.621598 
L 166.591169 -250.702506 
L 163.862979 -202.414191 
L 161.13479 -239.22768 
L 158.4066 -241.494781 
L 155.678411 -236.267581 
L 152.950222 -245.104045 
L 150.222032 -241.823986 
L 147.493843 -218.638078 
L 144.765653 -244.779628 
L 142.037464 -245.865459 
L 139.309274 -100.348171 
L 136.581085 -221.656441 
L 133.852895 -215.373496 
L 131.124706 -246.768964 
L 128.396516 -222.601819 
L 125.668327 -238.150674 
L 122.940138 -237.13972 
L 120.211948 -235.043279 
L 117.483759 -236.289898 
L 114.755569 -236.761232 
L 112.02738 -163.265959 
L 109.29919 -246.051506 
L 106.571001 -232.316704 
L 103.842811 -175.982746 
L 101.114622 -237.249617 
L 98.386432 -239.917604 
L 95.658243 -206.152471 
L 92.930053 -217.64057 
L 90.201864 -157.309005 
L 87.473675 -161.022307 
L 84.745485 -156.769455 
L 82.017296 -183.839449 
L 79.289106 -209.641565 
L 76.560917 -155.449861 
L 73.832727 -135.408583 
z
" id="m2f6bedd10a" style="stroke:#ff4500;stroke-opacity:0.1;"/>
    </defs>
    <g clip-path="url(#p9684f98d76)">
     <use style="fill:#ff4500;fill-opacity:0.1;stroke:#ff4500;stroke-opacity:0.1;" x="0" xlink:href="#m2f6bedd10a" y="345.6"/>
    </g>
   </g>
   <g id="PolyCollection_2">
    <defs>
     <path d="M 73.832727 -50.112 
L 73.832727 -214.249521 
L 76.560917 -209.001429 
L 79.289106 -227.165267 
L 82.017296 -205.789886 
L 84.745485 -209.714503 
L 87.473675 -218.404734 
L 90.201864 -232.248239 
L 92.930053 -245.72917 
L 95.658243 -261.657407 
L 98.386432 -244.393857 
L 101.114622 -241.614456 
L 103.842811 -247.459514 
L 106.571001 -253.36482 
L 109.29919 -251.070943 
L 112.02738 -225.979885 
L 114.755569 -255.569794 
L 117.483759 -255.770829 
L 120.211948 -268.014756 
L 122.940138 -250.726 
L 125.668327 -255.349827 
L 128.396516 -253.749382 
L 131.124706 -249.782544 
L 133.852895 -250.772498 
L 136.581085 -254.66687 
L 139.309274 -259.526153 
L 142.037464 -254.120067 
L 144.765653 -250.697788 
L 147.493843 -251.492618 
L 150.222032 -252.793618 
L 152.950222 -253.903615 
L 155.678411 -250.89913 
L 158.4066 -251.612082 
L 161.13479 -254.666015 
L 163.862979 -253.103574 
L 166.591169 -249.271768 
L 169.319358 -251.309562 
L 172.047548 -255.189784 
L 174.775737 -250.687892 
L 177.503927 -249.511707 
L 180.232116 -250.756446 
L 182.960306 -251.382424 
L 185.688495 -255.312895 
L 188.416684 -254.050109 
L 191.144874 -252.136016 
L 193.873063 -250.844658 
L 196.601253 -251.143406 
L 199.329442 -251.817532 
L 202.057632 -252.90225 
L 204.785821 -251.754456 
L 207.514011 -254.854104 
L 210.2422 -248.564416 
L 212.97039 -251.589572 
L 215.698579 -255.880473 
L 218.426769 -252.53967 
L 221.154958 -253.913103 
L 223.883147 -248.48031 
L 226.611337 -253.811093 
L 229.339526 -254.099984 
L 232.067716 -251.032432 
L 234.795905 -251.726742 
L 237.524095 -250.806959 
L 240.252284 -249.994808 
L 242.980474 -253.129627 
L 245.708663 -252.302264 
L 248.436853 -252.399454 
L 251.165042 -252.928233 
L 253.893231 -252.202782 
L 256.621421 -251.96428 
L 259.34961 -252.534453 
L 262.0778 -248.98756 
L 264.805989 -251.261557 
L 267.534179 -251.24357 
L 270.262368 -251.146995 
L 272.990558 -252.96666 
L 275.718747 -251.897198 
L 278.446937 -252.520568 
L 281.175126 -251.312248 
L 283.903316 -251.463098 
L 286.631505 -251.476859 
L 289.359694 -251.879928 
L 292.087884 -256.441848 
L 294.816073 -251.861697 
L 297.544263 -250.689826 
L 300.272452 -252.386127 
L 303.000642 -252.571552 
L 305.728831 -253.460961 
L 308.457021 -251.983 
L 311.18521 -251.821141 
L 313.9134 -252.420371 
L 316.641589 -252.391952 
L 319.369778 -251.964137 
L 322.097968 -251.131514 
L 324.826157 -252.333286 
L 327.554347 -252.556934 
L 330.282536 -252.248862 
L 333.010726 -251.9589 
L 335.738915 -252.300118 
L 338.467105 -252.333974 
L 341.195294 -252.296914 
L 343.923484 -251.945805 
L 346.651673 -252.104868 
L 349.379862 -251.658129 
L 352.108052 -251.712681 
L 354.836241 -251.698185 
L 357.564431 -252.20925 
L 360.29262 -251.298694 
L 363.02081 -252.357254 
L 365.748999 -252.269379 
L 368.477189 -252.60357 
L 371.205378 -252.161773 
L 373.933568 -252.211521 
L 376.661757 -283.323725 
L 379.389947 -251.65271 
L 382.118136 -252.63201 
L 384.846325 -252.519131 
L 387.574515 -252.065537 
L 390.302704 -252.283957 
L 393.030894 -252.489925 
L 395.759083 -252.7461 
L 398.487273 -253.221809 
L 398.487273 -249.476434 
L 398.487273 -249.476434 
L 395.759083 -250.201771 
L 393.030894 -249.86579 
L 390.302704 -250.564768 
L 387.574515 -250.809236 
L 384.846325 -249.133549 
L 382.118136 -250.533073 
L 379.389947 -249.259299 
L 376.661757 -152.52679 
L 373.933568 -246.28922 
L 371.205378 -250.261365 
L 368.477189 -249.299332 
L 365.748999 -247.202005 
L 363.02081 -249.071529 
L 360.29262 -247.300194 
L 357.564431 -247.799861 
L 354.836241 -250.136755 
L 352.108052 -249.656439 
L 349.379862 -248.959947 
L 346.651673 -250.594933 
L 343.923484 -250.546593 
L 341.195294 -250.050887 
L 338.467105 -250.999038 
L 335.738915 -250.819454 
L 333.010726 -249.763056 
L 330.282536 -246.866653 
L 327.554347 -248.999439 
L 324.826157 -250.376467 
L 322.097968 -246.39205 
L 319.369778 -249.019554 
L 316.641589 -245.324847 
L 313.9134 -250.735541 
L 311.18521 -247.490378 
L 308.457021 -248.135932 
L 305.728831 -246.776978 
L 303.000642 -249.885509 
L 300.272452 -248.964712 
L 297.544263 -247.321192 
L 294.816073 -249.873898 
L 292.087884 -232.580127 
L 289.359694 -249.898642 
L 286.631505 -249.599917 
L 283.903316 -246.402452 
L 281.175126 -246.411587 
L 278.446937 -250.044591 
L 275.718747 -242.163551 
L 272.990558 -244.222578 
L 270.262368 -249.312974 
L 267.534179 -250.014937 
L 264.805989 -242.721316 
L 262.0778 -240.756098 
L 259.34961 -245.993405 
L 256.621421 -250.432269 
L 253.893231 -249.435774 
L 251.165042 -243.060505 
L 248.436853 -247.594927 
L 245.708663 -246.353578 
L 242.980474 -239.593331 
L 240.252284 -240.687784 
L 237.524095 -238.614234 
L 234.795905 -247.432162 
L 232.067716 -245.22765 
L 229.339526 -233.252339 
L 226.611337 -240.408477 
L 223.883147 -242.561748 
L 221.154958 -233.568824 
L 218.426769 -244.943837 
L 215.698579 -234.201506 
L 212.97039 -245.46866 
L 210.2422 -238.673828 
L 207.514011 -231.313444 
L 204.785821 -246.430734 
L 202.057632 -248.148346 
L 199.329442 -244.60507 
L 196.601253 -244.940177 
L 193.873063 -245.799248 
L 191.144874 -248.501834 
L 188.416684 -237.726053 
L 185.688495 -237.98288 
L 182.960306 -246.410434 
L 180.232116 -248.034769 
L 177.503927 -232.003751 
L 174.775737 -219.111606 
L 172.047548 -224.477293 
L 169.319358 -238.414144 
L 166.591169 -246.998911 
L 163.862979 -233.466255 
L 161.13479 -233.356791 
L 158.4066 -237.767664 
L 155.678411 -215.622149 
L 152.950222 -220.783391 
L 150.222032 -219.220318 
L 147.493843 -219.656629 
L 144.765653 -215.418761 
L 142.037464 -237.118034 
L 139.309274 -228.545649 
L 136.581085 -227.46319 
L 133.852895 -215.153227 
L 131.124706 -215.428523 
L 128.396516 -230.283816 
L 125.668327 -217.203555 
L 122.940138 -239.818231 
L 120.211948 -148.807957 
L 117.483759 -236.052954 
L 114.755569 -235.994244 
L 112.02738 -199.358747 
L 109.29919 -224.756094 
L 106.571001 -197.545924 
L 103.842811 -222.433263 
L 101.114622 -203.880071 
L 98.386432 -217.509552 
L 95.658243 -110.785371 
L 92.930053 -213.738432 
L 90.201864 -191.323335 
L 87.473675 -162.212978 
L 84.745485 -164.62871 
L 82.017296 -135.086051 
L 79.289106 -66.165688 
L 76.560917 -122.05567 
L 73.832727 -50.112 
z
" id="m75c68c6ee0" style="stroke:#4682b4;stroke-opacity:0.1;"/>
    </defs>
    <g clip-path="url(#p9684f98d76)">
     <use style="fill:#4682b4;fill-opacity:0.1;stroke:#4682b4;stroke-opacity:0.1;" x="0" xlink:href="#m75c68c6ee0" y="345.6"/>
    </g>
   </g>
   <g id="PolyCollection_3">
    <defs>
     <path d="M 73.832727 -53.850975 
L 73.832727 -218.0017 
L 76.560917 -215.206573 
L 79.289106 -232.890724 
L 82.017296 -239.82995 
L 84.745485 -226.670869 
L 87.473675 -170.568815 
L 90.201864 -203.760045 
L 92.930053 -229.857128 
L 95.658243 -227.006337 
L 98.386432 -236.255133 
L 101.114622 -252.489181 
L 103.842811 -218.31973 
L 106.571001 -232.17899 
L 109.29919 -237.105081 
L 112.02738 -236.511362 
L 114.755569 -228.709385 
L 117.483759 -239.913732 
L 120.211948 -227.603845 
L 122.940138 -242.92617 
L 125.668327 -234.355166 
L 128.396516 -229.987148 
L 131.124706 -234.920361 
L 133.852895 -233.986718 
L 136.581085 -232.273893 
L 139.309274 -231.634076 
L 142.037464 -227.066073 
L 144.765653 -243.078555 
L 147.493843 -228.665265 
L 150.222032 -235.004071 
L 152.950222 -244.213856 
L 155.678411 -244.425187 
L 158.4066 -248.687144 
L 161.13479 -243.231987 
L 163.862979 -236.068234 
L 166.591169 -253.827765 
L 169.319358 -238.095796 
L 172.047548 -239.957115 
L 174.775737 -233.982046 
L 177.503927 -219.036265 
L 180.232116 -240.910664 
L 182.960306 -235.836 
L 185.688495 -231.228806 
L 188.416684 -231.168813 
L 191.144874 -243.442091 
L 193.873063 -236.463343 
L 196.601253 -237.721183 
L 199.329442 -243.621526 
L 202.057632 -247.871836 
L 204.785821 -235.547715 
L 207.514011 -235.981884 
L 210.2422 -242.765248 
L 212.97039 -235.729026 
L 215.698579 -233.790582 
L 218.426769 -228.287908 
L 221.154958 -239.754742 
L 223.883147 -247.288301 
L 226.611337 -233.815675 
L 229.339526 -251.423351 
L 232.067716 -235.199915 
L 234.795905 -243.645209 
L 237.524095 -232.139876 
L 240.252284 -237.347352 
L 242.980474 -246.947607 
L 245.708663 -246.553565 
L 248.436853 -235.826659 
L 251.165042 -239.931488 
L 253.893231 -248.795575 
L 256.621421 -250.234207 
L 259.34961 -242.018965 
L 262.0778 -235.334807 
L 264.805989 -244.554009 
L 267.534179 -244.578808 
L 270.262368 -248.858506 
L 272.990558 -248.262132 
L 275.718747 -247.332439 
L 278.446937 -238.070187 
L 281.175126 -248.347191 
L 283.903316 -247.603139 
L 286.631505 -246.577856 
L 289.359694 -243.776043 
L 292.087884 -247.011777 
L 294.816073 -236.619955 
L 297.544263 -236.92235 
L 300.272452 -240.880194 
L 303.000642 -244.843276 
L 305.728831 -234.684483 
L 308.457021 -230.933925 
L 311.18521 -245.161091 
L 313.9134 -233.679995 
L 316.641589 -272.87655 
L 319.369778 -233.604029 
L 322.097968 -243.625084 
L 324.826157 -242.606808 
L 327.554347 -237.251815 
L 330.282536 -248.843307 
L 333.010726 -247.82327 
L 335.738915 -250.28485 
L 338.467105 -246.537738 
L 341.195294 -237.455585 
L 343.923484 -247.739333 
L 346.651673 -247.067302 
L 349.379862 -257.562335 
L 352.108052 -234.29038 
L 354.836241 -250.269863 
L 357.564431 -243.441877 
L 360.29262 -235.463609 
L 363.02081 -253.229017 
L 365.748999 -237.870128 
L 368.477189 -254.659049 
L 371.205378 -251.465185 
L 373.933568 -237.616242 
L 376.661757 -255.703673 
L 379.389947 -251.6033 
L 382.118136 -244.320758 
L 384.846325 -252.226083 
L 387.574515 -237.634351 
L 390.302704 -248.499829 
L 393.030894 -244.866522 
L 395.759083 -246.116825 
L 398.487273 -253.309273 
L 398.487273 -218.376865 
L 398.487273 -218.376865 
L 395.759083 -207.4876 
L 393.030894 -206.634489 
L 390.302704 -212.872476 
L 387.574515 -205.888049 
L 384.846325 -224.657124 
L 382.118136 -207.255048 
L 379.389947 -120.802833 
L 376.661757 -228.090913 
L 373.933568 -206.792735 
L 371.205378 -223.223571 
L 368.477189 -219.743605 
L 365.748999 -206.30625 
L 363.02081 -218.950416 
L 360.29262 -144.627249 
L 357.564431 -208.497055 
L 354.836241 -217.330349 
L 352.108052 -202.261014 
L 349.379862 -149.016402 
L 346.651673 -215.881825 
L 343.923484 -202.737849 
L 341.195294 -207.497697 
L 338.467105 -209.532951 
L 335.738915 -183.549383 
L 333.010726 -200.153275 
L 330.282536 -214.388214 
L 327.554347 -209.729969 
L 324.826157 -200.57546 
L 322.097968 -207.454134 
L 319.369778 -214.285662 
L 316.641589 -77.449894 
L 313.9134 -191.146934 
L 311.18521 -210.658789 
L 308.457021 -211.508295 
L 305.728831 -215.026752 
L 303.000642 -198.21475 
L 300.272452 -152.700298 
L 297.544263 -195.223597 
L 294.816073 -204.382902 
L 292.087884 -212.442166 
L 289.359694 -208.561099 
L 286.631505 -208.548095 
L 283.903316 -213.019489 
L 281.175126 -214.457659 
L 278.446937 -208.666723 
L 275.718747 -209.527583 
L 272.990558 -213.929703 
L 270.262368 -222.713241 
L 267.534179 -210.044987 
L 264.805989 -208.532871 
L 262.0778 -201.04444 
L 259.34961 -202.837569 
L 256.621421 -216.947696 
L 253.893231 -216.340121 
L 251.165042 -199.765057 
L 248.436853 -198.127024 
L 245.708663 -206.925812 
L 242.980474 -210.847171 
L 240.252284 -197.704931 
L 237.524095 -175.681638 
L 234.795905 -211.091058 
L 232.067716 -207.591082 
L 229.339526 -143.175092 
L 226.611337 -195.347187 
L 223.883147 -211.218254 
L 221.154958 -209.784262 
L 218.426769 -191.278682 
L 215.698579 -197.153157 
L 212.97039 -207.147857 
L 210.2422 -208.855623 
L 207.514011 -194.211435 
L 204.785821 -191.900162 
L 202.057632 -210.304948 
L 199.329442 -207.454211 
L 196.601253 -201.92969 
L 193.873063 -205.968787 
L 191.144874 -210.515928 
L 188.416684 -199.783629 
L 185.688495 -209.070472 
L 182.960306 -206.724593 
L 180.232116 -210.497676 
L 177.503927 -201.613164 
L 174.775737 -171.71712 
L 172.047548 -210.782243 
L 169.319358 -164.871838 
L 166.591169 -116.685807 
L 163.862979 -204.613975 
L 161.13479 -210.201543 
L 158.4066 -145.088052 
L 155.678411 -160.762351 
L 152.950222 -207.880134 
L 150.222032 -170.730893 
L 147.493843 -192.854175 
L 144.765653 -158.678815 
L 142.037464 -208.966688 
L 139.309274 -206.414861 
L 136.581085 -147.045473 
L 133.852895 -194.316991 
L 131.124706 -170.285999 
L 128.396516 -193.923913 
L 125.668327 -149.355 
L 122.940138 -90.215099 
L 120.211948 -163.415023 
L 117.483759 -123.609596 
L 114.755569 -120.78354 
L 112.02738 -163.350021 
L 109.29919 -122.836553 
L 106.571001 -131.623343 
L 103.842811 -122.683302 
L 101.114622 -84.108478 
L 98.386432 -175.859734 
L 95.658243 -166.368589 
L 92.930053 -166.054529 
L 90.201864 -102.959148 
L 87.473675 -78.243649 
L 84.745485 -134.188794 
L 82.017296 -186.817991 
L 79.289106 -130.067519 
L 76.560917 -106.610328 
L 73.832727 -53.850975 
z
" id="m2f1baab47c" style="stroke:#008000;stroke-opacity:0.1;"/>
    </defs>
    <g clip-path="url(#p9684f98d76)">
     <use style="fill:#008000;fill-opacity:0.1;stroke:#008000;stroke-opacity:0.1;" x="0" xlink:href="#m2f1baab47c" y="345.6"/>
    </g>
   </g>
   <g id="matplotlib.axis_1">
    <g id="xtick_1">
     <g id="line2d_1">
      <defs>
       <path d="M 0 0 
L 0 3.5 
" id="ma516af1bc5" style="stroke:#000000;stroke-width:0.8;"/>
      </defs>
      <g>
       <use style="stroke:#000000;stroke-width:0.8;" x="71.104538" xlink:href="#ma516af1bc5" y="307.584"/>
      </g>
     </g>
     <g id="text_1">
      <!-- 0 -->
      <g transform="translate(68.604538 321.52775)scale(0.1 -0.1)">
       <defs>
        <path d="M 231 2094 
Q 231 2819 450 3342 
Q 669 3866 1031 4122 
Q 1313 4325 1613 4325 
Q 2100 4325 2488 3828 
Q 2972 3213 2972 2159 
Q 2972 1422 2759 906 
Q 2547 391 2217 158 
Q 1888 -75 1581 -75 
Q 975 -75 572 641 
Q 231 1244 231 2094 
z
M 844 2016 
Q 844 1141 1059 588 
Q 1238 122 1591 122 
Q 1759 122 1940 273 
Q 2122 425 2216 781 
Q 2359 1319 2359 2297 
Q 2359 3022 2209 3506 
Q 2097 3866 1919 4016 
Q 1791 4119 1609 4119 
Q 1397 4119 1231 3928 
Q 1006 3669 925 3112 
Q 844 2556 844 2016 
z
" id="TimesNewRomanPSMT-30" transform="scale(0.015625)"/>
       </defs>
       <use xlink:href="#TimesNewRomanPSMT-30"/>
      </g>
     </g>
    </g>
    <g id="xtick_2">
     <g id="line2d_2">
      <g>
       <use style="stroke:#000000;stroke-width:0.8;" x="125.668327" xlink:href="#ma516af1bc5" y="307.584"/>
      </g>
     </g>
     <g id="text_2">
      <!-- 20 -->
      <g transform="translate(120.668327 321.52775)scale(0.1 -0.1)">
       <defs>
        <path d="M 2934 816 
L 2638 0 
L 138 0 
L 138 116 
Q 1241 1122 1691 1759 
Q 2141 2397 2141 2925 
Q 2141 3328 1894 3587 
Q 1647 3847 1303 3847 
Q 991 3847 742 3664 
Q 494 3481 375 3128 
L 259 3128 
Q 338 3706 661 4015 
Q 984 4325 1469 4325 
Q 1984 4325 2329 3994 
Q 2675 3663 2675 3213 
Q 2675 2891 2525 2569 
Q 2294 2063 1775 1497 
Q 997 647 803 472 
L 1909 472 
Q 2247 472 2383 497 
Q 2519 522 2628 598 
Q 2738 675 2819 816 
L 2934 816 
z
" id="TimesNewRomanPSMT-32" transform="scale(0.015625)"/>
       </defs>
       <use xlink:href="#TimesNewRomanPSMT-32"/>
       <use x="50" xlink:href="#TimesNewRomanPSMT-30"/>
      </g>
     </g>
    </g>
    <g id="xtick_3">
     <g id="line2d_3">
      <g>
       <use style="stroke:#000000;stroke-width:0.8;" x="180.232116" xlink:href="#ma516af1bc5" y="307.584"/>
      </g>
     </g>
     <g id="text_3">
      <!-- 40 -->
      <g transform="translate(175.232116 321.52775)scale(0.1 -0.1)">
       <defs>
        <path d="M 2978 1563 
L 2978 1119 
L 2409 1119 
L 2409 0 
L 1894 0 
L 1894 1119 
L 100 1119 
L 100 1519 
L 2066 4325 
L 2409 4325 
L 2409 1563 
L 2978 1563 
z
M 1894 1563 
L 1894 3666 
L 406 1563 
L 1894 1563 
z
" id="TimesNewRomanPSMT-34" transform="scale(0.015625)"/>
       </defs>
       <use xlink:href="#TimesNewRomanPSMT-34"/>
       <use x="50" xlink:href="#TimesNewRomanPSMT-30"/>
      </g>
     </g>
    </g>
    <g id="xtick_4">
     <g id="line2d_4">
      <g>
       <use style="stroke:#000000;stroke-width:0.8;" x="234.795905" xlink:href="#ma516af1bc5" y="307.584"/>
      </g>
     </g>
     <g id="text_4">
      <!-- 60 -->
      <g transform="translate(229.795905 321.52775)scale(0.1 -0.1)">
       <defs>
        <path d="M 2869 4325 
L 2869 4209 
Q 2456 4169 2195 4045 
Q 1934 3922 1679 3669 
Q 1425 3416 1258 3105 
Q 1091 2794 978 2366 
Q 1428 2675 1881 2675 
Q 2316 2675 2634 2325 
Q 2953 1975 2953 1425 
Q 2953 894 2631 456 
Q 2244 -75 1606 -75 
Q 1172 -75 869 213 
Q 275 772 275 1663 
Q 275 2231 503 2743 
Q 731 3256 1154 3653 
Q 1578 4050 1965 4187 
Q 2353 4325 2688 4325 
L 2869 4325 
z
M 925 2138 
Q 869 1716 869 1456 
Q 869 1156 980 804 
Q 1091 453 1309 247 
Q 1469 100 1697 100 
Q 1969 100 2183 356 
Q 2397 613 2397 1088 
Q 2397 1622 2184 2012 
Q 1972 2403 1581 2403 
Q 1463 2403 1327 2353 
Q 1191 2303 925 2138 
z
" id="TimesNewRomanPSMT-36" transform="scale(0.015625)"/>
       </defs>
       <use xlink:href="#TimesNewRomanPSMT-36"/>
       <use x="50" xlink:href="#TimesNewRomanPSMT-30"/>
      </g>
     </g>
    </g>
    <g id="xtick_5">
     <g id="line2d_5">
      <g>
       <use style="stroke:#000000;stroke-width:0.8;" x="289.359694" xlink:href="#ma516af1bc5" y="307.584"/>
      </g>
     </g>
     <g id="text_5">
      <!-- 80 -->
      <g transform="translate(284.359694 321.52775)scale(0.1 -0.1)">
       <defs>
        <path d="M 1228 2134 
Q 725 2547 579 2797 
Q 434 3047 434 3316 
Q 434 3728 753 4026 
Q 1072 4325 1600 4325 
Q 2113 4325 2425 4047 
Q 2738 3769 2738 3413 
Q 2738 3175 2569 2928 
Q 2400 2681 1866 2347 
Q 2416 1922 2594 1678 
Q 2831 1359 2831 1006 
Q 2831 559 2490 242 
Q 2150 -75 1597 -75 
Q 994 -75 656 303 
Q 388 606 388 966 
Q 388 1247 577 1523 
Q 766 1800 1228 2134 
z
M 1719 2469 
Q 2094 2806 2194 3001 
Q 2294 3197 2294 3444 
Q 2294 3772 2109 3958 
Q 1925 4144 1606 4144 
Q 1288 4144 1088 3959 
Q 888 3775 888 3528 
Q 888 3366 970 3203 
Q 1053 3041 1206 2894 
L 1719 2469 
z
M 1375 2016 
Q 1116 1797 991 1539 
Q 866 1281 866 981 
Q 866 578 1086 336 
Q 1306 94 1647 94 
Q 1984 94 2187 284 
Q 2391 475 2391 747 
Q 2391 972 2272 1150 
Q 2050 1481 1375 2016 
z
" id="TimesNewRomanPSMT-38" transform="scale(0.015625)"/>
       </defs>
       <use xlink:href="#TimesNewRomanPSMT-38"/>
       <use x="50" xlink:href="#TimesNewRomanPSMT-30"/>
      </g>
     </g>
    </g>
    <g id="xtick_6">
     <g id="line2d_6">
      <g>
       <use style="stroke:#000000;stroke-width:0.8;" x="343.923484" xlink:href="#ma516af1bc5" y="307.584"/>
      </g>
     </g>
     <g id="text_6">
      <!-- 100 -->
      <g transform="translate(336.423484 321.52775)scale(0.1 -0.1)">
       <defs>
        <path d="M 750 3822 
L 1781 4325 
L 1884 4325 
L 1884 747 
Q 1884 391 1914 303 
Q 1944 216 2037 169 
Q 2131 122 2419 116 
L 2419 0 
L 825 0 
L 825 116 
Q 1125 122 1212 167 
Q 1300 213 1334 289 
Q 1369 366 1369 747 
L 1369 3034 
Q 1369 3497 1338 3628 
Q 1316 3728 1258 3775 
Q 1200 3822 1119 3822 
Q 1003 3822 797 3725 
L 750 3822 
z
" id="TimesNewRomanPSMT-31" transform="scale(0.015625)"/>
       </defs>
       <use xlink:href="#TimesNewRomanPSMT-31"/>
       <use x="50" xlink:href="#TimesNewRomanPSMT-30"/>
       <use x="100" xlink:href="#TimesNewRomanPSMT-30"/>
      </g>
     </g>
    </g>
    <g id="xtick_7">
     <g id="line2d_7">
      <g>
       <use style="stroke:#000000;stroke-width:0.8;" x="398.487273" xlink:href="#ma516af1bc5" y="307.584"/>
      </g>
     </g>
     <g id="text_7">
      <!-- 120 -->
      <g transform="translate(390.987273 321.52775)scale(0.1 -0.1)">
       <use xlink:href="#TimesNewRomanPSMT-31"/>
       <use x="50" xlink:href="#TimesNewRomanPSMT-32"/>
       <use x="100" xlink:href="#TimesNewRomanPSMT-30"/>
      </g>
     </g>
    </g>
   </g>
   <g id="matplotlib.axis_2">
    <g id="ytick_1">
     <g id="line2d_8">
      <defs>
       <path d="M 0 0 
L -3.5 0 
" id="m6b93d824fd" style="stroke:#000000;stroke-width:0.8;"/>
      </defs>
      <g>
       <use style="stroke:#000000;stroke-width:0.8;" x="57.6" xlink:href="#m6b93d824fd" y="307.275342"/>
      </g>
     </g>
     <g id="text_8">
      <!-- −25 -->
      <g transform="translate(34.960938 310.747217)scale(0.1 -0.1)">
       <defs>
        <path d="M 3484 2000 
L 116 2000 
L 116 2256 
L 3484 2256 
L 3484 2000 
z
" id="TimesNewRomanPSMT-2212" transform="scale(0.015625)"/>
        <path d="M 2778 4238 
L 2534 3706 
L 1259 3706 
L 981 3138 
Q 1809 3016 2294 2522 
Q 2709 2097 2709 1522 
Q 2709 1188 2573 903 
Q 2438 619 2231 419 
Q 2025 219 1772 97 
Q 1413 -75 1034 -75 
Q 653 -75 479 54 
Q 306 184 306 341 
Q 306 428 378 495 
Q 450 563 559 563 
Q 641 563 702 538 
Q 763 513 909 409 
Q 1144 247 1384 247 
Q 1750 247 2026 523 
Q 2303 800 2303 1197 
Q 2303 1581 2056 1914 
Q 1809 2247 1375 2428 
Q 1034 2569 447 2591 
L 1259 4238 
L 2778 4238 
z
" id="TimesNewRomanPSMT-35" transform="scale(0.015625)"/>
       </defs>
       <use xlink:href="#TimesNewRomanPSMT-2212"/>
       <use x="56.396484" xlink:href="#TimesNewRomanPSMT-32"/>
       <use x="106.396484" xlink:href="#TimesNewRomanPSMT-35"/>
      </g>
     </g>
    </g>
    <g id="ytick_2">
     <g id="line2d_9">
      <g>
       <use style="stroke:#000000;stroke-width:0.8;" x="57.6" xlink:href="#m6b93d824fd" y="275.866755"/>
      </g>
     </g>
     <g id="text_9">
      <!-- −20 -->
      <g transform="translate(34.960938 279.33863)scale(0.1 -0.1)">
       <use xlink:href="#TimesNewRomanPSMT-2212"/>
       <use x="56.396484" xlink:href="#TimesNewRomanPSMT-32"/>
       <use x="106.396484" xlink:href="#TimesNewRomanPSMT-30"/>
      </g>
     </g>
    </g>
    <g id="ytick_3">
     <g id="line2d_10">
      <g>
       <use style="stroke:#000000;stroke-width:0.8;" x="57.6" xlink:href="#m6b93d824fd" y="244.458167"/>
      </g>
     </g>
     <g id="text_10">
      <!-- −15 -->
      <g transform="translate(34.960938 247.930042)scale(0.1 -0.1)">
       <use xlink:href="#TimesNewRomanPSMT-2212"/>
       <use x="56.396484" xlink:href="#TimesNewRomanPSMT-31"/>
       <use x="106.396484" xlink:href="#TimesNewRomanPSMT-35"/>
      </g>
     </g>
    </g>
    <g id="ytick_4">
     <g id="line2d_11">
      <g>
       <use style="stroke:#000000;stroke-width:0.8;" x="57.6" xlink:href="#m6b93d824fd" y="213.04958"/>
      </g>
     </g>
     <g id="text_11">
      <!-- −10 -->
      <g transform="translate(34.960938 216.521455)scale(0.1 -0.1)">
       <use xlink:href="#TimesNewRomanPSMT-2212"/>
       <use x="56.396484" xlink:href="#TimesNewRomanPSMT-31"/>
       <use x="106.396484" xlink:href="#TimesNewRomanPSMT-30"/>
      </g>
     </g>
    </g>
    <g id="ytick_5">
     <g id="line2d_12">
      <g>
       <use style="stroke:#000000;stroke-width:0.8;" x="57.6" xlink:href="#m6b93d824fd" y="181.640992"/>
      </g>
     </g>
     <g id="text_12">
      <!-- −5 -->
      <g transform="translate(39.960938 185.112867)scale(0.1 -0.1)">
       <use xlink:href="#TimesNewRomanPSMT-2212"/>
       <use x="56.396484" xlink:href="#TimesNewRomanPSMT-35"/>
      </g>
     </g>
    </g>
    <g id="ytick_6">
     <g id="line2d_13">
      <g>
       <use style="stroke:#000000;stroke-width:0.8;" x="57.6" xlink:href="#m6b93d824fd" y="150.232405"/>
      </g>
     </g>
     <g id="text_13">
      <!-- 0 -->
      <g transform="translate(45.6 153.70428)scale(0.1 -0.1)">
       <use xlink:href="#TimesNewRomanPSMT-30"/>
      </g>
     </g>
    </g>
    <g id="ytick_7">
     <g id="line2d_14">
      <g>
       <use style="stroke:#000000;stroke-width:0.8;" x="57.6" xlink:href="#m6b93d824fd" y="118.823817"/>
      </g>
     </g>
     <g id="text_14">
      <!-- 5 -->
      <g transform="translate(45.6 122.295692)scale(0.1 -0.1)">
       <use xlink:href="#TimesNewRomanPSMT-35"/>
      </g>
     </g>
    </g>
    <g id="ytick_8">
     <g id="line2d_15">
      <g>
       <use style="stroke:#000000;stroke-width:0.8;" x="57.6" xlink:href="#m6b93d824fd" y="87.41523"/>
      </g>
     </g>
     <g id="text_15">
      <!-- 10 -->
      <g transform="translate(40.6 90.887105)scale(0.1 -0.1)">
       <use xlink:href="#TimesNewRomanPSMT-31"/>
       <use x="50" xlink:href="#TimesNewRomanPSMT-30"/>
      </g>
     </g>
    </g>
    <g id="ytick_9">
     <g id="line2d_16">
      <g>
       <use style="stroke:#000000;stroke-width:0.8;" x="57.6" xlink:href="#m6b93d824fd" y="56.006642"/>
      </g>
     </g>
     <g id="text_16">
      <!-- 15 -->
      <g transform="translate(40.6 59.478517)scale(0.1 -0.1)">
       <use xlink:href="#TimesNewRomanPSMT-31"/>
       <use x="50" xlink:href="#TimesNewRomanPSMT-35"/>
      </g>
     </g>
    </g>
   </g>
   <g id="line2d_17">
    <path clip-path="url(#p9684f98d76)" d="M 73.832727 174.892961 
L 76.560917 164.388438 
L 79.289106 124.032506 
L 82.017296 137.429978 
L 84.745485 169.303716 
L 87.473675 145.539901 
L 90.201864 137.780009 
L 92.930053 111.226855 
L 95.658243 117.995631 
L 98.386432 100.353933 
L 101.114622 102.617672 
L 103.842811 130.373791 
L 106.571001 104.570371 
L 109.29919 97.096882 
L 112.02738 129.915376 
L 114.755569 101.709617 
L 117.483759 103.948237 
L 120.211948 103.111237 
L 122.940138 101.857751 
L 125.668327 102.413021 
L 128.396516 108.307906 
L 131.124706 96.668724 
L 133.852895 108.600311 
L 136.581085 105.917732 
L 139.309274 149.409914 
L 142.037464 98.79824 
L 144.765653 98.319272 
L 147.493843 106.472271 
L 150.222032 99.344699 
L 152.950222 96.964957 
L 155.678411 102.646206 
L 158.4066 99.222038 
L 161.13479 99.348302 
L 163.862979 113.536595 
L 166.591169 94.462091 
L 169.319358 95.72789 
L 172.047548 96.277095 
L 174.775737 98.328972 
L 177.503927 96.682932 
L 180.232116 112.607292 
L 182.960306 96.934429 
L 185.688495 96.226219 
L 188.416684 97.801508 
L 191.144874 95.669901 
L 193.873063 96.758835 
L 196.601253 93.749246 
L 199.329442 94.148588 
L 202.057632 95.835754 
L 204.785821 96.751791 
L 207.514011 95.269819 
L 210.2422 96.544225 
L 212.97039 96.698007 
L 215.698579 102.886553 
L 218.426769 96.532064 
L 221.154958 100.253833 
L 223.883147 101.01756 
L 226.611337 96.139939 
L 229.339526 95.711533 
L 232.067716 95.814365 
L 234.795905 95.115591 
L 237.524095 99.648233 
L 240.252284 106.89429 
L 242.980474 94.850589 
L 245.708663 94.527856 
L 248.436853 94.30287 
L 251.165042 95.05368 
L 253.893231 100.825933 
L 256.621421 95.532596 
L 259.34961 100.854755 
L 262.0778 96.973352 
L 264.805989 96.958892 
L 267.534179 94.396927 
L 270.262368 94.593435 
L 272.990558 99.940057 
L 275.718747 104.345327 
L 278.446937 94.67711 
L 281.175126 93.333612 
L 283.903316 93.760908 
L 286.631505 99.326691 
L 289.359694 97.387413 
L 292.087884 95.370948 
L 294.816073 100.309183 
L 297.544263 95.460743 
L 300.272452 93.680873 
L 303.000642 94.565385 
L 305.728831 94.524666 
L 308.457021 96.296211 
L 311.18521 93.08884 
L 313.9134 93.909453 
L 316.641589 94.653258 
L 319.369778 96.7323 
L 322.097968 95.10006 
L 324.826157 95.270423 
L 327.554347 94.247371 
L 330.282536 94.198822 
L 333.010726 94.76992 
L 335.738915 94.55919 
L 338.467105 94.966069 
L 341.195294 94.332038 
L 343.923484 100.499976 
L 346.651673 104.234414 
L 349.379862 96.837464 
L 352.108052 94.677965 
L 354.836241 94.557488 
L 357.564431 107.755091 
L 360.29262 95.142241 
L 363.02081 93.225909 
L 365.748999 101.763185 
L 368.477189 97.551057 
L 371.205378 94.727851 
L 373.933568 95.157285 
L 376.661757 93.029865 
L 379.389947 94.432566 
L 382.118136 93.961191 
L 384.846325 93.393071 
L 387.574515 94.314326 
L 390.302704 94.971723 
L 393.030894 95.077964 
L 395.759083 93.274332 
L 398.487273 97.11824 
" style="fill:none;stroke:#ff4500;stroke-linecap:square;stroke-width:1.5;"/>
   </g>
   <g id="line2d_18">
    <path clip-path="url(#p9684f98d76)" d="M 73.832727 213.419239 
L 76.560917 180.07145 
L 79.289106 198.934523 
L 82.017296 175.162031 
L 84.745485 158.428394 
L 87.473675 155.291144 
L 90.201864 133.814213 
L 92.930053 115.866199 
L 95.658243 159.378611 
L 98.386432 114.648296 
L 101.114622 122.852736 
L 103.842811 110.653612 
L 106.571001 120.144628 
L 109.29919 107.686482 
L 112.02738 132.930684 
L 114.755569 99.817981 
L 117.483759 99.688108 
L 120.211948 137.188643 
L 122.940138 100.327884 
L 125.668327 109.323309 
L 128.396516 103.583401 
L 131.124706 112.994467 
L 133.852895 112.637137 
L 136.581085 104.53497 
L 139.309274 101.564099 
L 142.037464 99.98095 
L 144.765653 112.541725 
L 147.493843 110.025376 
L 150.222032 109.593032 
L 152.950222 108.256497 
L 155.678411 112.33936 
L 158.4066 100.910127 
L 161.13479 101.588597 
L 163.862979 102.315086 
L 166.591169 97.464661 
L 169.319358 100.738147 
L 172.047548 105.766462 
L 174.775737 110.700251 
L 177.503927 104.842271 
L 180.232116 96.204392 
L 182.960306 96.703571 
L 185.688495 98.952113 
L 188.416684 99.711919 
L 191.144874 95.281075 
L 193.873063 97.278047 
L 196.601253 97.558208 
L 199.329442 97.388699 
L 202.057632 95.074702 
L 204.785821 96.507405 
L 207.514011 102.516226 
L 210.2422 101.980878 
L 212.97039 97.070884 
L 215.698579 100.559011 
L 218.426769 96.858247 
L 221.154958 101.859037 
L 223.883147 100.078971 
L 226.611337 98.490215 
L 229.339526 101.923838 
L 232.067716 97.469959 
L 234.795905 96.020548 
L 237.524095 100.889403 
L 240.252284 100.258704 
L 242.980474 99.238521 
L 245.708663 96.272079 
L 248.436853 95.60281 
L 251.165042 97.605631 
L 253.893231 94.780722 
L 256.621421 94.401726 
L 259.34961 96.336071 
L 262.0778 100.728171 
L 264.805989 98.608564 
L 267.534179 94.970746 
L 270.262368 95.370015 
L 272.990558 97.005381 
L 275.718747 98.569626 
L 278.446937 94.317421 
L 281.175126 96.738083 
L 283.903316 96.667225 
L 286.631505 95.061612 
L 289.359694 94.710715 
L 292.087884 101.089013 
L 294.816073 94.732202 
L 297.544263 96.594491 
L 300.272452 94.924581 
L 303.000642 94.371469 
L 305.728831 95.48103 
L 308.457021 95.540534 
L 311.18521 95.94424 
L 313.9134 94.022044 
L 316.641589 96.7416 
L 319.369778 95.108154 
L 322.097968 96.838218 
L 324.826157 94.245124 
L 327.554347 94.821814 
L 330.282536 96.042243 
L 333.010726 94.739022 
L 335.738915 94.040214 
L 338.467105 93.933494 
L 341.195294 94.4261 
L 343.923484 94.353801 
L 346.651673 94.2501 
L 349.379862 95.290962 
L 352.108052 94.91544 
L 354.836241 94.68253 
L 357.564431 95.595445 
L 360.29262 96.300556 
L 363.02081 94.885609 
L 365.748999 95.864308 
L 368.477189 94.648549 
L 371.205378 94.388431 
L 373.933568 96.349629 
L 376.661757 127.674742 
L 379.389947 95.143995 
L 382.118136 94.017459 
L 384.846325 94.77366 
L 387.574515 94.162614 
L 390.302704 94.175637 
L 393.030894 94.422142 
L 395.759083 94.126064 
L 398.487273 94.250878 
" style="fill:none;stroke:#4682b4;stroke-linecap:square;stroke-width:1.5;"/>
   </g>
   <g id="line2d_19">
    <path clip-path="url(#p9684f98d76)" d="M 73.832727 209.673663 
L 76.560917 184.69155 
L 79.289106 164.120878 
L 82.017296 132.276029 
L 84.745485 165.170169 
L 87.473675 221.193768 
L 90.201864 192.240404 
L 92.930053 147.644171 
L 95.658243 148.912537 
L 98.386432 139.542567 
L 101.114622 177.30117 
L 103.842811 175.098484 
L 106.571001 163.698834 
L 109.29919 165.629183 
L 112.02738 145.669309 
L 114.755569 170.853537 
L 117.483759 163.838336 
L 120.211948 150.090566 
L 122.940138 179.029366 
L 125.668327 153.744917 
L 128.396516 133.644469 
L 131.124706 142.99682 
L 133.852895 131.448146 
L 136.581085 155.940317 
L 139.309274 126.575531 
L 142.037464 127.583619 
L 144.765653 144.721315 
L 147.493843 134.84028 
L 150.222032 142.732518 
L 152.950222 119.553005 
L 155.678411 143.006231 
L 158.4066 148.712402 
L 161.13479 118.883235 
L 163.862979 125.258895 
L 166.591169 160.343214 
L 169.319358 144.116183 
L 172.047548 120.230321 
L 174.775737 142.750417 
L 177.503927 135.275286 
L 180.232116 119.89583 
L 182.960306 124.319703 
L 185.688495 125.450361 
L 188.416684 130.123779 
L 191.144874 118.62099 
L 193.873063 124.383935 
L 196.601253 125.774564 
L 199.329442 120.062131 
L 202.057632 116.511608 
L 204.785821 131.876061 
L 207.514011 130.50334 
L 210.2422 119.789564 
L 212.97039 124.161558 
L 215.698579 130.128131 
L 218.426769 135.816705 
L 221.154958 120.830498 
L 223.883147 116.346722 
L 226.611337 131.018569 
L 229.339526 148.300778 
L 232.067716 124.204502 
L 234.795905 118.231866 
L 237.524095 141.689243 
L 240.252284 128.073859 
L 242.980474 116.702611 
L 245.708663 118.860311 
L 248.436853 128.623159 
L 251.165042 125.751728 
L 253.893231 113.032152 
L 256.621421 112.009049 
L 259.34961 123.171733 
L 262.0778 127.410376 
L 264.805989 119.05656 
L 267.534179 118.288103 
L 270.262368 109.814127 
L 272.990558 114.504082 
L 275.718747 117.169989 
L 278.446937 122.231545 
L 281.175126 114.197575 
L 283.903316 115.288686 
L 286.631505 118.037025 
L 289.359694 119.431429 
L 292.087884 115.873028 
L 294.816073 125.098571 
L 297.544263 129.527026 
L 300.272452 148.809754 
L 303.000642 124.070987 
L 305.728831 120.744382 
L 308.457021 124.37889 
L 311.18521 117.69006 
L 313.9134 133.186535 
L 316.641589 170.436778 
L 319.369778 121.655155 
L 322.097968 120.060391 
L 324.826157 124.008866 
L 327.554347 122.109108 
L 330.282536 113.98424 
L 333.010726 121.611728 
L 335.738915 128.682884 
L 338.467105 117.564656 
L 341.195294 123.123359 
L 343.923484 120.361409 
L 346.651673 114.125436 
L 349.379862 142.310632 
L 352.108052 127.324303 
L 354.836241 111.799894 
L 357.564431 119.630534 
L 360.29262 155.554571 
L 363.02081 109.510284 
L 365.748999 123.511811 
L 368.477189 108.398673 
L 371.205378 108.255622 
L 373.933568 123.395511 
L 376.661757 103.702707 
L 379.389947 159.396934 
L 382.118136 119.812097 
L 384.846325 107.158397 
L 387.574515 123.8388 
L 390.302704 114.913847 
L 393.030894 119.849494 
L 395.759083 118.797787 
L 398.487273 109.756931 
" style="fill:none;stroke:#008000;stroke-linecap:square;stroke-width:1.5;"/>
   </g>
   <g id="patch_3">
    <path d="M 57.6 307.584 
L 57.6 41.472 
" style="fill:none;stroke:#000000;stroke-linecap:square;stroke-linejoin:miter;stroke-width:0.8;"/>
   </g>
   <g id="patch_4">
    <path d="M 414.72 307.584 
L 414.72 41.472 
" style="fill:none;stroke:#000000;stroke-linecap:square;stroke-linejoin:miter;stroke-width:0.8;"/>
   </g>
   <g id="patch_5">
    <path d="M 57.6 307.584 
L 414.72 307.584 
" style="fill:none;stroke:#000000;stroke-linecap:square;stroke-linejoin:miter;stroke-width:0.8;"/>
   </g>
   <g id="patch_6">
    <path d="M 57.6 41.472 
L 414.72 41.472 
" style="fill:none;stroke:#000000;stroke-linecap:square;stroke-linejoin:miter;stroke-width:0.8;"/>
   </g>
   <g id="legend_1">
    <g id="patch_7">
     <path d="M 338.502813 91.889188 
L 407.72 91.889188 
Q 409.72 91.889188 409.72 89.889188 
L 409.72 48.472 
Q 409.72 46.472 407.72 46.472 
L 338.502813 46.472 
Q 336.502813 46.472 336.502813 48.472 
L 336.502813 89.889188 
Q 336.502813 91.889188 338.502813 91.889188 
z
" style="fill:#ffffff;opacity:0.8;stroke:#cccccc;stroke-linejoin:miter;"/>
    </g>
    <g id="line2d_20">
     <path d="M 340.502813 53.972 
L 360.502813 53.972 
" style="fill:none;stroke:#ff4500;stroke-linecap:square;stroke-width:1.5;"/>
    </g>
    <g id="line2d_21"/>
    <g id="text_17">
     <!-- VD3QN -->
     <g transform="translate(368.502813 57.472)scale(0.1 -0.1)">
      <defs>
       <path d="M 4544 4238 
L 4544 4122 
Q 4319 4081 4203 3978 
Q 4038 3825 3909 3509 
L 2431 -97 
L 2316 -97 
L 728 3556 
Q 606 3838 556 3900 
Q 478 3997 364 4051 
Q 250 4106 56 4122 
L 56 4238 
L 1788 4238 
L 1788 4122 
Q 1494 4094 1406 4022 
Q 1319 3950 1319 3838 
Q 1319 3681 1463 3350 
L 2541 866 
L 3541 3319 
Q 3688 3681 3688 3822 
Q 3688 3913 3597 3995 
Q 3506 4078 3291 4113 
Q 3275 4116 3238 4122 
L 3238 4238 
L 4544 4238 
z
" id="TimesNewRomanPSMT-56" transform="scale(0.015625)"/>
       <path d="M 109 0 
L 109 116 
L 269 116 
Q 538 116 650 288 
Q 719 391 719 750 
L 719 3488 
Q 719 3884 631 3984 
Q 509 4122 269 4122 
L 109 4122 
L 109 4238 
L 1834 4238 
Q 2784 4238 3279 4022 
Q 3775 3806 4076 3303 
Q 4378 2800 4378 2141 
Q 4378 1256 3841 663 
Q 3238 0 2003 0 
L 109 0 
z
M 1319 306 
Q 1716 219 1984 219 
Q 2709 219 3187 728 
Q 3666 1238 3666 2109 
Q 3666 2988 3187 3494 
Q 2709 4000 1959 4000 
Q 1678 4000 1319 3909 
L 1319 306 
z
" id="TimesNewRomanPSMT-44" transform="scale(0.015625)"/>
       <path d="M 325 3431 
Q 506 3859 782 4092 
Q 1059 4325 1472 4325 
Q 1981 4325 2253 3994 
Q 2459 3747 2459 3466 
Q 2459 3003 1878 2509 
Q 2269 2356 2469 2072 
Q 2669 1788 2669 1403 
Q 2669 853 2319 450 
Q 1863 -75 997 -75 
Q 569 -75 414 31 
Q 259 138 259 259 
Q 259 350 332 419 
Q 406 488 509 488 
Q 588 488 669 463 
Q 722 447 909 348 
Q 1097 250 1169 231 
Q 1284 197 1416 197 
Q 1734 197 1970 444 
Q 2206 691 2206 1028 
Q 2206 1275 2097 1509 
Q 2016 1684 1919 1775 
Q 1784 1900 1550 2001 
Q 1316 2103 1072 2103 
L 972 2103 
L 972 2197 
Q 1219 2228 1467 2375 
Q 1716 2522 1828 2728 
Q 1941 2934 1941 3181 
Q 1941 3503 1739 3701 
Q 1538 3900 1238 3900 
Q 753 3900 428 3381 
L 325 3431 
z
" id="TimesNewRomanPSMT-33" transform="scale(0.015625)"/>
       <path d="M 2819 -47 
Q 3138 -597 3508 -856 
Q 3878 -1116 4350 -1153 
L 4350 -1253 
Q 3919 -1238 3428 -1080 
Q 2938 -922 2498 -642 
Q 2059 -363 1741 -47 
Q 1291 134 1028 338 
Q 647 641 436 1083 
Q 225 1525 225 2128 
Q 225 3078 840 3706 
Q 1456 4334 2331 4334 
Q 3163 4334 3770 3704 
Q 4378 3075 4378 2116 
Q 4378 1338 3945 750 
Q 3513 163 2819 -47 
z
M 2294 4094 
Q 1725 4094 1378 3688 
Q 941 3178 941 2128 
Q 941 1100 1384 544 
Q 1728 116 2294 116 
Q 2881 116 3241 544 
Q 3663 1050 3663 2038 
Q 3663 2797 3431 3316 
Q 3253 3716 2958 3905 
Q 2663 4094 2294 4094 
z
" id="TimesNewRomanPSMT-51" transform="scale(0.015625)"/>
       <path d="M -84 4238 
L 1066 4238 
L 3656 1059 
L 3656 3503 
Q 3656 3894 3569 3991 
Q 3453 4122 3203 4122 
L 3056 4122 
L 3056 4238 
L 4531 4238 
L 4531 4122 
L 4381 4122 
Q 4113 4122 4000 3959 
Q 3931 3859 3931 3503 
L 3931 -69 
L 3819 -69 
L 1025 3344 
L 1025 734 
Q 1025 344 1109 247 
Q 1228 116 1475 116 
L 1625 116 
L 1625 0 
L 150 0 
L 150 116 
L 297 116 
Q 569 116 681 278 
Q 750 378 750 734 
L 750 3681 
Q 566 3897 470 3965 
Q 375 4034 191 4094 
Q 100 4122 -84 4122 
L -84 4238 
z
" id="TimesNewRomanPSMT-4e" transform="scale(0.015625)"/>
      </defs>
      <use xlink:href="#TimesNewRomanPSMT-56"/>
      <use x="72.216797" xlink:href="#TimesNewRomanPSMT-44"/>
      <use x="144.433594" xlink:href="#TimesNewRomanPSMT-33"/>
      <use x="194.433594" xlink:href="#TimesNewRomanPSMT-51"/>
      <use x="266.650391" xlink:href="#TimesNewRomanPSMT-4e"/>
     </g>
    </g>
    <g id="line2d_22">
     <path d="M 340.502813 68.111063 
L 360.502813 68.111063 
" style="fill:none;stroke:#4682b4;stroke-linecap:square;stroke-width:1.5;"/>
    </g>
    <g id="line2d_23"/>
    <g id="text_18">
     <!-- D3QN -->
     <g transform="translate(368.502813 71.611063)scale(0.1 -0.1)">
      <use xlink:href="#TimesNewRomanPSMT-44"/>
      <use x="72.216797" xlink:href="#TimesNewRomanPSMT-33"/>
      <use x="122.216797" xlink:href="#TimesNewRomanPSMT-51"/>
      <use x="194.433594" xlink:href="#TimesNewRomanPSMT-4e"/>
     </g>
    </g>
    <g id="line2d_24">
     <path d="M 340.502813 82.250125 
L 360.502813 82.250125 
" style="fill:none;stroke:#008000;stroke-linecap:square;stroke-width:1.5;"/>
    </g>
    <g id="line2d_25"/>
    <g id="text_19">
     <!-- VD3QN- -->
     <g transform="translate(368.502813 85.750125)scale(0.1 -0.1)">
      <defs>
       <path d="M 259 1672 
L 1875 1672 
L 1875 1200 
L 259 1200 
L 259 1672 
z
" id="TimesNewRomanPSMT-2d" transform="scale(0.015625)"/>
      </defs>
      <use xlink:href="#TimesNewRomanPSMT-56"/>
      <use x="72.216797" xlink:href="#TimesNewRomanPSMT-44"/>
      <use x="144.433594" xlink:href="#TimesNewRomanPSMT-33"/>
      <use x="194.433594" xlink:href="#TimesNewRomanPSMT-51"/>
      <use x="266.650391" xlink:href="#TimesNewRomanPSMT-4e"/>
      <use x="338.867188" xlink:href="#TimesNewRomanPSMT-2d"/>
     </g>
    </g>
   </g>
  </g>
 </g>
 <defs>
  <clipPath id="p9684f98d76">
   <rect height="266.112" width="357.12" x="57.6" y="41.472"/>
  </clipPath>
 </defs>
</svg>
