<?xml version="1.0" encoding="utf-8" standalone="no"?>
<!DOCTYPE svg PUBLIC "-//W3C//DTD SVG 1.1//EN"
  "http://www.w3.org/Graphics/SVG/1.1/DTD/svg11.dtd">
<svg height="345.6pt" version="1.1" viewBox="0 0 460.8 345.6" width="460.8pt" xmlns="http://www.w3.org/2000/svg" xmlns:xlink="http://www.w3.org/1999/xlink">
 <metadata>
  <rdf:RDF xmlns:cc="http://creativecommons.org/ns#" xmlns:dc="http://purl.org/dc/elements/1.1/" xmlns:rdf="http://www.w3.org/1999/02/22-rdf-syntax-ns#">
   <cc:Work>
    <dc:type rdf:resource="http://purl.org/dc/dcmitype/StillImage"/>
    <dc:date>2022-01-17T18:42:47.869069</dc:date>
    <dc:format>image/svg+xml</dc:format>
    <dc:creator>
     <cc:Agent>
      <dc:title>Matplotlib v3.4.3, https://matplotlib.org/</dc:title>
     </cc:Agent>
    </dc:creator>
   </cc:Work>
  </rdf:RDF>
 </metadata>
 <defs>
  <style type="text/css">*{stroke-linecap:butt;stroke-linejoin:round;}</style>
 </defs>
 <g id="figure_1">
  <g id="patch_1">
   <path d="M 0 345.6 
L 460.8 345.6 
L 460.8 0 
L 0 0 
z
" style="fill:#ffffff;"/>
  </g>
  <g id="axes_1">
   <g id="patch_2">
    <path d="M 57.6 307.584 
L 414.72 307.584 
L 414.72 41.472 
L 57.6 41.472 
z
" style="fill:#ffffff;"/>
   </g>
   <g id="PolyCollection_1">
    <defs>
     <path d="M 73.832727 -54.459509 
L 73.832727 -228.307178 
L 76.560917 -225.346934 
L 79.289106 -244.075748 
L 82.017296 -251.424898 
L 84.745485 -237.488465 
L 87.473675 -178.072271 
L 90.201864 -213.224221 
L 92.930053 -240.862948 
L 95.658243 -237.84375 
L 98.386432 -247.638904 
L 101.114622 -264.831953 
L 103.842811 -228.643996 
L 106.571001 -243.321969 
L 109.29919 -248.539061 
L 112.02738 -247.910269 
L 114.755569 -239.647403 
L 117.483759 -251.513629 
L 120.211948 -238.476555 
L 122.940138 -254.704022 
L 125.668327 -245.6267 
L 128.396516 -241.000648 
L 131.124706 -246.225282 
L 133.852895 -245.236486 
L 136.581085 -243.422479 
L 139.309274 -242.744866 
L 142.037464 -237.907015 
L 144.765653 -254.865409 
L 147.493843 -239.600676 
L 150.222032 -246.313938 
L 152.950222 -256.067777 
L 155.678411 -256.291591 
L 158.4066 -260.805317 
L 161.13479 -255.027905 
L 163.862979 -247.440965 
L 166.591169 -266.249611 
L 169.319358 -249.588301 
L 172.047548 -251.559575 
L 174.775737 -245.231538 
L 177.503927 -229.402859 
L 180.232116 -252.569454 
L 182.960306 -247.195012 
L 185.688495 -242.315655 
L 188.416684 -242.252117 
L 191.144874 -255.250421 
L 193.873063 -247.859414 
L 196.601253 -249.191558 
L 199.329442 -255.440455 
L 202.057632 -259.941846 
L 204.785821 -246.889697 
L 207.514011 -247.349514 
L 210.2422 -254.533594 
L 212.97039 -247.081718 
L 215.698579 -245.028763 
L 218.426769 -239.201028 
L 221.154958 -251.345247 
L 223.883147 -259.323839 
L 226.611337 -245.055339 
L 229.339526 -263.703161 
L 232.067716 -246.52135 
L 234.795905 -255.465537 
L 237.524095 -243.280545 
L 240.252284 -248.795644 
L 242.980474 -258.963019 
L 245.708663 -258.5457 
L 248.436853 -247.185118 
L 251.165042 -251.532434 
L 253.893231 -260.920153 
L 256.621421 -262.443769 
L 259.34961 -253.743226 
L 262.0778 -246.664212 
L 264.805989 -256.428023 
L 267.534179 -256.454287 
L 270.262368 -260.986801 
L 272.990558 -260.355198 
L 275.718747 -259.370584 
L 278.446937 -249.56118 
L 281.175126 -260.445281 
L 283.903316 -259.657276 
L 286.631505 -258.571426 
L 289.359694 -255.6041 
L 292.087884 -259.03098 
L 294.816073 -248.025277 
L 297.544263 -248.345536 
L 300.272452 -252.537183 
L 303.000642 -256.734378 
L 305.728831 -245.97547 
L 308.457021 -242.003354 
L 311.18521 -257.070967 
L 313.9134 -244.911644 
L 316.641589 -286.423673 
L 319.369778 -244.83119 
L 322.097968 -255.444223 
L 324.826157 -254.365794 
L 327.554347 -248.694463 
L 330.282536 -260.970704 
L 333.010726 -259.890411 
L 335.738915 -262.497404 
L 338.467105 -258.528937 
L 341.195294 -248.910271 
L 343.923484 -259.801515 
L 346.651673 -259.089785 
L 349.379862 -270.204795 
L 352.108052 -245.558086 
L 354.836241 -262.481532 
L 357.564431 -255.250194 
L 360.29262 -246.800622 
L 363.02081 -265.615493 
L 365.748999 -249.349303 
L 368.477189 -267.130002 
L 371.205378 -263.747466 
L 373.933568 -249.080419 
L 376.661757 -268.236335 
L 379.389947 -263.893739 
L 382.118136 -256.180993 
L 384.846325 -264.553313 
L 387.574515 -249.099597 
L 390.302704 -260.606937 
L 393.030894 -256.758998 
L 395.759083 -258.08316 
L 398.487273 -265.700491 
L 398.487273 -228.704506 
L 398.487273 -228.704506 
L 395.759083 -217.171975 
L 393.030894 -216.268468 
L 390.302704 -222.874954 
L 387.574515 -215.477933 
L 384.846325 -235.355761 
L 382.118136 -216.925686 
L 379.389947 -125.366443 
L 376.661757 -238.992396 
L 373.933568 -216.436062 
L 371.205378 -233.837523 
L 368.477189 -230.151984 
L 365.748999 -215.920838 
L 363.02081 -229.311938 
L 360.29262 -150.598248 
L 357.564431 -218.241062 
L 354.836241 -227.596169 
L 352.108052 -211.636636 
L 349.379862 -155.246683 
L 346.651673 -226.062076 
L 343.923484 -212.14164 
L 341.195294 -217.182668 
L 338.467105 -219.338152 
L 335.738915 -191.819645 
L 333.010726 -209.404386 
L 330.282536 -224.480232 
L 327.554347 -219.546808 
L 324.826157 -209.851511 
L 322.097968 -217.136531 
L 319.369778 -224.371622 
L 316.641589 -79.452497 
L 313.9134 -199.86601 
L 311.18521 -220.530497 
L 308.457021 -221.430186 
L 305.728831 -225.15649 
L 303.000642 -207.351346 
L 300.272452 -159.1482 
L 297.544263 -204.183495 
L 294.816073 -213.883872 
L 292.087884 -222.419224 
L 289.359694 -218.308889 
L 286.631505 -218.295116 
L 283.903316 -223.030651 
L 281.175126 -224.553779 
L 278.446937 -218.420752 
L 275.718747 -219.332466 
L 272.990558 -223.994635 
L 270.262368 -233.297046 
L 267.534179 -219.880435 
L 264.805989 -218.278993 
L 262.0778 -210.348195 
L 259.34961 -212.247251 
L 256.621421 -227.190911 
L 253.893231 -226.547444 
L 251.165042 -208.993235 
L 248.436853 -207.258437 
L 245.708663 -216.577 
L 242.980474 -220.730007 
L 240.252284 -206.81141 
L 237.524095 -183.487126 
L 234.795905 -220.988302 
L 232.067716 -217.281569 
L 229.339526 -149.060307 
L 226.611337 -204.314386 
L 223.883147 -221.123011 
L 221.154958 -219.604308 
L 218.426769 -200.00554 
L 215.698579 -206.22704 
L 212.97039 -216.812162 
L 210.2422 -218.620811 
L 207.514011 -203.111541 
L 204.785821 -200.663734 
L 202.057632 -220.155753 
L 199.329442 -217.136613 
L 196.601253 -211.28574 
L 193.873063 -215.56344 
L 191.144874 -220.379196 
L 188.416684 -209.012904 
L 185.688495 -218.848352 
L 182.960306 -216.363894 
L 180.232116 -220.359866 
L 177.503927 -210.950516 
L 174.775737 -179.28841 
L 172.047548 -220.661244 
L 169.319358 -172.038754 
L 166.591169 -121.006209 
L 163.862979 -214.128595 
L 161.13479 -220.046239 
L 158.4066 -151.086272 
L 155.678411 -167.686506 
L 152.950222 -217.587697 
L 150.222032 -178.243924 
L 147.493843 -201.674104 
L 144.765653 -165.479888 
L 142.037464 -218.738437 
L 139.309274 -216.035866 
L 136.581085 -153.159325 
L 133.852895 -203.223333 
L 131.124706 -177.772748 
L 128.396516 -202.807035 
L 125.668327 -155.605283 
L 122.940138 -92.971786 
L 120.211948 -170.495881 
L 117.483759 -128.339011 
L 114.755569 -125.34601 
L 112.02738 -170.427038 
L 109.29919 -127.520302 
L 106.571001 -136.826157 
L 103.842811 -127.357997 
L 101.114622 -86.504426 
L 98.386432 -183.675742 
L 95.658243 -173.623923 
L 92.930053 -173.29131 
L 90.201864 -106.46867 
L 87.473675 -80.293143 
L 84.745485 -139.543158 
L 82.017296 -195.281342 
L 79.289106 -135.178426 
L 76.560917 -110.335538 
L 73.832727 -54.459509 
z
" id="m84d5e170bf" style="stroke:#008000;stroke-opacity:0.1;"/>
    </defs>
    <g clip-path="url(#p215f1e35a8)">
     <use style="fill:#008000;fill-opacity:0.1;stroke:#008000;stroke-opacity:0.1;" x="0" xlink:href="#m84d5e170bf" y="345.6"/>
    </g>
   </g>
   <g id="matplotlib.axis_1">
    <g id="xtick_1">
     <g id="line2d_1">
      <defs>
       <path d="M 0 0 
L 0 3.5 
" id="m607f9e5011" style="stroke:#000000;stroke-width:0.8;"/>
      </defs>
      <g>
       <use style="stroke:#000000;stroke-width:0.8;" x="71.104538" xlink:href="#m607f9e5011" y="307.584"/>
      </g>
     </g>
     <g id="text_1">
      <!-- 0 -->
      <g transform="translate(68.604538 321.52775)scale(0.1 -0.1)">
       <defs>
        <path d="M 231 2094 
Q 231 2819 450 3342 
Q 669 3866 1031 4122 
Q 1313 4325 1613 4325 
Q 2100 4325 2488 3828 
Q 2972 3213 2972 2159 
Q 2972 1422 2759 906 
Q 2547 391 2217 158 
Q 1888 -75 1581 -75 
Q 975 -75 572 641 
Q 231 1244 231 2094 
z
M 844 2016 
Q 844 1141 1059 588 
Q 1238 122 1591 122 
Q 1759 122 1940 273 
Q 2122 425 2216 781 
Q 2359 1319 2359 2297 
Q 2359 3022 2209 3506 
Q 2097 3866 1919 4016 
Q 1791 4119 1609 4119 
Q 1397 4119 1231 3928 
Q 1006 3669 925 3112 
Q 844 2556 844 2016 
z
" id="TimesNewRomanPSMT-30" transform="scale(0.015625)"/>
       </defs>
       <use xlink:href="#TimesNewRomanPSMT-30"/>
      </g>
     </g>
    </g>
    <g id="xtick_2">
     <g id="line2d_2">
      <g>
       <use style="stroke:#000000;stroke-width:0.8;" x="125.668327" xlink:href="#m607f9e5011" y="307.584"/>
      </g>
     </g>
     <g id="text_2">
      <!-- 20 -->
      <g transform="translate(120.668327 321.52775)scale(0.1 -0.1)">
       <defs>
        <path d="M 2934 816 
L 2638 0 
L 138 0 
L 138 116 
Q 1241 1122 1691 1759 
Q 2141 2397 2141 2925 
Q 2141 3328 1894 3587 
Q 1647 3847 1303 3847 
Q 991 3847 742 3664 
Q 494 3481 375 3128 
L 259 3128 
Q 338 3706 661 4015 
Q 984 4325 1469 4325 
Q 1984 4325 2329 3994 
Q 2675 3663 2675 3213 
Q 2675 2891 2525 2569 
Q 2294 2063 1775 1497 
Q 997 647 803 472 
L 1909 472 
Q 2247 472 2383 497 
Q 2519 522 2628 598 
Q 2738 675 2819 816 
L 2934 816 
z
" id="TimesNewRomanPSMT-32" transform="scale(0.015625)"/>
       </defs>
       <use xlink:href="#TimesNewRomanPSMT-32"/>
       <use x="50" xlink:href="#TimesNewRomanPSMT-30"/>
      </g>
     </g>
    </g>
    <g id="xtick_3">
     <g id="line2d_3">
      <g>
       <use style="stroke:#000000;stroke-width:0.8;" x="180.232116" xlink:href="#m607f9e5011" y="307.584"/>
      </g>
     </g>
     <g id="text_3">
      <!-- 40 -->
      <g transform="translate(175.232116 321.52775)scale(0.1 -0.1)">
       <defs>
        <path d="M 2978 1563 
L 2978 1119 
L 2409 1119 
L 2409 0 
L 1894 0 
L 1894 1119 
L 100 1119 
L 100 1519 
L 2066 4325 
L 2409 4325 
L 2409 1563 
L 2978 1563 
z
M 1894 1563 
L 1894 3666 
L 406 1563 
L 1894 1563 
z
" id="TimesNewRomanPSMT-34" transform="scale(0.015625)"/>
       </defs>
       <use xlink:href="#TimesNewRomanPSMT-34"/>
       <use x="50" xlink:href="#TimesNewRomanPSMT-30"/>
      </g>
     </g>
    </g>
    <g id="xtick_4">
     <g id="line2d_4">
      <g>
       <use style="stroke:#000000;stroke-width:0.8;" x="234.795905" xlink:href="#m607f9e5011" y="307.584"/>
      </g>
     </g>
     <g id="text_4">
      <!-- 60 -->
      <g transform="translate(229.795905 321.52775)scale(0.1 -0.1)">
       <defs>
        <path d="M 2869 4325 
L 2869 4209 
Q 2456 4169 2195 4045 
Q 1934 3922 1679 3669 
Q 1425 3416 1258 3105 
Q 1091 2794 978 2366 
Q 1428 2675 1881 2675 
Q 2316 2675 2634 2325 
Q 2953 1975 2953 1425 
Q 2953 894 2631 456 
Q 2244 -75 1606 -75 
Q 1172 -75 869 213 
Q 275 772 275 1663 
Q 275 2231 503 2743 
Q 731 3256 1154 3653 
Q 1578 4050 1965 4187 
Q 2353 4325 2688 4325 
L 2869 4325 
z
M 925 2138 
Q 869 1716 869 1456 
Q 869 1156 980 804 
Q 1091 453 1309 247 
Q 1469 100 1697 100 
Q 1969 100 2183 356 
Q 2397 613 2397 1088 
Q 2397 1622 2184 2012 
Q 1972 2403 1581 2403 
Q 1463 2403 1327 2353 
Q 1191 2303 925 2138 
z
" id="TimesNewRomanPSMT-36" transform="scale(0.015625)"/>
       </defs>
       <use xlink:href="#TimesNewRomanPSMT-36"/>
       <use x="50" xlink:href="#TimesNewRomanPSMT-30"/>
      </g>
     </g>
    </g>
    <g id="xtick_5">
     <g id="line2d_5">
      <g>
       <use style="stroke:#000000;stroke-width:0.8;" x="289.359694" xlink:href="#m607f9e5011" y="307.584"/>
      </g>
     </g>
     <g id="text_5">
      <!-- 80 -->
      <g transform="translate(284.359694 321.52775)scale(0.1 -0.1)">
       <defs>
        <path d="M 1228 2134 
Q 725 2547 579 2797 
Q 434 3047 434 3316 
Q 434 3728 753 4026 
Q 1072 4325 1600 4325 
Q 2113 4325 2425 4047 
Q 2738 3769 2738 3413 
Q 2738 3175 2569 2928 
Q 2400 2681 1866 2347 
Q 2416 1922 2594 1678 
Q 2831 1359 2831 1006 
Q 2831 559 2490 242 
Q 2150 -75 1597 -75 
Q 994 -75 656 303 
Q 388 606 388 966 
Q 388 1247 577 1523 
Q 766 1800 1228 2134 
z
M 1719 2469 
Q 2094 2806 2194 3001 
Q 2294 3197 2294 3444 
Q 2294 3772 2109 3958 
Q 1925 4144 1606 4144 
Q 1288 4144 1088 3959 
Q 888 3775 888 3528 
Q 888 3366 970 3203 
Q 1053 3041 1206 2894 
L 1719 2469 
z
M 1375 2016 
Q 1116 1797 991 1539 
Q 866 1281 866 981 
Q 866 578 1086 336 
Q 1306 94 1647 94 
Q 1984 94 2187 284 
Q 2391 475 2391 747 
Q 2391 972 2272 1150 
Q 2050 1481 1375 2016 
z
" id="TimesNewRomanPSMT-38" transform="scale(0.015625)"/>
       </defs>
       <use xlink:href="#TimesNewRomanPSMT-38"/>
       <use x="50" xlink:href="#TimesNewRomanPSMT-30"/>
      </g>
     </g>
    </g>
    <g id="xtick_6">
     <g id="line2d_6">
      <g>
       <use style="stroke:#000000;stroke-width:0.8;" x="343.923484" xlink:href="#m607f9e5011" y="307.584"/>
      </g>
     </g>
     <g id="text_6">
      <!-- 100 -->
      <g transform="translate(336.423484 321.52775)scale(0.1 -0.1)">
       <defs>
        <path d="M 750 3822 
L 1781 4325 
L 1884 4325 
L 1884 747 
Q 1884 391 1914 303 
Q 1944 216 2037 169 
Q 2131 122 2419 116 
L 2419 0 
L 825 0 
L 825 116 
Q 1125 122 1212 167 
Q 1300 213 1334 289 
Q 1369 366 1369 747 
L 1369 3034 
Q 1369 3497 1338 3628 
Q 1316 3728 1258 3775 
Q 1200 3822 1119 3822 
Q 1003 3822 797 3725 
L 750 3822 
z
" id="TimesNewRomanPSMT-31" transform="scale(0.015625)"/>
       </defs>
       <use xlink:href="#TimesNewRomanPSMT-31"/>
       <use x="50" xlink:href="#TimesNewRomanPSMT-30"/>
       <use x="100" xlink:href="#TimesNewRomanPSMT-30"/>
      </g>
     </g>
    </g>
    <g id="xtick_7">
     <g id="line2d_7">
      <g>
       <use style="stroke:#000000;stroke-width:0.8;" x="398.487273" xlink:href="#m607f9e5011" y="307.584"/>
      </g>
     </g>
     <g id="text_7">
      <!-- 120 -->
      <g transform="translate(390.987273 321.52775)scale(0.1 -0.1)">
       <use xlink:href="#TimesNewRomanPSMT-31"/>
       <use x="50" xlink:href="#TimesNewRomanPSMT-32"/>
       <use x="100" xlink:href="#TimesNewRomanPSMT-30"/>
      </g>
     </g>
    </g>
   </g>
   <g id="matplotlib.axis_2">
    <g id="ytick_1">
     <g id="line2d_8">
      <defs>
       <path d="M 0 0 
L -3.5 0 
" id="m67d35690d3" style="stroke:#000000;stroke-width:0.8;"/>
      </defs>
      <g>
       <use style="stroke:#000000;stroke-width:0.8;" x="57.6" xlink:href="#m67d35690d3" y="307.584"/>
      </g>
     </g>
     <g id="text_8">
      <!-- −25 -->
      <g transform="translate(34.960938 311.055875)scale(0.1 -0.1)">
       <defs>
        <path d="M 3484 2000 
L 116 2000 
L 116 2256 
L 3484 2256 
L 3484 2000 
z
" id="TimesNewRomanPSMT-2212" transform="scale(0.015625)"/>
        <path d="M 2778 4238 
L 2534 3706 
L 1259 3706 
L 981 3138 
Q 1809 3016 2294 2522 
Q 2709 2097 2709 1522 
Q 2709 1188 2573 903 
Q 2438 619 2231 419 
Q 2025 219 1772 97 
Q 1413 -75 1034 -75 
Q 653 -75 479 54 
Q 306 184 306 341 
Q 306 428 378 495 
Q 450 563 559 563 
Q 641 563 702 538 
Q 763 513 909 409 
Q 1144 247 1384 247 
Q 1750 247 2026 523 
Q 2303 800 2303 1197 
Q 2303 1581 2056 1914 
Q 1809 2247 1375 2428 
Q 1034 2569 447 2591 
L 1259 4238 
L 2778 4238 
z
" id="TimesNewRomanPSMT-35" transform="scale(0.015625)"/>
       </defs>
       <use xlink:href="#TimesNewRomanPSMT-2212"/>
       <use x="56.396484" xlink:href="#TimesNewRomanPSMT-32"/>
       <use x="106.396484" xlink:href="#TimesNewRomanPSMT-35"/>
      </g>
     </g>
    </g>
    <g id="ytick_2">
     <g id="line2d_9">
      <g>
       <use style="stroke:#000000;stroke-width:0.8;" x="57.6" xlink:href="#m67d35690d3" y="274.32"/>
      </g>
     </g>
     <g id="text_9">
      <!-- −20 -->
      <g transform="translate(34.960938 277.791875)scale(0.1 -0.1)">
       <use xlink:href="#TimesNewRomanPSMT-2212"/>
       <use x="56.396484" xlink:href="#TimesNewRomanPSMT-32"/>
       <use x="106.396484" xlink:href="#TimesNewRomanPSMT-30"/>
      </g>
     </g>
    </g>
    <g id="ytick_3">
     <g id="line2d_10">
      <g>
       <use style="stroke:#000000;stroke-width:0.8;" x="57.6" xlink:href="#m67d35690d3" y="241.056"/>
      </g>
     </g>
     <g id="text_10">
      <!-- −15 -->
      <g transform="translate(34.960938 244.527875)scale(0.1 -0.1)">
       <use xlink:href="#TimesNewRomanPSMT-2212"/>
       <use x="56.396484" xlink:href="#TimesNewRomanPSMT-31"/>
       <use x="106.396484" xlink:href="#TimesNewRomanPSMT-35"/>
      </g>
     </g>
    </g>
    <g id="ytick_4">
     <g id="line2d_11">
      <g>
       <use style="stroke:#000000;stroke-width:0.8;" x="57.6" xlink:href="#m67d35690d3" y="207.792"/>
      </g>
     </g>
     <g id="text_11">
      <!-- −10 -->
      <g transform="translate(34.960938 211.263875)scale(0.1 -0.1)">
       <use xlink:href="#TimesNewRomanPSMT-2212"/>
       <use x="56.396484" xlink:href="#TimesNewRomanPSMT-31"/>
       <use x="106.396484" xlink:href="#TimesNewRomanPSMT-30"/>
      </g>
     </g>
    </g>
    <g id="ytick_5">
     <g id="line2d_12">
      <g>
       <use style="stroke:#000000;stroke-width:0.8;" x="57.6" xlink:href="#m67d35690d3" y="174.528"/>
      </g>
     </g>
     <g id="text_12">
      <!-- −5 -->
      <g transform="translate(39.960938 177.999875)scale(0.1 -0.1)">
       <use xlink:href="#TimesNewRomanPSMT-2212"/>
       <use x="56.396484" xlink:href="#TimesNewRomanPSMT-35"/>
      </g>
     </g>
    </g>
    <g id="ytick_6">
     <g id="line2d_13">
      <g>
       <use style="stroke:#000000;stroke-width:0.8;" x="57.6" xlink:href="#m67d35690d3" y="141.264"/>
      </g>
     </g>
     <g id="text_13">
      <!-- 0 -->
      <g transform="translate(45.6 144.735875)scale(0.1 -0.1)">
       <use xlink:href="#TimesNewRomanPSMT-30"/>
      </g>
     </g>
    </g>
    <g id="ytick_7">
     <g id="line2d_14">
      <g>
       <use style="stroke:#000000;stroke-width:0.8;" x="57.6" xlink:href="#m67d35690d3" y="108"/>
      </g>
     </g>
     <g id="text_14">
      <!-- 5 -->
      <g transform="translate(45.6 111.471875)scale(0.1 -0.1)">
       <use xlink:href="#TimesNewRomanPSMT-35"/>
      </g>
     </g>
    </g>
    <g id="ytick_8">
     <g id="line2d_15">
      <g>
       <use style="stroke:#000000;stroke-width:0.8;" x="57.6" xlink:href="#m67d35690d3" y="74.736"/>
      </g>
     </g>
     <g id="text_15">
      <!-- 10 -->
      <g transform="translate(40.6 78.207875)scale(0.1 -0.1)">
       <use xlink:href="#TimesNewRomanPSMT-31"/>
       <use x="50" xlink:href="#TimesNewRomanPSMT-30"/>
      </g>
     </g>
    </g>
    <g id="ytick_9">
     <g id="line2d_16">
      <g>
       <use style="stroke:#000000;stroke-width:0.8;" x="57.6" xlink:href="#m67d35690d3" y="41.472"/>
      </g>
     </g>
     <g id="text_16">
      <!-- 15 -->
      <g transform="translate(40.6 44.943875)scale(0.1 -0.1)">
       <use xlink:href="#TimesNewRomanPSMT-31"/>
       <use x="50" xlink:href="#TimesNewRomanPSMT-35"/>
      </g>
     </g>
    </g>
   </g>
   <g id="line2d_17">
    <path clip-path="url(#p215f1e35a8)" d="M 73.832727 204.216656 
L 76.560917 177.758764 
L 79.289106 155.972913 
L 82.017296 122.24688 
L 84.745485 157.084189 
L 87.473675 216.417293 
L 90.201864 185.753555 
L 92.930053 138.522871 
L 95.658243 139.866164 
L 98.386432 129.942677 
L 101.114622 169.93181 
L 103.842811 167.599004 
L 106.571001 155.525937 
L 109.29919 157.570319 
L 112.02738 136.431346 
L 114.755569 163.103294 
L 117.483759 155.67368 
L 120.211948 141.113782 
L 122.940138 171.762096 
L 125.668327 144.984008 
L 128.396516 123.696159 
L 131.124706 133.600985 
L 133.852895 121.370091 
L 136.581085 147.309098 
L 139.309274 116.209634 
L 142.037464 117.277274 
L 144.765653 135.427352 
L 147.493843 124.96261 
L 150.222032 133.321069 
L 152.950222 108.772263 
L 155.678411 133.610952 
L 158.4066 139.654206 
L 161.13479 108.062928 
L 163.862979 114.81522 
L 166.591169 151.97209 
L 169.319358 134.786473 
L 172.047548 109.489591 
L 174.775737 133.340026 
L 177.503927 125.423313 
L 180.232116 109.13534 
L 182.960306 113.820547 
L 185.688495 115.017996 
L 188.416684 119.967489 
L 191.144874 107.785192 
L 193.873063 113.888573 
L 196.601253 115.361351 
L 199.329442 109.311466 
L 202.057632 105.551201 
L 204.785821 121.823285 
L 207.514011 120.369473 
L 210.2422 109.022797 
L 212.97039 113.65306 
L 215.698579 119.972098 
L 218.426769 125.996716 
L 221.154958 110.125223 
L 223.883147 105.376575 
L 226.611337 120.915137 
L 229.339526 139.218266 
L 232.067716 113.69854 
L 234.795905 107.373081 
L 237.524095 132.216164 
L 240.252284 117.796473 
L 242.980474 105.753487 
L 245.708663 108.03865 
L 248.436853 118.378222 
L 251.165042 115.337166 
L 253.893231 101.866202 
L 256.621421 100.78266 
L 259.34961 112.604762 
L 262.0778 117.093796 
L 264.805989 108.246492 
L 267.534179 107.432639 
L 270.262368 98.458076 
L 272.990558 103.425084 
L 275.718747 106.248475 
L 278.446937 111.609034 
L 281.175126 103.10047 
L 283.903316 104.256037 
L 286.631505 107.166729 
L 289.359694 108.643505 
L 292.087884 104.874898 
L 294.816073 114.645425 
L 297.544263 119.335484 
L 300.272452 139.757309 
L 303.000642 113.557138 
L 305.728831 110.03402 
L 308.457021 113.88323 
L 311.18521 106.799268 
L 313.9134 123.211173 
L 316.641589 162.661915 
L 319.369778 110.998594 
L 322.097968 109.309623 
L 324.826157 113.491347 
L 327.554347 111.479364 
L 330.282536 102.874532 
L 333.010726 110.952602 
L 335.738915 118.441475 
L 338.467105 106.666455 
L 341.195294 112.553531 
L 343.923484 109.628422 
L 346.651673 103.02407 
L 349.379862 132.874261 
L 352.108052 117.002639 
L 354.836241 100.56115 
L 357.564431 108.854372 
L 360.29262 146.900565 
L 363.02081 98.136284 
L 365.748999 112.96493 
L 368.477189 96.959007 
L 371.205378 96.807505 
L 373.933568 112.84176 
L 376.661757 91.985634 
L 379.389947 150.969909 
L 382.118136 109.046661 
L 384.846325 95.645463 
L 387.574515 113.311235 
L 390.302704 103.859055 
L 393.030894 109.086267 
L 395.759083 107.972433 
L 398.487273 98.397502 
" style="fill:none;stroke:#008000;stroke-linecap:square;stroke-width:1.5;"/>
   </g>
   <g id="patch_3">
    <path d="M 57.6 307.584 
L 57.6 41.472 
" style="fill:none;stroke:#000000;stroke-linecap:square;stroke-linejoin:miter;stroke-width:0.8;"/>
   </g>
   <g id="patch_4">
    <path d="M 414.72 307.584 
L 414.72 41.472 
" style="fill:none;stroke:#000000;stroke-linecap:square;stroke-linejoin:miter;stroke-width:0.8;"/>
   </g>
   <g id="patch_5">
    <path d="M 57.6 307.584 
L 414.72 307.584 
" style="fill:none;stroke:#000000;stroke-linecap:square;stroke-linejoin:miter;stroke-width:0.8;"/>
   </g>
   <g id="patch_6">
    <path d="M 57.6 41.472 
L 414.72 41.472 
" style="fill:none;stroke:#000000;stroke-linecap:square;stroke-linejoin:miter;stroke-width:0.8;"/>
   </g>
   <g id="legend_1">
    <g id="patch_7">
     <path d="M 338.502813 63.611063 
L 407.72 63.611063 
Q 409.72 63.611063 409.72 61.611063 
L 409.72 48.472 
Q 409.72 46.472 407.72 46.472 
L 338.502813 46.472 
Q 336.502813 46.472 336.502813 48.472 
L 336.502813 61.611063 
Q 336.502813 63.611063 338.502813 63.611063 
z
" style="fill:#ffffff;opacity:0.8;stroke:#cccccc;stroke-linejoin:miter;"/>
    </g>
    <g id="line2d_18">
     <path d="M 340.502813 53.972 
L 360.502813 53.972 
" style="fill:none;stroke:#008000;stroke-linecap:square;stroke-width:1.5;"/>
    </g>
    <g id="line2d_19"/>
    <g id="text_17">
     <!-- VD3QN- -->
     <g transform="translate(368.502813 57.472)scale(0.1 -0.1)">
      <defs>
       <path d="M 4544 4238 
L 4544 4122 
Q 4319 4081 4203 3978 
Q 4038 3825 3909 3509 
L 2431 -97 
L 2316 -97 
L 728 3556 
Q 606 3838 556 3900 
Q 478 3997 364 4051 
Q 250 4106 56 4122 
L 56 4238 
L 1788 4238 
L 1788 4122 
Q 1494 4094 1406 4022 
Q 1319 3950 1319 3838 
Q 1319 3681 1463 3350 
L 2541 866 
L 3541 3319 
Q 3688 3681 3688 3822 
Q 3688 3913 3597 3995 
Q 3506 4078 3291 4113 
Q 3275 4116 3238 4122 
L 3238 4238 
L 4544 4238 
z
" id="TimesNewRomanPSMT-56" transform="scale(0.015625)"/>
       <path d="M 109 0 
L 109 116 
L 269 116 
Q 538 116 650 288 
Q 719 391 719 750 
L 719 3488 
Q 719 3884 631 3984 
Q 509 4122 269 4122 
L 109 4122 
L 109 4238 
L 1834 4238 
Q 2784 4238 3279 4022 
Q 3775 3806 4076 3303 
Q 4378 2800 4378 2141 
Q 4378 1256 3841 663 
Q 3238 0 2003 0 
L 109 0 
z
M 1319 306 
Q 1716 219 1984 219 
Q 2709 219 3187 728 
Q 3666 1238 3666 2109 
Q 3666 2988 3187 3494 
Q 2709 4000 1959 4000 
Q 1678 4000 1319 3909 
L 1319 306 
z
" id="TimesNewRomanPSMT-44" transform="scale(0.015625)"/>
       <path d="M 325 3431 
Q 506 3859 782 4092 
Q 1059 4325 1472 4325 
Q 1981 4325 2253 3994 
Q 2459 3747 2459 3466 
Q 2459 3003 1878 2509 
Q 2269 2356 2469 2072 
Q 2669 1788 2669 1403 
Q 2669 853 2319 450 
Q 1863 -75 997 -75 
Q 569 -75 414 31 
Q 259 138 259 259 
Q 259 350 332 419 
Q 406 488 509 488 
Q 588 488 669 463 
Q 722 447 909 348 
Q 1097 250 1169 231 
Q 1284 197 1416 197 
Q 1734 197 1970 444 
Q 2206 691 2206 1028 
Q 2206 1275 2097 1509 
Q 2016 1684 1919 1775 
Q 1784 1900 1550 2001 
Q 1316 2103 1072 2103 
L 972 2103 
L 972 2197 
Q 1219 2228 1467 2375 
Q 1716 2522 1828 2728 
Q 1941 2934 1941 3181 
Q 1941 3503 1739 3701 
Q 1538 3900 1238 3900 
Q 753 3900 428 3381 
L 325 3431 
z
" id="TimesNewRomanPSMT-33" transform="scale(0.015625)"/>
       <path d="M 2819 -47 
Q 3138 -597 3508 -856 
Q 3878 -1116 4350 -1153 
L 4350 -1253 
Q 3919 -1238 3428 -1080 
Q 2938 -922 2498 -642 
Q 2059 -363 1741 -47 
Q 1291 134 1028 338 
Q 647 641 436 1083 
Q 225 1525 225 2128 
Q 225 3078 840 3706 
Q 1456 4334 2331 4334 
Q 3163 4334 3770 3704 
Q 4378 3075 4378 2116 
Q 4378 1338 3945 750 
Q 3513 163 2819 -47 
z
M 2294 4094 
Q 1725 4094 1378 3688 
Q 941 3178 941 2128 
Q 941 1100 1384 544 
Q 1728 116 2294 116 
Q 2881 116 3241 544 
Q 3663 1050 3663 2038 
Q 3663 2797 3431 3316 
Q 3253 3716 2958 3905 
Q 2663 4094 2294 4094 
z
" id="TimesNewRomanPSMT-51" transform="scale(0.015625)"/>
       <path d="M -84 4238 
L 1066 4238 
L 3656 1059 
L 3656 3503 
Q 3656 3894 3569 3991 
Q 3453 4122 3203 4122 
L 3056 4122 
L 3056 4238 
L 4531 4238 
L 4531 4122 
L 4381 4122 
Q 4113 4122 4000 3959 
Q 3931 3859 3931 3503 
L 3931 -69 
L 3819 -69 
L 1025 3344 
L 1025 734 
Q 1025 344 1109 247 
Q 1228 116 1475 116 
L 1625 116 
L 1625 0 
L 150 0 
L 150 116 
L 297 116 
Q 569 116 681 278 
Q 750 378 750 734 
L 750 3681 
Q 566 3897 470 3965 
Q 375 4034 191 4094 
Q 100 4122 -84 4122 
L -84 4238 
z
" id="TimesNewRomanPSMT-4e" transform="scale(0.015625)"/>
       <path d="M 259 1672 
L 1875 1672 
L 1875 1200 
L 259 1200 
L 259 1672 
z
" id="TimesNewRomanPSMT-2d" transform="scale(0.015625)"/>
      </defs>
      <use xlink:href="#TimesNewRomanPSMT-56"/>
      <use x="72.216797" xlink:href="#TimesNewRomanPSMT-44"/>
      <use x="144.433594" xlink:href="#TimesNewRomanPSMT-33"/>
      <use x="194.433594" xlink:href="#TimesNewRomanPSMT-51"/>
      <use x="266.650391" xlink:href="#TimesNewRomanPSMT-4e"/>
      <use x="338.867188" xlink:href="#TimesNewRomanPSMT-2d"/>
     </g>
    </g>
   </g>
  </g>
 </g>
 <defs>
  <clipPath id="p215f1e35a8">
   <rect height="266.112" width="357.12" x="57.6" y="41.472"/>
  </clipPath>
 </defs>
</svg>
