<?xml version="1.0" encoding="utf-8" standalone="no"?>
<!DOCTYPE svg PUBLIC "-//W3C//DTD SVG 1.1//EN"
  "http://www.w3.org/Graphics/SVG/1.1/DTD/svg11.dtd">
<svg height="345.6pt" version="1.1" viewBox="0 0 460.8 345.6" width="460.8pt" xmlns="http://www.w3.org/2000/svg" xmlns:xlink="http://www.w3.org/1999/xlink">
 <metadata>
  <rdf:RDF xmlns:cc="http://creativecommons.org/ns#" xmlns:dc="http://purl.org/dc/elements/1.1/" xmlns:rdf="http://www.w3.org/1999/02/22-rdf-syntax-ns#">
   <cc:Work>
    <dc:type rdf:resource="http://purl.org/dc/dcmitype/StillImage"/>
    <dc:date>2022-01-17T18:42:47.806749</dc:date>
    <dc:format>image/svg+xml</dc:format>
    <dc:creator>
     <cc:Agent>
      <dc:title>Matplotlib v3.4.3, https://matplotlib.org/</dc:title>
     </cc:Agent>
    </dc:creator>
   </cc:Work>
  </rdf:RDF>
 </metadata>
 <defs>
  <style type="text/css">*{stroke-linecap:butt;stroke-linejoin:round;}</style>
 </defs>
 <g id="figure_1">
  <g id="patch_1">
   <path d="M 0 345.6 
L 460.8 345.6 
L 460.8 0 
L 0 0 
z
" style="fill:#ffffff;"/>
  </g>
  <g id="axes_1">
   <g id="patch_2">
    <path d="M 57.6 307.584 
L 414.72 307.584 
L 414.72 41.472 
L 57.6 41.472 
z
" style="fill:#ffffff;"/>
   </g>
   <g id="PolyCollection_1">
    <defs>
     <path d="M 73.832727 -50.499661 
L 73.832727 -224.333346 
L 76.560917 -218.775231 
L 79.289106 -238.012069 
L 82.017296 -215.373971 
L 84.745485 -219.530428 
L 87.473675 -228.734021 
L 90.201864 -243.395309 
L 92.930053 -257.672604 
L 95.658243 -274.541777 
L 98.386432 -256.25841 
L 101.114622 -253.314821 
L 103.842811 -259.505166 
L 106.571001 -265.759318 
L 109.29919 -263.329934 
L 112.02738 -236.756662 
L 114.755569 -268.094548 
L 117.483759 -268.307459 
L 120.211948 -281.274677 
L 122.940138 -262.964615 
L 125.668327 -267.861586 
L 128.396516 -266.166598 
L 131.124706 -261.965425 
L 133.852895 -263.01386 
L 136.581085 -267.138286 
L 139.309274 -272.284623 
L 142.037464 -266.559181 
L 144.765653 -262.934736 
L 147.493843 -263.77652 
L 150.222032 -265.154374 
L 152.950222 -266.329942 
L 155.678411 -263.147972 
L 158.4066 -263.90304 
L 161.13479 -267.137379 
L 163.862979 -265.48264 
L 166.591169 -261.424476 
L 169.319358 -263.58265 
L 172.047548 -267.692089 
L 174.775737 -262.924255 
L 177.503927 -261.67859 
L 180.232116 -262.996859 
L 182.960306 -263.659816 
L 185.688495 -267.822473 
L 188.416684 -266.48509 
L 191.144874 -264.457925 
L 193.873063 -263.090282 
L 196.601253 -263.406679 
L 199.329442 -264.120627 
L 202.057632 -265.269423 
L 204.785821 -264.053825 
L 207.514011 -267.33658 
L 210.2422 -260.675339 
L 212.97039 -263.879201 
L 215.698579 -268.42358 
L 218.426769 -264.885424 
L 221.154958 -266.339991 
L 223.883147 -260.586264 
L 226.611337 -266.231954 
L 229.339526 -266.537911 
L 232.067716 -263.289149 
L 234.795905 -264.024474 
L 237.524095 -263.050357 
L 240.252284 -262.190228 
L 242.980474 -265.510232 
L 245.708663 -264.633994 
L 248.436853 -264.736925 
L 251.165042 -265.296942 
L 253.893231 -264.528635 
L 256.621421 -264.276044 
L 259.34961 -264.8799 
L 262.0778 -261.123479 
L 264.805989 -263.531809 
L 267.534179 -263.51276 
L 270.262368 -263.41048 
L 272.990558 -265.337638 
L 275.718747 -264.204999 
L 278.446937 -264.865193 
L 281.175126 -263.585494 
L 283.903316 -263.745255 
L 286.631505 -263.759829 
L 289.359694 -264.186709 
L 292.087884 -269.018117 
L 294.816073 -264.167401 
L 297.544263 -262.926304 
L 300.272452 -264.722811 
L 303.000642 -264.91919 
L 305.728831 -265.861139 
L 308.457021 -264.29587 
L 311.18521 -264.12445 
L 313.9134 -264.759078 
L 316.641589 -264.72898 
L 319.369778 -264.275893 
L 322.097968 -263.394083 
L 324.826157 -264.666848 
L 327.554347 -264.903708 
L 330.282536 -264.577437 
L 333.010726 -264.270346 
L 335.738915 -264.631721 
L 338.467105 -264.667578 
L 341.195294 -264.628328 
L 343.923484 -264.256477 
L 346.651673 -264.424937 
L 349.379862 -263.951807 
L 352.108052 -264.009582 
L 354.836241 -263.99423 
L 357.564431 -264.535485 
L 360.29262 -263.571139 
L 363.02081 -264.692232 
L 365.748999 -264.599166 
L 368.477189 -264.953099 
L 371.205378 -264.485204 
L 373.933568 -264.537891 
L 376.661757 -297.487999 
L 379.389947 -263.946069 
L 382.118136 -264.983219 
L 384.846325 -264.863672 
L 387.574515 -264.383282 
L 390.302704 -264.614605 
L 393.030894 -264.832741 
L 395.759083 -265.104049 
L 398.487273 -265.60786 
L 398.487273 -261.641233 
L 398.487273 -261.641233 
L 395.759083 -262.409418 
L 393.030894 -262.05359 
L 390.302704 -262.793858 
L 387.574515 -263.052768 
L 384.846325 -261.278092 
L 382.118136 -262.760291 
L 379.389947 -261.411271 
L 376.661757 -158.964442 
L 373.933568 -258.265739 
L 371.205378 -262.472532 
L 368.477189 -261.453668 
L 365.748999 -259.232446 
L 363.02081 -261.212408 
L 360.29262 -259.336434 
L 357.564431 -259.865618 
L 354.836241 -262.340561 
L 352.108052 -261.831871 
L 349.379862 -261.094235 
L 346.651673 -262.825805 
L 343.923484 -262.774609 
L 341.195294 -262.24962 
L 338.467105 -263.253781 
L 335.738915 -263.06359 
L 333.010726 -261.944786 
L 330.282536 -258.877283 
L 327.554347 -261.13606 
L 324.826157 -262.594434 
L 322.097968 -258.374644 
L 319.369778 -261.157363 
L 316.641589 -257.244397 
L 313.9134 -262.974719 
L 311.18521 -259.537854 
L 308.457021 -260.221543 
L 305.728831 -258.78231 
L 303.000642 -262.074473 
L 300.272452 -261.099281 
L 297.544263 -259.358673 
L 294.816073 -262.062176 
L 292.087884 -243.746803 
L 289.359694 -262.088382 
L 286.631505 -261.77201 
L 283.903316 -258.38566 
L 281.175126 -258.395334 
L 278.446937 -262.242952 
L 275.718747 -253.896352 
L 272.990558 -256.077013 
L 270.262368 -261.468116 
L 267.534179 -262.211547 
L 264.805989 -254.487066 
L 262.0778 -252.405757 
L 259.34961 -257.95245 
L 256.621421 -262.653532 
L 253.893231 -261.598171 
L 251.165042 -254.846293 
L 248.436853 -259.648578 
L 245.708663 -258.333898 
L 242.980474 -251.1743 
L 240.252284 -252.333407 
L 237.524095 -250.137365 
L 234.795905 -259.476198 
L 232.067716 -257.141458 
L 229.339526 -244.458725 
L 226.611337 -252.0376 
L 223.883147 -254.318073 
L 221.154958 -244.793905 
L 218.426769 -256.840879 
L 215.698579 -245.463962 
L 212.97039 -257.396706 
L 210.2422 -250.20048 
L 207.514011 -242.405293 
L 204.785821 -258.415613 
L 202.057632 -260.234689 
L 199.329442 -256.4821 
L 196.601253 -256.837003 
L 193.873063 -257.746823 
L 191.144874 -260.60906 
L 188.416684 -249.196716 
L 185.688495 -249.468715 
L 182.960306 -258.394114 
L 180.232116 -260.114404 
L 177.503927 -243.136378 
L 174.775737 -229.48265 
L 172.047548 -235.165307 
L 169.319358 -249.925456 
L 166.591169 -259.017353 
L 163.862979 -244.685277 
L 161.13479 -244.569347 
L 158.4066 -249.240786 
L 155.678411 -225.787059 
L 152.950222 -231.253194 
L 150.222032 -229.597784 
L 147.493843 -230.05987 
L 144.765653 -225.571657 
L 142.037464 -248.552779 
L 139.309274 -239.473995 
L 136.581085 -238.327591 
L 133.852895 -225.290437 
L 131.124706 -225.581995 
L 128.396516 -241.314841 
L 125.668327 -227.461885 
L 122.940138 -251.412487 
L 120.211948 -155.025925 
L 117.483759 -247.424782 
L 114.755569 -247.362603 
L 112.02738 -208.562922 
L 109.29919 -235.460577 
L 106.571001 -206.64301 
L 103.842811 -233.000529 
L 101.114622 -213.351337 
L 98.386432 -227.785957 
L 95.658243 -114.757215 
L 92.930053 -223.792065 
L 90.201864 -200.052831 
L 87.473675 -169.222826 
L 84.745485 -171.781263 
L 82.017296 -140.493419 
L 79.289106 -67.501695 
L 76.560917 -126.693289 
L 73.832727 -50.499661 
z
" id="m167031bdfd" style="stroke:#4682b4;stroke-opacity:0.1;"/>
    </defs>
    <g clip-path="url(#p0e52e4199f)">
     <use style="fill:#4682b4;fill-opacity:0.1;stroke:#4682b4;stroke-opacity:0.1;" x="0" xlink:href="#m167031bdfd" y="345.6"/>
    </g>
   </g>
   <g id="matplotlib.axis_1">
    <g id="xtick_1">
     <g id="line2d_1">
      <defs>
       <path d="M 0 0 
L 0 3.5 
" id="m862073c1c3" style="stroke:#000000;stroke-width:0.8;"/>
      </defs>
      <g>
       <use style="stroke:#000000;stroke-width:0.8;" x="71.104538" xlink:href="#m862073c1c3" y="307.584"/>
      </g>
     </g>
     <g id="text_1">
      <!-- 0 -->
      <g transform="translate(68.604538 321.52775)scale(0.1 -0.1)">
       <defs>
        <path d="M 231 2094 
Q 231 2819 450 3342 
Q 669 3866 1031 4122 
Q 1313 4325 1613 4325 
Q 2100 4325 2488 3828 
Q 2972 3213 2972 2159 
Q 2972 1422 2759 906 
Q 2547 391 2217 158 
Q 1888 -75 1581 -75 
Q 975 -75 572 641 
Q 231 1244 231 2094 
z
M 844 2016 
Q 844 1141 1059 588 
Q 1238 122 1591 122 
Q 1759 122 1940 273 
Q 2122 425 2216 781 
Q 2359 1319 2359 2297 
Q 2359 3022 2209 3506 
Q 2097 3866 1919 4016 
Q 1791 4119 1609 4119 
Q 1397 4119 1231 3928 
Q 1006 3669 925 3112 
Q 844 2556 844 2016 
z
" id="TimesNewRomanPSMT-30" transform="scale(0.015625)"/>
       </defs>
       <use xlink:href="#TimesNewRomanPSMT-30"/>
      </g>
     </g>
    </g>
    <g id="xtick_2">
     <g id="line2d_2">
      <g>
       <use style="stroke:#000000;stroke-width:0.8;" x="125.668327" xlink:href="#m862073c1c3" y="307.584"/>
      </g>
     </g>
     <g id="text_2">
      <!-- 20 -->
      <g transform="translate(120.668327 321.52775)scale(0.1 -0.1)">
       <defs>
        <path d="M 2934 816 
L 2638 0 
L 138 0 
L 138 116 
Q 1241 1122 1691 1759 
Q 2141 2397 2141 2925 
Q 2141 3328 1894 3587 
Q 1647 3847 1303 3847 
Q 991 3847 742 3664 
Q 494 3481 375 3128 
L 259 3128 
Q 338 3706 661 4015 
Q 984 4325 1469 4325 
Q 1984 4325 2329 3994 
Q 2675 3663 2675 3213 
Q 2675 2891 2525 2569 
Q 2294 2063 1775 1497 
Q 997 647 803 472 
L 1909 472 
Q 2247 472 2383 497 
Q 2519 522 2628 598 
Q 2738 675 2819 816 
L 2934 816 
z
" id="TimesNewRomanPSMT-32" transform="scale(0.015625)"/>
       </defs>
       <use xlink:href="#TimesNewRomanPSMT-32"/>
       <use x="50" xlink:href="#TimesNewRomanPSMT-30"/>
      </g>
     </g>
    </g>
    <g id="xtick_3">
     <g id="line2d_3">
      <g>
       <use style="stroke:#000000;stroke-width:0.8;" x="180.232116" xlink:href="#m862073c1c3" y="307.584"/>
      </g>
     </g>
     <g id="text_3">
      <!-- 40 -->
      <g transform="translate(175.232116 321.52775)scale(0.1 -0.1)">
       <defs>
        <path d="M 2978 1563 
L 2978 1119 
L 2409 1119 
L 2409 0 
L 1894 0 
L 1894 1119 
L 100 1119 
L 100 1519 
L 2066 4325 
L 2409 4325 
L 2409 1563 
L 2978 1563 
z
M 1894 1563 
L 1894 3666 
L 406 1563 
L 1894 1563 
z
" id="TimesNewRomanPSMT-34" transform="scale(0.015625)"/>
       </defs>
       <use xlink:href="#TimesNewRomanPSMT-34"/>
       <use x="50" xlink:href="#TimesNewRomanPSMT-30"/>
      </g>
     </g>
    </g>
    <g id="xtick_4">
     <g id="line2d_4">
      <g>
       <use style="stroke:#000000;stroke-width:0.8;" x="234.795905" xlink:href="#m862073c1c3" y="307.584"/>
      </g>
     </g>
     <g id="text_4">
      <!-- 60 -->
      <g transform="translate(229.795905 321.52775)scale(0.1 -0.1)">
       <defs>
        <path d="M 2869 4325 
L 2869 4209 
Q 2456 4169 2195 4045 
Q 1934 3922 1679 3669 
Q 1425 3416 1258 3105 
Q 1091 2794 978 2366 
Q 1428 2675 1881 2675 
Q 2316 2675 2634 2325 
Q 2953 1975 2953 1425 
Q 2953 894 2631 456 
Q 2244 -75 1606 -75 
Q 1172 -75 869 213 
Q 275 772 275 1663 
Q 275 2231 503 2743 
Q 731 3256 1154 3653 
Q 1578 4050 1965 4187 
Q 2353 4325 2688 4325 
L 2869 4325 
z
M 925 2138 
Q 869 1716 869 1456 
Q 869 1156 980 804 
Q 1091 453 1309 247 
Q 1469 100 1697 100 
Q 1969 100 2183 356 
Q 2397 613 2397 1088 
Q 2397 1622 2184 2012 
Q 1972 2403 1581 2403 
Q 1463 2403 1327 2353 
Q 1191 2303 925 2138 
z
" id="TimesNewRomanPSMT-36" transform="scale(0.015625)"/>
       </defs>
       <use xlink:href="#TimesNewRomanPSMT-36"/>
       <use x="50" xlink:href="#TimesNewRomanPSMT-30"/>
      </g>
     </g>
    </g>
    <g id="xtick_5">
     <g id="line2d_5">
      <g>
       <use style="stroke:#000000;stroke-width:0.8;" x="289.359694" xlink:href="#m862073c1c3" y="307.584"/>
      </g>
     </g>
     <g id="text_5">
      <!-- 80 -->
      <g transform="translate(284.359694 321.52775)scale(0.1 -0.1)">
       <defs>
        <path d="M 1228 2134 
Q 725 2547 579 2797 
Q 434 3047 434 3316 
Q 434 3728 753 4026 
Q 1072 4325 1600 4325 
Q 2113 4325 2425 4047 
Q 2738 3769 2738 3413 
Q 2738 3175 2569 2928 
Q 2400 2681 1866 2347 
Q 2416 1922 2594 1678 
Q 2831 1359 2831 1006 
Q 2831 559 2490 242 
Q 2150 -75 1597 -75 
Q 994 -75 656 303 
Q 388 606 388 966 
Q 388 1247 577 1523 
Q 766 1800 1228 2134 
z
M 1719 2469 
Q 2094 2806 2194 3001 
Q 2294 3197 2294 3444 
Q 2294 3772 2109 3958 
Q 1925 4144 1606 4144 
Q 1288 4144 1088 3959 
Q 888 3775 888 3528 
Q 888 3366 970 3203 
Q 1053 3041 1206 2894 
L 1719 2469 
z
M 1375 2016 
Q 1116 1797 991 1539 
Q 866 1281 866 981 
Q 866 578 1086 336 
Q 1306 94 1647 94 
Q 1984 94 2187 284 
Q 2391 475 2391 747 
Q 2391 972 2272 1150 
Q 2050 1481 1375 2016 
z
" id="TimesNewRomanPSMT-38" transform="scale(0.015625)"/>
       </defs>
       <use xlink:href="#TimesNewRomanPSMT-38"/>
       <use x="50" xlink:href="#TimesNewRomanPSMT-30"/>
      </g>
     </g>
    </g>
    <g id="xtick_6">
     <g id="line2d_6">
      <g>
       <use style="stroke:#000000;stroke-width:0.8;" x="343.923484" xlink:href="#m862073c1c3" y="307.584"/>
      </g>
     </g>
     <g id="text_6">
      <!-- 100 -->
      <g transform="translate(336.423484 321.52775)scale(0.1 -0.1)">
       <defs>
        <path d="M 750 3822 
L 1781 4325 
L 1884 4325 
L 1884 747 
Q 1884 391 1914 303 
Q 1944 216 2037 169 
Q 2131 122 2419 116 
L 2419 0 
L 825 0 
L 825 116 
Q 1125 122 1212 167 
Q 1300 213 1334 289 
Q 1369 366 1369 747 
L 1369 3034 
Q 1369 3497 1338 3628 
Q 1316 3728 1258 3775 
Q 1200 3822 1119 3822 
Q 1003 3822 797 3725 
L 750 3822 
z
" id="TimesNewRomanPSMT-31" transform="scale(0.015625)"/>
       </defs>
       <use xlink:href="#TimesNewRomanPSMT-31"/>
       <use x="50" xlink:href="#TimesNewRomanPSMT-30"/>
       <use x="100" xlink:href="#TimesNewRomanPSMT-30"/>
      </g>
     </g>
    </g>
    <g id="xtick_7">
     <g id="line2d_7">
      <g>
       <use style="stroke:#000000;stroke-width:0.8;" x="398.487273" xlink:href="#m862073c1c3" y="307.584"/>
      </g>
     </g>
     <g id="text_7">
      <!-- 120 -->
      <g transform="translate(390.987273 321.52775)scale(0.1 -0.1)">
       <use xlink:href="#TimesNewRomanPSMT-31"/>
       <use x="50" xlink:href="#TimesNewRomanPSMT-32"/>
       <use x="100" xlink:href="#TimesNewRomanPSMT-30"/>
      </g>
     </g>
    </g>
   </g>
   <g id="matplotlib.axis_2">
    <g id="ytick_1">
     <g id="line2d_8">
      <defs>
       <path d="M 0 0 
L -3.5 0 
" id="m0099982af1" style="stroke:#000000;stroke-width:0.8;"/>
      </defs>
      <g>
       <use style="stroke:#000000;stroke-width:0.8;" x="57.6" xlink:href="#m0099982af1" y="307.584"/>
      </g>
     </g>
     <g id="text_8">
      <!-- −25 -->
      <g transform="translate(34.960938 311.055875)scale(0.1 -0.1)">
       <defs>
        <path d="M 3484 2000 
L 116 2000 
L 116 2256 
L 3484 2256 
L 3484 2000 
z
" id="TimesNewRomanPSMT-2212" transform="scale(0.015625)"/>
        <path d="M 2778 4238 
L 2534 3706 
L 1259 3706 
L 981 3138 
Q 1809 3016 2294 2522 
Q 2709 2097 2709 1522 
Q 2709 1188 2573 903 
Q 2438 619 2231 419 
Q 2025 219 1772 97 
Q 1413 -75 1034 -75 
Q 653 -75 479 54 
Q 306 184 306 341 
Q 306 428 378 495 
Q 450 563 559 563 
Q 641 563 702 538 
Q 763 513 909 409 
Q 1144 247 1384 247 
Q 1750 247 2026 523 
Q 2303 800 2303 1197 
Q 2303 1581 2056 1914 
Q 1809 2247 1375 2428 
Q 1034 2569 447 2591 
L 1259 4238 
L 2778 4238 
z
" id="TimesNewRomanPSMT-35" transform="scale(0.015625)"/>
       </defs>
       <use xlink:href="#TimesNewRomanPSMT-2212"/>
       <use x="56.396484" xlink:href="#TimesNewRomanPSMT-32"/>
       <use x="106.396484" xlink:href="#TimesNewRomanPSMT-35"/>
      </g>
     </g>
    </g>
    <g id="ytick_2">
     <g id="line2d_9">
      <g>
       <use style="stroke:#000000;stroke-width:0.8;" x="57.6" xlink:href="#m0099982af1" y="274.32"/>
      </g>
     </g>
     <g id="text_9">
      <!-- −20 -->
      <g transform="translate(34.960938 277.791875)scale(0.1 -0.1)">
       <use xlink:href="#TimesNewRomanPSMT-2212"/>
       <use x="56.396484" xlink:href="#TimesNewRomanPSMT-32"/>
       <use x="106.396484" xlink:href="#TimesNewRomanPSMT-30"/>
      </g>
     </g>
    </g>
    <g id="ytick_3">
     <g id="line2d_10">
      <g>
       <use style="stroke:#000000;stroke-width:0.8;" x="57.6" xlink:href="#m0099982af1" y="241.056"/>
      </g>
     </g>
     <g id="text_10">
      <!-- −15 -->
      <g transform="translate(34.960938 244.527875)scale(0.1 -0.1)">
       <use xlink:href="#TimesNewRomanPSMT-2212"/>
       <use x="56.396484" xlink:href="#TimesNewRomanPSMT-31"/>
       <use x="106.396484" xlink:href="#TimesNewRomanPSMT-35"/>
      </g>
     </g>
    </g>
    <g id="ytick_4">
     <g id="line2d_11">
      <g>
       <use style="stroke:#000000;stroke-width:0.8;" x="57.6" xlink:href="#m0099982af1" y="207.792"/>
      </g>
     </g>
     <g id="text_11">
      <!-- −10 -->
      <g transform="translate(34.960938 211.263875)scale(0.1 -0.1)">
       <use xlink:href="#TimesNewRomanPSMT-2212"/>
       <use x="56.396484" xlink:href="#TimesNewRomanPSMT-31"/>
       <use x="106.396484" xlink:href="#TimesNewRomanPSMT-30"/>
      </g>
     </g>
    </g>
    <g id="ytick_5">
     <g id="line2d_12">
      <g>
       <use style="stroke:#000000;stroke-width:0.8;" x="57.6" xlink:href="#m0099982af1" y="174.528"/>
      </g>
     </g>
     <g id="text_12">
      <!-- −5 -->
      <g transform="translate(39.960938 177.999875)scale(0.1 -0.1)">
       <use xlink:href="#TimesNewRomanPSMT-2212"/>
       <use x="56.396484" xlink:href="#TimesNewRomanPSMT-35"/>
      </g>
     </g>
    </g>
    <g id="ytick_6">
     <g id="line2d_13">
      <g>
       <use style="stroke:#000000;stroke-width:0.8;" x="57.6" xlink:href="#m0099982af1" y="141.264"/>
      </g>
     </g>
     <g id="text_13">
      <!-- 0 -->
      <g transform="translate(45.6 144.735875)scale(0.1 -0.1)">
       <use xlink:href="#TimesNewRomanPSMT-30"/>
      </g>
     </g>
    </g>
    <g id="ytick_7">
     <g id="line2d_14">
      <g>
       <use style="stroke:#000000;stroke-width:0.8;" x="57.6" xlink:href="#m0099982af1" y="108"/>
      </g>
     </g>
     <g id="text_14">
      <!-- 5 -->
      <g transform="translate(45.6 111.471875)scale(0.1 -0.1)">
       <use xlink:href="#TimesNewRomanPSMT-35"/>
      </g>
     </g>
    </g>
    <g id="ytick_8">
     <g id="line2d_15">
      <g>
       <use style="stroke:#000000;stroke-width:0.8;" x="57.6" xlink:href="#m0099982af1" y="74.736"/>
      </g>
     </g>
     <g id="text_15">
      <!-- 10 -->
      <g transform="translate(40.6 78.207875)scale(0.1 -0.1)">
       <use xlink:href="#TimesNewRomanPSMT-31"/>
       <use x="50" xlink:href="#TimesNewRomanPSMT-30"/>
      </g>
     </g>
    </g>
    <g id="ytick_9">
     <g id="line2d_16">
      <g>
       <use style="stroke:#000000;stroke-width:0.8;" x="57.6" xlink:href="#m0099982af1" y="41.472"/>
      </g>
     </g>
     <g id="text_16">
      <!-- 15 -->
      <g transform="translate(40.6 44.943875)scale(0.1 -0.1)">
       <use xlink:href="#TimesNewRomanPSMT-31"/>
       <use x="50" xlink:href="#TimesNewRomanPSMT-35"/>
      </g>
     </g>
    </g>
   </g>
   <g id="line2d_17">
    <path clip-path="url(#p0e52e4199f)" d="M 73.832727 208.183497 
L 76.560917 172.86574 
L 79.289106 192.843118 
L 82.017296 167.666305 
L 84.745485 149.944154 
L 87.473675 146.621577 
L 90.201864 123.87593 
L 92.930053 104.867666 
L 95.658243 150.950504 
L 98.386432 103.577816 
L 101.114622 112.266921 
L 103.842811 99.347153 
L 106.571001 109.398836 
L 109.29919 96.204744 
L 112.02738 122.940208 
L 114.755569 87.871424 
L 117.483759 87.73388 
L 120.211948 127.449699 
L 122.940138 88.411449 
L 125.668327 97.938264 
L 128.396516 91.85928 
L 131.124706 101.82629 
L 133.852895 101.447852 
L 136.581085 92.867062 
L 139.309274 89.720691 
L 142.037464 88.04402 
L 144.765653 101.346803 
L 147.493843 98.681805 
L 150.222032 98.223921 
L 152.950222 96.808432 
L 155.678411 101.132484 
L 158.4066 89.028087 
L 161.13479 89.746637 
L 163.862979 90.516041 
L 166.591169 85.379085 
L 169.319358 88.845947 
L 172.047548 94.171302 
L 174.775737 99.396548 
L 177.503927 93.192516 
L 180.232116 84.044368 
L 182.960306 84.573035 
L 185.688495 86.954406 
L 188.416684 87.759097 
L 191.144874 83.066508 
L 193.873063 85.181448 
L 196.601253 85.478159 
L 199.329442 85.298637 
L 202.057632 82.847944 
L 204.785821 84.365281 
L 207.514011 90.729063 
L 210.2422 90.162091 
L 212.97039 84.962046 
L 215.698579 88.656229 
L 218.426769 84.736848 
L 221.154958 90.033052 
L 223.883147 88.147832 
L 226.611337 86.465223 
L 229.339526 90.101682 
L 232.067716 85.384697 
L 234.795905 83.849664 
L 237.524095 89.006139 
L 240.252284 88.338182 
L 242.980474 87.257734 
L 245.708663 84.116054 
L 248.436853 83.407248 
L 251.165042 85.528383 
L 253.893231 82.536597 
L 256.621421 82.135212 
L 259.34961 84.183825 
L 262.0778 88.835382 
L 264.805989 86.590562 
L 267.534179 82.737847 
L 270.262368 83.160702 
L 272.990558 84.892674 
L 275.718747 86.549324 
L 278.446937 82.045927 
L 281.175126 84.609586 
L 283.903316 84.534542 
L 286.631505 82.834081 
L 289.359694 82.462454 
L 292.087884 89.21754 
L 294.816073 82.485211 
L 297.544263 84.457511 
L 300.272452 82.688954 
L 303.000642 82.103168 
L 305.728831 83.278275 
L 308.457021 83.341294 
L 311.18521 83.768848 
L 313.9134 81.733101 
L 316.641589 84.613311 
L 319.369778 82.883372 
L 322.097968 84.715637 
L 324.826157 81.969359 
L 327.554347 82.580116 
L 330.282536 83.87264 
L 333.010726 82.492434 
L 335.738915 81.752345 
L 338.467105 81.639321 
L 341.195294 82.161026 
L 343.923484 82.084457 
L 346.651673 81.974629 
L 349.379862 83.076979 
L 352.108052 82.679274 
L 354.836241 82.432604 
L 357.564431 83.399448 
L 360.29262 84.146213 
L 363.02081 82.64768 
L 365.748999 83.684194 
L 368.477189 82.396616 
L 371.205378 82.121132 
L 373.933568 84.198185 
L 376.661757 117.373779 
L 379.389947 82.92133 
L 382.118136 81.728245 
L 384.846325 82.529118 
L 387.574515 81.881975 
L 390.302704 81.895768 
L 393.030894 82.156835 
L 395.759083 81.843267 
L 398.487273 81.975454 
" style="fill:none;stroke:#4682b4;stroke-linecap:square;stroke-width:1.5;"/>
   </g>
   <g id="patch_3">
    <path d="M 57.6 307.584 
L 57.6 41.472 
" style="fill:none;stroke:#000000;stroke-linecap:square;stroke-linejoin:miter;stroke-width:0.8;"/>
   </g>
   <g id="patch_4">
    <path d="M 414.72 307.584 
L 414.72 41.472 
" style="fill:none;stroke:#000000;stroke-linecap:square;stroke-linejoin:miter;stroke-width:0.8;"/>
   </g>
   <g id="patch_5">
    <path d="M 57.6 307.584 
L 414.72 307.584 
" style="fill:none;stroke:#000000;stroke-linecap:square;stroke-linejoin:miter;stroke-width:0.8;"/>
   </g>
   <g id="patch_6">
    <path d="M 57.6 41.472 
L 414.72 41.472 
" style="fill:none;stroke:#000000;stroke-linecap:square;stroke-linejoin:miter;stroke-width:0.8;"/>
   </g>
   <g id="legend_1">
    <g id="patch_7">
     <path d="M 349.054375 63.611063 
L 407.72 63.611063 
Q 409.72 63.611063 409.72 61.611063 
L 409.72 48.472 
Q 409.72 46.472 407.72 46.472 
L 349.054375 46.472 
Q 347.054375 46.472 347.054375 48.472 
L 347.054375 61.611063 
Q 347.054375 63.611063 349.054375 63.611063 
z
" style="fill:#ffffff;opacity:0.8;stroke:#cccccc;stroke-linejoin:miter;"/>
    </g>
    <g id="line2d_18">
     <path d="M 351.054375 53.972 
L 371.054375 53.972 
" style="fill:none;stroke:#4682b4;stroke-linecap:square;stroke-width:1.5;"/>
    </g>
    <g id="line2d_19"/>
    <g id="text_17">
     <!-- D3QN -->
     <g transform="translate(379.054375 57.472)scale(0.1 -0.1)">
      <defs>
       <path d="M 109 0 
L 109 116 
L 269 116 
Q 538 116 650 288 
Q 719 391 719 750 
L 719 3488 
Q 719 3884 631 3984 
Q 509 4122 269 4122 
L 109 4122 
L 109 4238 
L 1834 4238 
Q 2784 4238 3279 4022 
Q 3775 3806 4076 3303 
Q 4378 2800 4378 2141 
Q 4378 1256 3841 663 
Q 3238 0 2003 0 
L 109 0 
z
M 1319 306 
Q 1716 219 1984 219 
Q 2709 219 3187 728 
Q 3666 1238 3666 2109 
Q 3666 2988 3187 3494 
Q 2709 4000 1959 4000 
Q 1678 4000 1319 3909 
L 1319 306 
z
" id="TimesNewRomanPSMT-44" transform="scale(0.015625)"/>
       <path d="M 325 3431 
Q 506 3859 782 4092 
Q 1059 4325 1472 4325 
Q 1981 4325 2253 3994 
Q 2459 3747 2459 3466 
Q 2459 3003 1878 2509 
Q 2269 2356 2469 2072 
Q 2669 1788 2669 1403 
Q 2669 853 2319 450 
Q 1863 -75 997 -75 
Q 569 -75 414 31 
Q 259 138 259 259 
Q 259 350 332 419 
Q 406 488 509 488 
Q 588 488 669 463 
Q 722 447 909 348 
Q 1097 250 1169 231 
Q 1284 197 1416 197 
Q 1734 197 1970 444 
Q 2206 691 2206 1028 
Q 2206 1275 2097 1509 
Q 2016 1684 1919 1775 
Q 1784 1900 1550 2001 
Q 1316 2103 1072 2103 
L 972 2103 
L 972 2197 
Q 1219 2228 1467 2375 
Q 1716 2522 1828 2728 
Q 1941 2934 1941 3181 
Q 1941 3503 1739 3701 
Q 1538 3900 1238 3900 
Q 753 3900 428 3381 
L 325 3431 
z
" id="TimesNewRomanPSMT-33" transform="scale(0.015625)"/>
       <path d="M 2819 -47 
Q 3138 -597 3508 -856 
Q 3878 -1116 4350 -1153 
L 4350 -1253 
Q 3919 -1238 3428 -1080 
Q 2938 -922 2498 -642 
Q 2059 -363 1741 -47 
Q 1291 134 1028 338 
Q 647 641 436 1083 
Q 225 1525 225 2128 
Q 225 3078 840 3706 
Q 1456 4334 2331 4334 
Q 3163 4334 3770 3704 
Q 4378 3075 4378 2116 
Q 4378 1338 3945 750 
Q 3513 163 2819 -47 
z
M 2294 4094 
Q 1725 4094 1378 3688 
Q 941 3178 941 2128 
Q 941 1100 1384 544 
Q 1728 116 2294 116 
Q 2881 116 3241 544 
Q 3663 1050 3663 2038 
Q 3663 2797 3431 3316 
Q 3253 3716 2958 3905 
Q 2663 4094 2294 4094 
z
" id="TimesNewRomanPSMT-51" transform="scale(0.015625)"/>
       <path d="M -84 4238 
L 1066 4238 
L 3656 1059 
L 3656 3503 
Q 3656 3894 3569 3991 
Q 3453 4122 3203 4122 
L 3056 4122 
L 3056 4238 
L 4531 4238 
L 4531 4122 
L 4381 4122 
Q 4113 4122 4000 3959 
Q 3931 3859 3931 3503 
L 3931 -69 
L 3819 -69 
L 1025 3344 
L 1025 734 
Q 1025 344 1109 247 
Q 1228 116 1475 116 
L 1625 116 
L 1625 0 
L 150 0 
L 150 116 
L 297 116 
Q 569 116 681 278 
Q 750 378 750 734 
L 750 3681 
Q 566 3897 470 3965 
Q 375 4034 191 4094 
Q 100 4122 -84 4122 
L -84 4238 
z
" id="TimesNewRomanPSMT-4e" transform="scale(0.015625)"/>
      </defs>
      <use xlink:href="#TimesNewRomanPSMT-44"/>
      <use x="72.216797" xlink:href="#TimesNewRomanPSMT-33"/>
      <use x="122.216797" xlink:href="#TimesNewRomanPSMT-51"/>
      <use x="194.433594" xlink:href="#TimesNewRomanPSMT-4e"/>
     </g>
    </g>
   </g>
  </g>
 </g>
 <defs>
  <clipPath id="p0e52e4199f">
   <rect height="266.112" width="357.12" x="57.6" y="41.472"/>
  </clipPath>
 </defs>
</svg>
