<?xml version="1.0" encoding="utf-8" standalone="no"?>
<!DOCTYPE svg PUBLIC "-//W3C//DTD SVG 1.1//EN"
  "http://www.w3.org/Graphics/SVG/1.1/DTD/svg11.dtd">
<svg height="345.6pt" version="1.1" viewBox="0 0 460.8 345.6" width="460.8pt" xmlns="http://www.w3.org/2000/svg" xmlns:xlink="http://www.w3.org/1999/xlink">
 <metadata>
  <rdf:RDF xmlns:cc="http://creativecommons.org/ns#" xmlns:dc="http://purl.org/dc/elements/1.1/" xmlns:rdf="http://www.w3.org/1999/02/22-rdf-syntax-ns#">
   <cc:Work>
    <dc:type rdf:resource="http://purl.org/dc/dcmitype/StillImage"/>
    <dc:date>2022-01-17T18:42:47.703385</dc:date>
    <dc:format>image/svg+xml</dc:format>
    <dc:creator>
     <cc:Agent>
      <dc:title>Matplotlib v3.4.3, https://matplotlib.org/</dc:title>
     </cc:Agent>
    </dc:creator>
   </cc:Work>
  </rdf:RDF>
 </metadata>
 <defs>
  <style type="text/css">*{stroke-linecap:butt;stroke-linejoin:round;}</style>
 </defs>
 <g id="figure_1">
  <g id="patch_1">
   <path d="M 0 345.6 
L 460.8 345.6 
L 460.8 0 
L 0 0 
z
" style="fill:#ffffff;"/>
  </g>
  <g id="axes_1">
   <g id="patch_2">
    <path d="M 57.6 307.584 
L 414.72 307.584 
L 414.72 41.472 
L 57.6 41.472 
z
" style="fill:#ffffff;"/>
   </g>
   <g id="PolyCollection_1">
    <defs>
     <path d="M 73.832727 -140.835004 
L 73.832727 -215.602318 
L 76.560917 -216.627253 
L 79.289106 -244.714051 
L 82.017296 -243.662573 
L 84.745485 -204.818426 
L 87.473675 -250.649592 
L 90.201864 -271.018844 
L 92.930053 -263.366766 
L 95.658243 -261.196245 
L 98.386432 -262.804196 
L 101.114622 -260.83486 
L 103.842811 -266.929439 
L 106.571001 -261.923074 
L 109.29919 -263.206857 
L 112.02738 -281.36844 
L 114.755569 -263.275487 
L 117.483759 -259.03294 
L 120.211948 -262.126091 
L 122.940138 -262.560872 
L 125.668327 -260.314056 
L 128.396516 -264.295203 
L 131.124706 -263.353917 
L 133.852895 -271.33117 
L 136.581085 -270.359167 
L 139.309274 -306.710701 
L 142.037464 -259.800168 
L 144.765653 -261.964666 
L 147.493843 -272.381239 
L 150.222032 -262.922904 
L 152.950222 -264.489723 
L 155.678411 -261.814468 
L 158.4066 -263.531371 
L 161.13479 -265.664951 
L 163.862979 -274.60025 
L 166.591169 -263.861979 
L 169.319358 -264.44374 
L 172.047548 -263.320459 
L 174.775737 -265.081653 
L 177.503927 -264.615893 
L 180.232116 -270.394622 
L 182.960306 -265.449635 
L 185.688495 -263.842725 
L 188.416684 -263.998946 
L 191.144874 -264.427135 
L 193.873063 -264.472028 
L 196.601253 -264.934884 
L 199.329442 -265.106034 
L 202.057632 -264.783164 
L 204.785821 -262.914963 
L 207.514011 -265.006552 
L 210.2422 -263.875177 
L 212.97039 -264.520158 
L 215.698579 -262.436298 
L 218.426769 -265.065324 
L 221.154958 -264.223097 
L 223.883147 -264.303098 
L 226.611337 -263.69405 
L 229.339526 -265.205204 
L 232.067716 -264.606851 
L 234.795905 -263.692357 
L 237.524095 -266.348894 
L 240.252284 -270.69176 
L 242.980474 -263.961649 
L 245.708663 -264.48188 
L 248.436853 -264.840969 
L 251.165042 -263.853278 
L 253.893231 -264.002273 
L 256.621421 -263.48644 
L 259.34961 -266.353017 
L 262.0778 -263.856025 
L 264.805989 -261.356674 
L 267.534179 -265.194421 
L 270.262368 -264.199751 
L 272.990558 -262.660501 
L 275.718747 -270.193383 
L 278.446937 -264.259874 
L 281.175126 -265.383058 
L 283.903316 -265.411593 
L 286.631505 -264.391133 
L 289.359694 -262.058694 
L 292.087884 -266.021745 
L 294.816073 -263.070563 
L 297.544263 -265.885364 
L 300.272452 -265.897335 
L 303.000642 -265.830452 
L 305.728831 -264.830376 
L 308.457021 -263.91585 
L 311.18521 -265.933414 
L 313.9134 -265.949526 
L 316.641589 -264.925869 
L 319.369778 -265.121105 
L 322.097968 -264.142656 
L 324.826157 -264.636059 
L 327.554347 -264.883153 
L 330.282536 -264.811423 
L 333.010726 -263.984593 
L 335.738915 -265.703117 
L 338.467105 -263.667213 
L 341.195294 -266.328818 
L 343.923484 -264.919381 
L 346.651673 -270.446809 
L 349.379862 -263.777596 
L 352.108052 -264.746353 
L 354.836241 -264.541783 
L 357.564431 -273.800238 
L 360.29262 -266.344525 
L 363.02081 -265.854396 
L 365.748999 -267.28302 
L 368.477189 -265.831427 
L 371.205378 -264.797765 
L 373.933568 -265.271146 
L 376.661757 -265.97238 
L 379.389947 -264.656271 
L 382.118136 -265.699327 
L 384.846325 -265.721982 
L 387.574515 -264.331374 
L 390.302704 -264.122344 
L 393.030894 -265.629079 
L 395.759083 -265.530816 
L 398.487273 -266.347792 
L 398.487273 -254.827807 
L 398.487273 -254.827807 
L 395.759083 -263.786744 
L 393.030894 -259.868126 
L 390.302704 -261.599894 
L 387.574515 -262.783327 
L 384.846325 -263.344071 
L 382.118136 -262.163365 
L 379.389947 -262.20798 
L 376.661757 -263.862998 
L 373.933568 -260.058044 
L 371.205378 -261.441028 
L 368.477189 -254.427402 
L 365.748999 -244.053904 
L 363.02081 -263.565731 
L 360.29262 -259.016531 
L 357.564431 -224.84495 
L 354.836241 -262.057866 
L 352.108052 -261.598106 
L 349.379862 -257.992728 
L 346.651673 -235.655688 
L 343.923484 -249.093206 
L 341.195294 -260.748368 
L 338.467105 -262.067 
L 335.738915 -260.892925 
L 333.010726 -262.165094 
L 330.282536 -262.547932 
L 327.554347 -262.373369 
L 324.826157 -260.453488 
L 322.097968 -261.307744 
L 319.369778 -256.871971 
L 316.641589 -261.470924 
L 313.9134 -262.022756 
L 311.18521 -263.777046 
L 308.457021 -259.000928 
L 305.728831 -261.838794 
L 303.000642 -260.75247 
L 300.272452 -262.559114 
L 297.544263 -258.801057 
L 294.816073 -251.346151 
L 292.087884 -258.854875 
L 289.359694 -258.546757 
L 286.631505 -252.106643 
L 283.903316 -262.875328 
L 281.175126 -263.808939 
L 278.446937 -262.086396 
L 275.718747 -235.674186 
L 272.990558 -252.538075 
L 270.262368 -262.323757 
L 267.534179 -261.745318 
L 264.805989 -260.156449 
L 262.0778 -257.626469 
L 259.34961 -246.908096 
L 256.621421 -261.047787 
L 253.893231 -249.319887 
L 251.165042 -261.695362 
L 248.436853 -262.297997 
L 245.708663 -262.180534 
L 242.980474 -262.017168 
L 240.252284 -229.776729 
L 237.524095 -249.467809 
L 234.795905 -261.725147 
L 232.067716 -259.330546 
L 229.339526 -258.950007 
L 226.611337 -259.553735 
L 223.883147 -248.613169 
L 221.154958 -250.310856 
L 218.426769 -257.351883 
L 215.698579 -246.521167 
L 212.97039 -257.545557 
L 210.2422 -258.51627 
L 207.514011 -260.084274 
L 204.785821 -259.036829 
L 202.057632 -259.108929 
L 199.329442 -262.359724 
L 196.601253 -263.37674 
L 193.873063 -257.464845 
L 191.144874 -259.816258 
L 188.416684 -255.729392 
L 185.688495 -259.222307 
L 182.960306 -256.115302 
L 180.232116 -217.972891 
L 177.503927 -257.481752 
L 174.775737 -253.529438 
L 172.047548 -259.636809 
L 169.319358 -259.676825 
L 166.591169 -262.939733 
L 163.862979 -211.798862 
L 161.13479 -250.78705 
L 158.4066 -253.188076 
L 155.678411 -247.652088 
L 152.950222 -257.010551 
L 150.222032 -253.536728 
L 147.493843 -228.98115 
L 144.765653 -256.66697 
L 142.037464 -257.816945 
L 139.309274 -103.703454 
L 136.581085 -232.177817 
L 133.852895 -225.523717 
L 131.124706 -258.773823 
L 128.396516 -233.179042 
L 125.668327 -249.646421 
L 122.940138 -248.575747 
L 120.211948 -246.355461 
L 117.483759 -247.675723 
L 114.755569 -248.1749 
L 112.02738 -170.33801 
L 109.29919 -258.013982 
L 106.571001 -243.467818 
L 103.842811 -183.806021 
L 101.114622 -248.692135 
L 98.386432 -251.51773 
L 95.658243 -215.757975 
L 92.930053 -227.924715 
L 90.201864 -164.029159 
L 87.473675 -167.961819 
L 84.745485 -163.457735 
L 82.017296 -192.126846 
L 79.289106 -219.453182 
L 76.560917 -162.060189 
L 73.832727 -140.835004 
z
" id="m7a44d23071" style="stroke:#ff4500;stroke-opacity:0.1;"/>
    </defs>
    <g clip-path="url(#pc40eb2a87c)">
     <use style="fill:#ff4500;fill-opacity:0.1;stroke:#ff4500;stroke-opacity:0.1;" x="0" xlink:href="#m7a44d23071" y="345.6"/>
    </g>
   </g>
   <g id="matplotlib.axis_1">
    <g id="xtick_1">
     <g id="line2d_1">
      <defs>
       <path d="M 0 0 
L 0 3.5 
" id="m5a256ea3fb" style="stroke:#000000;stroke-width:0.8;"/>
      </defs>
      <g>
       <use style="stroke:#000000;stroke-width:0.8;" x="71.104538" xlink:href="#m5a256ea3fb" y="307.584"/>
      </g>
     </g>
     <g id="text_1">
      <!-- 0 -->
      <g transform="translate(68.604538 321.52775)scale(0.1 -0.1)">
       <defs>
        <path d="M 231 2094 
Q 231 2819 450 3342 
Q 669 3866 1031 4122 
Q 1313 4325 1613 4325 
Q 2100 4325 2488 3828 
Q 2972 3213 2972 2159 
Q 2972 1422 2759 906 
Q 2547 391 2217 158 
Q 1888 -75 1581 -75 
Q 975 -75 572 641 
Q 231 1244 231 2094 
z
M 844 2016 
Q 844 1141 1059 588 
Q 1238 122 1591 122 
Q 1759 122 1940 273 
Q 2122 425 2216 781 
Q 2359 1319 2359 2297 
Q 2359 3022 2209 3506 
Q 2097 3866 1919 4016 
Q 1791 4119 1609 4119 
Q 1397 4119 1231 3928 
Q 1006 3669 925 3112 
Q 844 2556 844 2016 
z
" id="TimesNewRomanPSMT-30" transform="scale(0.015625)"/>
       </defs>
       <use xlink:href="#TimesNewRomanPSMT-30"/>
      </g>
     </g>
    </g>
    <g id="xtick_2">
     <g id="line2d_2">
      <g>
       <use style="stroke:#000000;stroke-width:0.8;" x="125.668327" xlink:href="#m5a256ea3fb" y="307.584"/>
      </g>
     </g>
     <g id="text_2">
      <!-- 20 -->
      <g transform="translate(120.668327 321.52775)scale(0.1 -0.1)">
       <defs>
        <path d="M 2934 816 
L 2638 0 
L 138 0 
L 138 116 
Q 1241 1122 1691 1759 
Q 2141 2397 2141 2925 
Q 2141 3328 1894 3587 
Q 1647 3847 1303 3847 
Q 991 3847 742 3664 
Q 494 3481 375 3128 
L 259 3128 
Q 338 3706 661 4015 
Q 984 4325 1469 4325 
Q 1984 4325 2329 3994 
Q 2675 3663 2675 3213 
Q 2675 2891 2525 2569 
Q 2294 2063 1775 1497 
Q 997 647 803 472 
L 1909 472 
Q 2247 472 2383 497 
Q 2519 522 2628 598 
Q 2738 675 2819 816 
L 2934 816 
z
" id="TimesNewRomanPSMT-32" transform="scale(0.015625)"/>
       </defs>
       <use xlink:href="#TimesNewRomanPSMT-32"/>
       <use x="50" xlink:href="#TimesNewRomanPSMT-30"/>
      </g>
     </g>
    </g>
    <g id="xtick_3">
     <g id="line2d_3">
      <g>
       <use style="stroke:#000000;stroke-width:0.8;" x="180.232116" xlink:href="#m5a256ea3fb" y="307.584"/>
      </g>
     </g>
     <g id="text_3">
      <!-- 40 -->
      <g transform="translate(175.232116 321.52775)scale(0.1 -0.1)">
       <defs>
        <path d="M 2978 1563 
L 2978 1119 
L 2409 1119 
L 2409 0 
L 1894 0 
L 1894 1119 
L 100 1119 
L 100 1519 
L 2066 4325 
L 2409 4325 
L 2409 1563 
L 2978 1563 
z
M 1894 1563 
L 1894 3666 
L 406 1563 
L 1894 1563 
z
" id="TimesNewRomanPSMT-34" transform="scale(0.015625)"/>
       </defs>
       <use xlink:href="#TimesNewRomanPSMT-34"/>
       <use x="50" xlink:href="#TimesNewRomanPSMT-30"/>
      </g>
     </g>
    </g>
    <g id="xtick_4">
     <g id="line2d_4">
      <g>
       <use style="stroke:#000000;stroke-width:0.8;" x="234.795905" xlink:href="#m5a256ea3fb" y="307.584"/>
      </g>
     </g>
     <g id="text_4">
      <!-- 60 -->
      <g transform="translate(229.795905 321.52775)scale(0.1 -0.1)">
       <defs>
        <path d="M 2869 4325 
L 2869 4209 
Q 2456 4169 2195 4045 
Q 1934 3922 1679 3669 
Q 1425 3416 1258 3105 
Q 1091 2794 978 2366 
Q 1428 2675 1881 2675 
Q 2316 2675 2634 2325 
Q 2953 1975 2953 1425 
Q 2953 894 2631 456 
Q 2244 -75 1606 -75 
Q 1172 -75 869 213 
Q 275 772 275 1663 
Q 275 2231 503 2743 
Q 731 3256 1154 3653 
Q 1578 4050 1965 4187 
Q 2353 4325 2688 4325 
L 2869 4325 
z
M 925 2138 
Q 869 1716 869 1456 
Q 869 1156 980 804 
Q 1091 453 1309 247 
Q 1469 100 1697 100 
Q 1969 100 2183 356 
Q 2397 613 2397 1088 
Q 2397 1622 2184 2012 
Q 1972 2403 1581 2403 
Q 1463 2403 1327 2353 
Q 1191 2303 925 2138 
z
" id="TimesNewRomanPSMT-36" transform="scale(0.015625)"/>
       </defs>
       <use xlink:href="#TimesNewRomanPSMT-36"/>
       <use x="50" xlink:href="#TimesNewRomanPSMT-30"/>
      </g>
     </g>
    </g>
    <g id="xtick_5">
     <g id="line2d_5">
      <g>
       <use style="stroke:#000000;stroke-width:0.8;" x="289.359694" xlink:href="#m5a256ea3fb" y="307.584"/>
      </g>
     </g>
     <g id="text_5">
      <!-- 80 -->
      <g transform="translate(284.359694 321.52775)scale(0.1 -0.1)">
       <defs>
        <path d="M 1228 2134 
Q 725 2547 579 2797 
Q 434 3047 434 3316 
Q 434 3728 753 4026 
Q 1072 4325 1600 4325 
Q 2113 4325 2425 4047 
Q 2738 3769 2738 3413 
Q 2738 3175 2569 2928 
Q 2400 2681 1866 2347 
Q 2416 1922 2594 1678 
Q 2831 1359 2831 1006 
Q 2831 559 2490 242 
Q 2150 -75 1597 -75 
Q 994 -75 656 303 
Q 388 606 388 966 
Q 388 1247 577 1523 
Q 766 1800 1228 2134 
z
M 1719 2469 
Q 2094 2806 2194 3001 
Q 2294 3197 2294 3444 
Q 2294 3772 2109 3958 
Q 1925 4144 1606 4144 
Q 1288 4144 1088 3959 
Q 888 3775 888 3528 
Q 888 3366 970 3203 
Q 1053 3041 1206 2894 
L 1719 2469 
z
M 1375 2016 
Q 1116 1797 991 1539 
Q 866 1281 866 981 
Q 866 578 1086 336 
Q 1306 94 1647 94 
Q 1984 94 2187 284 
Q 2391 475 2391 747 
Q 2391 972 2272 1150 
Q 2050 1481 1375 2016 
z
" id="TimesNewRomanPSMT-38" transform="scale(0.015625)"/>
       </defs>
       <use xlink:href="#TimesNewRomanPSMT-38"/>
       <use x="50" xlink:href="#TimesNewRomanPSMT-30"/>
      </g>
     </g>
    </g>
    <g id="xtick_6">
     <g id="line2d_6">
      <g>
       <use style="stroke:#000000;stroke-width:0.8;" x="343.923484" xlink:href="#m5a256ea3fb" y="307.584"/>
      </g>
     </g>
     <g id="text_6">
      <!-- 100 -->
      <g transform="translate(336.423484 321.52775)scale(0.1 -0.1)">
       <defs>
        <path d="M 750 3822 
L 1781 4325 
L 1884 4325 
L 1884 747 
Q 1884 391 1914 303 
Q 1944 216 2037 169 
Q 2131 122 2419 116 
L 2419 0 
L 825 0 
L 825 116 
Q 1125 122 1212 167 
Q 1300 213 1334 289 
Q 1369 366 1369 747 
L 1369 3034 
Q 1369 3497 1338 3628 
Q 1316 3728 1258 3775 
Q 1200 3822 1119 3822 
Q 1003 3822 797 3725 
L 750 3822 
z
" id="TimesNewRomanPSMT-31" transform="scale(0.015625)"/>
       </defs>
       <use xlink:href="#TimesNewRomanPSMT-31"/>
       <use x="50" xlink:href="#TimesNewRomanPSMT-30"/>
       <use x="100" xlink:href="#TimesNewRomanPSMT-30"/>
      </g>
     </g>
    </g>
    <g id="xtick_7">
     <g id="line2d_7">
      <g>
       <use style="stroke:#000000;stroke-width:0.8;" x="398.487273" xlink:href="#m5a256ea3fb" y="307.584"/>
      </g>
     </g>
     <g id="text_7">
      <!-- 120 -->
      <g transform="translate(390.987273 321.52775)scale(0.1 -0.1)">
       <use xlink:href="#TimesNewRomanPSMT-31"/>
       <use x="50" xlink:href="#TimesNewRomanPSMT-32"/>
       <use x="100" xlink:href="#TimesNewRomanPSMT-30"/>
      </g>
     </g>
    </g>
   </g>
   <g id="matplotlib.axis_2">
    <g id="ytick_1">
     <g id="line2d_8">
      <defs>
       <path d="M 0 0 
L -3.5 0 
" id="m6b009704d2" style="stroke:#000000;stroke-width:0.8;"/>
      </defs>
      <g>
       <use style="stroke:#000000;stroke-width:0.8;" x="57.6" xlink:href="#m6b009704d2" y="307.584"/>
      </g>
     </g>
     <g id="text_8">
      <!-- −25 -->
      <g transform="translate(34.960938 311.055875)scale(0.1 -0.1)">
       <defs>
        <path d="M 3484 2000 
L 116 2000 
L 116 2256 
L 3484 2256 
L 3484 2000 
z
" id="TimesNewRomanPSMT-2212" transform="scale(0.015625)"/>
        <path d="M 2778 4238 
L 2534 3706 
L 1259 3706 
L 981 3138 
Q 1809 3016 2294 2522 
Q 2709 2097 2709 1522 
Q 2709 1188 2573 903 
Q 2438 619 2231 419 
Q 2025 219 1772 97 
Q 1413 -75 1034 -75 
Q 653 -75 479 54 
Q 306 184 306 341 
Q 306 428 378 495 
Q 450 563 559 563 
Q 641 563 702 538 
Q 763 513 909 409 
Q 1144 247 1384 247 
Q 1750 247 2026 523 
Q 2303 800 2303 1197 
Q 2303 1581 2056 1914 
Q 1809 2247 1375 2428 
Q 1034 2569 447 2591 
L 1259 4238 
L 2778 4238 
z
" id="TimesNewRomanPSMT-35" transform="scale(0.015625)"/>
       </defs>
       <use xlink:href="#TimesNewRomanPSMT-2212"/>
       <use x="56.396484" xlink:href="#TimesNewRomanPSMT-32"/>
       <use x="106.396484" xlink:href="#TimesNewRomanPSMT-35"/>
      </g>
     </g>
    </g>
    <g id="ytick_2">
     <g id="line2d_9">
      <g>
       <use style="stroke:#000000;stroke-width:0.8;" x="57.6" xlink:href="#m6b009704d2" y="274.32"/>
      </g>
     </g>
     <g id="text_9">
      <!-- −20 -->
      <g transform="translate(34.960938 277.791875)scale(0.1 -0.1)">
       <use xlink:href="#TimesNewRomanPSMT-2212"/>
       <use x="56.396484" xlink:href="#TimesNewRomanPSMT-32"/>
       <use x="106.396484" xlink:href="#TimesNewRomanPSMT-30"/>
      </g>
     </g>
    </g>
    <g id="ytick_3">
     <g id="line2d_10">
      <g>
       <use style="stroke:#000000;stroke-width:0.8;" x="57.6" xlink:href="#m6b009704d2" y="241.056"/>
      </g>
     </g>
     <g id="text_10">
      <!-- −15 -->
      <g transform="translate(34.960938 244.527875)scale(0.1 -0.1)">
       <use xlink:href="#TimesNewRomanPSMT-2212"/>
       <use x="56.396484" xlink:href="#TimesNewRomanPSMT-31"/>
       <use x="106.396484" xlink:href="#TimesNewRomanPSMT-35"/>
      </g>
     </g>
    </g>
    <g id="ytick_4">
     <g id="line2d_11">
      <g>
       <use style="stroke:#000000;stroke-width:0.8;" x="57.6" xlink:href="#m6b009704d2" y="207.792"/>
      </g>
     </g>
     <g id="text_11">
      <!-- −10 -->
      <g transform="translate(34.960938 211.263875)scale(0.1 -0.1)">
       <use xlink:href="#TimesNewRomanPSMT-2212"/>
       <use x="56.396484" xlink:href="#TimesNewRomanPSMT-31"/>
       <use x="106.396484" xlink:href="#TimesNewRomanPSMT-30"/>
      </g>
     </g>
    </g>
    <g id="ytick_5">
     <g id="line2d_12">
      <g>
       <use style="stroke:#000000;stroke-width:0.8;" x="57.6" xlink:href="#m6b009704d2" y="174.528"/>
      </g>
     </g>
     <g id="text_12">
      <!-- −5 -->
      <g transform="translate(39.960938 177.999875)scale(0.1 -0.1)">
       <use xlink:href="#TimesNewRomanPSMT-2212"/>
       <use x="56.396484" xlink:href="#TimesNewRomanPSMT-35"/>
      </g>
     </g>
    </g>
    <g id="ytick_6">
     <g id="line2d_13">
      <g>
       <use style="stroke:#000000;stroke-width:0.8;" x="57.6" xlink:href="#m6b009704d2" y="141.264"/>
      </g>
     </g>
     <g id="text_13">
      <!-- 0 -->
      <g transform="translate(45.6 144.735875)scale(0.1 -0.1)">
       <use xlink:href="#TimesNewRomanPSMT-30"/>
      </g>
     </g>
    </g>
    <g id="ytick_7">
     <g id="line2d_14">
      <g>
       <use style="stroke:#000000;stroke-width:0.8;" x="57.6" xlink:href="#m6b009704d2" y="108"/>
      </g>
     </g>
     <g id="text_14">
      <!-- 5 -->
      <g transform="translate(45.6 111.471875)scale(0.1 -0.1)">
       <use xlink:href="#TimesNewRomanPSMT-35"/>
      </g>
     </g>
    </g>
    <g id="ytick_8">
     <g id="line2d_15">
      <g>
       <use style="stroke:#000000;stroke-width:0.8;" x="57.6" xlink:href="#m6b009704d2" y="74.736"/>
      </g>
     </g>
     <g id="text_15">
      <!-- 10 -->
      <g transform="translate(40.6 78.207875)scale(0.1 -0.1)">
       <use xlink:href="#TimesNewRomanPSMT-31"/>
       <use x="50" xlink:href="#TimesNewRomanPSMT-30"/>
      </g>
     </g>
    </g>
    <g id="ytick_9">
     <g id="line2d_16">
      <g>
       <use style="stroke:#000000;stroke-width:0.8;" x="57.6" xlink:href="#m6b009704d2" y="41.472"/>
      </g>
     </g>
     <g id="text_16">
      <!-- 15 -->
      <g transform="translate(40.6 44.943875)scale(0.1 -0.1)">
       <use xlink:href="#TimesNewRomanPSMT-31"/>
       <use x="50" xlink:href="#TimesNewRomanPSMT-35"/>
      </g>
     </g>
    </g>
   </g>
   <g id="line2d_17">
    <path clip-path="url(#pc40eb2a87c)" d="M 73.832727 167.381339 
L 76.560917 156.256279 
L 79.289106 113.516383 
L 82.017296 127.70529 
L 84.745485 161.461919 
L 87.473675 136.294294 
L 90.201864 128.075999 
L 92.930053 99.95426 
L 95.658243 107.12289 
L 98.386432 88.439037 
L 101.114622 90.836502 
L 103.842811 120.23227 
L 106.571001 92.904554 
L 109.29919 84.98958 
L 112.02738 119.746775 
L 114.755569 89.874806 
L 117.483759 92.245668 
L 120.211948 91.359224 
L 122.940138 90.031691 
L 125.668327 90.619762 
L 128.396516 96.862878 
L 131.124706 84.53613 
L 133.852895 97.172556 
L 136.581085 94.331508 
L 139.309274 140.392922 
L 142.037464 86.791443 
L 144.765653 86.284182 
L 147.493843 94.918806 
L 150.222032 87.370184 
L 152.950222 84.849863 
L 155.678411 90.866722 
L 158.4066 87.240276 
L 161.13479 87.373999 
L 163.862979 102.400444 
L 166.591169 82.199144 
L 169.319358 83.539718 
L 172.047548 84.121366 
L 174.775737 86.294455 
L 177.503927 84.551178 
L 180.232116 101.416244 
L 182.960306 84.817531 
L 185.688495 84.067484 
L 188.416684 85.735831 
L 191.144874 83.478303 
L 193.873063 84.631564 
L 196.601253 81.444188 
L 199.329442 81.867121 
L 202.057632 83.653954 
L 204.785821 84.624104 
L 207.514011 83.054587 
L 210.2422 84.404276 
L 212.97039 84.567142 
L 215.698579 91.121267 
L 218.426769 84.391397 
L 221.154958 88.333024 
L 223.883147 89.141866 
L 226.611337 83.976108 
L 229.339526 83.522395 
L 232.067716 83.631301 
L 234.795905 82.891248 
L 237.524095 87.691648 
L 240.252284 95.365755 
L 242.980474 82.610592 
L 245.708663 82.268793 
L 248.436853 82.030517 
L 251.165042 82.82568 
L 253.893231 88.93892 
L 256.621421 83.332887 
L 259.34961 88.969444 
L 262.0778 84.858753 
L 264.805989 84.843439 
L 267.534179 82.130131 
L 270.262368 82.338246 
L 272.990558 88.000712 
L 275.718747 92.666216 
L 278.446937 82.426865 
L 281.175126 81.004001 
L 283.903316 81.45654 
L 286.631505 87.351112 
L 289.359694 85.297275 
L 292.087884 83.16169 
L 294.816073 88.391643 
L 297.544263 83.25679 
L 300.272452 81.371776 
L 303.000642 82.308539 
L 305.728831 82.265415 
L 308.457021 84.141611 
L 311.18521 80.74477 
L 313.9134 81.613859 
L 316.641589 82.401603 
L 319.369778 84.603462 
L 322.097968 82.8748 
L 324.826157 83.055226 
L 327.554347 81.971739 
L 330.282536 81.920322 
L 333.010726 82.525157 
L 335.738915 82.301979 
L 338.467105 82.732893 
L 341.195294 82.061407 
L 343.923484 88.593707 
L 346.651673 92.548751 
L 349.379862 84.714838 
L 352.108052 82.42777 
L 354.836241 82.300175 
L 357.564431 96.277406 
L 360.29262 82.919472 
L 363.02081 80.889936 
L 365.748999 89.931538 
L 368.477189 85.470585 
L 371.205378 82.480603 
L 373.933568 82.935405 
L 376.661757 80.682311 
L 379.389947 82.167875 
L 382.118136 81.668654 
L 384.846325 81.066973 
L 387.574515 82.04265 
L 390.302704 82.738881 
L 393.030894 82.851398 
L 395.759083 80.94122 
L 398.487273 85.0122 
" style="fill:none;stroke:#ff4500;stroke-linecap:square;stroke-width:1.5;"/>
   </g>
   <g id="patch_3">
    <path d="M 57.6 307.584 
L 57.6 41.472 
" style="fill:none;stroke:#000000;stroke-linecap:square;stroke-linejoin:miter;stroke-width:0.8;"/>
   </g>
   <g id="patch_4">
    <path d="M 414.72 307.584 
L 414.72 41.472 
" style="fill:none;stroke:#000000;stroke-linecap:square;stroke-linejoin:miter;stroke-width:0.8;"/>
   </g>
   <g id="patch_5">
    <path d="M 57.6 307.584 
L 414.72 307.584 
" style="fill:none;stroke:#000000;stroke-linecap:square;stroke-linejoin:miter;stroke-width:0.8;"/>
   </g>
   <g id="patch_6">
    <path d="M 57.6 41.472 
L 414.72 41.472 
" style="fill:none;stroke:#000000;stroke-linecap:square;stroke-linejoin:miter;stroke-width:0.8;"/>
   </g>
   <g id="legend_1">
    <g id="patch_7">
     <path d="M 341.8325 63.611063 
L 407.72 63.611063 
Q 409.72 63.611063 409.72 61.611063 
L 409.72 48.472 
Q 409.72 46.472 407.72 46.472 
L 341.8325 46.472 
Q 339.8325 46.472 339.8325 48.472 
L 339.8325 61.611063 
Q 339.8325 63.611063 341.8325 63.611063 
z
" style="fill:#ffffff;opacity:0.8;stroke:#cccccc;stroke-linejoin:miter;"/>
    </g>
    <g id="line2d_18">
     <path d="M 343.8325 53.972 
L 363.8325 53.972 
" style="fill:none;stroke:#ff4500;stroke-linecap:square;stroke-width:1.5;"/>
    </g>
    <g id="line2d_19"/>
    <g id="text_17">
     <!-- VD3QN -->
     <g transform="translate(371.8325 57.472)scale(0.1 -0.1)">
      <defs>
       <path d="M 4544 4238 
L 4544 4122 
Q 4319 4081 4203 3978 
Q 4038 3825 3909 3509 
L 2431 -97 
L 2316 -97 
L 728 3556 
Q 606 3838 556 3900 
Q 478 3997 364 4051 
Q 250 4106 56 4122 
L 56 4238 
L 1788 4238 
L 1788 4122 
Q 1494 4094 1406 4022 
Q 1319 3950 1319 3838 
Q 1319 3681 1463 3350 
L 2541 866 
L 3541 3319 
Q 3688 3681 3688 3822 
Q 3688 3913 3597 3995 
Q 3506 4078 3291 4113 
Q 3275 4116 3238 4122 
L 3238 4238 
L 4544 4238 
z
" id="TimesNewRomanPSMT-56" transform="scale(0.015625)"/>
       <path d="M 109 0 
L 109 116 
L 269 116 
Q 538 116 650 288 
Q 719 391 719 750 
L 719 3488 
Q 719 3884 631 3984 
Q 509 4122 269 4122 
L 109 4122 
L 109 4238 
L 1834 4238 
Q 2784 4238 3279 4022 
Q 3775 3806 4076 3303 
Q 4378 2800 4378 2141 
Q 4378 1256 3841 663 
Q 3238 0 2003 0 
L 109 0 
z
M 1319 306 
Q 1716 219 1984 219 
Q 2709 219 3187 728 
Q 3666 1238 3666 2109 
Q 3666 2988 3187 3494 
Q 2709 4000 1959 4000 
Q 1678 4000 1319 3909 
L 1319 306 
z
" id="TimesNewRomanPSMT-44" transform="scale(0.015625)"/>
       <path d="M 325 3431 
Q 506 3859 782 4092 
Q 1059 4325 1472 4325 
Q 1981 4325 2253 3994 
Q 2459 3747 2459 3466 
Q 2459 3003 1878 2509 
Q 2269 2356 2469 2072 
Q 2669 1788 2669 1403 
Q 2669 853 2319 450 
Q 1863 -75 997 -75 
Q 569 -75 414 31 
Q 259 138 259 259 
Q 259 350 332 419 
Q 406 488 509 488 
Q 588 488 669 463 
Q 722 447 909 348 
Q 1097 250 1169 231 
Q 1284 197 1416 197 
Q 1734 197 1970 444 
Q 2206 691 2206 1028 
Q 2206 1275 2097 1509 
Q 2016 1684 1919 1775 
Q 1784 1900 1550 2001 
Q 1316 2103 1072 2103 
L 972 2103 
L 972 2197 
Q 1219 2228 1467 2375 
Q 1716 2522 1828 2728 
Q 1941 2934 1941 3181 
Q 1941 3503 1739 3701 
Q 1538 3900 1238 3900 
Q 753 3900 428 3381 
L 325 3431 
z
" id="TimesNewRomanPSMT-33" transform="scale(0.015625)"/>
       <path d="M 2819 -47 
Q 3138 -597 3508 -856 
Q 3878 -1116 4350 -1153 
L 4350 -1253 
Q 3919 -1238 3428 -1080 
Q 2938 -922 2498 -642 
Q 2059 -363 1741 -47 
Q 1291 134 1028 338 
Q 647 641 436 1083 
Q 225 1525 225 2128 
Q 225 3078 840 3706 
Q 1456 4334 2331 4334 
Q 3163 4334 3770 3704 
Q 4378 3075 4378 2116 
Q 4378 1338 3945 750 
Q 3513 163 2819 -47 
z
M 2294 4094 
Q 1725 4094 1378 3688 
Q 941 3178 941 2128 
Q 941 1100 1384 544 
Q 1728 116 2294 116 
Q 2881 116 3241 544 
Q 3663 1050 3663 2038 
Q 3663 2797 3431 3316 
Q 3253 3716 2958 3905 
Q 2663 4094 2294 4094 
z
" id="TimesNewRomanPSMT-51" transform="scale(0.015625)"/>
       <path d="M -84 4238 
L 1066 4238 
L 3656 1059 
L 3656 3503 
Q 3656 3894 3569 3991 
Q 3453 4122 3203 4122 
L 3056 4122 
L 3056 4238 
L 4531 4238 
L 4531 4122 
L 4381 4122 
Q 4113 4122 4000 3959 
Q 3931 3859 3931 3503 
L 3931 -69 
L 3819 -69 
L 1025 3344 
L 1025 734 
Q 1025 344 1109 247 
Q 1228 116 1475 116 
L 1625 116 
L 1625 0 
L 150 0 
L 150 116 
L 297 116 
Q 569 116 681 278 
Q 750 378 750 734 
L 750 3681 
Q 566 3897 470 3965 
Q 375 4034 191 4094 
Q 100 4122 -84 4122 
L -84 4238 
z
" id="TimesNewRomanPSMT-4e" transform="scale(0.015625)"/>
      </defs>
      <use xlink:href="#TimesNewRomanPSMT-56"/>
      <use x="72.216797" xlink:href="#TimesNewRomanPSMT-44"/>
      <use x="144.433594" xlink:href="#TimesNewRomanPSMT-33"/>
      <use x="194.433594" xlink:href="#TimesNewRomanPSMT-51"/>
      <use x="266.650391" xlink:href="#TimesNewRomanPSMT-4e"/>
     </g>
    </g>
   </g>
  </g>
 </g>
 <defs>
  <clipPath id="pc40eb2a87c">
   <rect height="266.112" width="357.12" x="57.6" y="41.472"/>
  </clipPath>
 </defs>
</svg>
